<?xml version="1.0" encoding="utf-8"?>
<!-- Generator: Adobe Illustrator 22.0.0, SVG Export Plug-In . SVG Version: 6.00 Build 0)  -->
<svg version="1.1" id="Layer_1" xmlns="http://www.w3.org/2000/svg" xmlns:xlink="http://www.w3.org/1999/xlink" x="0px" y="0px"
	 viewBox="0 0 666 300" style="enable-background:new 0 0 666 300;" xml:space="preserve">
<g>
	<g>
		<path d="M215.8,68.8c-5-16.9-17.3-31.8-35.5-34c-0.4-0.3-0.8-0.3-1.4-0.1c-0.2,0-0.3,0-0.5,0c-0.9-0.1-1.4,0.4-1.6,1
			c-13.2,5.9-24.8,15.7-29.7,29.7c-0.6,1.9-1.1,3.8-1.5,5.7c1.1-0.8,2.6-1.2,4-1.1c3.3-14.8,16.3-25.8,29.9-31.5
			c19.2,1.9,31.1,19.9,34.3,37.7c4.3,24.4-18.4,35.7-39.6,31.8c-8.7-1.6-15.6-6.1-20.1-12.5c-3.7-3.4-5.8-8.1-7.6-12.7
			c-0.3-0.7-0.3-1.4-0.2-2.1c-0.4-0.4-0.8-0.9-1.2-1.3c0.4,8.9,3.8,17.7,10.2,23.8c11.1,10.7,31.5,12.2,45.1,6.1
			C217,101.9,220.6,85.1,215.8,68.8z"/>
	</g>
	<g>
		<path d="M186.5,72.5c2.4,0,2.4-3.7,0-3.7C184,68.7,184,72.5,186.5,72.5L186.5,72.5z"/>
	</g>
	<g>
		<path d="M201.1,71.5c2.4,0,2.4-3.7,0-3.7C198.7,67.8,198.7,71.5,201.1,71.5L201.1,71.5z"/>
	</g>
	<g>
		<path d="M190.9,119.5c2.7,16.8,3.3,33.8,1.9,50.7c-0.2,2.4,3.5,2.4,3.7,0c1.5-17.3,0.8-34.6-2-51.7
			C194.1,116.1,190.5,117.1,190.9,119.5L190.9,119.5z"/>
	</g>
	<g>
		<path d="M185.5,207.4c-2.8,0.3-5.5,0.9-8.1,2.1c-2.2,1-0.3,4.2,1.9,3.2c2-0.9,4.1-1.4,6.2-1.6
			C187.9,210.9,187.9,207.2,185.5,207.4L185.5,207.4z"/>
	</g>
	<g>
		<path d="M189.3,212.1c-0.9,2.5-2.1,4.9-3.6,7.2c-1.3,2,1.9,3.9,3.2,1.9c1.6-2.5,2.9-5.2,4-8C193.7,210.8,190.1,209.8,189.3,212.1
			L189.3,212.1z"/>
	</g>
	<g>
		<path d="M177.5,216c2.4,0,2.4-3.7,0-3.7C175.1,212.2,175.1,216,177.5,216L177.5,216z"/>
	</g>
	<g>
		<path d="M201.1,219.7c2.4,0,2.4-3.7,0-3.7C198.7,216,198.7,219.7,201.1,219.7L201.1,219.7z"/>
	</g>
	<g>
		<path d="M187.4,225.4c2.4,0,2.4-3.7,0-3.7C185,221.7,185,225.4,187.4,225.4L187.4,225.4z"/>
	</g>
	<g>
		<path d="M257,134.2c-29,17.3-59.4,32.1-86.9,51.9c-0.5,0.4-1,0.9-0.9,1.6c3.8,29,7.3,58.4,3,87.6c-0.3,2.4,3.3,3.4,3.6,1
			c2.3-15.7,2.6-31.5,1.6-47.3c-0.5-7.9-1.3-15.9-2.2-23.8c-0.5-4.3-1.3-8.6-1.6-12.9c-0.3-4.8,2.1-5.7,5.9-8.2
			c25.4-17.3,53.1-30.9,79.5-46.7C260.9,136.2,259,133,257,134.2L257,134.2z"/>
	</g>
	<g>
		<g>
			<path d="M256.5,197c-0.5-10.3-0.5-20.5,0-30.8c0.2-4.7,0.6-9.5,1.1-14.2c0.6-5.6,0.4-12.5,3.4-17.3c2.8-4.5,8.4-7.6,12.7-10.6
				c3.7-2.6,7.4-5.1,11.2-7.4c8.3-5.2,16.8-9.8,25.6-14c-0.9-0.5-1.9-1.1-2.8-1.6c1.4,11.2,2.1,22.4,2,33.7c0,5.8,0.4,12.4-1.1,18.1
				c-1.3,5.2-5.2,8.7-9.5,11.5c-7.7,4.9-15.8,9-23.4,14.1c-7.9,5.4-15.3,11.3-22.4,17.6c-1.8,1.6,0.9,4.2,2.6,2.6
				c8.4-7.6,17.4-14.5,27-20.6c7.8-4.9,17.2-8.5,23.8-15.1c6.7-6.6,6.4-15.8,6.5-24.6c0.3-12.5-0.4-24.9-1.9-37.3
				c-0.2-1.4-1.4-2.3-2.8-1.6c-10.1,4.9-19.9,10.3-29.4,16.4c-6.9,4.5-17.1,9.6-21.7,16.7c-2.3,3.6-2.5,8.2-3,12.4
				c-0.7,5.5-1.2,11-1.6,16.5c-0.8,11.8-0.9,23.7-0.3,35.5C252.9,199.4,256.6,199.4,256.5,197L256.5,197z"/>
		</g>
		<g>
			<path d="M285.9,139.9c-6.2-0.7-11.5,9.7-5.6,13.4c2.7,1.7,6,0.9,8.1-1.4c2.5-2.8,2.5-6.8,1.5-10.2c-0.7-2.3-4.3-1.3-3.6,1
				c0.5,1.8,1,4,0,5.8c-0.7,1.2-2,2.4-3.5,1.9c-2-0.7-1.3-2.7-0.6-4.1c0.8-1.5,1.9-2.9,3.7-2.7C288.3,143.9,288.2,140.2,285.9,139.9
				L285.9,139.9z"/>
		</g>
		<g>
			<path d="M283.6,154.5c0.9,7.5,1.5,15,1.8,22.6c0.2,5.2-1.7,8.1-5.9,11c-3.1,2.1-6.2,4.2-9.3,6.3c-2,1.3-0.1,4.6,1.9,3.2
				c4-2.7,8-5.4,12.1-8.1c2.7-1.8,4.6-2.6,5.1-5.9c1.2-9.1-0.8-20-1.9-29C287.1,152.2,283.4,152.1,283.6,154.5L283.6,154.5z"/>
		</g>
	</g>
	<g>
		<path d="M287,187.7c4.1-2.4,8.1-4.8,12.2-7.2c2.1-1.2,0.2-4.5-1.9-3.2c-4.1,2.4-8.1,4.8-12.2,7.2C283.1,185.7,285,188.9,287,187.7
			L287,187.7z"/>
	</g>
	<g>
		<path d="M242.9,292c0.1-20.1,1-41.1,5.2-60.7c2.2-10.4,8.8-14.4,17.3-19.6c8.6-5.3,17.3-10.6,26-15.8
			c16.8-10.1,33.8-19.8,50.4-30.3c4.9-3.1,9.9-7,11.6-12.9c1.9-6.6-1.3-12.8-5.3-17.9c-1.5-1.9-4.1,0.8-2.6,2.6
			c3.9,5,6.5,11.3,2.9,17.3c-2.3,3.8-6.3,6.3-10,8.5c-7.6,4.6-15.2,9.2-22.8,13.7c-16.3,9.8-32.7,19.6-48.9,29.6
			c-5.8,3.6-12.6,6.8-17.1,12.1c-4.2,5-5.2,11.7-6.2,18c-2.7,18.3-4.1,36.8-4.3,55.4C239.2,294.4,242.9,294.4,242.9,292L242.9,292z"
			/>
	</g>
	<g>
		<path d="M347.1,236.8c-0.3,3.1-0.7,6.2-1,9.3c-0.3,2.4,3.5,2.4,3.7,0c0.3-2.7,0.6-5.3,0.9-8C349.5,237.4,348.4,236.8,347.1,236.8z
			"/>
		<path d="M354.6,151.8c0-2.4-3.8-2.4-3.7,0c0.4,21.1-0.2,42.2-1.8,63.3c1.9-0.3,3-1.4,3.9-2.7C354.4,192.2,354.9,172,354.6,151.8z"
			/>
	</g>
	<g>
		<path d="M174.3,184c-14.9,14.1,12.6,29,22.5,33.7c18.1,8.5,38.8,10.9,57.2,1.8c2.2-1.1,0.3-4.3-1.9-3.2
			c-14.5,7.1-30.9,6.6-45.8,1.3c-8.5-3-42.8-18.1-29.3-30.9C178.7,185,176.1,182.4,174.3,184L174.3,184z"/>
	</g>
	<g>
		<path d="M305,187.2c-0.4,9.3-1.2,18.6-2.6,27.8c-0.3,2.4,3.3,3.4,3.6,1c1.4-9.6,2.3-19.1,2.7-28.8
			C308.9,184.8,305.1,184.8,305,187.2L305,187.2z"/>
	</g>
	<g>
		<path d="M191,118.6c-2.2,5-4.4,10.3-3.8,15.9c0.6,5.6,3.6,10.5,7,14.9c7.5,9.8,18,16.7,28.2,23.4c2,1.3,3.9-1.9,1.9-3.2
			c-8-5.3-16-10.6-22.7-17.4c-3.3-3.4-6.5-7.2-8.7-11.5c-3.4-7-1.6-13.3,1.3-20.2C195.1,118.3,191.9,116.4,191,118.6L191,118.6z"/>
	</g>
	<g>
		<path d="M194.3,121.7c8.8,2.9,17.1,10.3,23.9,16.3c8.1,7.2,13.7,15.7,17.9,25.7c0.9,2.2,4.5,1.2,3.6-1
			c-4.4-10.6-10.2-19.7-18.8-27.4c-7.4-6.5-16.1-14.1-25.5-17.3C193,117.4,192,121,194.3,121.7L194.3,121.7z"/>
	</g>
	<g>
		<path d="M195,118.9c0.1-3.2-0.3-6.4-0.9-9.5c-0.5-2.4-4.1-1.4-3.6,1c0.6,2.8,0.9,5.7,0.8,8.6C191.2,121.3,195,121.3,195,118.9
			L195,118.9z"/>
	</g>
	<g>
		<path d="M257.1,151.7c-2.8-3.2-7.3-5.5-11.3-2.9c-2,1.3-0.1,4.5,1.9,3.2c2.5-1.6,5.1,0.4,6.7,2.3
			C256.1,156.2,258.7,153.5,257.1,151.7L257.1,151.7z"/>
	</g>
	<g>
		<path d="M245.9,149.4c-8.4,7.5-19.1,11.4-28.7,17.1c-5.9,3.5-9.2,7.9-4.6,14.2c12.2,16.7,30.3-2,42.3-9.1c2.1-1.2,0.2-4.5-1.9-3.2
			c-7.4,4.4-30.8,26-37.4,10c-3.3-8,11.6-13,17.1-15.9c5.7-3,11.1-6.2,15.9-10.5C250.4,150.4,247.7,147.7,245.9,149.4L245.9,149.4z"
			/>
	</g>
	<g>
		<path d="M209.4,184.7c-2.2-3-7.6-7.9-11.7-5.6c-4,2.2-2.2,10.4-0.1,13.4c2.2,3.1,7.9,7.8,12,5c3.8-2.6,1-9.7-0.7-12.7
			c-1.2-2.1-4.4-0.2-3.2,1.9c0.9,1.5,2.6,5.1,1.9,7c-1,2.7-6-2-7-3.4c-0.8-1.2-1.1-2.5-1.2-3.9c0-0.5-0.3-2.8,0.1-3.3
			c1.7-1.9,5.8,2.4,6.7,3.6C207.6,188.5,210.9,186.6,209.4,184.7L209.4,184.7z"/>
	</g>
	<g>
		<path d="M208.5,198.2c9.4,1.4,19.3-0.4,28.5,2c8.4,2.2,13,9,22.1,9.1c4,0,7.2-0.7,11.1,1.1c1.7,0.8,3.1,2.1,4.8,3
			c2.7,1.5,5.5,2.2,8.6,2.3c8.5,0.5,18.6-0.2,26.6-3.4c6-2.5,11.6-6.9,14.2-13.1c1.3-3.2,1.3-6.3,1.5-9.7c0.2-3.1,0.2-6,2.5-8.5
			c1.6-1.7,3.9-2.7,5.7-4.1c5.3-4,6-11,6.1-17.3c0.1-4.2-1.7-7-2.5-11c-0.7-3.4,1.8-6.3-0.3-9.2c-1.4-1.9-4.6-0.1-3.2,1.9
			c0.8,1.1-0.6,5.8-0.3,7.5c0.9,4.3,2.8,7.2,2.6,11.9c-0.2,5.5-0.9,10.5-5.6,14c-2.2,1.6-4.5,2.8-6.1,5c-3.7,5-1.7,11.2-3.3,16.8
			c-2.7,9.1-12.4,13.4-20.9,14.8c-4.2,0.7-8.5,0.8-12.7,0.9c-5.6,0.1-9.3-1-14.1-3.8c-7-4.2-14.5-0.5-21.6-3.8
			c-2.9-1.4-5.1-3.9-8-5.4c-2.9-1.5-6-2.4-9.2-2.9c-8.5-1.4-17.1-0.1-25.5-1.4C207.1,194.3,206.1,197.9,208.5,198.2L208.5,198.2z"/>
	</g>
	<g>
		<path d="M264.7,192.3c4.8,3.6,10.1,5.6,16,6.5c5.8,0.9,13.1-0.5,18.4,1.9c4.1,1.9,6.9,3.8,11.6,2.7c3.6-0.8,5.8-2.8,7-6.2
			c2.3-6.6,5.4-11.7,9.8-17.1c2.9-3.6,6.6-7.4,8.1-11.9c1.6-4.8-0.2-8.9-1.3-13.6c-1.3-5.5,2.2-8.7-0.3-14c-1-2.2-4.2-0.3-3.2,1.9
			c1.5,3.1-1.1,7.5-0.6,11.1c0.9,5.6,3.7,9.6,0.9,15.3c-3.8,7.5-10.9,13-14.6,20.7c-2.2,4.5-2.7,11-9.3,10.5
			c-3.9-0.3-7.1-3.5-11-4.1c-3.9-0.6-8.1,0-12-0.4c-6.4-0.6-12.2-2.5-17.5-6.4C264.6,187.7,262.8,190.9,264.7,192.3L264.7,192.3z"/>
	</g>
	<g>
		<path d="M244.1,179.7c2.6-0.7,5.3-0.5,7.8,0.6c2.2,1,4.1-2.3,1.9-3.2c-3.5-1.5-7-1.9-10.7-1C240.7,176.7,241.7,180.3,244.1,179.7
			L244.1,179.7z"/>
	</g>
	<g>
		<path d="M299.5,155.9c1.3,5.1,2.7,10.2,4.4,15.2c1.1,3.4,2,8,4.4,10.8c1.6,2,3.7,2.8,6.2,3.1c2.7,0.4,5.3,0,8,0.5
			c2,0.4,4,1.4,6,1.7c5.8,0.9,9.2-2.9,10-8.4c0.5-3.7,0-7.6-1.3-11c-1.8-4.7-5.7-8.3-6.3-13.5c-0.3-2.4-4-2.4-3.7,0
			c0.5,4.5,2.7,7.5,4.8,11.4c1.8,3.3,3.1,6.8,3,10.6c0,1.3-0.1,4.4-1.2,5.4c-2,2-6.8,1.2-9.2,0.6c-2.4-0.6-4.8-0.5-7.2-0.9
			c-2.7-0.4-5.7-1.5-7.2-3.7c-0.8-1.2-1.2-3-1.6-4.3c-2.1-6.1-3.9-12.2-5.4-18.5C302.5,152.5,298.9,153.5,299.5,155.9L299.5,155.9z"
			/>
	</g>
	<g>
		<path d="M301.5,152.7c-0.8,0.2-1.6,0.4-2.4,0.6c-1.7,0.5-1.8,3.2,0,3.6c0.9,0.2,1.7,0.1,2.5-0.4c0.9-0.5,1.2-1.7,0.7-2.6
			c-0.5-0.9-1.7-1.2-2.6-0.7c0.1,0,0.2,0,0.3,0c0,1.2,0,2.4,0,3.6c0.8-0.2,1.6-0.4,2.4-0.6c1-0.3,1.6-1.3,1.3-2.3
			C303.6,153,302.5,152.4,301.5,152.7L301.5,152.7z"/>
	</g>
	<g>
		<path d="M331.3,166.1c6.2-2.8,12.2-6.1,17.8-9.9c2-1.3,0.1-4.6-1.9-3.2c-5.7,3.8-11.6,7.1-17.8,9.9
			C327.2,163.9,329.1,167.1,331.3,166.1L331.3,166.1z"/>
	</g>
	<g>
		<path d="M312,110.9c3.5,0.8,7.4,1.8,10,4.5c3.6,3.6,2.7,8.6,2.3,13.2c-0.8,10.3-1.6,20.6-2.1,30.9c-0.1,2.4,3.6,2.4,3.7,0
			c0.4-7.1,0.9-14.3,1.4-21.4c0.4-5.8,1.8-12.2,0.9-18c-1.2-7.9-8.3-11.2-15.3-12.8C310.7,106.8,309.7,110.4,312,110.9L312,110.9z"
			/>
	</g>
	<g>
		<path d="M347.9,155.4c-0.6-19.1-2.9-38.2-1.8-57.3c0-0.6-0.4-1.3-0.9-1.6C333.7,89.9,321,87,308.5,83c-5.7-1.9-7.8-1.7-13.1,1.6
			c-5,3.2-9.1,7.5-14.4,10.2c-1.2,0.6-1.2,2.6,0,3.2c8.4,4,7.3-5.8,0.4-3.4c-1.4,0.5-2,2.6-0.4,3.4c6.1,3.2,12.5,5.6,18.9,8.1
			c2.2,0.9,3.2-2.7,1-3.6c-6.1-2.4-12.2-4.6-18-7.7c-0.1,1.1-0.3,2.3-0.4,3.4c0.1-1.1,0.3-2.3,0.4-3.4c0,1.1,0,2.2,0,3.2
			c7.9-4,14.1-13.8,23.6-11.8c9.7,2,20.3,5.6,29.4,9.6c1.3,0.6,4.7,1.5,5.6,2.7c1.6,2.1,0.6,6,0.5,8.5c-0.1,5.4,0.1,10.8,0.4,16.1
			c0.5,10.7,1.4,21.4,1.7,32.2C344.2,157.8,347.9,157.8,347.9,155.4L347.9,155.4z"/>
	</g>
	<g>
		<path d="M280.8,98.2c0.8,5.2,1.4,10.4,1.9,15.6c0.2,2.4,3.9,2.4,3.7,0c-0.5-5.6-1.1-11.1-2-16.6C284.1,94.8,280.5,95.8,280.8,98.2
			L280.8,98.2z"/>
	</g>
	<g>
		<path d="M329.9,162.5c-0.8,0.3-1.7,0.5-2.5,0.7c-0.3,0.1-0.9,0.1-1.2,0.3c-0.6,0-0.6,0.1-0.1,0.4c0.4,0.5,0.4,0.4,0.2-0.1
			c0-0.7-0.4-1.5-0.4-2.3c-0.1-0.9,0-1.9,0.1-2.8c0.1-1-1-1.9-1.9-1.9c-1.1,0-1.7,0.9-1.9,1.9c-0.3,2.3-0.3,5.8,1.2,7.7
			c1.7,2,5.5,0.4,7.5-0.3C333.1,165.3,332.1,161.7,329.9,162.5L329.9,162.5z"/>
	</g>
	<g>
		<path d="M325,162.9c-4.8-1.5-8.3-5.4-13.2-6.9c-2.3-0.7-3.3,2.9-1,3.6c4.8,1.5,8.4,5.4,13.2,6.9
			C326.3,167.2,327.3,163.6,325,162.9L325,162.9z"/>
	</g>
	<g>
		<path d="M341.4,97.9c-6.2,4.9-12.3,10.1-19.5,13.5c-2.2,1-0.3,4.2,1.9,3.2c7.5-3.5,13.8-9,20.3-14C345.9,99,343.2,96.4,341.4,97.9
			L341.4,97.9z"/>
	</g>
	<g>
		<path d="M285.1,185.3c-3,4.2-6.2,8.3-9.5,12.3c-1.5,1.8,1.1,4.5,2.6,2.6c3.5-4.2,6.9-8.6,10.1-13.1
			C289.7,185.3,286.5,183.4,285.1,185.3L285.1,185.3z"/>
	</g>
	<g>
		<path d="M286.9,188.4c4.2-0.3,8.4-0.9,12.5-1.8c2.4-0.5,1.4-4.1-1-3.6c-3.8,0.8-7.7,1.3-11.5,1.7
			C284.5,184.9,284.5,188.6,286.9,188.4L286.9,188.4z"/>
	</g>
	<g>
		<path d="M179.5,37.2c-11.9-12.7-32-4.9-41.3,6.8c-5.6,7-8.3,15.8-9.1,24.6c-0.7,8.5-0.5,20.7,3.9,28.3c1.1,1.8,3.9,0.2,2.8-1.7
			c-3.8-6.5-3.9-16.5-3.7-23.9c0.3-7.7,2.1-15.6,6.3-22.2c7.5-11.8,27-22.1,38.7-9.6C178.7,41.1,181,38.8,179.5,37.2L179.5,37.2z"/>
	</g>
	<g>
		<path d="M173.5,40.8c-9.2-7.3-22.4-7.6-29.7,2.5c-4.1,5.7-6.4,13-8.7,19.6c-2.9,8.2-5.2,16.5-7.2,25c-0.5,2,2.7,2.9,3.2,0.9
			c2.8-11.7,6.2-23.2,10.7-34.3c1.9-4.8,4.3-10.1,8.7-13.2c6.1-4.4,15.1-2.4,20.7,2C172.8,44.4,175.1,42.1,173.5,40.8L173.5,40.8z"
			/>
	</g>
	<g>
		<path d="M164.3,45c-6.1-2-13-4.1-19.3-1.6c-5.9,2.4-9.1,8.5-11.7,13.9c-6.8,14-10.4,29.3-10.8,44.9c-0.1,2.1,3.2,2.1,3.3,0
			c0.3-12.6,2.7-25,7.4-36.7c2.2-5.5,4.9-12.4,9.2-16.6c5.8-5.6,14.3-3,21-0.8C165.4,48.8,166.3,45.6,164.3,45L164.3,45z"/>
	</g>
	<g>
		<path d="M153.1,53.9c-11.2-1.3-17,11-19,20.2c-2,9.5-4.5,22.9,1.8,31.2c1.3,1.7,4.1,0,2.8-1.7c-5.2-6.8-3.3-17.3-2.1-25.3
			c1.3-8.5,5.3-22.5,16.4-21.2C155.2,57.4,155.2,54.1,153.1,53.9L153.1,53.9z"/>
	</g>
	<g>
		<path d="M146.4,88.3c-0.8,7.7-1.4,15.4-1.6,23.1c-0.1,2.1,3.2,2.1,3.3,0c0.3-7.7,0.8-15.4,1.6-23.1
			C149.9,86.2,146.6,86.2,146.4,88.3L146.4,88.3z"/>
	</g>
	<g>
		<path d="M150.4,62.8c-0.4,2-0.8,3.9-1.1,5.9c-0.4,2.1,2.8,2.9,3.2,0.9c0.4-2,0.7-3.9,1.1-5.9C153.9,61.6,150.8,60.7,150.4,62.8
			L150.4,62.8z"/>
	</g>
	<g>
		<path d="M148.1,91c-1.1,7.9-2.8,15.7-5,23.3c-0.6,2,2.6,2.9,3.2,0.9c2.2-7.7,3.9-15.4,5-23.3C151.5,89.8,148.4,88.9,148.1,91
			L148.1,91z"/>
	</g>
	<g>
		<path d="M152.9,97c0.4,9.1,0,18.1-1,27.1c-0.2,2.1,3,2.1,3.3,0c1-9,1.4-18,1-27.1C156.1,94.9,152.9,94.9,152.9,97L152.9,97z"/>
	</g>
	<g>
		<path d="M146,87.4c-1.2,14.2,0.2,28.4-0.8,42.6c-0.1,2.1,3.1,2.1,3.3,0c1-14.2-0.4-28.4,0.8-42.6C149.4,85.3,146.2,85.3,146,87.4
			L146,87.4z"/>
	</g>
	<g>
		<path d="M132.2,77.4c3.6,16.5,5.9,33.2,6.8,50.1c0.1,2.1,3.4,2.1,3.3,0c-0.9-17.2-3.2-34.2-6.9-51
			C134.9,74.4,131.7,75.3,132.2,77.4L132.2,77.4z"/>
	</g>
	<g>
		<path d="M156.9,106.9c0.2,8.3,0.5,16.6,0.7,24.8c0.1,2.1,3.3,2.1,3.3,0c-0.2-8.3-0.5-16.6-0.7-24.8
			C160.1,104.8,156.8,104.8,156.9,106.9L156.9,106.9z"/>
	</g>
	<g>
		<path d="M161.1,108.9c0.7,7.1,0.9,14.3,0.4,21.4c-0.1,2.1,3.1,2.1,3.3,0c0.5-7.2,0.3-14.3-0.4-21.4
			C164.2,106.8,160.9,106.8,161.1,108.9L161.1,108.9z"/>
	</g>
	<g>
		<path d="M166,110.8c0.6,5.7,0.7,11.3,0.4,17c-0.1,2.1,3.2,2.1,3.3,0c0.3-5.7,0.2-11.3-0.4-17C169.1,108.8,165.8,108.8,166,110.8
			L166,110.8z"/>
	</g>
	<g>
		<path d="M148.5,61.2c-8.9-3.2-14.5,11.3-16.1,17.7c-1.5,5.9-1.7,12-1.6,18c0.1,5-0.6,11.1,2.8,15.2c1.4,1.6,3.7-0.7,2.3-2.3
			c-2.6-3.1-1.8-9.1-1.9-12.9c-0.1-4,0-8.1,0.5-12.1c0.7-4.9,5-23.3,13-20.5C149.7,65.1,150.5,61.9,148.5,61.2L148.5,61.2z"/>
	</g>
	<g>
		<path d="M161.6,59.3c-3-5.2-9.1-7.1-14.7-5c-6.9,2.6-10.4,9.3-12.6,15.8c-0.7,2,2.5,2.9,3.2,0.9c1.6-4.6,3.6-9.3,7.7-12.1
			c4.5-3.1,10.6-3.1,13.6,2.1C159.8,62.8,162.7,61.1,161.6,59.3L161.6,59.3z"/>
	</g>
	<g>
		<path d="M156,61c-8.4-5.1-17.7,3.2-20.2,11c-0.6,2,2.5,2.9,3.2,0.9c1.8-5.8,8.9-13,15.4-9.1C156.2,64.9,157.8,62.1,156,61L156,61z
			"/>
	</g>
	<g>
		<path d="M153.4,61.4c-2.8-1.7-6.3-1.6-9,0.2c-3,1.9-4.7,5.3-5.8,8.5c-0.7,2,2.5,2.9,3.2,0.9c1.3-4,5-9.8,10-6.8
			C153.5,65.3,155.1,62.5,153.4,61.4L153.4,61.4z"/>
	</g>
	<g>
		<path d="M163.4,54.5c-7.7-1.4-15.6-2.4-22.1,2.8c-1.6,1.3,0.7,3.6,2.3,2.3c5.5-4.4,12.6-3.2,18.9-2
			C164.6,58,165.5,54.9,163.4,54.5L163.4,54.5z"/>
	</g>
	<g>
		<path d="M161.9,49.9c-7.4-1.4-14.9,2.1-18.3,8.9c-0.9,1.9,1.9,3.5,2.8,1.7c2.7-5.4,8.6-8.5,14.6-7.4
			C163.1,53.5,164,50.3,161.9,49.9L161.9,49.9z"/>
	</g>
	<g>
		<path d="M162.9,44.1c-4.3-1-13.6-2.7-14.4,3.7c-0.3,2.1,3,2.1,3.3,0c0.4-2.8,8.9-0.9,10.3-0.6C164.1,47.8,165,44.6,162.9,44.1
			L162.9,44.1z"/>
	</g>
	<g>
		<path d="M168.2,46.9c-7.6-5-17.1-5.2-24.9-0.7c-1.8,1-0.2,3.9,1.7,2.8c6.9-4,15-3.7,21.6,0.7C168.3,50.9,170,48.1,168.2,46.9
			L168.2,46.9z"/>
	</g>
	<g>
		<path d="M172.2,41.8c-8.5-1.9-23.3-5.2-30.2,1.9c-1.5,1.5,0.8,3.8,2.3,2.3c5.8-5.9,20.1-2.6,27-1
			C173.4,45.4,174.3,42.3,172.2,41.8L172.2,41.8z"/>
	</g>
	<g>
		<path d="M178.6,36.9c-5.4-1.2-24.4-3.7-23.2,6.5c0.2,2.1,3.5,2.1,3.3,0c-0.8-6.6,15.9-4,19-3.4C179.8,40.5,180.7,37.4,178.6,36.9
			L178.6,36.9z"/>
	</g>
	<g>
		<path d="M179.6,39.8c-3.6-1.4-7.3-2.7-11-3.4c-2.4-0.5-4.6-0.4-6.5,1.3c-1.6,1.4,0.7,3.7,2.3,2.3c1.8-1.5,5.7,0.1,7.5,0.6
			c2.3,0.7,4.6,1.5,6.9,2.3C180.7,43.8,181.6,40.6,179.6,39.8L179.6,39.8z"/>
	</g>
	<g>
		<path d="M184.4,37.6c-2.4-1.5-5.3-2.9-8.2-3.1c-2.5-0.2-4.4,1.5-4,4c0.3,2.1,3.5,1.2,3.2-0.9c0,0.1,3.3,0.8,3.8,1
			c1.3,0.5,2.5,1.1,3.6,1.8C184.5,41.5,186.2,38.7,184.4,37.6L184.4,37.6z"/>
	</g>
	<g>
		<path d="M187.6,42.5c-0.9-3.1-2.3-6.1-4.1-8.8c-1.2-1.7-4-0.1-2.8,1.7c1.7,2.5,3,5.1,3.8,8C185.1,45.4,188.2,44.6,187.6,42.5
			L187.6,42.5z"/>
	</g>
	<g>
		<path d="M186.1,43.8c-1.9-2.3-3.4-4.9-4.5-7.6c-0.8-1.9-3.7-0.3-2.8,1.7c1.3,3,3,5.7,5.1,8.3C185.1,47.8,187.5,45.5,186.1,43.8
			L186.1,43.8z"/>
	</g>
	<g>
		<path d="M189.1,43.3c-2.4-4.6-5.1-9.3-10-11.6c-4.4-2.1-9.8-2.1-14.6-1.1c-10.7,2.3-18.6,10.7-21.2,21.2c-0.5,2,2.7,2.9,3.2,0.9
			c2.1-8.8,8.3-15.9,17.1-18.5c4.5-1.3,9.7-1.5,14,0.5c4.3,2.1,6.5,6.2,8.7,10.2C187.3,46.8,190.1,45.1,189.1,43.3L189.1,43.3z"/>
	</g>
	<g>
		<path d="M184.2,36.5c-3.4-10.9-17-9-25.6-6.4c-6.3,1.9-12.6,4.7-18.1,8.4c-3.6,2.4-6.7,5.1-7,9.7c-0.1,2.1,3.2,2.1,3.3,0
			c0.4-7.5,15.2-12.4,20.8-14.3c6.7-2.3,20.5-6,23.4,3.5C181.7,39.4,184.8,38.5,184.2,36.5L184.2,36.5z"/>
	</g>
	<g>
		<path d="M199.5,44.3c-9.8-7-25.1-9.5-36.9-8.7c-11,0.7-19.4,7.4-22.7,18.1c-0.6,2,2.5,2.9,3.2,0.9c3.6-11.8,13.3-16.1,24.8-15.7
			c9.8,0.4,21.8,2.5,29.9,8.3C199.5,48.3,201.2,45.5,199.5,44.3L199.5,44.3z"/>
	</g>
	<g>
		<path d="M199.9,44.4c-2.7-4.4-5.5-8.4-10.5-10.3c-5.6-2.2-12.4-2.6-18.3-2.8c-10.2-0.3-18.6,3.6-22.6,13.4
			c-0.8,1.9,2.4,2.8,3.2,0.9c3.8-9.3,12.3-11.4,21.6-10.9c4.5,0.3,9.2,0.7,13.5,2c5.1,1.5,7.7,5,10.4,9.4
			C198.2,47.8,201,46.2,199.9,44.4L199.9,44.4z"/>
	</g>
	<g>
		<path d="M179.5,43.8c-7.5-10.1-23.5-4.6-30.4,3.3c-1.4,1.6,0.9,3.9,2.3,2.3c5.2-6,19-12.3,25.3-4
			C177.9,47.1,180.8,45.5,179.5,43.8L179.5,43.8z"/>
	</g>
	<g>
		<path d="M171.1,43.9c-3.7,0.9-7.9-0.9-11.7-1.2c-3.5-0.3-6.8,0-9.9,1.7c-1.8,1-0.2,3.9,1.7,2.8c6.8-3.9,13.9,1.5,20.8-0.2
			C174,46.6,173.1,43.4,171.1,43.9L171.1,43.9z"/>
	</g>
	<g>
		<path d="M183.9,47.4c2.1,0,2.1-3.3,0-3.3C181.8,44.2,181.8,47.4,183.9,47.4L183.9,47.4z"/>
	</g>
	<g>
		<path d="M150.3,94.2c0.1,2.2,0.3,4.5,0.4,6.7c0.1,2.1,3.4,2.1,3.3,0c-0.1-2.2-0.3-4.5-0.4-6.7C153.5,92.2,150.2,92.1,150.3,94.2
			L150.3,94.2z"/>
	</g>
	<g>
		<path d="M177.6,48.2c-12,2-19.6,11.3-24.9,21.6c-1,1.9,1.9,3.5,2.8,1.7c4.9-9.6,11.7-18.3,22.9-20.1
			C180.5,51,179.7,47.8,177.6,48.2L177.6,48.2z"/>
	</g>
	<g>
		<path d="M141.2,76.9c-1.9,10.6-3,21.3-3.5,32.1c-0.1,2.1,3.2,2.1,3.3,0c0.4-10.5,1.5-20.9,3.4-31.2
			C144.7,75.7,141.6,74.8,141.2,76.9L141.2,76.9z"/>
	</g>
	<g>
		<path d="M144.5,64c-1,2.3-1.6,4.6-2.1,7c-0.4,2.1,2.7,2.9,3.2,0.9c0.4-2.1,0.9-4.3,1.8-6.2C148.2,63.8,145.4,62.1,144.5,64
			L144.5,64z"/>
	</g>
	<g>
		<path d="M139.8,67.5c-0.7,9.6-0.9,19.1-0.9,28.7c0,3.5-2,15.7,3.1,16.5c2.1,0.3,2.9-2.8,0.9-3.2c-1.7-0.3-0.7-19.5-0.7-21.5
			c0.1-6.8,0.4-13.7,0.9-20.5C143.2,65.4,140,65.4,139.8,67.5L139.8,67.5z"/>
	</g>
	<g>
		<path d="M138,70.1c-1.6,12.9-1.9,25.9-0.6,38.9c0.7,6.4,3.6,10.9,7.4,3.1c0.9-1.9-1.9-3.6-2.8-1.7c-1.1,2.3-0.6,3.5-1.2-0.4
			c-0.2-1.7-0.3-3.5-0.5-5.2c-0.3-3.8-0.4-7.7-0.5-11.6c-0.1-7.7,0.5-15.4,1.4-23.1C141.5,68,138.3,68,138,70.1L138,70.1z"/>
	</g>
	<g>
		<path d="M142.2,79.6c-0.1,13.7,0,27.5,3.3,40.9c0.5,2.1,3.4,1.2,3.2-0.9c-0.1-1.1-1-2.3-1.7-3.1c-1.1-1.1-3.4,0-2.7,1.6
			c0.4,1,0.9,1.8,1.5,2.7c0.7,1.2,2.6,1,3-0.4c0.1-0.4,0.2-0.9,0.4-1.3c0.6-2-2.6-2.9-3.2-0.9c-0.1,0.4-0.2,0.9-0.4,1.3
			c1-0.1,2-0.3,3-0.4c-0.4-0.6-0.8-1.3-1.1-2c-0.9,0.5-1.8,1.1-2.7,1.6c0.4,0.4,0.8,1.1,0.9,1.6c1.1-0.3,2.1-0.6,3.2-0.9
			c-3.2-13.1-3.2-26.6-3.2-40C145.5,77.5,142.2,77.4,142.2,79.6L142.2,79.6z"/>
	</g>
	<g>
		<path d="M144.9,87.7c-0.3,7.8-0.6,15.7-0.9,23.5c-0.1,4.5-1.2,10.3,2.1,13.9c1.4,1.5,3.8-0.8,2.3-2.3c-3.1-3.3-1.1-13.6-1-17.7
			c0.2-5.8,0.4-11.6,0.7-17.4C148.2,85.6,145,85.6,144.9,87.7L144.9,87.7z"/>
	</g>
	<g>
		<path d="M142.9,95.5c-1.3,10.8-2.1,21.6-2.2,32.4c0,2.1,3.3,2.1,3.3,0c0.1-10.9,0.9-21.7,2.2-32.4
			C146.5,93.4,143.2,93.4,142.9,95.5L142.9,95.5z"/>
	</g>
	<g>
		<path d="M148.6,102.6c-0.3,6.8-0.6,13.6-0.9,20.5c-0.1,2.1,3.2,2.1,3.3,0c0.3-6.8,0.6-13.6,0.9-20.5
			C152,100.5,148.7,100.5,148.6,102.6L148.6,102.6z"/>
	</g>
	<g>
		<path d="M148.4,101.1c0.7,7.4,1.2,14.7,1.5,22.1c0.1,2.1,3.4,2.1,3.3,0c-0.3-7.4-0.8-14.8-1.5-22.1C151.5,99,148.2,99,148.4,101.1
			L148.4,101.1z"/>
	</g>
	<g>
		<path d="M154.6,101.2c0.4,7.1,1.1,14.2,2.1,21.3c0.3,2.1,3.5,1.2,3.2-0.9c-1-6.8-1.6-13.6-2-20.4
			C157.8,99.1,154.5,99.1,154.6,101.2L154.6,101.2z"/>
	</g>
	<g>
		<path d="M162.5,112.7c0.2,5.5,0.4,11,0.7,16.5c0.1,2.1,3.4,2.1,3.3,0c-0.2-5.5-0.4-11-0.7-16.5
			C165.7,110.6,162.4,110.6,162.5,112.7L162.5,112.7z"/>
	</g>
	<g>
		<path d="M158.8,110.8c-0.5,6.9-1.1,13.9-1.8,20.8c-0.2,2.1,3.1,2.1,3.3,0c0.7-6.9,1.3-13.8,1.8-20.8
			C162.2,108.7,158.9,108.7,158.8,110.8L158.8,110.8z"/>
	</g>
	<g>
		<path d="M155.1,114.6c-0.4,5.5-0.9,11-1.5,16.5c-0.2,2.1,3,2.1,3.3,0c0.6-5.5,1.1-11,1.5-16.5
			C158.5,112.5,155.2,112.5,155.1,114.6L155.1,114.6z"/>
	</g>
	<g>
		<path d="M152,118.5c-0.3,4.3-0.5,8.5-0.7,12.8c-0.1,2.1,3.2,2.1,3.3,0c0.2-4.3,0.4-8.5,0.7-12.8
			C155.4,116.4,152.1,116.4,152,118.5L152,118.5z"/>
	</g>
	<g>
		<path d="M144.2,116.8c-0.3,4.2-0.4,8.5-0.5,12.7c-0.1,2.1,3.2,2.1,3.3,0c0.1-4.2,0.3-8.5,0.5-12.7
			C147.6,114.7,144.3,114.7,144.2,116.8L144.2,116.8z"/>
	</g>
	<g>
		<path d="M142.5,121.1c-0.1,2.7-0.1,5.4,0,8.1c0,2.1,3.3,2.1,3.3,0c-0.1-2.7,0-5.4,0-8.1C145.9,119,142.6,119,142.5,121.1
			L142.5,121.1z"/>
	</g>
	<g>
		<path d="M170.7,127.9c0.2-5.3,0.3-10.6,0.5-15.9c0.1-2.1-3.2-2.1-3.3,0c-0.2,5.3-0.3,10.6-0.5,15.9
			C167.3,130,170.6,130,170.7,127.9L170.7,127.9z"/>
	</g>
	<g>
		<path d="M136.6,43.4c-17.1,16.4-15.2,41.1-16.4,62.9c-0.1,2.1,3.2,2.1,3.3,0c1.2-20.8-0.9-44.8,15.5-60.5
			C140.5,44.2,138.1,41.9,136.6,43.4L136.6,43.4z"/>
	</g>
	<g>
		<path d="M173,32.8c-6.2-0.1-12.1,1.3-17.7,3.9c-1.9,0.9-0.2,3.7,1.7,2.8c5.1-2.4,10.4-3.5,16.1-3.5
			C175.1,36.1,175.1,32.8,173,32.8L173,32.8z"/>
	</g>
	<g>
		<path d="M162.2,37.4c-6.1,1.7-11.5,4.7-16.3,8.8c-1.6,1.4,0.7,3.7,2.3,2.3c4.4-3.7,9.4-6.4,14.9-7.9
			C165.1,40,164.3,36.8,162.2,37.4L162.2,37.4z"/>
	</g>
	<g>
		<path d="M144.5,43.4c-5,4.2-9.1,9.1-12.4,14.7c-1.1,1.8,1.8,3.5,2.8,1.7c3.1-5.4,7.1-10.1,11.9-14.1
			C148.5,44.4,146.1,42,144.5,43.4L144.5,43.4z"/>
	</g>
	<g>
		<path d="M135.5,46.4c-1.5,3-3,6-4.5,9c-1,1.9-2.5,4.1-1.6,6.3c0.8,1.9,3.9,1.1,3.2-0.9c-0.6-1.5,2-5.3,2.7-6.6
			c1-2,2.1-4.1,3.1-6.1C139.2,46.2,136.4,44.6,135.5,46.4L135.5,46.4z"/>
	</g>
	<g>
		<path d="M131.7,50.5c-2.9,6.1-5.5,12.3-7.8,18.7c-0.7,2,2.5,2.9,3.2,0.9c2.1-6.1,4.6-12.1,7.4-17.9
			C135.4,50.3,132.6,48.6,131.7,50.5L131.7,50.5z"/>
	</g>
	<g>
		<path d="M125.8,60.7c-0.7,8.9-1.6,17.8-2.5,26.7c-0.2,2.1,3.1,2.1,3.3,0c0.9-8.9,1.8-17.8,2.5-26.7
			C129.2,58.6,126,58.6,125.8,60.7L125.8,60.7z"/>
	</g>
	<g>
		<path d="M125.2,64.5c0.7,8.2,0.7,16.4,0,24.7c-0.2,1.8,3,2.3,3.2,0.4c0.1-0.9,0.2-1.7,0.4-2.6c0.3-2.1-2.9-3-3.2-0.9
			c-0.1,0.9-0.2,1.7-0.4,2.6c1.1,0.1,2.1,0.3,3.2,0.4c0.7-8.2,0.7-16.4,0-24.7C128.3,62.4,125,62.4,125.2,64.5L125.2,64.5z"/>
	</g>
	<g>
		<path d="M128.5,61.8c0,14.6-0.9,29.2-2.8,43.7c-0.3,2.1,3,2.1,3.3,0c1.9-14.5,2.8-29.1,2.8-43.7C131.8,59.7,128.5,59.7,128.5,61.8
			L128.5,61.8z"/>
	</g>
	<g>
		<path d="M123.2,76.2c0.4,12.1,0.7,24.2,1.1,36.3c0.1,2.1,3.3,2.1,3.3,0c-0.4-12.1-0.7-24.2-1.1-36.3
			C126.4,74.1,123.1,74.1,123.2,76.2L123.2,76.2z"/>
	</g>
	<g>
		<path d="M124.4,109.3c0,1.3,0,2.5,0.1,3.8c0,2.1,3.3,2.1,3.3,0c0-1.3,0-2.5-0.1-3.8C127.6,107.2,124.3,107.2,124.4,109.3
			L124.4,109.3z"/>
	</g>
	<g>
		<path d="M122.2,102.5c0.3,2.8,0.5,5.5,0.8,8.3c0.2,2.1,3.5,2.1,3.3,0c-0.2-2.8-0.5-5.5-0.8-8.3C125.2,100.4,122,100.4,122.2,102.5
			L122.2,102.5z"/>
	</g>
	<g>
		<path d="M132.8,73.8c-0.1,15.6-0.3,31.3-0.4,46.9c0,2.1,3.3,2.1,3.3,0c0.1-15.6,0.3-31.3,0.4-46.9
			C136.1,71.7,132.8,71.7,132.8,73.8L132.8,73.8z"/>
	</g>
	<g>
		<path d="M140,55.1c-2.2,11.1-4.9,22.2-8.2,33c-0.6,2,2.6,2.9,3.2,0.9c3.3-10.9,6-21.9,8.2-33C143.6,53.9,140.4,53,140,55.1
			L140,55.1z"/>
	</g>
	<g>
		<path d="M137.2,53.6c-2,5.5-3.7,11.1-5,16.8c-0.7,3.2-2.5,7.6-1,10.7c0.9,1.9,3.7,0.2,2.8-1.7c-1.2-2.5,1.9-10.5,2.5-12.9
			c1.1-4.1,2.4-8.1,3.8-12.1C141,52.5,137.9,51.7,137.2,53.6L137.2,53.6z"/>
	</g>
	<g>
		<path d="M152.3,47.6c-5.2,2.4-10.3,4.9-15.5,7.3c0.6,0.9,1.1,1.9,1.7,2.8c4-2.8,7.9-5.7,11.7-8.8c1.6-1.3-0.4-3.3-2-2.6
			c-7,3.1-12.9,8.7-18.9,13.3c0.7,0.7,1.5,1.5,2.2,2.2c3.9-5.8,8.4-11,13.6-15.7c-0.9-0.7-1.7-1.3-2.6-2c-2.5,4.6-5.1,9.2-7.6,13.8
			c0.9,0.6,1.9,1.1,2.8,1.7c2.2-4.6,4.5-9.2,6.7-13.8c0.9-1.9-1.8-3.5-2.8-1.7c-4.7,9.1-9.5,18.2-14.2,27.4c-1,1.9,1.6,3.3,2.8,1.7
			c7.6-10,15.4-19.9,25.2-27.8c-0.9-0.7-1.7-1.3-2.6-2c-5.4,10.9-13.9,19.5-22.4,27.9c-1.5,1.5,0.8,3.8,2.3,2.3
			c9.2-9,18.4-17.9,27.6-26.9c-0.8-0.8-1.5-1.5-2.3-2.3c-6,7-12.2,13.7-18.8,20.1c0.9,0.7,1.7,1.3,2.6,2
			c5.1-7.2,10.1-14.4,15.2-21.6c1.1-1.6-1.2-3.1-2.6-2c-5.1,4.5-9.6,9.4-13.6,14.8c-1.2,1.6,1.3,3.2,2.6,2
			c4.6-4.1,9.2-8.3,13.7-12.4c-0.9-0.4-1.9-0.8-2.8-1.2c0,3.5-6.2,8.9-8.3,11.5c-2.6,3.3-5.3,6.5-7.9,9.8c-1.1,1.3,0.4,3.8,2,2.6
			C149,63.5,156.9,56,164,47.5c1.1-1.3-0.4-3.7-2-2.6c-4.5,3.2-8.7,6.7-12.6,10.7c-3,3.1-7.3,7.1-8.7,11.2c-0.2,0.5,0,1.2,0.4,1.6
			c0.1,0.1,0.2,0.2,0.3,0.3c0.6,0.5,1.3,0.6,2,0.3c0.1-0.1,0.2-0.1,0.3-0.2c1.9-1,0.2-3.8-1.7-2.8c-0.1,0.1-0.2,0.1-0.3,0.2
			c0.7,0.1,1.3,0.2,2,0.3c0.5,0.4,8-8.5,9.2-9.7c3.3-3.3,6.9-6.2,10.6-8.9c-0.7-0.9-1.3-1.7-2-2.6c-6.9,8.3-14.6,15.7-23.2,22.1
			c0.7,0.9,1.3,1.7,2,2.6c3.7-4.6,7.5-9.3,11.2-13.9c2.3-2.9,6-5.8,6-9.7c0-1.5-1.8-2.1-2.8-1.2c-4.6,4.1-9.2,8.3-13.7,12.4
			c0.9,0.7,1.7,1.3,2.6,2c3.9-5.2,8.3-9.9,13.1-14.2c-0.9-0.7-1.7-1.3-2.6-2c-5.1,7.2-10.1,14.4-15.2,21.6c-1.1,1.6,1.3,3.3,2.6,2
			c6.5-6.4,12.8-13.1,18.8-20.1c1.4-1.6-0.8-3.8-2.3-2.3c-9.2,9-18.4,17.9-27.6,26.9c0.8,0.8,1.5,1.5,2.3,2.3
			c8.7-8.7,17.3-17.5,22.9-28.6c0.9-1.7-1.1-3.2-2.6-2c-10,8.1-17.9,18.3-25.7,28.5c0.9,0.6,1.9,1.1,2.8,1.7
			c4.7-9.1,9.5-18.2,14.2-27.4c-0.9-0.6-1.9-1.1-2.8-1.7c-2.2,4.6-4.5,9.2-6.7,13.8c-0.9,1.9,1.8,3.5,2.8,1.7
			c2.5-4.6,5.1-9.2,7.6-13.8c0.9-1.7-1.2-3.2-2.6-2c-5.4,4.9-10.1,10.3-14.1,16.4c-0.9,1.3,0.9,3.2,2.2,2.2
			c6-4.6,11.9-10.2,18.9-13.3c-0.7-0.9-1.3-1.7-2-2.6c-3.5,2.9-7.2,5.7-11,8.3c-1.7,1.2-0.3,3.7,1.7,2.8c5.2-2.4,10.3-4.9,15.5-7.3
			C155.8,49.5,154.2,46.7,152.3,47.6L152.3,47.6z"/>
	</g>
	<g>
		<path d="M153.4,70c6-8,11.1-17,19.8-22.3c-0.7-0.9-1.3-1.7-2-2.6c-3.5,3.3-7.2,6.5-11,9.4c-1.6,1.2,0.4,3.3,2,2.6
			c5.4-2.6,10.4-5.6,15.2-9.2c1.3-1,0.6-3.8-1.3-3c-4.2,1.7-8.5,3.5-12.7,5.2c0.4,1,0.8,2,1.3,3c4.6-2.1,9.3-4.1,13.9-6.2
			c1.7-0.8,0.5-3.6-1.3-3c-3.7,1.2-7.3,2.5-11,3.7c0.4,1,0.8,2,1.3,3c3-1.9,6-3.7,9-5.6c1.8-1.1,0.1-3.9-1.7-2.8c-3,1.9-6,3.7-9,5.6
			c-1.5,0.9-0.6,3.6,1.3,3c3.7-1.2,7.3-2.5,11-3.7c-0.4-1-0.8-2-1.3-3c-4.6,2.1-9.3,4.1-13.9,6.2c-1.7,0.7-0.5,3.7,1.3,3
			c4.2-1.7,8.5-3.5,12.7-5.2c-0.4-1-0.8-2-1.3-3c-4.8,3.6-9.8,6.6-15.2,9.2c0.7,0.9,1.3,1.7,2,2.6c3.8-3,7.5-6.1,11-9.4
			c1.3-1.3-0.4-3.5-2-2.6c-9.2,5.7-14.7,15-21,23.5C149.3,70,152.1,71.7,153.4,70L153.4,70z"/>
	</g>
	<g>
		<path d="M151.8,70.4c4.9-6.3,10.1-12.3,15.7-18.1c-0.9-0.7-1.7-1.3-2.6-2c-3.3,6.9-7.7,13-13,18.5c0.9,0.7,1.7,1.3,2.6,2
			c4.2-8.9,9.7-16.8,16.5-23.8c-0.9-0.7-1.7-1.3-2.6-2c-5.6,7.8-11.5,15.5-17.6,23c-1.3,1.6,1,4,2.3,2.3
			c6.2-7.7,12.3-15.6,18.1-23.7c1.1-1.5-1.3-3.3-2.6-2c-7,7.2-12.8,15.3-17,24.4c-0.8,1.6,1.2,3.4,2.6,2c5.6-5.6,10.1-12,13.5-19.1
			c0.8-1.6-1.2-3.4-2.6-2c-5.6,5.7-10.8,11.7-15.7,18.1C148.2,69.7,150.6,72,151.8,70.4L151.8,70.4z"/>
	</g>
	<g>
		<path d="M151.8,69.8c3.8-5.4,7.6-10.8,11.4-16.2c-0.9-0.6-1.9-1.1-2.8-1.7c-3.7,5.4-7.4,10.8-11.1,16.2c-1.2,1.7,1.6,3.4,2.8,1.7
			c3.7-5.4,7.4-10.8,11.1-16.2c1.2-1.7-1.6-3.4-2.8-1.7c-3.8,5.4-7.6,10.8-11.4,16.2C147.7,69.9,150.6,71.5,151.8,69.8L151.8,69.8z"
			/>
	</g>
	<g>
		<path d="M164.8,44.6C161,51.2,156.3,57,150.6,62c0.8,0.8,1.5,1.5,2.3,2.3c4.9-5.5,9.5-11.3,13.8-17.3c1.1-1.5-1.3-3.3-2.6-2
			c-6.9,7-13.2,14.5-19.1,22.4c-0.9,1.3,1,3.2,2.2,2.2c7-5.3,10.3-13.8,17-19.3c-0.9-0.7-1.7-1.3-2.6-2c-3.4,7.1-7.8,13.6-12.6,19.9
			c-1.3,1.7,1.6,3.3,2.8,1.7c4.7-6.3,9.1-12.7,12.6-19.9c0.8-1.7-1.1-3.2-2.6-2c-6.5,5.4-9.6,13.7-16.3,18.8
			c0.7,0.7,1.5,1.5,2.2,2.2c5.7-7.7,11.8-15,18.5-21.8c-0.9-0.7-1.7-1.3-2.6-2c-4.2,5.7-8.6,11.3-13.3,16.6
			c-1.4,1.6,0.7,3.7,2.3,2.3c5.9-5.3,10.8-11.3,14.7-18.1C168.7,44.4,165.9,42.8,164.8,44.6L164.8,44.6z"/>
	</g>
	<g>
		<path d="M174.1,50.2c5.4,0.1,10.8-0.1,16.1-0.5c2.1-0.2,2.1-3.4,0-3.3c-5.4,0.4-10.7,0.6-16.1,0.5C172,46.9,172,50.2,174.1,50.2
			L174.1,50.2z"/>
	</g>
	<g>
		<path d="M178.2,50.8c7.8-0.6,15.7-0.8,23.5-0.4c1.6,0.1,2.2-2.3,0.8-3.1c-6.3-3.5-12.6-6.6-19.9-5.9c-2.1,0.2-2.1,3.1,0,3.3
			c0.4,0,6.2,0.7,6.2,0.6c0.4-0.5,0.8-1.1,1.2-1.6c-3.6,1.4-8.5,1.4-12.2,1.9c-1.9,0.3-1.3,3.1,0.4,3.2c5.3,0.3,10.3-0.2,15.5-1.5
			c1.8-0.5,1.4-3.2-0.4-3.2c-3.7-0.1-7.4-0.2-11.1-0.3c0,1.1,0,2.2,0,3.3c3.4-0.1,6.6-0.7,9.9-1.7c1.9-0.6,1.3-3-0.4-3.2
			c-5.1-0.7-10.1-0.6-15.2,0.2c0.3,1.1,0.6,2.1,0.9,3.2c2.6-0.8,5.1-1.6,7.6-2.6c-0.4-1-0.8-2-1.3-3c-4,2.2-8,4.4-12,6.6
			c0.6,0.9,1.1,1.9,1.7,2.8c3.2-2.1,6.3-4.2,9.4-6.5c0.7-0.5,1.2-1.9,0.3-2.6c-3.8-3-10.7,0.7-14.6,2.2c-1.7,0.6-1.5,3.3,0.4,3.2
			c1.1,0,2.1-0.1,3.2-0.1c2.1-0.1,2.1-3.4,0-3.3c-1.1,0-2.1,0.1-3.2,0.1c0.1,1.1,0.3,2.1,0.4,3.2c1.8-0.7,9.8-4.2,11.4-3
			c0.1-0.9,0.2-1.7,0.3-2.6c-3.1,2.3-6.2,4.4-9.4,6.5c-1.8,1.1-0.2,3.8,1.7,2.8c4-2.2,8-4.4,12-6.6c1.6-0.9,0.5-3.7-1.3-3
			c-2.5,1-5,1.9-7.6,2.6c-2.1,0.6-1.2,3.4,0.9,3.2c4.8-0.7,9.5-0.7,14.3,0c-0.1-1.1-0.3-2.1-0.4-3.2c-3,0.9-5.9,1.4-9,1.6
			c-2.1,0.1-2.1,3.2,0,3.3c3.7,0.1,7.4,0.2,11.1,0.3c-0.1-1.1-0.3-2.1-0.4-3.2c-4.9,1.2-9.6,1.7-14.6,1.4c0.1,1.1,0.3,2.1,0.4,3.2
			c3.8-0.6,8.7-0.6,12.2-1.9c0.6-0.2,1.3-0.8,1.2-1.6c-0.4-4-6.4-3.7-9.5-3.9c0,1.1,0,2.2,0,3.3c6.7-0.7,12.5,2.2,18.3,5.4
			c0.3-1,0.6-2,0.8-3.1c-7.9-0.4-15.7-0.3-23.5,0.4C176.1,47.7,176.1,50.9,178.2,50.8L178.2,50.8z"/>
	</g>
	<g>
		<path d="M204.5,48.5c-5.1-0.8-10.4-2.1-15.6-1.7c-5.3,0.3-10.6,1.7-15.8,2.7c-2.1,0.4-1.2,3.5,0.9,3.2c4.9-0.9,10-2.2,14.9-2.5
			c4.9-0.3,9.8,0.9,14.7,1.6C205.7,52,206.6,48.8,204.5,48.5L204.5,48.5z"/>
	</g>
	<g>
		<path d="M144.6,83.7c-1.7,12.4-1,24.8-0.2,37.3c0.1,2.1,3.4,2.1,3.3,0c-0.8-12.1-1.6-24.3,0.1-36.4
			C148,82.5,144.8,81.6,144.6,83.7L144.6,83.7z"/>
	</g>
	<g>
		<path d="M136.5,78.7c-1.1,5.8-2.2,11.6-3.2,17.4c-0.5,2.7-0.9,5.5-1.4,8.2c-0.4,2.6-0.3,7.1-1.6,9.4c0.7-0.2,1.5-0.4,2.2-0.6
			c-0.1,0-0.2-0.1-0.3-0.1c0.3,0.6,0.5,1.2,0.8,1.8c0-0.1,0-0.1,0.1-0.2c0.6-2-2.5-2.9-3.2-0.9c0,0.1,0,0.1-0.1,0.2
			c-0.2,0.7,0.1,1.5,0.8,1.8c0.1,0,0.2,0.1,0.3,0.1c0.8,0.4,1.8,0.2,2.2-0.6c1-1.8,1-4.1,1.3-6.1c0.5-3.4,1.1-6.9,1.7-10.3
			c1.1-6.5,2.3-13,3.5-19.5C140.1,77.6,136.9,76.7,136.5,78.7L136.5,78.7z"/>
	</g>
	<g>
		<path d="M128.2,83.3c-0.6,10.4-1.5,20.8-2.7,31.2c-0.2,2.1,3,2.1,3.3,0c1.1-10.4,2-20.8,2.7-31.2
			C131.6,81.2,128.3,81.2,128.2,83.3L128.2,83.3z"/>
	</g>
	<g>
		<path d="M123.3,88.8c0.2,7.8,0.4,15.6,0.5,23.4c0,2.1,3.3,2.1,3.3,0c-0.2-7.8-0.4-15.6-0.5-23.4C126.6,86.7,123.3,86.7,123.3,88.8
			L123.3,88.8z"/>
	</g>
	<g>
		<path d="M127.6,87.5c-0.8,6-1.7,12.1-2.5,18.1c1.1,0.1,2.1,0.3,3.2,0.4c-0.5-4.8-0.5-9.4,0.1-14.1c-1.1,0-2.2,0-3.3,0
			c0.4,4.4,0.5,8.7,0.1,13.2c1.1,0,2.2,0,3.3,0c-0.1-1.9-0.2-3.9-0.3-5.8c-0.1-2.1-3.1-2.1-3.3,0c-0.4,4.2-0.8,8.4-1.2,12.6
			c-0.2,2.1,3.1,2.1,3.3,0c0.4-4.2,0.8-8.4,1.2-12.6c-1.1,0-2.2,0-3.3,0c0.1,1.9,0.2,3.9,0.3,5.8c0.1,2.1,3.1,2.1,3.3,0
			c0.4-4.4,0.4-8.7-0.1-13.2c-0.2-2.1-3-2.1-3.3,0c-0.6,4.7-0.6,9.4-0.1,14.1c0.2,1.6,2.9,2.4,3.2,0.4c0.8-6,1.7-12.1,2.5-18.1
			C131.1,86.3,127.9,85.4,127.6,87.5L127.6,87.5z"/>
	</g>
	<g>
		<path d="M144.5,128.1c-0.1-0.9-0.3-1.7-0.4-2.6c-0.1-0.8-1.1-1.3-1.8-1.2c-0.9,0.1-1.3,0.8-1.4,1.6c-0.1,0.7-0.2,1.5-0.3,2.2
			c-0.1,0.9,0.8,1.7,1.6,1.6c1,0,1.5-0.7,1.6-1.6c0.1-0.7,0.2-1.5,0.3-2.2c-1.1,0.1-2.1,0.3-3.2,0.4c0.1,0.6,0.2,1.3,0.3,1.7
			c0.1,0.8,0.7,1.7,1.6,1.6C143.7,129.7,144.7,129,144.5,128.1L144.5,128.1z"/>
	</g>
	<g>
		<path d="M150.4,131c0.5-3,1.1-5.9,1.6-8.9c-1.1-0.3-2.1-0.6-3.2-0.9c-0.4,3-0.8,5.9-1.3,8.8c-0.3,2.1,2.8,3,3.2,0.9
			c0.5-2.9,0.9-5.9,1.3-8.8c0.3-2-2.8-3-3.2-0.9c-0.5,3-1.1,5.9-1.6,8.9C146.9,132.1,150.1,133,150.4,131L150.4,131z"/>
	</g>
	<g>
		<path d="M148.5,129.6c0.1-1.7,0.3-3.4,0.6-5.1c-1.1,0-2.2,0-3.3,0c-0.1,1.7-0.3,3.4-0.4,5.1c-0.2,2.1,3.1,2.1,3.3,0
			c0.1-1.7,0.3-3.4,0.4-5.1c0.1-0.9-0.8-1.6-1.6-1.6c-1,0-1.5,0.8-1.6,1.6c-0.2,1.7-0.4,3.4-0.6,5.1c-0.1,0.9,0.8,1.6,1.6,1.6
			C147.8,131.3,148.4,130.5,148.5,129.6L148.5,129.6z"/>
	</g>
	<g>
		<path d="M151,130.4c0-0.8,0-1.5,0-2.3c0-1.8-2.8-2.3-3.2-0.4c-0.2,0.7-0.3,1.5-0.5,2.2c-0.2,0.8,0.2,1.8,1.1,2
			c0.8,0.2,1.8-0.2,2-1.1c0.2-0.7,0.3-1.5,0.5-2.2c-1.1-0.1-2.1-0.3-3.2-0.4c0,0.8,0,1.5,0,2.3c0,0.9,0.8,1.7,1.6,1.6
			C150.3,132,151,131.3,151,130.4L151,130.4z"/>
	</g>
	<g>
		<path d="M151.2,130.2c0-0.5,0.1-1,0.1-1.5c0.1-0.8-0.7-1.5-1.4-1.6c-0.8-0.1-1.6,0.4-1.8,1.2c-0.2,0.7-0.3,1.4-0.5,2.1
			c-0.2,0.8,0.2,1.8,1.1,2c0.8,0.2,1.8-0.2,2-1.1c0.1-0.7,0.3-1.4,0.5-2.1c-1.1-0.1-2.1-0.3-3.2-0.4c0,0.5-0.1,1-0.1,1.5
			c-0.1,0.9,0.8,1.7,1.6,1.6C150.5,131.8,151.1,131.1,151.2,130.2L151.2,130.2z"/>
	</g>
	<g>
		<path d="M152.6,130.9c0.1-2.3,0.1-4.6,0.2-6.8c0.1-1.8-2.9-2.3-3.2-0.4c-0.4,2.2-0.7,4.3-1.1,6.5c-0.3,2.1,2.8,3,3.2,0.9
			c0.3-2.2,0.7-4.3,1.1-6.5c-1.1-0.1-2.1-0.3-3.2-0.4c-0.1,2.3-0.1,4.6-0.2,6.8C149.3,133.1,152.5,133,152.6,130.9L152.6,130.9z"/>
	</g>
	<g>
		<path d="M154.7,131.4c0.1-1.2,0.2-2.5,0.3-3.7c0.1-1.8-2.9-2.3-3.2-0.4c-0.2,1.2-0.4,2.5-0.6,3.7c-0.1,0.9,0.2,1.8,1.1,2
			c0.8,0.2,1.9-0.3,2-1.1c0.2-1.2,0.4-2.5,0.6-3.7c-1.1-0.1-2.1-0.3-3.2-0.4c-0.1,1.2-0.2,2.5-0.3,3.7c-0.1,0.9,0.8,1.6,1.6,1.6
			C154,133,154.6,132.3,154.7,131.4L154.7,131.4z"/>
	</g>
	<g>
		<path d="M155.7,130.8c-0.2-1.7-0.5-3.3-0.9-5c-0.4-1.9-3.1-1.3-3.2,0.4c-0.1,1.7-0.2,3.5-0.3,5.2c-0.1,2.1,3.1,2.1,3.3,0
			c0.1-1.7,0.2-3.5,0.3-5.2c-1.1,0.1-2.1,0.3-3.2,0.4c0.4,1.7,0.7,3.3,0.9,5c0.1,0.9,1.2,1.4,2,1.1
			C155.5,132.6,155.8,131.7,155.7,130.8L155.7,130.8z"/>
	</g>
	<g>
		<path d="M159.3,131.2c0.1-0.8,0.2-1.5,0.3-2.3c-1.1,0-2.2,0-3.3,0c0,0.7,0,1.4,0,2.2c0,0.9,0.8,1.7,1.6,1.6c0.9,0,1.6-0.7,1.6-1.6
			c0-0.7,0-1.4,0-2.2c0-0.9-0.7-1.7-1.6-1.6c-1,0-1.5,0.7-1.6,1.6c-0.1,0.8-0.2,1.5-0.3,2.3c-0.1,0.9,0.8,1.7,1.6,1.6
			C158.6,132.8,159.2,132.1,159.3,131.2L159.3,131.2z"/>
	</g>
	<g>
		<path d="M166.2,129.6c0.2-1.5,0.3-3,0.4-4.4c0.2-1.8-2.9-2.3-3.2-0.4c-0.2,1.5-0.5,2.9-0.7,4.4c-0.1,0.9,0.2,1.8,1.1,2
			c0.8,0.2,1.9-0.3,2-1.1c0.2-1.5,0.5-2.9,0.7-4.4c-1.1-0.1-2.1-0.3-3.2-0.4c-0.1,1.5-0.3,3-0.4,4.4c-0.1,0.9,0.8,1.6,1.6,1.6
			C165.5,131.2,166.1,130.5,166.2,129.6L166.2,129.6z"/>
	</g>
	<g>
		<path d="M129.7,115.4c0.5-6.9,1.6-13.8,3.1-20.5c-1.1-0.1-2.1-0.3-3.2-0.4c0.1,7.2-0.1,14.3-0.7,21.4c-0.1,1.8,2.9,2.3,3.2,0.4
			c0.6-3.2,1.1-6.4,1.7-9.6c0.4-2.1-2.8-2.9-3.2-0.9c-0.6,3.2-1.1,6.4-1.7,9.6c1.1,0.1,2.1,0.3,3.2,0.4c0.6-7.1,0.8-14.3,0.7-21.4
			c0-1.8-2.8-2.3-3.2-0.4c-1.6,7.1-2.6,14.2-3.2,21.4C126.2,117.5,129.5,117.5,129.7,115.4L129.7,115.4z"/>
	</g>
	<g>
		<path d="M131,117c1-7.7,2.1-15.4,3.1-23.1c-1.1,0-2.2,0-3.3,0c-0.9,7.4-2.2,14.6-3.8,21.9c-0.5,2.1,2.7,2.9,3.2,0.9
			c1.7-7.5,3-15.1,3.9-22.8c0.3-2.1-3-2.1-3.3,0c-1,7.7-2.1,15.4-3.1,23.1C127.5,119.1,130.8,119.1,131,117L131,117z"/>
	</g>
	<g>
		<path d="M131.3,117.8c0.9-7,2-13.9,3.2-20.8c-1.1-0.1-2.1-0.3-3.2-0.4c-0.5,7.1-1.6,14.1-3.4,21c-0.5,2,2.6,2.9,3.2,0.9
			c1.8-7.2,3-14.4,3.5-21.8c0.1-1.8-2.9-2.3-3.2-0.4c-1.3,7.2-2.4,14.4-3.4,21.7C127.8,119.9,131.1,119.8,131.3,117.8L131.3,117.8z"
			/>
	</g>
	<g>
		<path d="M132.9,119.2c0.7-7.2,1.6-14.4,2.5-21.6c-1.1,0-2.2,0-3.3,0c-0.8,6.7-2,13.3-3.4,19.8c-0.4,2.1,2.7,2.9,3.2,0.9
			c1.4-6.9,2.6-13.8,3.5-20.7c0.3-2.1-3-2.1-3.3,0c-1,7.2-1.8,14.4-2.5,21.6C129.4,121.3,132.6,121.3,132.9,119.2L132.9,119.2z"/>
	</g>
	<g>
		<path d="M134,120.7c0.6-7.9,1.2-15.7,1.8-23.6c-1.1,0-2.2,0-3.3,0c-0.4,7.6-1.2,15.1-2.5,22.6c-0.3,2.1,2.8,2.9,3.2,0.9
			c1.3-7.8,2.2-15.6,2.6-23.4c0.1-2.1-3.1-2.1-3.3,0c-0.6,7.9-1.2,15.7-1.8,23.6C130.6,122.8,133.8,122.7,134,120.7L134,120.7z"/>
	</g>
	<g>
		<path d="M137.9,124.5c-0.1-8.2-0.1-16.5,0.1-24.7c0-2.1-3.1-2.1-3.3,0c-0.5,7.1-1.5,14-3,21c-0.5,2.1,2.7,2.9,3.2,0.9
			c1.6-7.2,2.6-14.5,3.1-21.8c-1.1,0-2.2,0-3.3,0c-0.2,8.2-0.2,16.5-0.1,24.7C134.7,126.6,138,126.6,137.9,124.5L137.9,124.5z"/>
	</g>
	<g>
		<path d="M139.9,126.2c0.3-5.1,0.5-10.1,0.6-15.2c0-2.1-3.1-2.1-3.3,0c-0.3,4.7-0.8,9.4-1.5,14c-0.3,2.1,2.8,3,3.2,0.9
			c0.7-4.9,1.3-9.9,1.7-14.9c-1.1,0-2.2,0-3.3,0c-0.1,5.1-0.3,10.1-0.6,15.2C136.5,128.3,139.8,128.3,139.9,126.2L139.9,126.2z"/>
	</g>
	<g>
		<path d="M142.4,127.5c-0.4-7.3-0.7-14.5-1.1-21.8c-0.1-2.1-3.1-2.1-3.3,0c-0.5,6.8-1,13.6-1.4,20.4c-0.1,2.1,3.1,2.1,3.3,0
			c0.5-6.8,1-13.6,1.4-20.4c-1.1,0-2.2,0-3.3,0c0.4,7.3,0.7,14.5,1.1,21.8C139.2,129.6,142.5,129.6,142.4,127.5L142.4,127.5z"/>
	</g>
	<g>
		<path d="M138.1,124.5c0.6-7,1.4-14,2.5-21c-1.1-0.1-2.1-0.3-3.2-0.4c0.5,8.1,1.1,16.2,1.6,24.4c0.1,2.1,3.4,2.1,3.3,0
			c-0.5-8.1-1.1-16.2-1.6-24.4c-0.1-1.7-2.9-2.4-3.2-0.4c-1.1,7.3-1.9,14.5-2.6,21.8C134.7,126.6,137.9,126.5,138.1,124.5
			L138.1,124.5z"/>
	</g>
	<g>
		<path d="M137.3,123.2c0.6-6,1.3-12.1,1.9-18.1c-1.1,0-2.2,0-3.3,0c-0.4,6.3-0.8,12.7-1.2,19c-0.1,2.1,3.1,2.1,3.3,0
			c0.4-6.3,0.8-12.7,1.2-19c0.1-2.1-3.1-2.1-3.3,0c-0.6,6-1.3,12.1-1.9,18.1C133.8,125.3,137.1,125.3,137.3,123.2L137.3,123.2z"/>
	</g>
	<g>
		<path d="M135.5,121.8c-0.7-4.1-1.2-8.2-1.5-12.3c-1.1,0-2.2,0-3.3,0c0.3,4,0.6,8,0.8,12c0.1,2.1,3.4,2.1,3.3,0
			c-0.2-4-0.4-8-0.8-12c-0.2-2.1-3.4-2.1-3.3,0c0.3,4.4,0.8,8.8,1.6,13.2C132.7,124.7,135.8,123.8,135.5,121.8L135.5,121.8z"/>
	</g>
	<g>
		<path d="M138.7,95.1c-0.4,4.6-0.3,9,0.1,13.6c0.2,1.7,2.9,2.4,3.2,0.4c0.7-4.9,1.5-9.7,2.2-14.6c-1.1-0.1-2.1-0.3-3.2-0.4
			c-0.5,7.4-1.1,14.9-1.6,22.3c1.1,0,2.2,0,3.3,0c0.2-7.1,1-14.1,2.4-21.1c-1.1-0.1-2.1-0.3-3.2-0.4c0.7,6.4,0.8,12.7,0.2,19
			c1.1,0,2.2,0,3.3,0c0.8-11,0.1-22-1.9-32.9c-0.4-1.9-3.2-1.3-3.2,0.4c-0.2,6.9-0.3,13.9-0.3,20.8c0,5.9-0.5,11.9,1.1,17.6
			c0.3,1.3,1.8,1.5,2.7,0.7c2.9-2.5,2.4-7.6,2.9-11.1c0.8-5.5,1.6-10.9,2.4-16.4c-1.1-0.1-2.1-0.3-3.2-0.4
			c0.1,9.8-0.5,20.1,1.2,29.7c0.3,1.5,2.9,1.6,3.2,0c1.4-9.6,2.2-19.2,2.3-28.9c0-2.1-3.2-2.1-3.3,0c-0.2,9-0.3,18.1-0.5,27.1
			c0,2.1,3.2,2.1,3.3,0c0.2-5.6,0.3-11.3,0.5-16.9c-1.1,0-2.2,0-3.3,0c0.5,6.4,1.1,12.8,1.6,19.2c0.2,2.1,3.2,2.1,3.3,0
			c0.4-7,0.4-13.9,0-20.8c-0.1-2.1-3.4-2.1-3.3,0c0.4,8.1,0.7,16.1,0.7,24.2c0,2.1,3.2,2.1,3.3,0c0.2-6.7,0.5-13.4,0.7-20.1
			c-1.1,0-2.2,0-3.3,0c0.3,2.4,0.5,4.7,0.8,7.1c0.2,2.1,3.5,2.1,3.3,0c-0.3-2.4-0.5-4.7-0.8-7.1c-0.2-2.1-3.2-2.2-3.3,0
			c-0.2,6.7-0.5,13.4-0.7,20.1c1.1,0,2.2,0,3.3,0c-0.1-8.1-0.3-16.1-0.7-24.2c-1.1,0-2.2,0-3.3,0c0.4,6.9,0.4,13.9,0,20.8
			c1.1,0,2.2,0,3.3,0c-0.5-6.4-1.1-12.8-1.6-19.2c-0.2-2.1-3.2-2.1-3.3,0c-0.2,5.6-0.3,11.3-0.5,16.9c1.1,0,2.2,0,3.3,0
			c0.2-9,0.3-18.1,0.5-27.1c-1.1,0-2.2,0-3.3,0c-0.1,9.4-0.8,18.7-2.2,28c1.1,0,2.1,0,3.2,0c-1.7-9.3-1-19.4-1.1-28.9
			c0-1.8-2.9-2.3-3.2-0.4c-0.6,4.4-1.3,8.9-1.9,13.3c-0.4,2.8-0.3,10.8-2.5,12.7c0.9,0.2,1.8,0.5,2.7,0.7c-1.6-6-1-12.7-1-18.8
			c0-6.2,0.1-12.5,0.3-18.7c-1.1,0.1-2.1,0.3-3.2,0.4c2,10.6,2.6,21.2,1.8,32c-0.2,2.1,3.1,2.1,3.3,0c0.5-6.4,0.5-12.7-0.2-19
			c-0.2-1.7-2.8-2.4-3.2-0.4c-1.5,7.2-2.3,14.5-2.5,21.9c0,2.1,3.1,2.1,3.3,0c0.5-7.4,1.1-14.9,1.6-22.3c0.1-1.8-2.9-2.3-3.2-0.4
			c-0.7,4.9-1.5,9.7-2.2,14.6c1.1,0.1,2.1,0.3,3.2,0.4c-0.5-4.6-0.5-9-0.1-13.6C142.1,93,138.8,93,138.7,95.1L138.7,95.1z"/>
	</g>
	<g>
		<path d="M158,131.1c-0.7-4.3-0.3-8.2,1.1-12.3c-1.1,0-2.1,0-3.2,0c0.9,3.7,1.3,7.3,1.2,11.1c1.1,0,2.2,0,3.3,0
			c0-6,0.4-12,1.4-17.9c-1,0.1-2,0.3-3,0.4c0.4,1,0.9,2,1.3,3c0.7,1.7,2.9,0.6,3.1-0.8c0.4-3,0.1-5.6-1-8.5c-0.7-1.7-3-1.4-3.2,0.4
			c-0.2,1.7,0.1,2.8,1.1,4.1c1.1,1.4,3.4,0.7,3-1.3c-0.6-2.7-1.9-4-4.4-5.1c-1.9-0.8-2.8,2.4-0.9,3.2c0.7,0.9,1.4,1.8,2.1,2.8
			c1-0.4,2-0.8,3-1.3c-0.2-0.8-0.5-1.6-0.7-2.5c-1.1,0.1-2.1,0.3-3.2,0.4c1,2.6,1.3,4.9,0.9,7.6c1-0.3,2-0.6,3.1-0.8
			c-0.4-1-0.9-2-1.3-3c-0.5-1.3-2.8-0.9-3,0.4c-1.1,6.2-1.6,12.5-1.6,18.8c0,2.1,3.2,2.1,3.3,0c0.1-4.1-0.3-8-1.3-12
			c-0.4-1.7-2.7-1.4-3.2,0c-1.6,4.7-1.9,9.2-1.1,14.1C155.2,134.1,158.3,133.2,158,131.1L158,131.1z"/>
	</g>
	<g>
		<path d="M160.2,131.3c0.5-5.2,1.2-10.4,2-15.5c-1.1-0.1-2.1-0.3-3.2-0.4c0.3,5.3,0.2,10.8-2.7,15.4c-1.1,1.8,1.7,3.5,2.8,1.7
			c3.1-5.2,3.5-11.2,3.1-17.1c-0.1-1.7-2.9-2.4-3.2-0.4c-0.9,5.4-1.6,10.9-2.1,16.4C156.7,133.4,160,133.4,160.2,131.3L160.2,131.3z
			"/>
	</g>
	<g>
		<path d="M160.3,131.5c0.5-6.2,1.2-12.3,2.3-18.4c-1.1-0.1-2.1-0.3-3.2-0.4c0.1,6.2-0.6,12.2-2.1,18.2c-0.5,2,2.6,2.9,3.2,0.9
			c1.6-6.3,2.3-12.6,2.2-19.1c0-1.8-2.9-2.3-3.2-0.4c-1.1,6.4-1.9,12.8-2.4,19.3C156.8,133.6,160.1,133.6,160.3,131.5L160.3,131.5z"
			/>
	</g>
	<g>
		<path d="M158.1,110.2c4.9,0.7,7.9,4.3,7.6,9.3c1.1-0.1,2.1-0.3,3.2-0.4c-0.7-3.1-1.5-6.2-2.2-9.4c-0.4-1.9-3.1-1.4-3.2,0.4
			c-0.2,6.1-0.9,12.2-2.1,18.2c1.1,0.1,2.1,0.3,3.2,0.4c0.4-3.7,1-7.4,1.7-11c-1,0.1-2,0.3-3,0.4c1.1,2,1.9,4,2.5,6.2
			c0.5,1.7,3.4,1.5,3.2-0.4c-0.2-2.6-0.9-4.2-2.5-6.2c-0.9-1-2.3-0.3-2.7,0.7c-1.6,4-3.3,8-5.1,12c-0.9,1.9,1.9,3.6,2.8,1.7
			c2-4.2,3.7-8.5,5.5-12.8c-0.9,0.2-1.8,0.5-2.7,0.7c0.5,1.3,1.1,2.6,1.6,3.9c1.1-0.1,2.1-0.3,3.2-0.4c-0.7-2.5-1.6-4.7-2.8-7
			c-0.6-1.2-2.7-1-3,0.4c-0.7,3.9-1.3,7.9-1.8,11.9c-0.2,1.8,2.9,2.2,3.2,0.4c1.2-6.3,1.9-12.6,2.2-19c-1.1,0.1-2.1,0.3-3.2,0.4
			c0.7,3.1,1.5,6.2,2.2,9.4c0.4,1.9,3.1,1.3,3.2-0.4c0.4-6.3-3.8-11.5-10-12.5C156.9,106.8,156,109.9,158.1,110.2L158.1,110.2z"/>
	</g>
	<g>
		<path d="M152.8,70.2c-1-2.1-5-1.6-6.7-0.9c-2,0.8-3.6,2.5-4.5,4.5c-2.7,6.1,1.4,12.5,1.9,18.5c0.2,2.1,3.4,2.1,3.3,0
			c-0.3-3.2-1.3-6.1-2-9.2c-0.4-1.8-0.9-3.7-0.7-5.5c0.2-3.5,2.1-5.3,5.7-5.4c0.5,0.2,1,0.4,1.4,0.6c3,0.5,6-0.6,4.4-4.2
			C154.8,66.7,152,68.3,152.8,70.2L152.8,70.2z"/>
	</g>
	<g>
		<path d="M140.5,73.7c1,10.3,7.6,17.9,12.5,26.6c1,1.8,3.9,0.2,2.8-1.7c-4.5-8.1-11.1-15.4-12-24.9
			C143.6,71.7,140.3,71.6,140.5,73.7L140.5,73.7z"/>
	</g>
	<g>
		<path d="M160.2,101.9c-7.1-11.2-14-22.6-17.1-35.6c-0.5-2-3.7-1.2-3.2,0.9c3.2,13.3,10.3,24.9,17.5,36.4
			C158.5,105.3,161.3,103.7,160.2,101.9L160.2,101.9z"/>
	</g>
	<g>
		<path d="M146.1,75.8c-0.6-2,0.5-4.7,1.7-6.3c1.2-1.7-1.6-3.4-2.8-1.7c-1.7,2.3-2.9,6-2,8.8C143.6,78.7,146.7,77.8,146.1,75.8
			L146.1,75.8z"/>
	</g>
	<g>
		<path d="M147.8,62c-1.5,0.5-2.7,2.1-3.5,3.4c-1,1.6-1.4,3.3-1.1,5.1c0.3,2.1,3.5,1.2,3.2-0.9c-0.1-0.9,0.2-1.8,0.7-2.6
			c0.2-0.4,1.1-1.7,1.5-1.8C150.7,64.5,149.8,61.4,147.8,62L147.8,62z"/>
	</g>
	<g>
		<path d="M156.8,63.1c-1.5,4.1-2.2,6.3-7,6.7c-1.9,0.2-3.3,0.2-4.9,1.4c-3.5,2.7-2.2,8-2,11.8c0.1,2.1,3.4,2.1,3.3,0
			c-0.1-2.4-1.3-7.9,1.2-9.5c2.1-1.3,4.6,0.5,6.8-0.4c3.2-1.4,4.7-6.2,5.8-9.1C160.7,62,157.6,61.1,156.8,63.1L156.8,63.1z"/>
	</g>
	<g>
		<path d="M162.3,103.5c-3-1.9-5.8-3.9-8.6-6c-1.6-1.3-4,1-2.3,2.3c3,2.4,6,4.5,9.2,6.6C162.5,107.4,164.1,104.6,162.3,103.5
			L162.3,103.5z"/>
	</g>
	<g>
		<path d="M206.2,50.5c-2.3-2.2-5.6-2.7-7.8-4.9c-1.5-1.5-3.8,0.8-2.3,2.3c2.2,2.3,5.5,2.8,7.8,4.9C205.4,54.3,207.8,52,206.2,50.5
			L206.2,50.5z"/>
	</g>
	<g>
		<path d="M172.9,126.5c0-3.4-0.2-6.7-0.6-10c-0.2-2.1-3.5-2.1-3.3,0c0.2,2.1,0.2,4.1,0,6.2c-0.2,1.8,2.9,2.3,3.2,0.4
			c0.5-3.2,0.9-6.4,1.4-9.5c-1.1-0.1-2.1-0.3-3.2-0.4c0.2,2.2,0.2,4.2-0.2,6.4c1.1,0.1,2.1,0.3,3.2,0.4c0.1-2.9,0.2-5.7,0.4-8.6
			c-1.1,0-2.2,0-3.3,0c0,2.7-0.2,5.4-0.6,8.2c1.1,0,2.2,0,3.3,0c-0.2-2.4-0.2-4.9-0.1-7.3c-1.1,0.1-2.1,0.3-3.2,0.4
			c0.7,4.8,0.9,9.7,0.7,14.6c1.1,0,2.2,0,3.3,0c0-4.5,0.5-8.9,1.5-13.3c-1.1-0.1-2.1-0.3-3.2-0.4c0.3,4.6,0.3,9.2,0,13.9
			c-0.1,2.1,3.1,2.1,3.3,0c0.5-4.6,1-9.2,1.5-13.8c-1.1,0-2.2,0-3.3,0c0.3,4.3-0.1,8.5-0.6,12.8c-0.2,1.8,2.9,2.3,3.2,0.4
			c0.7-4.7,1.3-9.5,1.8-14.3c-1.1,0-2.2,0-3.3,0c0.2,3.8,0,7.6-0.5,11.3c1.1,0.1,2.1,0.3,3.2,0.4c0.4-4.1,0.8-8.2,1.2-12.3
			c-1.1,0.1-2.1,0.3-3.2,0.4c0.7,4.8,0.8,9.6,0.3,14.5c-0.2,1.8,2.9,2.3,3.2,0.4c0.6-3.9,1.3-7.8,1.9-11.7c-1.1-0.1-2.1-0.3-3.2-0.4
			c-0.1,3.4-0.3,6.7-0.7,10c1.1,0,2.2,0,3.3,0c0.4-4.1,0.8-8.3,1-12.4c-1.1,0-2.2,0-3.3,0c0.1,3.7-0.1,7.3-0.6,11
			c1.1,0.1,2.1,0.3,3.2,0.4c0.2-4.1,0.5-8.2,0.9-12.3c-1.1,0-2.2,0-3.3,0c0.6,4.7,0.9,9.4,0.8,14.2c0,1.8,2.9,2.3,3.2,0.4
			c0.7-4.2,1.4-8.5,2-12.8c-1.1-0.1-2.1-0.3-3.2-0.4c0.1,3.6-0.2,7.2-0.9,10.8c1.1,0.3,2.1,0.6,3.2,0.9c0.7-3.9,1.3-7.7,1.8-11.6
			c-1.1,0-2.2,0-3.3,0c0,3.8-0.3,7.6-0.8,11.4c-0.2,1.9,2.7,2.1,3.2,0.4c1.2-4,1.9-8,2.6-12.1c-1.1-0.1-2.1-0.3-3.2-0.4
			c0.1,1,0.1,1.9,0.1,2.9c0,2.1,3.3,2.1,3.3,0c0-1,0-1.9-0.1-2.9c-0.1-1.7-2.9-2.4-3.2-0.4c-0.7,4.1-1.5,8.1-2.6,12.1
			c1.1,0.1,2.1,0.3,3.2,0.4c0.5-3.8,0.7-7.6,0.8-11.4c0-2.2-3-2-3.3,0c-0.5,3.6-1,7.2-1.7,10.7c-0.4,2.1,2.8,2.9,3.2,0.9
			c0.7-3.9,1.1-7.7,1-11.6c0-1.8-2.9-2.3-3.2-0.4c-0.6,4.3-1.3,8.5-2,12.8c1.1,0.1,2.1,0.3,3.2,0.4c0.1-4.8-0.2-9.5-0.8-14.2
			c-0.3-2.1-3.1-2.1-3.3,0c-0.4,4.1-0.7,8.2-0.9,12.3c-0.1,1.8,2.9,2.3,3.2,0.4c0.6-3.9,0.9-7.9,0.7-11.8c-0.1-2.1-3.2-2.1-3.3,0
			c-0.2,4.1-0.6,8.3-1,12.4c-0.2,2.1,3,2,3.3,0c0.4-3.3,0.7-6.6,0.7-10c0-1.8-2.9-2.3-3.2-0.4c-0.6,3.9-1.3,7.8-1.9,11.7
			c1.1,0.1,2.1,0.3,3.2,0.4c0.5-5.1,0.3-10.2-0.4-15.3c-0.3-2-3.1-1.3-3.2,0.4c-0.4,4.1-0.8,8.2-1.2,12.3c-0.2,1.8,3,2.3,3.2,0.4
			c0.6-4.1,0.8-8.1,0.6-12.2c-0.1-2.1-3.1-2.1-3.3,0c-0.5,4.5-1,8.9-1.7,13.4c1.1,0.1,2.1,0.3,3.2,0.4c0.5-4.3,0.8-8.5,0.6-12.8
			c-0.1-2.1-3.1-2.1-3.3,0c-0.5,4.6-1,9.2-1.5,13.8c1.1,0,2.2,0,3.3,0c0.3-4.6,0.3-9.2,0-13.9c-0.1-1.8-2.8-2.3-3.2-0.4
			c-1.1,4.7-1.6,9.4-1.6,14.2c0,2.1,3.2,2.1,3.3,0c0.2-5.2,0-10.3-0.8-15.5c-0.3-1.9-3.1-1.3-3.2,0.4c-0.1,2.5-0.1,4.9,0.1,7.3
			c0.2,2.1,3,2.1,3.3,0c0.3-2.7,0.5-5.4,0.6-8.2c0-2.1-3.1-2.1-3.3,0c-0.2,2.9-0.4,5.7-0.4,8.6c0,1.8,2.9,2.3,3.2,0.4
			c0.4-2.4,0.5-4.8,0.3-7.2c-0.2-1.7-2.9-2.4-3.2-0.4c-0.5,3.2-0.9,6.4-1.4,9.5c1.1,0.1,2.1,0.3,3.2,0.4c0.3-2.1,0.3-4.1,0-6.2
			c-1.1,0-2.2,0-3.3,0c0.4,3.3,0.6,6.7,0.6,10C169.7,128.6,173,128.6,172.9,126.5L172.9,126.5z"/>
	</g>
	<g>
		<path d="M184.6,99.5c7.7-0.4,15.3-1.3,22.8-2.5c2.1-0.3,1.2-3.5-0.9-3.2c-7.3,1.2-14.6,2-22,2.4C182.5,96.3,182.5,99.6,184.6,99.5
			L184.6,99.5z"/>
	</g>
	<g>
		<path d="M201.8,167.5c-0.6-3.5-2.3-6.1-4.8-8.6c-1.4-1.4-3-2.7-4.4-4.2c-2.5-2.8-2.7-5.7-3.2-9.2c-1.2-8.2-6.9-9.6-14.1-7.2
			c-1,0.3-1.5,1.4-1,2.4c0.6,1.1,1.6,3.5,3.3,3.3c0.7-0.1,1.4-0.4,1.6-1.2c0.4-2.1-1.1-4.8-3.4-4.5c-1.3,0.2-2,1.3-1.4,2.5
			c3.7,7.8,3.2,14.7,3.5,22.9c0.2,5.5,2.3,10.3,5.1,15.1c1.1,1.8,3.9,0.2,2.8-1.7c-4.2-7-4.5-12.6-4.5-20.5c0-6.1-1.6-12-4.2-17.5
			c-0.5,0.8-0.9,1.6-1.4,2.5c0.2,0.5,0.3,0.7,0.3,0.4c0.5-0.4,1.1-0.8,1.6-1.2c0.6-0.4,0.5-1-0.4-1.6c-0.3,0.8-0.7,1.6-1,2.4
			c1.5-0.5,3.8-1.4,5.4-1.2c4.8,0.7,4.5,5.2,4.9,8.4c0.3,2.5,0.7,4.4,2.3,6.5c3.4,4.6,8.9,7.2,10,13.3
			C199,170.5,202.1,169.6,201.8,167.5L201.8,167.5z"/>
	</g>
	<g>
		<path d="M124.4,107.5c0-0.5,0-0.9,0.1-1.3c0.2-0.8-0.2-1.8-1.1-2c-0.8-0.2-1.8,0.2-2,1.1c-0.1,0.7-0.2,1.4-0.2,2.1
			c0.1,0.9,0.7,1.7,1.6,1.6C123.6,109.1,124.4,108.4,124.4,107.5L124.4,107.5z"/>
	</g>
	<g>
		<path d="M124.4,107.8c0-0.5,0-0.8,0.1-1.1c0.2-0.8-0.2-1.8-1.1-2c-0.8-0.2-1.8,0.2-2,1.1c-0.1,0.7-0.2,1.3-0.2,2
			c0,0.9,0.7,1.7,1.6,1.6C123.6,109.4,124.4,108.7,124.4,107.8L124.4,107.8z"/>
	</g>
	<g>
		<path d="M124.9,109.7c0.1-0.6,0.2-1.1,0.2-1.7c0.1-0.9-0.8-1.7-1.6-1.6c-1,0-1.6,0.7-1.6,1.6c0,0.3-0.1,0.5-0.1,0.8
			c-0.2,0.8,0.2,1.8,1.1,2C123.7,111,124.7,110.6,124.9,109.7L124.9,109.7z"/>
	</g>
	<g>
		<path d="M324,17c-35.3-7.1-71.8-3.2-104.8,11.2c-1.9,0.8-0.3,3.7,1.7,2.8c32.1-14,67.9-17.8,102.2-10.9
			C325.1,20.6,326,17.4,324,17L324,17z"/>
	</g>
	<g>
		<path d="M222.9,20.2c-1.9,3.3-3.9,6.7-5.8,10c-0.6,1.1,0.2,2.4,1.4,2.5c4,0.2,7.9,0.8,11.8,2.1c2,0.6,2.9-2.5,0.9-3.2
			c-4.1-1.3-8.3-2-12.7-2.2c0.5,0.8,0.9,1.6,1.4,2.5c1.9-3.3,3.9-6.7,5.8-10C226.8,20,223.9,18.3,222.9,20.2L222.9,20.2z"/>
	</g>
	<g>
		<path d="M339.8,24.2c-0.8-3.8-1.3-7.6-1.3-11.5c0-2.1-3.3-2.1-3.3,0c0.1,4.2,0.6,8.3,1.4,12.3C337.1,27.1,340.3,26.2,339.8,24.2
			L339.8,24.2z"/>
	</g>
	<g>
		<path d="M336.1,9.5c2.1,0,2.1-3.3,0-3.3C334,6.2,334,9.5,336.1,9.5L336.1,9.5z"/>
	</g>
	<g>
		<path d="M344.6,23.8c-0.8-3.9-1.7-7.9-1.7-11.9c-1,0.3-2,0.6-3.1,0.8c1.2,1.8,2.6,3.4,4,5c1.5,1.8,2.5,3.8,3.7,5.8
			c0.8,1.4,3.1,0.8,3.1-0.8c-0.2-4.2-0.1-8.4,0.2-12.6c0.2-2.1-3.1-2.1-3.3,0c-0.3,4.2-0.4,8.4-0.2,12.6c1-0.3,2-0.6,3.1-0.8
			c-1-1.7-1.8-3.5-3-5.1c-1.5-2-3.2-3.7-4.7-5.8c-0.9-1.3-3-0.9-3.1,0.8c0,4.3,1,8.6,1.8,12.8C341.8,26.7,345,25.8,344.6,23.8
			L344.6,23.8z"/>
	</g>
	<g>
		<path d="M354.6,12.1c3.5-0.5,7.1-0.6,10.7-0.5c2.1,0.1,2.1-3.2,0-3.3c-3.9-0.2-7.7,0.1-11.5,0.6C351.7,9.2,352.5,12.4,354.6,12.1
			L354.6,12.1z"/>
	</g>
	<g>
		<path d="M357.6,11.3c0.8,3.6,1.1,7.2,0.9,10.9c-0.1,2.1,3.2,2.1,3.3,0c0.2-4-0.2-7.9-1-11.8C360.3,8.4,357.1,9.2,357.6,11.3
			L357.6,11.3z"/>
	</g>
	<g>
		<path d="M369.5,9.8c0.3,2.1,0.4,4.2,0.4,6.2c0,1.8-0.3,3.8,0.1,5.6c0.6,3.1,5.4,1.9,7.6,1.8c2.1,0,2.1-3.3,0-3.3
			c-1.7,0-3.8,0.4-5.4,0.1c0.4,0.4,0.8,0.8,1.1,1.1c-0.5-1.7-0.1-4.1-0.1-5.8c0-1.9-0.1-3.9-0.4-5.8C372.5,7.7,369.2,7.7,369.5,9.8
			L369.5,9.8z"/>
	</g>
	<g>
		<path d="M373.3,17.3c0.6,0,1.3,0,1.9-0.1c0.9-0.1,1.7-0.7,1.6-1.6c0-0.8-0.7-1.7-1.6-1.6c-0.6,0.1-1.3,0.1-1.9,0.1
			c-0.9,0-1.7,0.8-1.6,1.6C371.7,16.5,372.4,17.2,373.3,17.3L373.3,17.3z"/>
	</g>
	<g>
		<path d="M372,11.4c2.1,0.1,4.3-0.4,6.4,0.2c2,0.6,2.9-2.6,0.9-3.2c-2.4-0.7-4.8-0.2-7.2-0.3C369.9,8,369.9,11.3,372,11.4L372,11.4
			z"/>
	</g>
	<g>
		<path d="M385,21.7c-0.4-2.6-0.9-5.8-0.4-8.4c0.2-1,0.3-1.5,1.3-2c0.9-0.5,2-0.3,2.2,1c0.2,1.8-2.5,1.8-3.8,1.8
			c-1.9,0-2.2,2.6-0.4,3.2c2.5,0.8,4.9,2.3,5.2,5.1c0.2,2.1,3.5,2.1,3.3,0c-0.2-2.1-0.6-3.8-2.2-5.2c-1.5-1.3-3.5-2.4-5.4-3
			c-0.1,1.1-0.3,2.1-0.4,3.2c3,0,6.7-0.7,7.2-4.2c0.3-2.4-1.3-4.8-3.7-5.4c-8.2-1.9-6.4,10.6-5.8,14.8
			C382.1,24.6,385.3,23.7,385,21.7L385,21.7z"/>
	</g>
	<g>
		<path d="M396.8,22.6c-0.4-2.2,0-4.3,0.2-6.5c0.2-1.9,0-3.8,0.2-5.7c-1,0.3-2,0.6-3.1,0.8c2.4,4.3,5.2,8.3,7.4,12.7
			c0.7,1.4,2.5,0.8,3-0.4c1.5-3.8,0-8.4,0.8-12.4c0.4-2.1-2.7-2.9-3.2-0.9c-0.4,2-0.5,4-0.5,6.1c0,2.1,0.4,4.4-0.3,6.3
			c1-0.1,2-0.3,3-0.4c-2.2-4.4-4.9-8.4-7.4-12.7c-0.9-1.5-2.9-0.7-3.1,0.8c-0.3,2.2-0.1,4.4-0.3,6.6c-0.2,2.2-0.3,4.3,0,6.5
			C394,25.6,397.2,24.7,396.8,22.6L396.8,22.6z"/>
	</g>
	<g>
		<path d="M407.7,11.2c0.3,2.4-0.4,4.8-0.6,7.2c-0.1,1.8-0.6,3.7-0.6,5.4c0,0.8,0.5,1.3,1.2,1.6c1.8,0.6,3.9,0.8,5.8,1.1
			c2.1,0.4,2.9-2.8,0.9-3.2c-1.8-0.3-4-0.5-5.8-1.1c0.4,0.5,0.8,1.1,1.2,1.6c0-0.8,0.4-1.9,0.5-2.8c0.1-1.4,0.1-2.7,0.3-4.1
			c0.3-2.3,0.6-4.3,0.3-6.6C410.5,8.3,407.4,9.2,407.7,11.2L407.7,11.2z"/>
	</g>
	<g>
		<path d="M409.7,18.2c0.6,0.4,1.3,0.7,1.9,0.8c0.8,0.2,1.8-0.2,2-1.1c0.2-0.8-0.2-1.8-1.1-2c-0.5-0.1-0.7-0.2-1.2-0.5
			c-0.7-0.5-1.8-0.1-2.2,0.6C408.6,16.7,408.9,17.7,409.7,18.2L409.7,18.2z"/>
	</g>
	<g>
		<path d="M409.7,12.5c0.9,0.1,1.7,0.3,2.6,0.5c0.8,0.3,1.5,0.5,2.4,0.5c2.1,0,2.1-3.3,0-3.3c-0.6,0-1.2-0.3-1.8-0.5
			c-0.7-0.2-1.5-0.3-2.3-0.4c-0.9-0.1-1.8,0.2-2,1.1C408.3,11.3,408.8,12.4,409.7,12.5L409.7,12.5z"/>
	</g>
	<g>
		<path d="M418.6,14.6c2.8,0.6,5.6,1.1,8.4,1.7c2.1,0.4,2.9-2.7,0.9-3.2c-2.8-0.6-5.6-1.1-8.4-1.7C417.4,11.1,416.6,14.2,418.6,14.6
			L418.6,14.6z"/>
	</g>
	<g>
		<path d="M420.9,14.6c0.3,3.4-0.7,6.6-0.9,9.9c-0.2,2.1,3.1,2.1,3.3,0c0.3-3.3,1.3-6.6,0.9-9.9C423.9,12.5,420.7,12.5,420.9,14.6
			L420.9,14.6z"/>
	</g>
	<g>
		<path d="M323.5,34c1.4,3.4,1.8,6.9,2.1,10.5c0.2,2.1,3.5,2.1,3.3,0c-0.4-3.9-0.7-7.8-2.2-11.4C325.9,31.2,322.7,32,323.5,34
			L323.5,34z"/>
	</g>
	<g>
		<path d="M330.1,32c-0.8,1.9-2.1,3.4-3.7,4.7c-1,0.8-0.4,2.5,0.7,2.7c2.4,0.6,4.8,1.5,5.4,4.1c0.4,2.1,3.6,1.2,3.2-0.9
			c-0.8-3.8-4.2-5.6-7.7-6.4c0.2,0.9,0.5,1.8,0.7,2.7c2.1-1.7,3.5-3.7,4.5-6.2C334,30.9,330.9,30.1,330.1,32L330.1,32z"/>
	</g>
	<g>
		<path d="M334.5,32.5c0.6,2.7,0.6,5.5,1.8,8c0.7,1.7,2.5,4.2,4.7,3.5c1.8-0.6,3-3.1,3.4-4.8c0.5-2.5-0.4-5.4-0.8-7.9
			c-0.3-2.1-3.5-1.2-3.2,0.9c0.2,1.4,0.5,2.9,0.7,4.3c0.1,1,0,4.2-1.5,4.4c0.4,0.1,0.8,0.1,1.3,0.2c-2.9-1.6-2.5-6.7-3.2-9.5
			C337.2,29.5,334.1,30.4,334.5,32.5L334.5,32.5z"/>
	</g>
	<g>
		<path d="M344.7,31.3c0.6,3.1,1.1,6.2,1.4,9.3c0.1,1.1,0.9,1.9,2.1,1.6c1.4-0.4,2.7-0.5,4.2-0.5c2.1,0,2.1-3.3,0-3.3
			c-1.7,0-3.4,0.2-5,0.6c0.7,0.5,1.4,1.1,2.1,1.6c-0.4-3.4-0.9-6.8-1.5-10.2C347.5,28.4,344.3,29.3,344.7,31.3L344.7,31.3z"/>
	</g>
	<g>
		<path d="M353.4,30c0.8,3.3,1.2,6.7,1.4,10.1c0.1,1,1,1.9,2.1,1.6c1.9-0.6,3.7-0.8,5.7-0.5c2.1,0.3,3-2.9,0.9-3.2
			c-2.6-0.4-5-0.2-7.5,0.5c0.7,0.5,1.4,1.1,2.1,1.6c-0.2-3.7-0.7-7.3-1.5-10.9C356.1,27.1,352.9,28,353.4,30L353.4,30z"/>
	</g>
	<g>
		<path d="M368.9,39.5c0.2-3.4,0.7-6.8,1.4-10.2c-1,0.1-2,0.3-3,0.4c2,3.2,4.1,6.3,5.3,9.8c0.7,2,3.8,1.1,3.2-0.9
			c-1.3-3.8-3.5-7.2-5.7-10.6c-0.7-1.1-2.7-1.1-3,0.4c-0.8,3.6-1.3,7.3-1.5,11C365.5,41.7,368.8,41.6,368.9,39.5L368.9,39.5z"/>
	</g>
	<g>
		<path d="M369.5,38.5c0.7-0.2,1.3-0.2,2.1-0.2c0.9,0,1.7-0.8,1.6-1.6c0-0.9-0.7-1.6-1.6-1.6c-1,0-2,0.1-3,0.3
			c-0.9,0.2-1.4,1.2-1.1,2C367.7,38.2,368.6,38.7,369.5,38.5L369.5,38.5z"/>
	</g>
	<g>
		<path d="M379.9,39.8c-0.4-3.8-0.8-7.6-1.2-11.4c-1,0.3-2,0.6-3.1,0.8c2.3,3.5,4.3,7.2,6,11c0.6,1.3,2.7,0.9,3-0.4
			c0.9-3.6,0.2-7.7,0.3-11.4c0.1-2.1-3.2-2.1-3.3,0c-0.2,3.4,0.6,7.2-0.2,10.5c1-0.1,2-0.3,3-0.4c-1.7-3.8-3.8-7.5-6-11
			c-0.8-1.2-3.2-0.9-3.1,0.8c0.4,3.8,0.8,7.6,1.2,11.4C376.8,41.9,380.1,41.9,379.9,39.8L379.9,39.8z"/>
	</g>
	<g>
		<path d="M389.1,40c0.1-1.9,0.1-3.7,0.2-5.6c0-1.4-0.3-3.3,0.1-4.6c-1,0.1-2,0.3-3,0.4c1,1.6,2.1,3.3,3.1,4.9
			c0.6,0.9,1.8,1.1,2.6,0.3c1.7-1.7,3.2-3.5,4.6-5.4c-1-0.3-2-0.6-3.1-0.8c-0.1,3.4-1.1,6.6-1.2,10c0,2.1,3.2,2.1,3.3,0
			c0-3.4,1-6.6,1.2-10c0.1-1.8-2.2-2-3.1-0.8c-1.2,1.7-2.6,3.2-4,4.7c0.9,0.1,1.7,0.2,2.6,0.3c-1-1.6-2.1-3.3-3.1-4.9
			c-0.8-1.2-2.6-1-3,0.4c-0.5,1.5-0.2,3.2-0.2,4.7c0,2.1-0.1,4.2-0.2,6.4C385.8,42.1,389,42.1,389.1,40L389.1,40z"/>
	</g>
	<g>
		<path d="M400.3,41.4c2-3.8,4-7.6,6.2-11.3c-1-0.1-2-0.3-3-0.4c0.7,1.8,1.5,3.6,1.9,5.5c0.4,2.1,0.3,4.2,0.4,6.3
			c0.2,2.1,3.4,2.1,3.3,0c-0.2-2.1-0.1-4.2-0.4-6.3c-0.4-2.2-1.2-4.3-2-6.4c-0.5-1.2-2.2-1.7-3-0.4c-2.1,3.7-4.2,7.5-6.2,11.3
			C396.5,41.6,399.4,43.3,400.3,41.4L400.3,41.4z"/>
	</g>
	<g>
		<path d="M401.7,38.2c1.2,0.3,2.4,0.5,3.7,0.6c0.9,0,1.6-0.8,1.6-1.6c0-0.9-0.8-1.6-1.6-1.6c-1,0-1.9-0.2-2.8-0.5
			C400.6,34.5,399.7,37.6,401.7,38.2L401.7,38.2z"/>
	</g>
	<g>
		<path d="M409.8,31.5c0.5,1,0.9,2,1.2,3c0.3,0.9,0.4,1.9,0.8,2.7c0.3,0.5,0.9,0.8,1.4,0.8c1.2,0.1,2.3-1.1,3.2-1.8
			c1.2-1,2.2-2,3.3-3.1c1.4-1.5-0.9-3.9-2.3-2.3c-0.7,0.8-1.5,1.5-2.3,2.3c-0.4,0.3-0.8,0.7-1.1,1c-0.2,0.2-0.4,0.3-0.6,0.5
			c-0.5,0.3-0.5,0.4,0,0.2c0.5,0.3,0.9,0.5,1.4,0.8c-0.4-0.9-0.4-2-0.8-2.9c-0.3-1-0.8-1.9-1.2-2.8
			C411.7,27.9,408.9,29.6,409.8,31.5L409.8,31.5z"/>
	</g>
	<g>
		<path d="M412.2,36.2c-0.2,1.9-0.6,3.7-1.1,5.5c-0.5,2,2.6,2.9,3.2,0.9c0.6-2.1,0.9-4.2,1.2-6.4c0.1-0.9-0.8-1.6-1.6-1.6
			C412.9,34.5,412.3,35.3,412.2,36.2L412.2,36.2z"/>
	</g>
	<g>
		<path d="M418.9,44.7c3.1-3.3,6.7-6.2,9.7-9.6c-0.9-0.2-1.8-0.5-2.7-0.7c0.7,3.7-0.9,7.3-1.2,11c-0.1,2.1,3.2,2.1,3.3,0
			c0.2-4.1,1.9-7.7,1-11.9c-0.2-1.2-1.9-1.6-2.7-0.7c-3.1,3.4-6.6,6.2-9.7,9.6C415.1,43.9,417.4,46.2,418.9,44.7L418.9,44.7z"/>
	</g>
	<g>
		<path d="M421.8,42.2c1,0.3,2,0.6,3,0.9c0.8,0.3,1.8-0.3,2-1.1c0.2-0.9-0.3-1.7-1.1-2c-1-0.3-2-0.6-3-0.9c-0.8-0.3-1.8,0.3-2,1.1
			C420.4,41.1,421,41.9,421.8,42.2L421.8,42.2z"/>
	</g>
	<g>
		<path d="M431.9,47.7c1.4-3.6,3.1-7.1,4.7-10.6c-1-0.1-2-0.3-3-0.4c1.1,4.1,1.5,8.4,2.7,12.5c0.5,1.6,2.7,1.5,3.2,0
			c1.2-3.7,3.1-7,5.2-10.3c1.2-1.8-1.7-3.4-2.8-1.7c-2.3,3.5-4.3,7-5.6,11c1.1,0,2.1,0,3.2,0c-1.2-4.1-1.6-8.4-2.7-12.5
			c-0.3-1.3-2.4-1.7-3-0.4c-1.8,3.8-3.5,7.5-5,11.4C428,48.8,431.2,49.6,431.9,47.7L431.9,47.7z"/>
	</g>
	<g>
		<path d="M344,49.5c-3.7-2.6-10.1,1-8.4,5.7c0.8,2.1,2.7,2.6,4.7,3c0.4,0.1,1,0.3,1.4,0.3c0.4,0.4,0.6,0.4,0.6-0.1
			c-0.2,0.1-0.3,0.2-0.5,0.3c-1.6,0.1-2.5,0.4-4-0.6c-1.8-1.2-3.4,1.7-1.7,2.8c1.8,1.2,3.9,1.6,6,1.1c1.8-0.5,3.7-1.7,3.3-3.8
			c-0.3-2-2.3-2.8-4-3.1c-1-0.2-2.6-0.1-2.7-1.4c-0.1-1.8,2.6-2.1,3.7-1.4C344.1,53.5,345.7,50.7,344,49.5L344,49.5z"/>
	</g>
	<g>
		<path d="M351.6,48.6c-5.7-0.3-6.6,11.3-1.1,12.4c2.6,0.5,5.9-1.5,6.6-4c0.9-3.2-1.2-5.9-3.2-8.1c-1.4-1.5-3.7,0.8-2.3,2.3
			c1.5,1.6,4.4,5.5,0.6,6.4c-3.3,0.8-2.1-5.8-0.5-5.7C353.7,52,353.7,48.7,351.6,48.6L351.6,48.6z"/>
	</g>
	<g>
		<path d="M361.7,58c0.2-3,0.3-6,0.1-9c-0.9,0.4-1.9,0.8-2.8,1.2c2.7,2.2,4.7,5.8,6.8,8.7c0.9,1.3,3,0.9,3.1-0.8
			c0.1-3.9,0.6-7.8,1.7-11.6c0.6-2-2.6-2.9-3.2-0.9c-1.2,4.1-1.8,8.2-1.9,12.4c1-0.3,2-0.6,3.1-0.8c-2.2-3-4.3-7-7.3-9.3
			c-1-0.8-2.9-0.4-2.8,1.2c0.2,3,0.1,6-0.1,9C358.3,60.1,361.6,60.1,361.7,58L361.7,58z"/>
	</g>
	<g>
		<path d="M380.9,57.9c0.2-2.2,0.5-4.4,0.9-6.5c0.4-2.1-2.7-2.9-3.2-0.9c-0.5,2.4-0.9,4.9-1.1,7.4C377.5,60,380.8,60,380.9,57.9
			L380.9,57.9z"/>
	</g>
	<g>
		<path d="M381.9,45.6c0-0.1-0.1-0.1-0.1-0.2c-0.6-0.7-1.7-0.6-2.3,0c-0.7,0.7-0.6,1.6,0,2.3c0,0.1,0.1,0.1,0.1,0.2
			c0.6,0.7,1.7,0.6,2.3,0C382.6,47.2,382.5,46.3,381.9,45.6L381.9,45.6z"/>
	</g>
	<g>
		<path d="M386.4,58.6c0.3-3.5,0.3-7.3,1.2-10.7c-1,0.1-2,0.3-3,0.4c2,3.5,3.6,7.1,4.9,10.8c0.5,1.4,2.8,1.7,3.2,0
			c0.4-2,1-3.6,2-5.4c0.9-1.6,1.8-3.2,2.1-5.1c0.3-2.1-2.8-2.9-3.2-0.9c-0.4,2.2-1.6,3.8-2.6,5.7c-0.8,1.5-1.2,3.1-1.6,4.8
			c1.1,0,2.1,0,3.2,0c-1.4-4-3.1-7.9-5.2-11.6c-0.7-1.2-2.6-1-3,0.4c-1,3.7-1,7.8-1.3,11.6C382.9,60.7,386.2,60.7,386.4,58.6
			L386.4,58.6z"/>
	</g>
	<g>
		<path d="M406.4,50.6c-2.1-2.4-6.7-3.6-8.2,0.2c-0.6,1.5-0.1,3.2,1.1,4.3c0.3,0.3,2.1,1.3,2.1,1.7c0,0-0.9,0.2-0.9,0.2
			c-0.5,0-0.8-0.2-1.2-0.5c-1.7-1.2-3.4,1.6-1.7,2.8c2.3,1.6,7.1,1,7.1-2.5c0-1.6-1.2-2.6-2.4-3.5c-0.6-0.4-1.7-1.3-0.4-1.7
			c0.9-0.3,1.8,0.7,2.3,1.3C405.5,54.5,407.8,52.2,406.4,50.6L406.4,50.6z"/>
	</g>
	<g>
		<path d="M408.5,60.5c1.3-3,3.6-5.3,5-8.2c-0.9,0-1.9,0-2.8,0c1.2,2.7,2.5,6.1,2.2,9.1c-0.2,2.1,3.1,2.1,3.3,0
			c0.3-3.6-1.3-7.5-2.7-10.7c-0.5-1.1-2.3-1-2.8,0c-1.4,2.9-3.7,5.3-5,8.2C404.8,60.8,407.6,62.4,408.5,60.5L408.5,60.5z"/>
	</g>
	<g>
		<path d="M409.6,59.2c0.3,0.2,0.7,0.3,1,0.4c0.1,0,0.3,0,0.4,0.1c0.1,0,0.5,0.1,0.2,0c0.8,0.4,1.8,0.2,2.2-0.6
			c0.4-0.7,0.2-1.9-0.6-2.2c-0.4-0.2-0.7-0.3-1.1-0.4c-0.1,0-0.3-0.1-0.4-0.1c-0.3-0.1,0.1,0.1-0.2-0.1c-0.7-0.5-1.8-0.1-2.2,0.6
			C408.5,57.8,408.8,58.7,409.6,59.2L409.6,59.2z"/>
	</g>
	<g>
		<path d="M420.8,64.2c0.8-4,2.9-7.6,3.2-11.7c-1.1,0.1-2.1,0.3-3.2,0.4c0.9,2.3,1.4,4.6,1.6,7.1c0.2,2,0.3,3.9,1,5.8
			c0.6,1.4,2.7,1.7,3.2,0c1.1-3.6,3.5-6.8,4.2-10.5c0.4-2.1-2.8-2.9-3.2-0.9c-0.7,3.6-3.2,6.9-4.2,10.5c1.1,0,2.1,0,3.2,0
			c-0.8-2.2-0.8-4.5-1-6.7c-0.3-2.1-0.7-4.2-1.5-6.2c-0.7-1.7-3.1-1.5-3.2,0.4c-0.3,3.7-2.3,7.2-3.1,10.9
			C417.2,65.4,420.4,66.3,420.8,64.2L420.8,64.2z"/>
	</g>
	<g>
		<path d="M359.2,201.3c-6.8,7.1-13.5,14.2-20.3,21.3c-4.6,4.8-5.6,6.5-0.1,11c10.7,8.7,26.4,14.3,39.2,6.4
			c6-3.7,10.6-10.6,13.7-16.7c3.8-7.4,0.1-13.9-1.8-21.4c-2.4-9.6-3.1-19.6-3.6-29.5c-0.2-4.8-0.7-11-6.7-11.4
			c-7.5-0.5-10.4,7-11.2,13c-1.6,10.9-4.8,20.4-11.9,28.9c-1.3,1.6,1,3.9,2.3,2.3c4.3-5.2,7.7-10.8,9.9-17.2
			c1.2-3.3,1.9-6.7,2.4-10.1c0.5-3.3,0.9-13.5,6.3-13.5c1.8,1,3.5,2,5.3,3c0.2,1.6,0.3,3.2,0.4,4.8c0.1,2,0.2,4,0.3,6
			c0.3,4,0.6,8.1,1.1,12.1c1,7.9,3.9,15.1,5.4,22.8c1.7,8.2-6.8,19.7-13.6,23.9c-7.6,4.7-17.3,4-25.2,0.4c-3.6-1.6-6.9-3.8-10-6.3
			c-4.4-3.5-1.9-4.3,1.5-7.9c6.3-6.6,12.6-13.2,18.9-19.7C363,202.1,360.7,199.8,359.2,201.3L359.2,201.3z"/>
	</g>
	<g>
		<path d="M334.9,228.3c0.9,13.1,0.1,26-2.6,38.8c-0.4,2.1,2.7,2.9,3.2,0.9c2.7-13.1,3.6-26.3,2.7-39.7
			C338.1,226.2,334.8,226.2,334.9,228.3L334.9,228.3z"/>
	</g>
	<g>
		<path d="M364.9,242c-1.6,11,0.7,22-0.3,33c-0.2,2.1,3.1,2.1,3.3,0c0.9-10.7-1.4-21.4,0.1-32.1C368.4,240.8,365.2,239.9,364.9,242
			L364.9,242z"/>
	</g>
	<g>
		<path d="M390.6,217c-1.2,11.1-2.2,22.3-3.1,33.5c-0.2,2.1,3.1,2.1,3.3,0c0.9-11.2,1.9-22.3,3.1-33.5
			C394.1,214.9,390.8,214.9,390.6,217L390.6,217z"/>
	</g>
	<g>
		<path d="M359.2,243.7c2.1,0,2.1-3.3,0-3.3C357.1,240.5,357.1,243.7,359.2,243.7L359.2,243.7z"/>
	</g>
	<g>
		<path d="M362.3,245.7c-0.1-0.8,0-1.6,0.3-2.4c0.3-0.8-0.3-1.8-1.1-2c-0.9-0.2-1.7,0.3-2,1.1c-0.5,1.4-0.5,2.8-0.3,4.2
			c0.1,0.9,1.2,1.4,2,1.1C362.1,247.4,362.5,246.5,362.3,245.7L362.3,245.7z"/>
	</g>
	<g>
		<g>
			<g>
				<path d="M377,165.4c-2.7,16.8-3.3,33.8-1.9,50.7c0.2,2.4-3.5,2.4-3.7,0c-1.5-17.3-0.8-34.6,2-51.7
					C373.8,162,377.4,163,377,165.4L377,165.4z"/>
			</g>
			<g>
				<path d="M374.4,164.1c-6.8-3-12.5-6.4-14.7-13.9c-0.5-1.6-0.8-3.2-1-4.8c-1.5-1.2-2.8-2.3-4.1-3.6c0,0.4,0,0.7,0.1,1.1
					c0.5,5.5,1.6,11.2,5,15.7c3.4,4.5,8.6,6.8,13.6,9.1C375.6,168.7,376.6,165.1,374.4,164.1z"/>
			</g>
			<g>
				<path d="M373.8,165c8.1-4.5,14.9-13.2,20.5-20.4c6.7-8.6,10.6-18,12.9-28.5c0.5-2.3,4.2-2,3.7,0.3c-2.4,11.2-6.4,21.3-13.5,30.3
					c-6.1,7.8-13.3,16.8-22,21.6C373.3,169.5,371.7,166.1,373.8,165L373.8,165z"/>
			</g>
			<g>
				<path d="M372.9,164.8c-0.1-3.2,0.3-6.4,0.9-9.5c0.5-2.4,4.1-1.4,3.6,1c-0.6,2.8-0.9,5.7-0.8,8.6
					C376.7,167.2,373,167.2,372.9,164.8L372.9,164.8z"/>
			</g>
			<g>
				<path d="M388.7,81.2c13.8,5.7,26.4,15.7,31.4,30.3c4.4,12.5,1.6,28-8.1,37.3c-11,10.6-31.1,12.1-44.6,6.1
					c-16.4-7.3-20-23.9-15.2-40c5.2-17.3,18-32.5,37-33.7c2.4-0.2,2.4,3.5,0,3.7c-19.5,1.3-31.8,19.4-34.9,37.3
					c-4.3,24.1,18.2,35.3,39.1,31.5c16.3-3,26.3-16.3,25-32.8c-1.3-17.1-15.7-29.9-30.6-36.1C385.6,83.8,386.5,80.2,388.7,81.2
					L388.7,81.2z"/>
			</g>
			<g>
				<path d="M397.2,85.2c2.4-4.8,0.2-10.3-4.9-12c-2.2-0.8-1.3-4.3,1-3.6c7.4,2.5,10.6,10.5,7.1,17.5
					C399.4,89.2,396.2,87.4,397.2,85.2L397.2,85.2z"/>
			</g>
			<g>
				<path d="M385.9,83.4c1-4.4-2.2-8.7-6.5-9.4c-2.3-0.4-1.3-3.9,1-3.6c6.4,1.1,10.5,7.7,9.1,13.9C388.9,86.7,385.3,85.7,385.9,83.4
					L385.9,83.4z"/>
			</g>
			<g>
				<path d="M374.5,87c-2.1-4.6-6.8-7.5-11.9-6.8c-2.3,0.3-3.3-3.2-1-3.6c6.6-1,13.2,2.3,16,8.5C378.6,87.3,375.4,89.2,374.5,87
					L374.5,87z"/>
			</g>
			<g>
				<path d="M381.2,118.4c-2.4,0-2.4-3.7,0-3.7C383.6,114.7,383.6,118.4,381.2,118.4L381.2,118.4z"/>
			</g>
			<g>
				<path d="M366.8,117.5c-2.4,0-2.4-3.7,0-3.7C369.1,113.8,369.2,117.5,366.8,117.5L366.8,117.5z"/>
			</g>
			<g>
				<path d="M375,134.6c-2.8-1.2-6-0.6-7.7,2.1c-1.7,2.7-0.9,6.2,2.1,7.5c2.6,1.1,6,0.9,7.7-1.6c0.8-1.2,1.1-2.9,0.9-4.2
					c-0.2-1.7-1.8-2.6-3.1-3.5c-1.7-1.3-3.3,1.6-1.7,2.8c0.7,0.5,1.4,0.8,1.5,1.7c0.1,0.5-0.2,1.3-0.5,1.6c-0.8,0.9-2.1,0.8-3.1,0.5
					c-3.1-1.1-0.4-5.2,2.3-4C375.3,138.2,376.9,135.4,375,134.6L375,134.6z"/>
			</g>
		</g>
		<g>
			<path d="M373,215.2c-6.3-2.2-12,2-17.3,5.1c-6.3,3.7-14.2,6.9-19.5,11.9c-4.6,4.3-5.4,11.6-6.5,17.4c-1.6,8.2-2.4,16.5-2.6,24.9
				c-0.1,2.1,3.2,2.1,3.3,0c0.2-6.7,0.7-13.4,1.8-20c0.9-5.5,1.5-12.9,4.5-17.8c3.1-4.9,10.6-7.7,15.4-10.5
				c5.4-3.2,13.5-10.2,20.1-7.9C374.1,219.1,375,215.9,373,215.2L373,215.2z"/>
		</g>
		<g>
			<path d="M371.9,216c-5.6,10.4-13.1,21.1-16.6,32.4c-3.5,11.5-0.1,23.8-1.4,35.6c-0.2,2.1,3.1,2.1,3.3,0
				c1.2-11.5-2.2-23.5,1.3-34.7c3.4-11,10.8-21.5,16.3-31.6C375.7,215.8,372.9,214.1,371.9,216L371.9,216z"/>
		</g>
	</g>
	<g>
		<path d="M504.6,102.1c-22.4-5.7-45.6-6.1-68.1-1.3c-2.1,0.4-1.2,3.6,0.9,3.2c22-4.7,44.6-4.3,66.4,1.3
			C505.7,105.7,506.6,102.6,504.6,102.1L504.6,102.1z"/>
	</g>
	<g>
		<path d="M445.7,91.6c-1.8,2-4.7,3.2-6.8,4.9c-1.4,1.2-4.4,3.1-4.3,5.3c0.1,1.9,2.6,3.7,3.8,4.8c2.3,2.1,4.8,3.9,7.5,5.6
			c1.8,1.1,3.5-1.7,1.7-2.8c-2.1-1.3-10.1-5.9-8.5-8.5c1.9-3.2,6.5-4.2,9-6.9C449.4,92.4,447.1,90,445.7,91.6L445.7,91.6z"/>
	</g>
	<g>
		<path d="M512.2,109.3c-0.6-2.8-1.1-5.5-1.2-8.4c0-0.5-0.3-3.3,0.1-3.6c1.8-0.5,2.3,0.3,1.5,2.4c-0.6,0.3-1.2,0.5-1.8,0.5
			c-1.8,0.3-1.4,3.4,0.4,3.2c1.5-0.1,5.5-0.4,5.7,1.9c0.1,1.2-3.2,3.2-4,2.3c-1.4-1.6-3.7,0.8-2.3,2.3c2.5,2.7,9,0,9.6-3.3
			c1.1-5.4-5-6.7-9-6.4c0.1,1.1,0.3,2.1,0.4,3.2c2.4-0.4,4.7-1.7,5-4.3c0.3-2.8-2-5-4.6-5.4c-3.2-0.6-4.1,1.4-4.3,4.2
			c-0.2,4.2,0.4,8.2,1.2,12.3C509.5,112.2,512.6,111.3,512.2,109.3L512.2,109.3z"/>
	</g>
	<g>
		<path d="M521.1,95c-0.1,2.7-0.3,5.5-0.4,8.2c-0.1,2-0.7,4.6-0.2,6.6c0.1,0.5,0.6,1,1.1,1.1c2.7,0.5,5.8,0.1,8.6,0.5
			c2.1,0.2,2.1-3,0-3.3c-1.3-0.2-2.7-0.3-4-0.4c-1.1-0.1-2.6,0.2-3.7,0c0.4,0.4,0.8,0.8,1.1,1.1c-0.5-1.8,0.3-4.9,0.4-6.8
			c0.1-2.4,0.2-4.8,0.3-7.1C524.5,92.9,521.2,92.9,521.1,95L521.1,95z"/>
	</g>
	<g>
		<path d="M522.8,103.3c2.3,0.3,4.5,0.5,6.8,0.4c2.1-0.1,2.1-3.4,0-3.3c-2,0.1-4,0-5.9-0.3c-0.9-0.1-1.8,0.2-2,1.1
			C521.4,102,521.9,103.1,522.8,103.3L522.8,103.3z"/>
	</g>
	<g>
		<path d="M523.3,97c2.4-0.3,4.8-0.3,7.2,0c2.1,0.2,2.1-3,0-3.3c-2.4-0.3-4.8-0.3-7.2,0C521.3,94,521.2,97.3,523.3,97L523.3,97z"/>
	</g>
	<g>
		<path d="M536.7,111c0.7-4.9,0.3-9.8,0.5-14.7c-1,0.3-2,0.6-3.1,0.8c1.5,2.3,3,4.6,4.2,7.1c1.1,2.3,1.6,4.7,2.7,7
			c0.8,1.6,2.9,0.6,3.1-0.8c0.6-4.5,1.1-8.9,1.7-13.4c0.3-2.1-3-2.1-3.3,0c-0.6,4.5-1.1,8.9-1.7,13.4c1-0.3,2-0.6,3.1-0.8
			c-1.1-2.2-1.6-4.7-2.7-7c-1.2-2.5-2.7-4.8-4.2-7.1c-0.9-1.4-3-0.8-3.1,0.8c-0.1,4.6,0.3,9.3-0.4,13.8
			C533.2,112.2,536.4,113.1,536.7,111L536.7,111z"/>
	</g>
</g>
</svg>
