<?xml version="1.0" encoding="utf-8"?>
<!-- Generator: Adobe Illustrator 22.0.0, SVG Export Plug-In . SVG Version: 6.00 Build 0)  -->
<svg version="1.1" id="Layer_1" xmlns="http://www.w3.org/2000/svg" xmlns:xlink="http://www.w3.org/1999/xlink" x="0px" y="0px"
	 viewBox="0 0 666 300" style="enable-background:new 0 0 666 300;" xml:space="preserve">
<g>
	<g>
		<path d="M247.8,146.9c0.3,2.2,0.2,4.2,0.3,6.4c0,1.4,0.5,2.1,1.8,2.3c2.1,0.4,4.4,0.2,6.5,0.1c1.2,0,3,0.2,3.7-1.1
			c0.6-1.3,0.4-3.5,0.4-4.9c0-1.5,0.1-3.9-0.9-5c-0.9-1.1-2.5-0.9-3.8-0.9c-2.2,0.1-4.3,0.4-6.5,0.6c-1.9,0.2-1.9,3.2,0,3
			c1.2-0.2,2.5-0.3,3.7-0.4c1-0.1,2.8-0.5,3.8-0.2c1.3,0.4,0.7,5.5,0.4,6.8c0.2-0.3,0.5-0.6,0.7-0.9c0.5-0.1,0.5-0.1,0-0.1
			c-0.4,0-0.8,0-1.1,0c-0.8,0-1.5,0-2.3,0c-1.4,0-3.2,0.2-4.5-0.2c0.3,0.3,0.7,0.7,1,1c-0.3-1.2,0.1-2.7,0-3.9s-0.2-2.4-0.4-3.6
			C250.4,144.2,247.5,145,247.8,146.9L247.8,146.9z"/>
	</g>
</g>
<g>
	<g>
		<path d="M266.7,154.2c-0.1-1.8-0.1-3.5,0-5.2c0.1-1.5-0.1-3,0.1-4.5c-0.4,0.5-0.7,1-1.1,1.4c0.6-0.2,2.7-0.2,3.1,0.5
			c0.6,1.3-2,1.4-2.6,1.5c-1.5,0.3-1.4,2.5,0,2.9c0.7,0.2,3.5,0.7,3.4,1.5c-0.1,1-3,0.3-3.6,0.1c-1.8-0.6-2.6,2.3-0.8,2.9
			c2.3,0.7,6.9,0.9,7.7-2.1c0.8-3.3-3.6-4.7-5.9-5.3c0,1,0,1.9,0,2.9c2.6-0.5,6-1.6,4.8-5c-0.8-2.5-4.6-3.7-6.9-2.7
			c-0.7,0.3-1,0.7-1.1,1.4c-0.2,1.4,0,3-0.1,4.5c-0.1,1.8-0.1,3.5,0,5.2C263.8,156.1,266.8,156.1,266.7,154.2L266.7,154.2z"/>
	</g>
</g>
<g>
	<g>
		<path d="M280.1,144c-1.7,0-4.1-0.5-5.7,0.1c-0.6,0.2-1.1,0.8-1.1,1.4c0,1.7,0.8,3.4,0.9,5.1c0.1,1.3-0.4,3,0,4.3
			c0.8,2.5,4.9,1.5,6.6,1.1c1.9-0.4,1.1-3.3-0.8-2.9c-1.2,0.3-2.7,0.6-3.9,0.2c0.3,0.2,0.6,0.5,0.9,0.7c0.1,0.5,0.1,0.3,0.1-0.5
			c0-0.5,0-1,0-1.4c0-0.7,0-1.4-0.1-2.1c-0.1-1.5-0.8-3-0.8-4.4c-0.4,0.5-0.7,1-1.1,1.4c1.3-0.4,3.6,0,4.9,0
			C282.1,147,282.1,144,280.1,144L280.1,144z"/>
	</g>
</g>
<g>
	<g>
		<path d="M276.9,151.8c1,0,2-0.1,2.9-0.2c0.8-0.1,1.2-1.1,1-1.8c-0.2-0.9-1-1.2-1.8-1c-0.7,0.1-1.4,0.1-2.1,0.1
			c-0.8,0-1.5,0.7-1.5,1.5C275.4,151.1,276.1,151.8,276.9,151.8L276.9,151.8z"/>
	</g>
</g>
<g>
	<g>
		<path d="M285.8,155.2c0.2-2.9,0.6-5.8,1.1-8.7c-0.9,0.1-1.8,0.2-2.7,0.4c1.8,2.9,3.4,5.9,4.7,9.1c0.5,1.2,2.6,1.6,2.9,0
			c0.3-1.5,0.1-2.9,0.1-4.4c0-1.9,0.3-3.8,0.7-5.6c0.4-1.9-2.5-2.7-2.9-0.8c-0.3,1.7-0.6,3.3-0.8,5c-0.1,1.7,0.3,3.4,0,5.1
			c1,0,1.9,0,2.9,0c-1.4-3.4-3.1-6.7-5-9.8c-0.6-1-2.5-1-2.7,0.4c-0.6,3.1-1,6.3-1.3,9.5C282.6,157.1,285.6,157.1,285.8,155.2
			L285.8,155.2z"/>
	</g>
</g>
<g>
	<g>
		<path d="M294.3,148.9c0.5,2.3,0.6,4.3,0.3,6.6c-0.2,1.9,2.8,1.9,3,0c0.3-2.6,0.1-4.8-0.4-7.4C296.7,146.2,293.8,147,294.3,148.9
			L294.3,148.9z"/>
	</g>
</g>
<g>
	<g>
		<path d="M295.8,146c1.9,0,1.9-3,0-3C293.8,143,293.8,146,295.8,146L295.8,146z"/>
	</g>
</g>
<g>
	<g>
		<path d="M313.4,149.4c-0.5,1.5-0.7,3.5-0.2,5c0.6,1.6,2.6,1.6,4,1.5c1.5-0.1,2.9-0.7,3.6-2.1c0.7-1.4,1-3.2,0.4-4.6
			c-0.3-0.8-1-1.3-1.8-1c-0.7,0.2-1.3,1.1-1,1.8s0.2,1.5-0.1,2.2c-0.2,0.6-0.6,0.7-1.3,0.7c-0.1,0-1.2-0.1-1.3,0
			c0.1,0.2,0.2,0.4,0.3,0.6c-0.1-0.2-0.1-0.5-0.1-0.7c-0.1-0.9,0.1-1.7,0.3-2.5C316.9,148.3,314,147.5,313.4,149.4L313.4,149.4z"/>
	</g>
</g>
<g>
	<g>
		<path d="M320.5,144.8c-0.1-0.2-0.2-0.3-0.3-0.4c-0.6-0.5-1.5-0.6-2.1,0s-0.6,1.6,0,2.1c0-0.1-0.1-0.1-0.1-0.2
			c0.4,0.7,1.3,1,2.1,0.5C320.6,146.5,320.9,145.5,320.5,144.8L320.5,144.8z"/>
	</g>
</g>
<g>
	<g>
		<path d="M315.2,147.4c1.9,0,1.9-3,0-3C313.3,144.4,313.3,147.4,315.2,147.4L315.2,147.4z"/>
	</g>
</g>
<g>
	<g>
		<path d="M321.6,146.2c0.2,1.7,0.2,3.4,0.1,5.2c-0.1,1.3-0.3,3,0.2,4.3c0.5,1,1.2,1,2.2,1c1.7-0.1,3.4-0.2,5.1,0
			c1.9,0.2,1.9-2.8,0-3c-1-0.1-1.9-0.1-2.9-0.1c-0.8,0-1.9,0.4-2.7,0.2c0.3,0.2,0.6,0.5,0.9,0.7c-0.4-1,0.1-3,0.1-4
			c0.1-1.4,0-2.8-0.1-4.2C324.4,144.3,321.4,144.3,321.6,146.2L321.6,146.2z"/>
	</g>
</g>
<g>
	<g>
		<path d="M328.6,148c1.1-0.1,2.3-0.1,3.4-0.2c0.5,0,1-0.1,1.6-0.1c0.3,0,0.5,0,0.8,0c0.6,0,0.7,0,0.3-0.1c1.7,0.9,3.2-1.7,1.5-2.6
			c-1.1-0.5-2.2-0.3-3.4-0.2c-1.4,0.1-2.8,0.2-4.2,0.2C326.7,145.1,326.7,148.1,328.6,148L328.6,148z"/>
	</g>
</g>
<g>
	<g>
		<path d="M330.9,147.1c0,2.5-0.1,5.1-0.2,7.6c-0.1,1.9,2.9,1.9,3,0c0.1-2.5,0.2-5.1,0.2-7.6C334,145.2,331,145.2,330.9,147.1
			L330.9,147.1z"/>
	</g>
</g>
<g>
	<g>
		<path d="M337,145.9c0.2,2.3-0.3,4.5-0.3,6.7c0,1.5-0.1,3.1,1.5,3.8c1.4,0.6,9.2,1.3,7.1-2.1c-1-1.6-3.6-0.1-2.6,1.5
			c0,0,0,0.1,0.1,0.1c-0.1-0.4-0.1-0.8-0.2-1.2v0.1c0.3-0.3,0.7-0.7,1-1c-1.1,0.4-3.5,0.4-4.5-0.3c0.2,0.3,0.5,0.6,0.7,0.9
			c-0.4-1.2-0.1-2.9,0.1-4.2c0.2-1.5,0.3-2.9,0.1-4.4C339.8,144,336.8,144,337,145.9L337,145.9z"/>
	</g>
</g>
<g>
	<g>
		<path d="M339.1,151.8c0.9,0,1.8,0,2.7-0.2c0.8-0.1,1.2-1.1,1-1.8c-0.2-0.8-1-1.2-1.8-1c-0.6,0.1-1.3,0.1-1.9,0.1
			c-0.8,0-1.5,0.7-1.5,1.5C337.6,151.1,338.2,151.8,339.1,151.8L339.1,151.8z"/>
	</g>
</g>
<g>
	<g>
		<path d="M339.2,147.4c1.2-0.1,2.5-0.2,3.7-0.1c1.9,0.1,1.9-2.9,0-3c-1.2-0.1-2.5,0-3.7,0.1c-0.8,0.1-1.5,0.6-1.5,1.5
			C337.7,146.6,338.4,147.5,339.2,147.4L339.2,147.4z"/>
	</g>
</g>
<g>
	<g>
		<path d="M348.8,155.2c0.1-1.5-0.1-2.9-0.3-4.3c-0.3-1.7-0.3-3.3-0.5-5c-0.9,0.3-1.9,0.5-2.8,0.8c1.6,3.3,3.2,6.5,5.4,9.5
			c0.9,1.2,2.7,0.8,2.8-0.8c0.2-3.2,0-6.3-0.3-9.5c-0.2-1.9-3.2-1.9-3,0c0.3,3.2,0.6,6.3,0.3,9.5c0.9-0.3,1.9-0.5,2.8-0.8
			c-2.2-3-3.8-6.1-5.4-9.5c-0.6-1.3-2.9-0.7-2.8,0.8s0.1,3,0.3,4.5c0.3,1.6,0.6,3.2,0.4,4.8C345.6,157.1,348.6,157.1,348.8,155.2
			L348.8,155.2z"/>
	</g>
</g>
<g>
	<g>
		<path d="M353.7,145.8c0.2,1.7,0.4,3.5,0.4,5.2c0,1.4-0.2,3,0,4.4c0.1,0.5,0.6,0.9,1,1c1.7,0.5,3.9,0.1,5.7,0.1c1.9,0,1.9-3,0-3
			c-1.4,0-3.6,0.4-4.9,0c0.3,0.3,0.7,0.7,1,1c-0.2-1.3,0.1-3,0-4.3c-0.1-1.5-0.2-3-0.4-4.5C356.4,143.9,353.4,143.9,353.7,145.8
			L353.7,145.8z"/>
	</g>
</g>
<g>
	<g>
		<path d="M356.5,151.4c0.9,0,1.8,0.1,2.6,0c0.8-0.1,1.5-0.6,1.5-1.5c0-0.7-0.7-1.6-1.5-1.5c-0.9,0.1-1.8,0-2.6,0
			c-0.8,0-1.5,0.7-1.5,1.5S355.7,151.3,356.5,151.4L356.5,151.4z"/>
	</g>
</g>
<g>
	<g>
		<path d="M356,147.3c1.5-0.3,3.1-0.3,4.7-0.3c1.9,0.1,1.9-2.9,0-3c-1.8-0.1-3.7,0.1-5.5,0.4C353.4,144.7,354.2,147.6,356,147.3
			L356,147.3z"/>
	</g>
</g>
<g>
	<g>
		<path d="M367.4,144.5c0.3,4,0.6,8,0.1,12c-0.2,1.9,2.8,1.9,3,0c0.5-4,0.3-8-0.1-12C370.2,142.6,367.2,142.6,367.4,144.5
			L367.4,144.5z"/>
	</g>
</g>
<g>
	<g>
		<path d="M373.8,143.9c-1.2,2.3-2.5,4.7-4.6,6.2c-1.2,0.9-0.8,2.7,0.8,2.8c2.6,0.2,5.4,0.8,6,3.7c0.3,1.9,3.2,1.1,2.9-0.8
			c-0.8-4.3-5-5.7-8.8-5.9c0.3,0.9,0.5,1.9,0.8,2.8c2.6-1.9,4.2-4.5,5.7-7.3C377.3,143.7,374.7,142.2,373.8,143.9L373.8,143.9z"/>
	</g>
</g>
<g>
	<g>
		<path d="M381.6,156.4c0.2-1.8,0.5-3.6,0.7-5.3c0.1-0.9,0.1-4,0.7-4.7c-0.8-0.2-1.7-0.4-2.5-0.7c1.3,3.5,2.8,7.1,3.7,10.7
			c0.5,1.9,3.4,1.1,2.9-0.8c-0.9-3.6-2.4-7.2-3.7-10.7c-0.4-1-1.7-1.6-2.5-0.7c-1.1,1.3-1.1,3.1-1.3,4.8c-0.3,2.5-0.7,4.9-1,7.4
			C378.3,158.3,381.3,158.3,381.6,156.4L381.6,156.4z"/>
	</g>
</g>
<g>
	<g>
		<path d="M380.5,154.5c1.1,0.2,2,0.2,3.1,0.1c0.8-0.1,1.2-1.1,1-1.8c-0.2-0.9-1-1.2-1.8-1c-0.4,0.1-1.1,0-1.5-0.1
			c-0.8-0.2-1.7,0.2-1.8,1C379.3,153.4,379.7,154.4,380.5,154.5L380.5,154.5z"/>
	</g>
</g>
<g>
	<g>
		<path d="M385.7,146.5c0.5,0.6,0.9,1.1,1.4,1.7c0.4,0.5,0.7,1.1,1.2,1.4c0.6,0.4,1.2,0.6,1.8,0.2c0.6-0.3,1.1-1.1,1.6-1.6
			c0.5-0.6,1.1-1.1,1.4-1.8s0.2-1.6-0.5-2.1c-0.6-0.4-1.7-0.2-2.1,0.5c-0.2,0.5-0.6,0.8-0.9,1.2c-0.3,0.3-0.6,0.9-1,1.1
			c0.6,0.1,1.2,0.2,1.8,0.2c-0.5-0.4-0.8-1-1.2-1.4c-0.5-0.6-0.9-1.1-1.4-1.7c-0.5-0.6-1.6-0.5-2.1,0
			C385,145,385.2,145.9,385.7,146.5L385.7,146.5z"/>
	</g>
</g>
<g>
	<g>
		<path d="M387.7,148.3c0.1,2.3,0.2,4.5,0.5,6.8c0.2,1.9,3.2,1.9,3,0c-0.3-2.2-0.5-4.5-0.5-6.8C390.7,146.4,387.7,146.4,387.7,148.3
			L387.7,148.3z"/>
	</g>
</g>
<g>
	<g>
		<path d="M397.4,155.1c0.1-3.1-0.1-6.5,0.3-9.5c-0.4,0.5-0.7,1-1.1,1.4c0.9-0.4,2.4-0.2,3.2,0.2c1.1,0.5,1.4,1.6,1.3,2.8
			c0,2.8-1.5,3.8-4.2,3.3c-1.9-0.4-2.7,2.5-0.8,2.9c1.9,0.4,4,0.6,5.7-0.7s2.3-3.4,2.3-5.5c0-1.8-0.5-3.7-2-4.9
			c-1.6-1.2-4.5-1.7-6.3-0.9c-0.7,0.3-1,0.7-1.1,1.4c-0.4,3.1-0.1,6.4-0.3,9.5C394.3,157,397.3,157,397.4,155.1L397.4,155.1z"/>
	</g>
</g>
<g>
	<g>
		<path d="M405.2,146.9c0.3,1.6,0.5,3.1,0.6,4.7c0.1,1.1-0.1,2.5,0.6,3.4c1.2,1.6,5.1,1.5,6.8,1.1c1.9-0.5,1.1-3.4-0.8-2.9
			c-0.9,0.2-2,0-2.9-0.1c-0.3,0-0.6-0.1-0.9-0.1c0.1,0.2,0.3,0.3,0.4,0.5c-0.2-0.4-0.1-1.1-0.1-1.6c-0.2-2-0.4-3.9-0.7-5.8
			C407.8,144.2,404.9,145,405.2,146.9L405.2,146.9z"/>
	</g>
</g>
<g>
	<g>
		<path d="M408.5,151.8c0.5-0.1,1-0.2,1.4-0.3c0.8-0.1,1.2-1.1,1-1.8c-0.2-0.8-1-1.2-1.8-1c-0.5,0.1-1,0.2-1.4,0.3
			c-0.8,0.2-1.3,1.1-1,1.8C406.9,151.6,407.7,152,408.5,151.8L408.5,151.8z"/>
	</g>
</g>
<g>
	<g>
		<path d="M407.3,147.6c1.8,0,3.7-0.1,5.5-0.1c1.9,0,1.9-3,0-3c-1.8,0-3.7,0.1-5.5,0.1C405.3,144.6,405.3,147.6,407.3,147.6
			L407.3,147.6z"/>
	</g>
</g>
<g>
	<g>
		<path d="M416.6,147.1c2.7-0.2,5.3-0.1,8,0c1.9,0.1,1.9-2.9,0-3c-2.7-0.2-5.3-0.2-8,0C414.7,144.2,414.7,147.2,416.6,147.1
			L416.6,147.1z"/>
	</g>
</g>
<g>
	<g>
		<path d="M418.9,145.9c0.1,3.3,0,6.6-0.3,9.9c-0.2,1.9,2.8,1.9,3,0c0.3-3.3,0.4-6.6,0.3-9.9C421.9,144,418.9,144,418.9,145.9
			L418.9,145.9z"/>
	</g>
</g>
<g>
	<g>
		<path d="M306.7,155.2c-0.1-1.8-0.1-3.5,0-5.2c0.1-1.5-0.1-3,0.1-4.5c-0.4,0.5-0.7,1-1.1,1.4c0.6-0.2,2.7-0.2,3.1,0.5
			c0.6,1.3-2,1.4-2.6,1.5c-1.5,0.3-1.4,2.5,0,2.9c0.7,0.2,3.5,0.7,3.4,1.5c-0.1,1-3,0.3-3.6,0.1c-1.8-0.6-2.6,2.3-0.8,2.9
			c2.3,0.7,6.9,0.9,7.7-2.1c0.8-3.3-3.6-4.7-5.9-5.3c0,1,0,1.9,0,2.9c2.6-0.5,6-1.6,4.8-5c-0.8-2.5-4.6-3.7-6.9-2.7
			c-0.7,0.3-1,0.7-1.1,1.4c-0.2,1.4,0,3-0.1,4.5c-0.1,1.8-0.1,3.5,0,5.2C303.8,157.1,306.8,157.1,306.7,155.2L306.7,155.2z"/>
	</g>
</g>
<g>
	<g>
		<path d="M261.1,178.5c-2.5,0-5-0.1-7.5-0.1c-1.3,0-3.6-0.5-4.6,0.6c-1,1.2-0.2,3.3,0.1,4.6c0.3,1.7,0.2,4.9,1.3,6.2
			c1,1.1,3.2,0.8,4.6,0.9c1.9,0.1,4.8,0.7,6.6-0.1c3.1-1.3,1.3-7.8,0.6-10.2c-0.5-1.8-3.4-1.1-2.9,0.8c0.4,1.5,1.9,6.1,0,6.6
			c-1,0.2-2.4,0-3.4-0.1c-1.2,0-2.7,0.1-3.8-0.3c0.3,0.3,0.7,0.7,1,1c-0.5-1.2-0.5-2.6-0.8-3.9c-0.1-0.8-0.2-1.9-0.5-2.7
			c-0.1-0.3-0.1-0.6-0.2-0.9c-0.4,0.3-0.3,0.5,0.2,0.3c3.1-0.2,6.2,0.1,9.3,0.1C263,181.5,263,178.5,261.1,178.5L261.1,178.5z"/>
	</g>
</g>
<g>
	<g>
		<path d="M266.8,180.1c-0.1,3.2-0.3,6.4-0.8,9.6c-0.3,1.9,2.8,1.9,3,0c0.4-3.2,0.7-6.4,0.8-9.6
			C269.8,178.2,266.8,178.2,266.8,180.1L266.8,180.1z"/>
	</g>
</g>
<g>
	<g>
		<path d="M273.2,180.1c-1,1.8-2.7,2.8-4.5,3.6c-1.5,0.7-0.5,2.6,0.8,2.8c1.7,0.2,2.9,1.5,3.1,3.1c0.2,1.9,3.2,1.9,3,0
			c-0.4-3.4-2.7-5.7-6.1-6.1c0.3,0.9,0.5,1.9,0.8,2.8c2.3-1,4.3-2.5,5.6-4.7C276.8,179.9,274.2,178.4,273.2,180.1L273.2,180.1z"/>
	</g>
</g>
<g>
	<g>
		<path d="M281.4,179.7c-2.9,1.5-4.3,4.7-3.4,7.9c0.9,3.1,3.6,5.2,6.7,3.5c2.5-1.4,4.5-4.2,4-7.2c-0.5-2.9-3.9-5.2-6.8-4.4
			c-1.9,0.5-1.1,3.4,0.8,2.9c1.5-0.4,3,1.1,3.1,2.4c0.1,1.3-1,2.7-2.1,3.4c-1.9,1.2-3-0.6-3-2.5c0-1.6,0.9-2.7,2.2-3.4
			C284.6,181.4,283.1,178.8,281.4,179.7L281.4,179.7z"/>
	</g>
</g>
<g>
	<g>
		<path d="M297.1,179.9c-1.4-0.4-3.1-0.5-4.3,0.4c-0.9,0.7-1.5,2.5-1.2,3.6c0.4,1.5,1.8,1.6,3,2.2c0.7,0.3,1.6,1.2,0.5,1.7
			c-0.7,0.4-1.9-0.2-2.6-0.5c-1.7-0.9-3.2,1.6-1.5,2.6c2.6,1.4,7.1,1.6,7.5-2.2c0.2-1.5-0.6-2.8-1.7-3.7c-0.5-0.3-1.3-0.9-1.9-0.9
			c-0.4-0.3-0.5-0.2-0.4,0c0,0.3,0,0.2,0.1-0.2c0.2-0.1,0.3-0.2,0.5-0.3c0.4,0,0.8,0,1.2,0.2C298.1,183.3,298.9,180.4,297.1,179.9
			L297.1,179.9z"/>
	</g>
</g>
<g>
	<g>
		<path d="M291.9,189.2c-0.2,1.3-0.3,2.6-0.4,3.9c-0.1,0.8,0.7,1.5,1.5,1.5c0.9,0,1.4-0.7,1.5-1.5c0.1-1.3,0.3-2.6,0.4-3.9
			c0.1-0.8-0.8-1.5-1.5-1.5C292.5,187.7,292,188.4,291.9,189.2L291.9,189.2z"/>
	</g>
</g>
<g>
	<g>
		<path d="M299.7,181.9c0,3-0.9,8.8,3.5,9c4.6,0.2,3.7-5.6,3.8-8.5c0-1.9-3-1.9-3,0c0,0.7,0.5,5.8-0.8,5.5c-1.1-0.3-0.6-5-0.5-5.9
			C302.7,180,299.7,180,299.7,181.9L299.7,181.9z"/>
	</g>
</g>
<g>
	<g>
		<path d="M307.7,182.3c0.3,1.5,0.4,3.1,0.4,4.7c0,1.1-0.3,2.3,0.1,3.3c0.8,2.1,3.8,1.8,5.5,1.6c1.9-0.3,1.1-3.2-0.8-2.9
			c-0.5,0.1-0.9,0.1-1.4,0.1c-0.3-0.1-0.5-0.1-0.8-0.2c0.1,0.2,0.2,0.3,0.3,0.5c0.1-0.9,0.1-1.8,0.1-2.6c0-1.7-0.2-3.4-0.5-5.1
			C310.3,179.6,307.4,180.4,307.7,182.3L307.7,182.3z"/>
	</g>
</g>
<g>
	<g>
		<path d="M315.6,181.5c0,1.7,0.3,3.5,0.3,5.2c0,1.4-0.2,3.2,0.2,4.6c0.2,0.5,0.5,1,1,1c1.3,0.2,2.8-0.3,4.1-0.5
			c1.9-0.3,1.1-3.2-0.8-2.9c-0.6,0.1-1.9,0.6-2.5,0.5c0.3,0.3,0.7,0.7,1,1c-0.4-1.3-0.1-3.2-0.1-4.5c0-1.5-0.3-3-0.3-4.5
			C318.6,179.6,315.6,179.6,315.6,181.5L315.6,181.5z"/>
	</g>
</g>
<g>
	<g>
		<path d="M326.9,191.5c0.6-3.2,1.4-6.3,2.5-9.5c-0.9,0.1-1.8,0.2-2.7,0.4c2,2.8,3.3,5.9,3.5,9.3c0.2,1.9,3.2,1.9,3,0
			c-0.3-4-1.6-7.6-4-10.8c-0.8-1-2.3-0.9-2.7,0.4c-1,3.1-1.8,6.2-2.5,9.5C323.6,192.6,326.5,193.4,326.9,191.5L326.9,191.5z"/>
	</g>
</g>
<g>
	<g>
		<path d="M327.3,190.2c1.1-0.1,2.2-0.1,3.3-0.2c0.8,0,1.5-0.7,1.5-1.5s-0.7-1.5-1.5-1.5c-1.1,0.1-2.2,0.1-3.3,0.2
			c-0.8,0.1-1.5,0.6-1.5,1.5C325.8,189.4,326.5,190.3,327.3,190.2L327.3,190.2z"/>
	</g>
</g>
<g>
	<g>
		<path d="M337.1,191.8c-0.2-2.5-1-4.9-0.9-7.4c0-0.3,0-1.9,0.3-2.1c-0.6,0.4,0.2,0.3,0.3,0.5c0.8,0.9,1.8,0.7,0.9,2.1
			c-0.6,0.9-1,0.8-2.1,0.8c0.3,0.9,0.5,1.9,0.8,2.8c0.1,0,0.2-0.1,0.3-0.1c-0.4,0.1-0.8,0.1-1.2,0.2c1.2,0.2,4.8,1.7,4.5,3.3
			c-0.3,1.9,2.6,2.7,2.9,0.8c0.4-2.3-0.7-3.8-2.5-5.1c-1.4-1-3.8-2.5-5.5-1.6c-1.4,0.7-0.7,2.7,0.8,2.8c2.3,0.1,5.1-0.6,5.5-3.3
			c0.3-2.2-0.8-4.2-2.8-5.1c-7.4-3.3-4.6,7.9-4.2,11.5C334.3,193.7,337.3,193.7,337.1,191.8L337.1,191.8z"/>
	</g>
</g>
<g>
	<g>
		<path d="M344.3,181.1c0.3,3.5,0.4,7,0.3,10.5c-0.1,1.9,2.9,1.9,3,0c0.1-3.5,0-7-0.3-10.5C347.2,179.2,344.2,179.2,344.3,181.1
			L344.3,181.1z"/>
	</g>
</g>
<g>
	<g>
		<path d="M356.8,181.7c0.4,3.2-0.1,6.4-0.4,9.6c-0.2,1.9,2.8,1.9,3,0c0.3-3.2,0.7-6.4,0.4-9.6C359.6,179.9,356.6,179.8,356.8,181.7
			L356.8,181.7z"/>
	</g>
</g>
<g>
	<g>
		<path d="M362.6,181.9c-1.2,1.5-2.8,2.6-4.4,3.6c-1.3,0.8-0.7,2.7,0.8,2.8c2.1,0.1,3.4,1.1,3.4,3.2c0,1.9,3,1.9,3,0
			c0-3.8-2.7-6.1-6.4-6.2c0.3,0.9,0.5,1.9,0.8,2.8c2.1-1.3,4-2.6,5.5-4.6C366.3,181.8,363.7,180.3,362.6,181.9L362.6,181.9z"/>
	</g>
</g>
<g>
	<g>
		<path d="M369.4,192.7c0.9-3.1,1.7-6.2,2.6-9.4c-0.9,0.1-1.8,0.2-2.7,0.4c1.5,2.1,3.1,5.3,3.4,7.9c0.2,1.9,3.2,1.9,3,0
			c-0.2-1.7-0.8-3.3-1.5-4.9c-0.7-1.6-1.3-3.2-2.3-4.6c-0.7-1-2.4-1-2.7,0.4c-0.9,3.1-1.7,6.2-2.6,9.4
			C366,193.8,368.9,194.6,369.4,192.7L369.4,192.7z"/>
	</g>
</g>
<g>
	<g>
		<path d="M370,191.3c0.8-0.1,1.6-0.2,2.5-0.2c0.8,0,1.5-0.7,1.5-1.5s-0.7-1.5-1.5-1.5s-1.6,0.1-2.5,0.2c-0.8,0.1-1.5,0.6-1.5,1.5
			C368.6,190.5,369.2,191.4,370,191.3L370,191.3z"/>
	</g>
</g>
<g>
	<g>
		<path d="M380.2,191.6c0-2.7-0.1-5.4-0.4-8.1c-0.1-1.2-0.4-1.3,1.1-1.2c0.7,0.1,2.2,0.7,2.1,1.7c-0.1,1.4-1.7,1.1-2.5,1.1
			c0,1,0,2,0,3c0.6,0,1.4,0,1.9,0.3c0.5,0,0.7,0.3,0.7,0.9c0.5,0.7,0.4,1.1-0.5,1.1c-0.9,0.3-2.8,0.4-3.7,0.1
			c-1.9-0.4-2.7,2.4-0.8,2.9c2.7,0.6,7.4,0.2,8.6-2.8c1.5-3.8-3.2-5.6-6.2-5.6c-1.9,0-1.9,3,0,3c2.2,0,5-0.3,5.5-2.9
			c0.5-2.5-1.3-4.9-3.7-5.6c-1.7-0.5-5-0.4-5.6,1.7c-0.4,1.3,0.2,3.1,0.3,4.4c0.2,2,0.2,4,0.2,6
			C377.2,193.5,380.2,193.5,380.2,191.6L380.2,191.6z"/>
	</g>
</g>
<g>
	<g>
		<path d="M387.2,181.5c0.3,3.3-0.4,10.8,4.1,11.8c5.1,1.1,5.1-7.6,5-10.5c-0.1-1.9-3.1-1.9-3,0c0,1.5,0,3-0.2,4.5
			c-0.1,1-0.6,4-1.9,2.1c-1.4-2.1-0.9-5.6-1.1-7.9C390,179.6,387,179.6,387.2,181.5L387.2,181.5z"/>
	</g>
</g>
<g>
	<g>
		<path d="M396.5,182.2c0.3,1.8,0.5,3.7,0.5,5.5c0,1.3-0.4,2.9,0.4,4.1c1.5,2.3,5.4,2,7.6,1.5c1.9-0.4,1.1-3.3-0.8-2.9
			c-1,0.2-2.6,0.6-3.6,0.1s-0.6-1.7-0.6-2.7c0-2.1-0.3-4.2-0.6-6.3C399.1,179.5,396.3,180.3,396.5,182.2L396.5,182.2z"/>
	</g>
</g>
<g>
	<g>
		<path d="M265.4,196.9c0.2,1.6,0.4,3.3,0.4,4.9c0.1,1.4-0.3,3.2,0.1,4.6c0.2,0.7,0.6,1.1,1.3,1.3c1.5,0.5,3.5,0.3,5,0.4
			c1.9,0.2,1.9-2.8,0-3c-1.4-0.1-3.1,0-4.4-0.4c0.3,0.3,0.7,0.7,1,1c-0.3-1.3,0-3.1-0.1-4.4c-0.1-1.5-0.2-3-0.4-4.6
			C268.2,195,265.2,195,265.4,196.9L265.4,196.9z"/>
	</g>
</g>
<g>
	<g>
		<path d="M271.9,195.2c-1.7-0.1-3.4-0.1-5.1,0c-1.9,0.1-1.9,3.1,0,3c1.7-0.1,3.4-0.1,5.1,0C273.8,198.3,273.8,195.3,271.9,195.2
			L271.9,195.2z"/>
	</g>
</g>
<g>
	<g>
		<path d="M267.1,201.8c0.4,0.6,1,0.9,1.7,0.9c0.3,0,0.6-0.1,0.9-0.1c-0.3,0,0.5,0.1,0.1,0c0.8,0.2,1.7-0.2,1.8-1
			c0.2-0.8-0.2-1.7-1-1.8c-0.4-0.1-0.7-0.1-1.1-0.1c-0.1,0-0.6,0.1-0.4,0.1c-0.1,0-0.1,0-0.2,0c-0.3,0-0.2,0,0.2,0.1
			c0.2,0.2,0.4,0.4,0.5,0.5c0,0,0,0,0-0.1c-0.5-0.7-1.3-1-2.1-0.5C267,200.1,266.6,201.1,267.1,201.8L267.1,201.8z"/>
	</g>
</g>
<g>
	<g>
		<path d="M274.6,196.3c0.1,1.6,0.1,3.2,0.1,4.7c0,1.6,0.2,3.6-0.1,5.2c-0.4,1.9,2.5,2.7,2.9,0.8c0.4-1.7,0.2-3.5,0.2-5.2
			c0-1.8,0.1-3.7-0.1-5.5C277.4,194.4,274.4,194.3,274.6,196.3L274.6,196.3z"/>
	</g>
</g>
<g>
	<g>
		<path d="M276.5,198.3c2.2-0.8,4.5,0.9,3.7,3.3c-0.5,1.3-2.9,3.9-4.4,3.8c-1.9-0.1-1.9,2.9,0,3c1.7,0.1,3.6-1.4,4.8-2.5
			c1.5-1.3,2.8-3,2.8-5c0.1-4.1-3.9-6.8-7.6-5.5C273.9,196,274.6,198.9,276.5,198.3L276.5,198.3z"/>
	</g>
</g>
<g>
	<g>
		<path d="M287.9,206.9c0.2-2.1,0.4-4.2,0.6-6.4c0.1-1.9-2.9-1.9-3,0c-0.1,2.1-0.3,4.3-0.6,6.4C284.7,208.8,287.7,208.8,287.9,206.9
			L287.9,206.9z"/>
	</g>
</g>
<g>
	<g>
		<path d="M288.3,196.5c0,0.1,0,0.1,0,0.2c0-0.8-0.7-1.5-1.5-1.5s-1.5,0.7-1.5,1.5c0,0.2,0,0.4,0.1,0.6c0.3,0.8,1,1.3,1.8,1
			C288,198.1,288.5,197.2,288.3,196.5L288.3,196.5z"/>
	</g>
</g>
<g>
	<g>
		<path d="M290.3,198.2c0.8,1.2,2.3,3.3,4,2.9c1.6-0.3,2.9-2.3,3.6-3.6c0.9-1.7-1.7-3.2-2.6-1.5c-0.3,0.6-1.1,2-1.8,2.2
			c0.3,0,0.5,0,0.8,0c0.2,0.1-0.5-0.5-0.6-0.6c-0.3-0.3-0.5-0.6-0.8-0.9C291.8,195.1,289.2,196.6,290.3,198.2L290.3,198.2z"/>
	</g>
</g>
<g>
	<g>
		<path d="M292.6,199.9c0,2.2,0.3,4.7,0,6.9c-0.3,1.9,2.6,2.7,2.9,0.8c0.4-2.5,0.2-5.1,0.1-7.6C295.5,197.9,292.5,197.9,292.6,199.9
			L292.6,199.9z"/>
	</g>
</g>
<g>
	<g>
		<path d="M301.8,195.9c-3.2,1.9-4.3,4.4-3.7,8.1c0.5,3,2.3,5.9,5.7,4.9c6.7-1.9,5.2-14.1-2.1-12.2c-1.9,0.5-1.1,3.4,0.8,2.9
			c2.5-0.6,3,2.6,2.6,4.2c-0.3,1.2-1.6,3.1-3.1,2.1c-0.8-0.6-0.9-2.6-1-3.5c0-2,0.7-2.9,2.3-3.9C305,197.5,303.4,194.9,301.8,195.9
			L301.8,195.9z"/>
	</g>
</g>
<g>
	<g>
		<path d="M312.5,207.7c-0.2-2.5-0.6-5.4,0-7.9c0.3-1.1,0.3-1.7,1.5-1.3c2.8,0.9-0.3,3.4-1.2,2.8c-0.3,0.9-0.5,1.9-0.8,2.8
			c1.5-0.1,3.5,1.3,3.2,2.9c-0.4,1.9,2.5,2.7,2.9,0.8c0.8-3.5-2.5-7-6.1-6.7c-1.5,0.1-2,1.9-0.8,2.8c2.1,1.5,5.4-0.6,6.5-2.5
			c1.3-2.3,0.1-4.7-2.2-5.6c-2.1-0.8-4.4-1.2-5.4,1.1c-1.4,3.4-1,7.1-0.7,10.7C309.6,209.6,312.6,209.6,312.5,207.7L312.5,207.7z"/>
	</g>
</g>
<g>
	<g>
		<path d="M319.7,198.3c0.5,2.9-1,11.7,4.3,10.6c4.7-1,4.8-7.3,4-11c-0.4-1.9-3.3-1.1-2.9,0.8c0.3,1.5,0.5,3.1,0.1,4.7
			c-0.1,0.6-0.3,1.2-0.7,1.7c-0.2,0.3-0.4,0.6-0.7,0.7c-0.4,0.3-0.6,0.2-0.6-0.2c-0.6-0.7-0.3-3.3-0.3-4.2c0-1.3-0.1-2.6-0.3-3.9
			C322.3,195.6,319.4,196.4,319.7,198.3L319.7,198.3z"/>
	</g>
</g>
<g>
	<g>
		<path d="M332.5,207.9c0-3,0-6.1,0.5-9c-0.8,0.2-1.7,0.4-2.5,0.7c1,1.3,2.9,4.1,4.8,3.9c2-0.2,4.1-2.9,5.2-4.4
			c-0.9-0.1-1.8-0.2-2.7-0.4c0.5,3.2,0.8,6.4,1.1,9.6c0.1,1.9,3.1,1.9,3,0c-0.3-3.5-0.7-7-1.2-10.4c-0.2-1.4-2.1-1.2-2.7-0.4
			c-0.5,0.7-2.1,2.7-2.9,2.6c-0.7-0.1-2-2.1-2.4-2.7c-0.7-0.8-2.3-0.4-2.5,0.7c-0.5,3.3-0.6,6.5-0.6,9.8
			C329.5,209.9,332.5,209.9,332.5,207.9L332.5,207.9z"/>
	</g>
</g>
<g>
	<g>
		<path d="M248.5,163.1c0.3,2.7,0.1,5.4-0.1,8.1c-0.1,1.4-0.5,3.2,1.1,3.9c1.7,0.7,4.4-0.1,6.3-0.1c1.7,0,4.3,0.8,5.4-0.8
			c1.1-1.7,0.8-4.1,0.5-6c-0.2-1.4-0.2-2.7-0.1-4.1c0.1-0.7,0.3-1.5,0.1-2.2c-0.5-1.5-2.1-1.5-3.5-1.6c-2.5-0.1-5,0.3-7.5,0.9
			c-1.9,0.4-1.1,3.3,0.8,2.9c1.5-0.4,3-0.6,4.6-0.7c0.3,0,2.3-0.2,2.5,0c0.1,0.2,0,0.7-0.1,1.1c-0.3,2.4,1.3,6.5-0.1,8.5
			c0.4-0.2,0.9-0.5,1.3-0.7c-1.6,0.2-3.2-0.1-4.8-0.1c-0.7,0-1.4,0-2.1,0.1c-0.2,0-2.9,0.2-1.8,0.6c0.4,0.6,0.5,0.4,0.3-0.6
			c0-0.3,0-0.6,0.1-0.9c0.1-0.9,0.2-1.8,0.2-2.7c0.1-1.8,0.1-3.6-0.1-5.4C251.3,161.2,248.3,161.2,248.5,163.1L248.5,163.1z"/>
	</g>
</g>
<g>
	<g>
		<path d="M266.7,163.7c2.9,0,5.9,0,8.8,0.1c1.9,0.1,1.9-2.9,0-3c-2.9-0.1-5.9-0.1-8.8-0.1C264.7,160.7,264.7,163.7,266.7,163.7
			L266.7,163.7z"/>
	</g>
</g>
<g>
	<g>
		<path d="M269.5,162.4c-0.5,3.4-0.9,6.8-1,10.2c-0.1,1.9,2.9,1.9,3,0c0.1-3.1,0.4-6.3,0.9-9.4C272.7,161.4,269.8,160.5,269.5,162.4
			L269.5,162.4z"/>
	</g>
</g>
<g>
	<g>
		<path d="M281.3,173.3c0.2-3.5,0.2-6.9,0.1-10.4c-0.5,0.5-1,1-1.5,1.5c1.9-0.1,3.8-0.1,5.8-0.2c1.9,0,1.9-3,0-3s-3.8,0.1-5.8,0.2
			c-0.8,0-1.5,0.7-1.5,1.5c0.1,3.5,0.1,6.9-0.1,10.4C278.2,175.3,281.2,175.3,281.3,173.3L281.3,173.3z"/>
	</g>
</g>
<g>
	<g>
		<path d="M281.1,169.3c1.2,0.1,2.3,0.1,3.5,0.1c1.9,0,1.9-3,0-3c-1.2,0-2.3,0-3.5-0.1c-0.8,0-1.5,0.7-1.5,1.5
			C279.6,168.7,280.3,169.3,281.1,169.3L281.1,169.3z"/>
	</g>
</g>
<g>
	<g>
		<path d="M279.9,175c1.5-0.2,3-0.2,4.5-0.2c1.9,0.1,1.9-2.9,0-3c-1.5-0.1-3,0-4.5,0.2c-0.8,0.1-1.5,0.6-1.5,1.5
			C278.4,174.2,279,175.1,279.9,175L279.9,175z"/>
	</g>
</g>
<g>
	<g>
		<path d="M288,162.7c0,1.8,0,3.6-0.2,5.4c-0.1,1.6-0.7,3.3-0.3,4.9c0.6,2.7,4.4,2,6.5,1.8c1.9-0.2,1.9-3.2,0-3
			c-1.4,0.1-3.1,0.5-4.4-0.1c0.3,0.2,0.6,0.5,0.9,0.7c-0.4-1,0.3-3.6,0.4-4.7c0.1-1.7,0.2-3.3,0.1-5
			C290.9,160.8,287.9,160.8,288,162.7L288,162.7z"/>
	</g>
</g>
<g>
	<g>
		<path d="M299.7,174.2c-0.2-1.8-0.4-3.7-0.5-5.6c-0.1-1.6-0.4-3.9,0.1-5.4c-0.3,0.3-0.7,0.7-1,1c1.1-0.3,2.7,0,3.8,0.1
			c1.9,0.2,1.9-2.8,0-3c-2-0.2-5.3-1-5.7,1.7c-0.6,3.5-0.1,7.6,0.4,11.1C296.9,176.1,299.9,176.2,299.7,174.2L299.7,174.2z"/>
	</g>
</g>
<g>
	<g>
		<path d="M298.6,169.8c1.3,0,2.7-0.1,4-0.1c1.9,0,1.9-3,0-3c-1.3,0-2.7,0.1-4,0.1C296.7,166.9,296.7,169.9,298.6,169.8L298.6,169.8
			z"/>
	</g>
</g>
<g>
	<g>
		<path d="M297.9,175.3c1.7,0.9,4,0.7,5.8,0.5c0.8-0.1,1.5-0.6,1.5-1.5c0-0.7-0.7-1.6-1.5-1.5s-1.6,0.1-2.3,0.1
			c-0.6,0-1.4,0.1-1.9-0.2C297.7,171.8,296.2,174.4,297.9,175.3L297.9,175.3z"/>
	</g>
</g>
<g>
	<g>
		<path d="M309.1,175c0.4-1.6,0.1-3.1-0.2-4.7c-0.2-1.1-0.3-2.2-0.4-3.3c-0.1-0.8-0.5-2.2-0.3-3c-0.3,0.3-0.7,0.7-1,1
			c0.9-0.2,2.1,0.1,3,0.1c1.1,0,2.2,0,3.3,0.1c1.9,0,1.9-3,0-3c-2.2,0-5-0.5-7.2,0c-0.5,0.1-0.9,0.6-1,1c-0.9,3.5,1.7,7.5,0.9,11
			C305.8,176.1,308.7,176.9,309.1,175L309.1,175z"/>
	</g>
</g>
<g>
	<g>
		<path d="M308.4,170.1c0.9,0.1,1.9,0.1,2.8,0c0.8-0.1,1.5-0.6,1.5-1.5c0-0.7-0.7-1.6-1.5-1.5c-0.9,0.1-1.9,0.1-2.8,0
			c-0.8-0.1-1.5,0.7-1.5,1.5C306.9,169.5,307.5,170,308.4,170.1L308.4,170.1z"/>
	</g>
</g>
<g>
	<g>
		<path d="M318.5,163.2c-2.3,1.9-3.3,5.5-2.4,8.3c1,3.1,4,4.7,7.1,3.4c2.7-1.2,4.4-3.7,3.5-6.7c-0.9-2.7-3.4-5.8-6.5-5.4
			c-1.9,0.3-1.9,3.3,0,3c1.6-0.2,2.9,1.4,3.4,2.8c0.7,1.6,0.1,2.9-1.6,3.5c-2,0.8-3.2-0.9-3.2-2.7c0-1.6,0.6-3.1,1.8-4.1
			C322.1,164.1,320,162,318.5,163.2L318.5,163.2z"/>
	</g>
</g>
<g>
	<g>
		<path d="M331.4,174.7c0.1-3.5,0.2-7,0.2-10.5c-0.9,0.3-1.9,0.5-2.8,0.8c1.8,3.4,3.8,6.7,5.8,9.9c0.8,1.3,2.7,0.7,2.8-0.8
			c0.2-3.3-0.1-6.6-0.5-9.9c-0.2-1.9-3.2-1.9-3,0c0.4,3.3,0.7,6.6,0.5,9.9c0.9-0.3,1.9-0.5,2.8-0.8c-2.1-3.2-4-6.5-5.8-9.9
			c-0.7-1.3-2.8-0.7-2.8,0.8c0,3.5,0,7-0.2,10.5C328.3,176.7,331.3,176.7,331.4,174.7L331.4,174.7z"/>
	</g>
</g>
<g>
	<g>
		<path d="M346.5,174.2c-0.4-1.9-0.5-3.9-0.3-5.8c0.2-1.9-2.8-1.9-3,0c-0.2,2.2,0,4.4,0.4,6.6C344,176.9,346.9,176.1,346.5,174.2
			L346.5,174.2z"/>
	</g>
</g>
<g>
	<g>
		<path d="M345.7,164.7L345.7,164.7c0-0.8-0.7-1.6-1.5-1.5c-0.8,0-1.5,0.7-1.5,1.5l0,0c0,0.8,0.7,1.5,1.5,1.5
			C345,166.1,345.7,165.5,345.7,164.7L345.7,164.7z"/>
	</g>
</g>
<g>
	<g>
		<path d="M347.3,165.1c0.2,2,0.2,4,0.2,5.9c0,1.5-0.3,3.4,0.1,4.9c0.1,0.5,0.6,0.9,1,1c1.1,0.2,2.4,0,3.5,0c1.2,0,2.3,0.1,3.5-0.2
			c1.9-0.4,1.1-3.3-0.8-2.9c-0.9,0.2-1.8,0.1-2.7,0.1c-0.8,0-1.9,0.3-2.7,0.2c0.3,0.3,0.7,0.7,1,1c-0.4-1.4,0-3.5,0-4.9
			c0-1.7-0.1-3.4-0.2-5.1C350.2,163.2,347.2,163.2,347.3,165.1L347.3,165.1z"/>
	</g>
</g>
<g>
	<g>
		<path d="M361.1,174.5c-0.2-1.6-0.3-3.1-0.3-4.7c0-1.2-0.3-3,0-4.2c-0.3,0.3-0.7,0.7-1,1c1.4-0.4,3.6,0,5,0c1.9,0,1.9-3,0-3
			c-1.7,0-3.6-0.2-5.3,0.1c-0.9,0.2-1.5,0.5-1.7,1.5c-0.3,1.5-0.1,3.4,0,5c0,1.7,0.2,3.4,0.4,5.1
			C358.5,177.2,361.4,176.4,361.1,174.5L361.1,174.5z"/>
	</g>
</g>
<g>
	<g>
		<path d="M360.9,171.6c0.5,0.1,1,0.1,1.6,0.1c0.8,0,1.5-0.7,1.5-1.5s-0.7-1.5-1.5-1.5c-0.5,0-1,0-1.6-0.1c-0.8-0.1-1.5,0.8-1.5,1.5
			C359.4,171,360,171.5,360.9,171.6L360.9,171.6z"/>
	</g>
</g>
<g>
	<g>
		<path d="M360.4,177.1c1.8-0.1,3.5-0.1,5.3,0c1.9,0.1,1.9-2.9,0-3c-1.8-0.1-3.5-0.1-5.3,0C358.4,174.1,358.4,177.1,360.4,177.1
			L360.4,177.1z"/>
	</g>
</g>
<g>
	<g>
		<path d="M376.7,176.4c1.2-3.5,1.8-7.1,2.3-10.7c-1,0-1.9,0-2.9,0c1.3,3.1,2.9,6.4,3.3,9.7c0.2,1.9,3.2,1.9,3,0
			c-0.5-3.6-2-7.1-3.4-10.5c-0.5-1.2-2.7-1.7-2.9,0c-0.5,3.6-1.1,7.2-2.3,10.7C373.1,177.5,376,178.3,376.7,176.4L376.7,176.4z"/>
	</g>
</g>
<g>
	<g>
		<path d="M377.7,174.8c0.6-0.1,1.2-0.2,1.9-0.1c0.8,0,1.5-0.7,1.5-1.5s-0.7-1.5-1.5-1.5c-0.9,0-1.8,0.1-2.7,0.3
			c-0.8,0.2-1.3,1.1-1,1.8C376.1,174.6,376.9,175,377.7,174.8L377.7,174.8z"/>
	</g>
</g>
<g>
	<g>
		<path d="M386.5,176.3c-0.1-2.5-0.3-5.1-0.1-7.7c0-0.6,0-1.5,0.2-2c0.4-0.9,0-0.7,0.9-0.4c3.2,1.3-0.2,3.5-1.8,3.7
			c0.1,1,0.3,2,0.4,2.9c1.5-0.3,4.8,1,4.4,2.9s2.5,2.7,2.9,0.8c0.9-4.4-4.1-7.5-8.1-6.6c-1.6,0.4-1.3,3.1,0.4,2.9
			c2.4-0.3,5-1.2,5.9-3.6c0.8-2.3-0.6-4.8-2.7-5.7c-7.3-3.1-5.5,9-5.3,12.8C383.6,178.3,386.6,178.3,386.5,176.3L386.5,176.3z"/>
	</g>
</g>
<g>
	<g>
		<path d="M398,176.4c0.2-1.9,0.9-3.6,1.4-5.4c0.4-1.7,0.7-3.4,1-5.2c-0.9,0.1-1.8,0.2-2.7,0.4c1.7,3.2,3.9,6.4,4.7,9.9
			c0.4,1.9,3.3,1.1,2.9-0.8c-0.9-3.8-3.2-7.2-5-10.6c-0.6-1.1-2.5-0.9-2.7,0.4c-0.6,3.8-2,7.6-2.4,11.4
			C394.8,178.4,397.8,178.3,398,176.4L398,176.4z"/>
	</g>
</g>
<g>
	<g>
		<path d="M398.1,175c1.5-0.1,3-0.4,4.4-0.6c0.8-0.2,1.2-1.1,1-1.8c-0.2-0.8-1-1.2-1.8-1c-1.2,0.2-2.4,0.4-3.6,0.5
			c-0.8,0.1-1.5,0.6-1.5,1.5C396.6,174.2,397.3,175.1,398.1,175L398.1,175z"/>
	</g>
</g>
<g>
	<g>
		<path d="M326.9,222.7c-0.4,3.9-0.8,7.8-1.2,11.7c-0.2,1.9,2.8,1.9,3,0c0.4-3.9,0.8-7.8,1.2-11.7
			C330.1,220.8,327.1,220.8,326.9,222.7L326.9,222.7z"/>
	</g>
</g>
<g>
	<g>
		<path d="M334.8,222.3c-2.3,1.4-4.6,2.9-7,4.3c-1.1,0.7-0.9,2.3,0.4,2.7c0.9,0.3,8.5,3.1,7.8,4.6c-0.8,1.7,1.8,3.3,2.6,1.5
			c2.3-5-6.1-7.9-9.6-9c0.1,0.9,0.2,1.8,0.4,2.7c2.3-1.4,4.6-2.9,7-4.3C337.9,223.9,336.4,221.3,334.8,222.3L334.8,222.3z"/>
	</g>
</g>
<g>
	<g>
		<path d="M341.1,235.7c0.1-2.2,0.3-4.3,0.8-6.4c0.2-0.7,0.9-4.9,1.6-5.2c-0.5,0-1,0-1.5,0c1.6,1,2.9,3.4,3.8,5
			c1.1,1.8,1.9,3.7,2.5,5.8c0.6,1.8,3.5,1.1,2.9-0.8c-0.9-2.8-2.1-5.5-3.7-7.9c-1-1.4-2.8-4.8-4.7-4.8c-2.1,0-2.7,3.6-3.2,5
			c-0.9,3.1-1.3,6.3-1.4,9.5C338.1,237.7,341.1,237.6,341.1,235.7L341.1,235.7z"/>
	</g>
</g>
<g>
	<g>
		<path d="M339.8,231.3c2.9,0,5.7,0.1,8.6,0.4c1.9,0.2,1.9-2.8,0-3c-2.9-0.3-5.7-0.4-8.6-0.4C337.9,228.3,337.9,231.3,339.8,231.3
			L339.8,231.3z"/>
	</g>
</g>
<g>
	<g>
		<path d="M347.9,224.4c0.7,1.1,1.5,2.2,2.5,3.2c0.7,0.7,1.7,1.9,2.9,1.6c1-0.3,1.9-1.5,2.5-2.3c0.8-1,1.5-2,2.2-3.2
			c0.9-1.7-1.6-3.2-2.6-1.5c-0.8,1.4-1.9,3.4-3.3,4.2c0.5,0,1,0,1.5,0c-1.3-0.6-2.4-2.3-3.1-3.5
			C349.5,221.3,346.9,222.8,347.9,224.4L347.9,224.4z"/>
	</g>
</g>
<g>
	<g>
		<path d="M351.5,228.2c0.3,1.2-0.3,2.5-0.3,3.8c0,1.2,0.2,2.4,0.5,3.5c0.6,1.8,3.5,1.1,2.9-0.8c-0.4-1.3-0.5-2.6-0.3-3.9
			c0.2-1.2,0.3-2.2,0.1-3.4C354,225.5,351.1,226.3,351.5,228.2L351.5,228.2z"/>
	</g>
</g>
<g>
	<g>
		<path d="M359.6,223.4c0.1,3.9-0.1,7.8-0.6,11.7c-0.2,1.9,2.8,1.9,3,0c0.5-3.9,0.7-7.8,0.6-11.7
			C362.6,221.4,359.6,221.4,359.6,223.4L359.6,223.4z"/>
	</g>
</g>
<g>
	<g>
		<path d="M364.6,225.1c2.8,0.2,5.7,0.4,8.5,0.4c1.9,0,1.9-3,0-3c-2.8,0-5.7-0.2-8.5-0.4C362.7,221.9,362.7,224.9,364.6,225.1
			L364.6,225.1z"/>
	</g>
</g>
<g>
	<g>
		<path d="M367.5,224.4c0.2,3.5-0.1,6.9-0.3,10.4c-0.1,1.9,2.9,1.9,3,0c0.3-3.5,0.5-6.9,0.3-10.4
			C370.4,222.4,367.4,222.4,367.5,224.4L367.5,224.4z"/>
	</g>
</g>
<g>
	<g>
		<path d="M384.4,222c-7.8,0.7-7.6,13.8,0.1,13.8c4,0,6.3-2.3,6.9-6.2c0.6-4.3-2.3-6.4-6-7.6c-1.8-0.6-2.6,2.3-0.8,2.9
			c2.2,0.7,4.2,1.6,3.9,4.3c-0.3,2-1.1,3.5-3.3,3.6c-2.1,0.2-3-1.1-3.5-3c-0.4-2,0.3-4.6,2.7-4.8C386.3,224.8,386.3,221.8,384.4,222
			L384.4,222z"/>
	</g>
</g>
<g>
	<g>
		<path d="M391.1,224c0.3,1.6,0.5,3.2,0.5,4.9c0,1.3-0.2,2.7,0,4c0.1,0.5,0.6,0.9,1,1c2,0.7,4.7,0.5,6.8,0.7c1.9,0.2,1.9-2.8,0-3
			c-1.8-0.1-4.2,0.1-6-0.6c0.3,0.3,0.7,0.7,1,1c-0.3-1.4,0.1-3.1,0-4.6c-0.1-1.4-0.3-2.9-0.6-4.3C393.7,221.3,390.8,222.1,391.1,224
			L391.1,224z"/>
	</g>
</g>
<g>
	<g>
		<path d="M358,217.1c-9.2-0.3-18.5-0.5-27.7-0.8c-4.9-0.1-10.3-0.9-12.5,4.6c-1.8,4.6-0.9,13.4,1.2,17.7c2.5,5,11.7,3,16.1,3
			c18,0.1,36.1,0.7,54.1,0.4c5.6-0.1,12.4-0.9,16-5.7c2.6-3.5,4.2-12.4,1.6-16.2c-3.6-5.2-15.3-3.7-20.5-3.7
			c-10.1,0.1-20.2,0.4-30.3,0.8c-1.9,0.1-1.9,3.1,0,3c7.6-0.3,15.2-0.5,22.8-0.6c3.8-0.1,7.5-0.1,11.3-0.1c3.3,0,9.3-0.6,12.1,1.2
			c4.4,2.7,3.2,11.4,0.1,14.7c-2.9,3.2-8.1,3.6-12.1,3.7c-7.9,0.3-15.9-0.1-23.8-0.1c-7.8-0.1-15.6-0.1-23.4-0.2
			c-3.9,0-7.8-0.1-11.7-0.1c-4.8,0-9.4,0.8-10.4-5.1c-0.5-3.1-1.7-8.5-0.2-11.5c2.1-4,8.8-2.7,12.5-2.6c8.2,0.2,16.5,0.5,24.7,0.7
			C359.9,220.2,359.9,217.2,358,217.1L358,217.1z"/>
	</g>
</g>
<g>
	<g>
		<path d="M321.8,112.2c-13.9-0.2-27.8-0.4-41.8-0.6c-6.6-0.1-13.2-0.5-19.8-0.2c-3.7,0.2-7.9,0.9-10.2,4.1
			c-3.4,4.7-1.2,16.3,3.8,19.2c4.2,2.4,11.3,1.1,15.8,1.1c7,0,13.9,0.1,20.9,0.1c27.9,0.1,55.8,0.3,83.6,0.3
			c9.8,0,24.4,1.2,32.8-5.4c4.8-3.8,7.2-14.6,0.2-17.2c-5.8-2.2-13-1.9-19.1-2c-7.7-0.2-15.3,0-23,0c-15.7,0.1-31.3,0.3-47,0.7
			c-1.9,0-1.9,3,0,3c21.4-0.4,42.9-0.8,64.4-0.8c5,0,10,0.1,14.9,0.5c2.6,0.2,6,0.1,8.3,1.2c4.2,2,3.1,8.5,0.3,11.5
			c-3.4,3.7-10.6,4.4-15.3,4.9c-4.8,0.5-9.7,0.5-14.6,0.5c-22.2,0-44.4-0.2-66.5-0.3c-11,0-21.9-0.1-32.9-0.1
			c-5.3,0-10.6,0.1-15.9-0.1c-3.7-0.1-6.1-0.3-7.5-4c-0.9-2.4-1.8-5.2-1.8-7.8c0-7.6,9.3-6.7,14.6-6.6c6,0.1,11.9,0.2,17.9,0.3
			c12.6,0.2,25.2,0.4,37.8,0.6C323.7,115.3,323.7,112.3,321.8,112.2L321.8,112.2z"/>
	</g>
</g>
<g>
	<g>
		<path d="M333.5,51.7c13.9,0.2,27.8,0.4,41.8,0.6c6.6,0.1,13.2,0.5,19.8,0.2c3.7-0.2,7.9-0.9,10.2-4.1c3.4-4.7,1.2-16.3-3.8-19.2
			c-4.2-2.4-11.3-1.1-15.8-1.1c-7,0-13.9-0.1-20.9-0.1c-27.9-0.1-55.8-0.3-83.6-0.3c-9.8,0-24.4-1.2-32.8,5.4
			c-4.8,3.8-7.2,14.6-0.2,17.2c5.8,2.2,13,1.9,19.1,2c7.7,0.2,15.3,0,23,0c15.7-0.1,31.3-0.3,47-0.7c1.9,0,1.9-3,0-3
			c-21.4,0.4-42.9,0.8-64.4,0.8c-5,0-10-0.1-14.9-0.5c-2.6-0.2-6-0.1-8.3-1.2c-4.2-2-3.1-8.5-0.3-11.5c3.4-3.7,10.6-4.4,15.3-4.9
			c4.8-0.5,9.7-0.5,14.6-0.5c22.2,0,44.4,0.2,66.5,0.3c11,0,21.9,0.1,32.9,0.1c5.3,0,10.6-0.1,15.9,0.1c3.7,0.1,6.1,0.3,7.5,4
			c0.9,2.4,1.8,5.2,1.8,7.8c0,7.6-9.3,6.7-14.6,6.6c-6-0.1-11.9-0.2-17.9-0.3c-12.6-0.2-25.2-0.4-37.8-0.6
			C331.5,48.7,331.5,51.7,333.5,51.7L333.5,51.7z"/>
	</g>
</g>
<g>
	<g>
		<path d="M261.1,98.1c-2-2-6.4-0.5-7.6,1.9c-0.6,1.3-0.2,2.9,0.8,3.9c1.2,1.2,3.2,1.2,4.3,2.5c-0.1-0.4-0.3-0.7-0.4-1.1
			c0,0.1,0,0.3,0,0.4c0.1-0.4,0.3-0.7,0.4-1.1c-0.8,0.8-2.4,0.7-3.3,0.3c-1.7-0.8-3.3,1.8-1.5,2.6c1.5,0.7,3,0.9,4.6,0.5
			c1.3-0.3,3-1.1,2.8-2.8c-0.2-1.5-1.8-2.2-3-2.6c-0.7-0.3-2.3-0.7-1.5-1.6c0.3-0.3,2-1.2,2.4-0.8
			C260.3,101.6,262.4,99.5,261.1,98.1L261.1,98.1z"/>
	</g>
</g>
<g>
	<g>
		<path d="M255,107.6c0,0.3,0.1,0.6,0.1,0.9c0.1,0.8,0.6,1.5,1.5,1.5c0.7,0,1.6-0.7,1.5-1.5c0-0.3-0.1-0.6-0.1-0.9
			c-0.1-0.8-0.6-1.5-1.5-1.5C255.8,106.2,254.9,106.8,255,107.6L255,107.6z"/>
	</g>
</g>
<g>
	<g>
		<path d="M266,107.6c-0.1-1.4-0.1-2.9-0.2-4.3c-0.1-1.9-3.1-1.9-3,0c0.1,1.4,0.1,2.9,0.2,4.3C263.1,109.5,266.1,109.5,266,107.6
			L266,107.6z"/>
	</g>
</g>
<g>
	<g>
		<path d="M265.9,99.2c0-0.2-0.1-0.3-0.1-0.5c-0.1-0.8-1.1-1.2-1.8-1c-0.8,0.2-1.2,1-1,1.8c0,0.2,0.1,0.3,0.1,0.5
			c0.1,0.8,1.1,1.2,1.8,1C265.7,100.8,266,100,265.9,99.2L265.9,99.2z"/>
	</g>
</g>
<g>
	<g>
		<path d="M270.7,107.7c0-1.4,0-2.8-0.1-4.2c0-1.2-0.3-2.8-0.1-4c-0.3,0.3-0.7,0.7-1,1c0.8-0.3,2,0,2.8,0c1,0,1.9,0.1,2.9,0.2
			c1.9,0.2,1.9-2.8,0-3c-1.7-0.2-3.4-0.3-5.1-0.3c-1,0-2,0.1-2.4,1.2c-0.4,1-0.1,2.7,0,3.8c0,1.7,0,3.4,0.1,5.1
			C267.7,109.6,270.7,109.6,270.7,107.7L270.7,107.7z"/>
	</g>
</g>
<g>
	<g>
		<path d="M270.4,105c0.9,0,1.9,0,2.8,0c1.9,0,1.9-3,0-3c-0.9,0-1.9,0-2.8,0C268.5,102,268.4,105,270.4,105L270.4,105z"/>
	</g>
</g>
<g>
	<g>
		<path d="M279.2,108.1c0-1.4,0-2.9,0.1-4.3c0.1-1.3,0-3,0.4-4.3c-0.3,0.3-0.7,0.7-1,1c0.6-0.2,1.9-0.3,1.6,0.9
			c-0.1,0.5-1.6,0.7-2,0.9c-1.2,0.3-1.6,2.2-0.4,2.7c1.4,0.6,2.8,1.2,3.1,2.9c0.4,1.9,3.2,1.1,2.9-0.8c-0.4-2.4-2.4-3.7-4.5-4.7
			c-0.1,0.9-0.2,1.8-0.4,2.7c1.9-0.5,4-1.4,4.4-3.6c0.4-1.9-1-3.6-2.9-4.1c-1.8-0.4-3.6,0-3.9,1.9c-0.5,2.8-0.5,5.8-0.5,8.6
			C276.2,110,279.2,110,279.2,108.1L279.2,108.1z"/>
	</g>
</g>
<g>
	<g>
		<path d="M285.3,99.1c-0.1,2.8-0.1,5.9,0.5,8.6c0.5,2.5,4,1.7,5.9,1.7s1.9-3,0-3c-1.2,0-2.8,0.2-3.9-0.1c0.3,0.3,0.7,0.7,1,1
			c-0.5-1.1-0.4-2.8-0.5-4c-0.1-1.4-0.1-2.9-0.1-4.3C288.3,97.2,285.3,97.2,285.3,99.1L285.3,99.1z"/>
	</g>
</g>
<g>
	<g>
		<path d="M287.8,104.6c0.9,0,1.8,0,2.7,0c0.8,0,1.5-0.7,1.5-1.5s-0.7-1.5-1.5-1.5c-0.9,0-1.8,0-2.7,0c-0.8,0-1.5,0.7-1.5,1.5
			S287,104.6,287.8,104.6L287.8,104.6z"/>
	</g>
</g>
<g>
	<g>
		<path d="M287.5,100.6c1.6,0.2,3.1,0.2,4.6,0c0.8-0.1,1.5-0.6,1.5-1.5c0-0.8-0.7-1.6-1.5-1.5c-1.6,0.2-3.1,0.1-4.6,0
			c-0.8-0.1-1.5,0.7-1.5,1.5C286,100,286.7,100.6,287.5,100.6L287.5,100.6z"/>
	</g>
</g>
<g>
	<g>
		<path d="M256.4,23.5c-0.1-1.8-0.2-3.5-0.2-5.3c0-1.9-3-1.9-3,0c0,1.8,0.1,3.5,0.2,5.3C253.5,25.4,256.5,25.4,256.4,23.5
			L256.4,23.5z"/>
	</g>
</g>
<g>
	<g>
		<path d="M255.2,20.5c0.7,0.3,1.5,0.6,2.1,1.1c0.7,0.6,0.9,1.5,1.3,2.2c1,1.7,3.6,0.2,2.6-1.5c-0.6-1.1-0.9-2.2-2-3
			c-0.9-0.8-2.1-1.3-3.2-1.7c-0.8-0.3-1.6,0.3-1.8,1C253.9,19.5,254.4,20.2,255.2,20.5L255.2,20.5z"/>
	</g>
</g>
<g>
	<g>
		<path d="M262.2,19c0.2,2.3,0.2,5.8,3.3,5.9c3.2,0.1,5.3-3.3,5.5-6.2c0.1-1.9-2.9-1.9-3,0c-0.1,0.7-0.3,1.5-0.7,2.1
			c-0.2,0.3-1.1,1.4-1.7,1.1c-0.4-0.2-0.4-2.4-0.4-2.9C265,17.1,262,17.1,262.2,19L262.2,19z"/>
	</g>
</g>
<g>
	<g>
		<path d="M271.6,18.7c-0.1,1.9-0.9,4.8,1.5,5.6c1.7,0.6,3.5,0.2,5.2,0.2c1.9,0.1,1.9-2.9,0-3c-1.3,0-2.6,0.2-3.9,0
			c-0.2,0-0.4-0.2-0.3,0c0.3,0.4,0.2-0.2,0.2-0.4c0-0.8,0.2-1.6,0.3-2.4C274.7,16.8,271.7,16.8,271.6,18.7L271.6,18.7z"/>
	</g>
</g>
<g>
	<g>
		<path d="M280.7,18.1c0.2,1.7-0.4,3.7,0.5,5.3c1,1.7,3.5,1.4,5.2,1.3c1.9-0.1,1.9-3.1,0-3c-0.6,0-1.3,0.1-1.9,0.1
			c0,0-1-0.1-0.9-0.1c0.1-0.2,0.2,0.9,0.3,0.1c0.1-1.2,0-2.5-0.1-3.7C283.5,16.2,280.5,16.1,280.7,18.1L280.7,18.1z"/>
	</g>
</g>
<g>
	<g>
		<path d="M293.1,18.9c0.8,1.4,1.6,2.9,2.4,4.3c0.9,1.7,3.5,0.2,2.6-1.5c-0.8-1.4-1.6-2.9-2.4-4.3C294.8,15.7,292.2,17.2,293.1,18.9
			L293.1,18.9z"/>
	</g>
</g>
<g>
	<g>
		<path d="M290.8,23.5c0.6-1.7,1.2-3.3,1.7-5c0.6-1.8-2.3-2.6-2.9-0.8c-0.6,1.7-1.2,3.3-1.7,5C287.3,24.6,290.2,25.3,290.8,23.5
			L290.8,23.5z"/>
	</g>
</g>
<g>
	<g>
		<path d="M291.2,21.6c1.9,0.5,3.7,0.2,5.6-0.1c1.9-0.3,1.1-3.2-0.8-2.9c-1.3,0.2-2.7,0.5-4,0.1C290.1,18.3,289.3,21.2,291.2,21.6
			L291.2,21.6z"/>
	</g>
</g>
<g>
	<g>
		<path d="M302.2,19.2c0.9,1.4,1.7,2.8,2.5,4.2c0.7,1.4,2.8,0.7,2.8-0.8c0-1.3,0-2.6,0-3.9c0-1.9-3-1.9-3,0c0,1.3,0,2.6,0,3.9
			c0.9-0.3,1.9-0.5,2.8-0.8c-0.7-1.5-1.6-2.9-2.5-4.2C303.7,16.1,301.1,17.6,302.2,19.2L302.2,19.2z"/>
	</g>
</g>
<g>
	<g>
		<path d="M302.2,23.5c0-1.7,0-3.5,0-5.2c0.1-1.9-2.9-1.9-3,0c-0.1,1.7-0.1,3.5,0,5.2C299.2,25.4,302.2,25.5,302.2,23.5L302.2,23.5z
			"/>
	</g>
</g>
<g>
	<g>
		<path d="M308.5,18.6c0,1.4-0.1,2.8-0.1,4.2c-0.1,1.9,2.9,1.9,3,0c0.1-1.4,0.1-2.8,0.1-4.2C311.5,16.7,308.5,16.7,308.5,18.6
			L308.5,18.6z"/>
	</g>
</g>
<g>
	<g>
		<path d="M312.2,18.1c-2.1,5,4.7,6.3,8.2,6.5c1.9,0.1,1.9-2.9,0-3c-1.3-0.1-2.6-0.2-3.9-0.6c-1.2-0.4-1.9-0.8-1.4-2.1
			C315.9,17.1,313,16.4,312.2,18.1L312.2,18.1z"/>
	</g>
</g>
<g>
	<g>
		<path d="M322.7,19c0.2,1.5,0.3,3,0.3,4.4c0,1.9,3,1.9,3,0c0-1.5-0.1-3-0.3-4.4c-0.1-0.8-0.6-1.5-1.5-1.5
			C323.4,17.5,322.6,18.2,322.7,19L322.7,19z"/>
	</g>
</g>
<g>
	<g>
		<path d="M337.4,18.2c0.9,1.7,1.7,3.5,2.4,5.4c0.6,1.8,3.5,1,2.9-0.8c-0.7-2.1-1.6-4.1-2.7-6.1C339,15,336.4,16.5,337.4,18.2
			L337.4,18.2z"/>
	</g>
</g>
<g>
	<g>
		<path d="M336.1,23.7c0.6-1.8,1.2-3.6,1.7-5.5s-2.4-2.7-2.9-0.8c-0.5,1.8-1,3.7-1.7,5.5S335.4,25.5,336.1,23.7L336.1,23.7z"/>
	</g>
</g>
<g>
	<g>
		<path d="M336.1,22.5c1.2-0.1,2.4-0.1,3.6-0.2c1.9-0.1,1.9-3.1,0-3c-1.2,0.1-2.4,0.1-3.6,0.2C334.2,19.6,334.2,22.6,336.1,22.5
			L336.1,22.5z"/>
	</g>
</g>
<g>
	<g>
		<path d="M349.4,18c0.3,2.9-2.1,4.1-4.6,3.3c-1.9-0.6-2.6,2.3-0.8,2.9c4.3,1.3,9-1.4,8.4-6.2C352.1,16.1,349.1,16.1,349.4,18
			L349.4,18z"/>
	</g>
</g>
<g>
	<g>
		<path d="M346.6,22.8c-0.1-1.6-0.2-3.2-0.2-4.8c0-1.9-3-1.9-3,0c0,1.6,0.1,3.2,0.2,4.8C343.8,24.7,346.8,24.7,346.6,22.8
			L346.6,22.8z"/>
	</g>
</g>
<g>
	<g>
		<path d="M354,18c0.1,1.7,0.1,3.4,0,5.2c-0.1,1.9,2.9,1.9,3,0c0.1-1.7,0.1-3.4,0-5.2C356.9,16.1,353.9,16.1,354,18L354,18z"/>
	</g>
</g>
<g>
	<g>
		<path d="M319.8,16.4c-40.8-0.4-81.6-0.2-122.5,0.7c-10.5,0.2-21.1,0.5-31.6,0.8c-6.7,0.2-14.6-1.1-18.2,5.8
			c-8,15.6-3.6,36.2-1.9,52.7c4.1,39.3,7.2,78.9,12.5,118c1.8,13.2,5,27.8,15.1,37.2c12.4,11.5,32.5,11.5,48.3,13.1
			c40.5,4,81.3,4,122,4.4c41,0.4,82,0.7,123,1.1c8.5,0.1,18,1.3,26.3-1.3c6.8-2.2,11.7-7.7,15.5-13.5c8.7-13.4,11.3-29.5,12.2-45.2
			c1.1-19.2,0.7-38.5,0.9-57.7c0.2-20.6,0.4-41.1,0.6-61.7c0.1-10.6,0.2-21.2,0.3-31.8c0-4.6,0.1-9.3,0.1-13.9
			c0-3.1,0.3-6.6-1.9-9.1c-4.3-4.8-13.3-3.1-18.8-2.9c-10.2,0.3-20.3,0.5-30.5,0.7c-40.4,0.8-80.7,1.2-121.1,2
			C340.2,15.9,330,16.2,319.8,16.4c-1.9,0.1-1.9,3.1,0,3c37.5-1,75-1.5,112.6-2c18.6-0.3,37.2-0.6,55.8-1c4.6-0.1,9.2-0.2,13.8-0.3
			c4.1-0.1,9.6-1.1,13.5,0.2c5.8,2.1,4.2,9,4.2,13.8c-0.1,5-0.1,10-0.2,14.9c-0.4,38.1-0.8,76.3-1.2,114.4
			c-0.2,16.5,0.4,33.5-2.9,49.8c-3.2,16-11.4,36.8-30.2,38.1c-9.1,0.6-18.4,0-27.5-0.1c-9.3-0.1-18.5-0.2-27.8-0.3
			c-19.2-0.2-38.4-0.3-57.5-0.5c-37.8-0.3-75.7-0.2-113.5-2c-18.9-0.9-37.7-2.4-56.5-4.9c-8.9-1.2-18.3-2.8-25.4-8.6
			c-5.7-4.6-9.4-11.2-11.7-18.1c-5.1-15-5.5-31.6-7.2-47.2c-2-18.9-4-37.9-6-56.8c-1.9-18.3-4.4-36.6-5.6-54.9
			c-0.6-9-0.4-18.6,3-27.1c1.5-3.7,3.4-5.2,7.6-5.6c2.2-0.2,4.5-0.2,6.7-0.2c4.6-0.1,9.2-0.3,13.8-0.4c37.8-1,75.7-1.5,113.6-1.4
			c9.5,0,19.1,0.1,28.6,0.2C321.7,19.4,321.7,16.4,319.8,16.4z"/>
	</g>
</g>
<g>
	<g>
		<path d="M319.2,9.1c-43.4-0.4-86.9-0.2-130.3,0.8c-10.9,0.2-21.9,0.5-32.8,0.9c-7.2,0.2-13.8-0.4-17.1,7.1
			c-7.7,17.5-3.1,39.1-1.2,57.3c2.2,20.9,4.3,41.8,6.5,62.7c2.1,20.4,3.7,41,6.4,61.3c1.8,13.5,5.1,28.3,15.1,38.3
			c12.2,12.2,32.1,12.5,48.2,14.2c42.8,4.5,85.8,4.6,128.8,5c43.5,0.4,86.9,0.8,130.4,1.2c8.9,0.1,19.2,1.5,27.7-1.7
			c7-2.5,11.9-8.5,15.7-14.7c9-14.4,11.6-31.7,12.5-48.4c1.1-20.2,0.7-40.6,0.9-60.9c0.2-21.5,0.4-43,0.6-64.5
			c0.1-10.9,0.2-21.8,0.3-32.8c0.1-5.3,0.1-10.6,0.2-15.9c0-3.4,0.5-7.4-1.8-10.3c-3.9-4.9-12.1-3.5-17.5-3.4
			c-11,0.4-21.8,0.7-32.7,0.9C436.4,7,393.6,7.5,350.9,8.3C340.3,8.6,329.8,8.8,319.2,9.1c-1.9,0.1-1.9,3.1,0,3
			c39.6-1.1,79.2-1.6,118.8-2.2c20-0.3,39.9-0.7,59.9-1.1c4.6-0.1,9.2-0.2,13.9-0.3c3.9-0.1,10.1-1.3,13.7,1
			c4.3,2.8,2.6,11.3,2.5,15.6c0,5-0.1,9.9-0.1,14.9c-0.4,40.4-0.8,80.8-1.2,121.1c-0.2,17.6,0.4,35.6-3,53
			c-3.2,16.4-11.4,38.9-30.7,40.7c-9.5,0.9-19.2,0.1-28.7,0c-10.3-0.1-20.6-0.2-30.9-0.3c-19.9-0.2-39.8-0.4-59.7-0.6
			c-39.8-0.4-79.7-0.2-119.5-2.2c-20.2-1-40.6-2.5-60.6-5.6c-8.6-1.3-17.4-3.4-24.1-9.4c-5.6-4.9-9.1-11.6-11.5-18.6
			c-5.3-15.9-5.8-33.4-7.5-49.9c-2-19.9-4.1-39.9-6.1-59.8c-2-19.2-4.4-38.4-5.8-57.6c-0.7-9.2-0.7-18.6,1.9-27.5
			c0.7-2.3,1.6-6.1,3.6-7.6c2.5-1.9,6.3-1.8,9.3-1.8c5.3-0.2,10.6-0.3,15.9-0.5c40.1-1.1,80.2-1.6,120.4-1.5
			c9.9,0,19.9,0.1,29.8,0.2C321.1,12.1,321.1,9.1,319.2,9.1z"/>
	</g>
</g>
<g>
	<g>
		<path d="M402.9,69.2c-27.4-0.5-54.8-0.5-82.1,0c-13.5,0.2-27,0.6-40.5,1.1c-9.2,0.3-21.9-1.7-28.3,6.5c-3.5,4.5-5.6,11.1,1.1,13.7
			c4.3,1.7,9.8,1.2,14.3,1.5c7.2,0.4,14.3,0.7,21.5,0.9c26.8,0.9,53.6,0.8,80.4,0.6c7.6-0.1,15.2,0.1,22.8-0.2
			c4.3-0.2,9.7-0.4,13.2-3.2c3.8-3,3.1-8.4,2.6-12.7c-0.5-4.6-0.4-6.6-4.6-8c-1.8-0.6-2.6,2.3-0.8,2.9c0.3,0.1,1,0.2,1.2,0.4
			c1.6,1.3,0-0.1,0.6,1.3c1,2.1,1.2,6.9,0.9,9.2c-1.1,6.9-8.1,7-13.9,7.2c-10.6,0.3-21.2,0.2-31.8,0.3c-21.6,0.1-43.1,0.1-64.7-0.5
			c-10.8-0.3-21.5-0.7-32.3-1.3c-4.7-0.3-13.5-0.4-10-7.3c2.6-5.1,6.9-7,12.4-7.4c21.5-1.6,43.2-1.5,64.8-1.8
			c24.4-0.3,48.8-0.3,73.2,0.1C404.8,72.2,404.8,69.2,402.9,69.2z"/>
	</g>
</g>
<g>
	<g>
		<path d="M252.3,58.1c-0.1,2.8-0.1,5.9,0.5,8.6c0.5,2.5,4,1.7,5.9,1.7c1.9,0,1.9-3,0-3c-1.2,0-2.8,0.2-3.9-0.1c0.3,0.3,0.7,0.7,1,1
			c-0.5-1.1-0.4-2.8-0.5-4c-0.1-1.4-0.1-2.9-0.1-4.3C255.3,56.2,252.3,56.2,252.3,58.1L252.3,58.1z"/>
	</g>
</g>
<g>
	<g>
		<path d="M254.5,63.6c0.9,0,1.8,0,2.7,0c0.8,0,1.5-0.7,1.5-1.5s-0.7-1.5-1.5-1.5c-0.9,0-1.8,0-2.7,0c-0.8,0-1.5,0.7-1.5,1.5
			C253,62.9,253.7,63.6,254.5,63.6L254.5,63.6z"/>
	</g>
</g>
<g>
	<g>
		<path d="M254.5,59.6c1.6,0.2,3.1,0.2,4.6,0c0.8-0.1,1.5-0.6,1.5-1.5c0-0.8-0.7-1.6-1.5-1.5c-1.6,0.2-3.1,0.1-4.6,0
			c-0.8-0.1-1.5,0.7-1.5,1.5C253,59,253.7,59.6,254.5,59.6L254.5,59.6z"/>
	</g>
</g>
<g>
	<g>
		<path d="M263.5,63.6c1.6-0.1,3.1-0.2,4.6-0.5c0.8-0.1,1.2-1.1,1-1.8c-0.2-0.9-1-1.2-1.8-1c-1.3,0.2-2.6,0.3-3.8,0.4
			C261.6,60.7,261.6,63.7,263.5,63.6L263.5,63.6z"/>
	</g>
</g>
<g>
	<g>
		<path d="M276.1,65.9c-0.3-1.6-0.4-3.2-0.1-4.8c0.2-1.1,0.7-3.5,1.8-4c-0.4,0.1-0.8,0.1-1.2,0.2c0.8,0.1,2.8,0.5,2.9,1.6
			c0.1,1.6-2.3,1.3-3.2,1.3c-1.9,0-1.9,3,0,3c2.4,0.1,5.5-0.4,6.1-3.2c0.6-2.4-1.4-4.3-3.4-5.1c-6.2-2.6-6.7,8.1-5.9,11.8
			C273.6,68.6,276.5,67.8,276.1,65.9L276.1,65.9z"/>
	</g>
</g>
<g>
	<g>
		<path d="M286.9,56.3c-2.5,1.2-3.6,5.2-3.6,7.7c0,3.2,3,5,6.1,4.4c2.9-0.6,4.6-3.5,4.6-6.3c0.1-3.3-1.9-5.1-5-5.6
			c-1.9-0.3-2.7,2.6-0.8,2.9c1.6,0.2,2.8,0.7,2.8,2.5c0,1.5-0.5,3.1-2.1,3.5c-0.8,0.2-2.1,0.1-2.6-0.7c-0.2-0.5,0-1.5,0.1-1.9
			c0.2-1.2,0.8-3.3,2-3.8C290.1,58,288.6,55.4,286.9,56.3L286.9,56.3z"/>
	</g>
</g>
<g>
	<g>
		<path d="M301.4,56.3c-1.4-0.3-3-0.5-4.2,0.4c-1.1,0.8-1.5,2.2-1.1,3.5c0.4,1.4,1.5,2.3,2.7,2.9c0.3,0.2,2.2,0.8,2.2,1.2
			c-0.1,0.8-1.9,0.3-2.4,0.1c-1.9-0.5-2.7,2.4-0.8,2.9c2.4,0.6,6.3,0.4,6.3-3c0-1.2-0.8-2.2-1.7-2.8c-0.7-0.5-1.5-0.7-2.2-1.1
			c-0.4-0.2-1.1-0.5-0.9-1s1-0.2,1.5-0.1C302.4,59.6,303.2,56.7,301.4,56.3L301.4,56.3z"/>
	</g>
</g>
<g>
	<g>
		<path d="M305,58.6c1.1,0,2.2,0,3.2,0c0.8,0,2.4-0.3,3.1,0c1.7,0.8,3.3-1.8,1.5-2.6c-1.2-0.5-2.3-0.4-3.6-0.4c-1.4,0-2.9,0-4.3,0
			C303.1,55.6,303.1,58.6,305,58.6L305,58.6z"/>
	</g>
</g>
<g>
	<g>
		<path d="M307.1,57.5c-0.3,2.5-0.4,5.1-0.4,7.6c0,1.9,3,1.9,3,0c0-2.6,0.2-5.1,0.4-7.6C310.3,55.6,307.3,55.6,307.1,57.5
			L307.1,57.5z"/>
	</g>
</g>
<g>
	<g>
		<path d="M315.7,65.6c0.6-1.1,1.2-2.2,1.7-3.4c0.5-1.1,0.7-2.5,1.2-3.5c-0.6,0.2-1.1,0.5-1.7,0.7c0.6,0.2,1.8,2.1,2.3,2.7
			c0.8,1.1,1.4,2.2,1.9,3.4c0.8,1.8,3.4,0.2,2.6-1.5c-0.7-1.6-1.6-3-2.6-4.4c-0.9-1.1-2-2.7-3.4-3.1c-0.6-0.2-1.4,0.1-1.7,0.7
			c-0.5,0.9-0.7,2.2-1.1,3.2c-0.5,1.3-1.1,2.5-1.8,3.7C312.1,65.8,314.7,67.3,315.7,65.6L315.7,65.6z"/>
	</g>
</g>
<g>
	<g>
		<path d="M316.8,64.8c1-0.1,2,0,3,0.1c0.8,0.1,1.5-0.8,1.5-1.5c0-0.9-0.7-1.4-1.5-1.5c-1-0.1-2-0.1-3-0.1c-0.8,0-1.5,0.7-1.5,1.5
			C315.3,64,315.9,64.8,316.8,64.8L316.8,64.8z"/>
	</g>
</g>
<g>
	<g>
		<path d="M506.3,16c-2,36.6-1.2,73.3-1.2,109.9c0,18.5,1.1,36.8,1.7,55.2c0.5,18.2-1.8,36.4-3.2,54.5c-0.2,1.9,2.8,1.9,3,0
			c1.4-17.8,3.7-35.7,3.3-53.6c-0.5-18.8-1.7-37.4-1.7-56.2c-0.1-36.6-0.8-73.3,1.2-109.9C509.4,14.1,506.4,14.1,506.3,16L506.3,16z
			"/>
	</g>
</g>
<g>
	<g>
		<path d="M507.9,26.5c3.9,0.9,7.8,1.3,11.7,1c1.9-0.1,1.9-3.1,0-3c-3.7,0.3-7.3,0-10.9-0.9C506.8,23.1,506,26,507.9,26.5
			L507.9,26.5z"/>
	</g>
</g>
<g>
	<g>
		<path d="M513.1,21.7c0.1-0.8,0.3-1.6,0.7-2.3c0.1-0.3,0.4-0.6,0.5-0.9c0.3-0.4,0-0.5-0.9-0.4c0.1,0.2,0.2,0.4,0.4,0.6
			c0.9,1.6,1.8,3.1,2.7,4.7c1,1.7,3.6,0.2,2.6-1.5c-0.8-1.4-1.6-2.7-2.3-4.1c-0.6-1-1.1-2.3-2.4-2.5c-2.5-0.3-3.7,3.7-4,5.6
			C509.9,22.8,512.7,23.6,513.1,21.7L513.1,21.7z"/>
	</g>
</g>
<g>
	<g>
		<path d="M506.3,219.5c2.4-0.2,4.9-0.4,7.3-0.6c1.9-0.2,1.9-3.2,0-3c-2.4,0.2-4.9,0.4-7.3,0.6C504.4,216.7,504.4,219.7,506.3,219.5
			L506.3,219.5z"/>
	</g>
</g>
<g>
	<g>
		<path d="M507.8,223.7c0.6,1.3,1.3,2.7,1.9,4c0.3,0.7,1.4,0.9,2.1,0.5c0.8-0.4,0.9-1.3,0.5-2.1c-0.6-1.3-1.3-2.7-1.9-4
			c-0.3-0.7-1.4-0.9-2.1-0.5C507.6,222.1,507.5,223,507.8,223.7L507.8,223.7z"/>
	</g>
</g>
<g>
	<g>
		<path d="M507.3,99.9c4.2,0,8.4-0.3,12.7-0.8c1.9-0.2,1.9-3.2,0-3c-4.2,0.5-8.4,0.8-12.7,0.8C505.4,96.9,505.4,99.9,507.3,99.9
			L507.3,99.9z"/>
	</g>
</g>
<g>
	<g>
		<path d="M506.3,134.1c4.4-0.3,8.9-0.7,13.3-1c1.9-0.1,1.9-3.1,0-3c-4.4,0.3-8.9,0.7-13.3,1C504.4,131.2,504.4,134.2,506.3,134.1
			L506.3,134.1z"/>
	</g>
</g>
<g>
	<g>
		<path d="M507.6,100.2c0.8,10.3,0.3,20.6-0.3,30.9c-0.1,0.9,1,1.8,1.9,1.4c2.8-1.1,5.7-0.6,8.3-1.4c0.4-0.1,0.9-0.1,1.2-0.4
			c1.3-1.1,1-3.1,1-4.7c0.3-8.6,0-17.3,0.6-26c0.1-0.8-0.7-1.5-1.5-1.5c-2.9-0.1-6.5-0.5-9.2,0.7c-0.5,0.2-0.8,0.8-0.7,1.3
			c0.1,2,0.9,3.9,1.2,5.9c0.4,2.9,0.2,5.5-0.1,8.4c-0.5,3.8-1.6,9.7-0.3,13.5c0.2,0.7,0.7,1.1,1.4,1.1c3.5,0.2,5.9-0.9,6.5-4.1
			c1.4-7.8-0.4-16.2-0.4-24c0-1.2-1.3-1.8-2.3-1.3c-1.3,0.7-1.5,0.9-2.3,2c0.8-0.1,1.6-0.2,2.4-0.3c-0.3-0.2-0.6-0.5-0.9-0.7
			c-0.9-0.7-2.7-0.4-2.6,1.1c0.7,7.3,0.9,14.7,0.4,22c1,0,2,0,3,0c-0.2-6.4-0.3-12.7,0.8-19c-1-0.1-2-0.3-2.9-0.4
			c0.3,8.1-0.5,16.1-1.4,24.2c1,0,2,0,3,0c-0.3-4.2-0.2-8.7-1-12.9c-0.6-3.2-2.9-5.6-4.1-8.6c-0.6-1.5-3-1.4-2.9,0.4
			c0,2.5,0.1,4.9,0.3,7.3c0.1,1.9,3.1,1.9,3,0c-0.2-2.4-0.3-4.9-0.3-7.3c-1,0.1-2,0.3-2.9,0.4c1.2,3.2,3.4,5.9,4.1,9.2
			c0.7,3.6,0.6,7.7,0.8,11.5c0.1,2,2.8,1.9,3,0c0.9-8,1.7-16.1,1.4-24.2c-0.1-1.6-2.6-2.1-2.9-0.4c-1.1,6.6-1.1,13.2-0.9,19.8
			c0.1,1.9,2.9,1.9,3,0c0.4-7.4,0.3-14.7-0.4-22c-0.9,0.4-1.7,0.7-2.6,1.1c0.3,0.2,0.6,0.5,0.9,0.7c0.8,0.6,1.7,0.5,2.4-0.3
			c0.4-0.3,0.8-0.6,1.3-1c-0.8-0.4-1.5-0.9-2.3-1.3c0,5.2,0.6,10.3,0.8,15.4c0.1,2.1,0.6,5.6-0.2,7.7c0.7,1.1,0.3,1.6-1.1,1.5
			c-0.9,0.2-1.7,0.4-2.6,0.6c0.5,0.4,1,0.7,1.4,1.1c-1.7-4.7,0.5-11.4,0.8-16.2c0.1-2.1-0.1-4.3-0.5-6.4c-0.2-1.4-0.9-2.4,0.1-3.5
			c0.7-0.7,5-0.1,5.8,0c-0.5-0.5-1-1-1.5-1.5c-0.4,6.4-0.3,12.8-0.4,19.2c0,2.1,0.8,6.8-0.7,8.3c-0.9,0.9-6.3,1.4-7.9,2
			c0.6,0.5,1.3,1,1.9,1.4c0.6-10.3,1.2-20.6,0.3-30.9C510.4,98.3,507.4,98.3,507.6,100.2L507.6,100.2z"/>
	</g>
</g>
<g>
	<g>
		<path d="M515.3,101.1c0.1,5.2,0.3,9.9-0.7,15.1c-0.8,4.1-1.6,8.1-1.7,12.3c0,1.5,2,2,2.8,0.8c1.9-3.2,2.8-6.3,3-10
			c0.1-1.9-2.9-1.9-3,0c-0.2,2.8-0.3,5.6-0.4,8.4c1,0,2,0,3,0c-0.1-1.8-0.1-5-2.4-5.4c-2.6-0.4-4.7,4.3-5.9,5.9
			c0.9,0.3,1.9,0.5,2.8,0.8c-0.4-3.4-0.7-6.9-1.1-10.3c-0.2-1.9-2.9-2-3,0c-0.1,3,0.2,5.9-0.5,8.9c1,0,1.9,0,2.9,0
			c-0.6-4.2-0.9-8.5-0.8-12.7c0.1-3-0.5-11.1,1.7-13c3.5-3,2,10.1,1.9,11c-0.6,3.4-1.3,6.8-1.8,10.3c1,0,2,0,3,0
			c0.4-6.1,0.2-12-0.6-18c-0.2-1.9-3.2-1.9-3,0c0.6,5.3,0.9,10.4-0.8,15.6c1,0.1,2,0.3,2.9,0.4c0.2-5.8,0.2-11.6,0-17.4
			c-0.1-1.6-2.6-2.1-2.9-0.4c-1.2,6.9-2.8,14.3-2.3,21.4c0.1,1.3,2.1,2.2,2.8,0.8c2.8-6.1,5.1-12.4,6.9-19c-1-0.1-2-0.3-2.9-0.4
			c0,6-0.2,11.8-1.7,17.6c-0.5,1.9,2.4,2.7,2.9,0.8c1.7-6.4,2.7-12.8,3.2-19.4c-1,0-2,0-3,0c0.1,5.9,0.6,12.7-1.5,18.3
			c-0.7,1.8,2.2,2.6,2.9,0.8c2.2-5.9,1.7-12.9,1.6-19.1c0-1.9-2.9-1.9-3,0c-0.5,6.3-1.5,12.5-3.1,18.6c1,0.3,1.9,0.5,2.9,0.8
			c1.6-6.1,1.8-12.2,1.8-18.4c0-1.7-2.5-2-2.9-0.4c-1.7,6.3-3.8,12.4-6.5,18.3c0.9,0.3,1.9,0.5,2.8,0.8c-0.5-6.8,1-13.9,2.2-20.6
			c-1-0.1-2-0.3-2.9-0.4c0.2,5.8,0.2,11.6,0,17.4c-0.1,1.7,2.4,2,2.9,0.4c1.8-5.4,1.5-10.8,0.9-16.3c-1,0-2,0-3,0c0.8,6,1,12,0.6,18
			c-0.1,2,2.8,1.9,3,0c0.7-6,3.5-12.9,2.3-19c-0.5-2.4-2.8-7.1-5.9-6.6c-3.5,0.6-3.5,7.3-3.7,9.8c-0.8,7-0.5,14,0.4,21
			c0.2,1.5,2.6,1.4,2.9,0c0.8-3.2,0.5-6.4,0.6-9.7c-1,0-2,0-3,0c0.4,3.4,0.7,6.9,1.1,10.3c0.2,1.5,1.9,2,2.8,0.8
			c0.3-0.4,2.6-4.6,2.7-2c0.1,1.9,2.9,1.9,3,0c0.1-2.8,0.2-5.6,0.4-8.4c-1,0-2,0-3,0c-0.2,3.2-1,5.7-2.6,8.5
			c0.9,0.3,1.9,0.5,2.8,0.8c0.1-5.1,1.5-9.9,2.2-14.9c0.6-4.2,0.3-8.3,0.2-12.5C518.3,99.2,515.3,99.1,515.3,101.1L515.3,101.1z"/>
	</g>
</g>
<g>
	<g>
		<path d="M328,256c0,7.2,0,14.3,0,21.5c0,1.9,3,1.9,3,0c0-7.2,0-14.3,0-21.5C331,254.1,328,254.1,328,256L328,256z"/>
	</g>
</g>
<g>
	<g>
		<path d="M329.4,276.2c-28.9,2.9-57.3,8.6-85.7,14.5c-1.9,0.4-1.1,3.3,0.8,2.9c28.1-5.8,56.3-11.5,84.9-14.3
			C331.3,279,331.4,276,329.4,276.2L329.4,276.2z"/>
	</g>
</g>
<g>
	<g>
		<path d="M330,277.7c32,0.2,63.9-0.1,95.9-1c1.9-0.1,1.9-3.1,0-3c-32,0.9-63.9,1.2-95.9,1C328.1,274.7,328.1,277.7,330,277.7
			L330,277.7z"/>
	</g>
</g>
<g>
	<g>
		<path d="M328,274.8c-27.5-0.1-55-1.4-82.4-4c-1.9-0.2-1.9,2.8,0,3c27.4,2.6,54.9,3.9,82.4,4C330,277.8,330,274.8,328,274.8
			L328,274.8z"/>
	</g>
</g>
<g>
	<g>
		<path d="M328.2,279.2c30.1,6.5,60.4,14.8,91.2,17c1.9,0.1,1.9-2.9,0-3c-30.5-2.2-60.6-10.5-90.5-16.9
			C327.2,275.9,326.4,278.8,328.2,279.2L328.2,279.2z"/>
	</g>
</g>
</svg>
