<?xml version="1.0" encoding="utf-8"?>
<!-- Generator: Adobe Illustrator 22.0.0, SVG Export Plug-In . SVG Version: 6.00 Build 0)  -->
<svg version="1.1" id="Layer_1" xmlns="http://www.w3.org/2000/svg" xmlns:xlink="http://www.w3.org/1999/xlink" x="0px" y="0px"
	 viewBox="0 0 666 300" style="enable-background:new 0 0 666 300;" xml:space="preserve">
<g>
	<g>
		<path d="M319.8,16.4c-40.8-0.4-81.6-0.2-122.5,0.7c-10.5,0.2-21.1,0.5-31.6,0.8c-6.7,0.2-14.6-1.1-18.2,5.8
			c-8,15.6-3.6,36.2-1.9,52.7c4.1,39.3,7.2,78.9,12.5,118c1.8,13.2,5,27.8,15.1,37.2c12.4,11.5,32.5,11.5,48.3,13.1
			c40.5,4,81.3,4,122,4.4c41,0.4,82,0.7,123,1.1c8.5,0.1,18,1.3,26.3-1.3c6.8-2.2,11.7-7.7,15.5-13.5c8.7-13.4,11.3-29.5,12.2-45.2
			c1.1-19.2,0.7-38.5,0.9-57.7c0.2-20.6,0.4-41.1,0.6-61.7c0.1-10.6,0.2-21.2,0.3-31.8c0-4.6,0.1-9.3,0.1-13.9
			c0-3.1,0.3-6.6-1.9-9.1c-4.3-4.8-13.3-3.1-18.8-2.9c-10.2,0.3-20.3,0.5-30.5,0.7c-40.4,0.8-80.7,1.2-121.1,2
			C340.2,15.9,330,16.2,319.8,16.4c-1.9,0.1-1.9,3.1,0,3c37.5-1,75-1.5,112.6-2c18.6-0.3,37.2-0.6,55.8-1c4.6-0.1,9.2-0.2,13.8-0.3
			c4.1-0.1,9.6-1.1,13.5,0.2c5.8,2.1,4.2,9,4.2,13.8c-0.1,5-0.1,10-0.2,14.9c-0.4,38.1-0.8,76.3-1.2,114.4
			c-0.2,16.5,0.4,33.5-2.9,49.8c-3.2,16-11.4,36.8-30.2,38.1c-9.1,0.6-18.4,0-27.5-0.1c-9.3-0.1-18.5-0.2-27.8-0.3
			c-19.2-0.2-38.4-0.3-57.5-0.5c-37.8-0.3-75.7-0.2-113.5-2c-18.9-0.9-37.7-2.4-56.5-4.9c-8.9-1.2-18.3-2.8-25.4-8.6
			c-5.7-4.6-9.4-11.2-11.7-18.1c-5.1-15-5.5-31.6-7.2-47.2c-2-18.9-4-37.9-6-56.8c-1.9-18.3-4.4-36.6-5.6-54.9
			c-0.6-9-0.4-18.6,3-27.1c1.5-3.7,3.4-5.2,7.6-5.6c2.2-0.2,4.5-0.2,6.7-0.2c4.6-0.1,9.2-0.3,13.8-0.4c37.8-1,75.7-1.5,113.6-1.4
			c9.5,0,19.1,0.1,28.6,0.2C321.7,19.4,321.7,16.4,319.8,16.4z"/>
	</g>
</g>
<g>
	<g>
		<path d="M319.2,9.1c-43.4-0.4-86.9-0.2-130.3,0.8c-10.9,0.2-21.9,0.5-32.8,0.9c-7.2,0.2-13.8-0.4-17.1,7.1
			c-7.7,17.5-3.1,39.1-1.2,57.3c2.2,20.9,4.3,41.8,6.5,62.7c2.1,20.4,3.7,41,6.4,61.3c1.8,13.5,5.1,28.3,15.1,38.3
			c12.2,12.2,32.1,12.5,48.2,14.2c42.8,4.5,85.8,4.6,128.8,5c43.5,0.4,86.9,0.8,130.4,1.2c8.9,0.1,19.2,1.5,27.7-1.7
			c7-2.5,11.9-8.5,15.7-14.7c9-14.4,11.6-31.7,12.5-48.4c1.1-20.2,0.7-40.6,0.9-60.9c0.2-21.5,0.4-43,0.6-64.5
			c0.1-10.9,0.2-21.8,0.3-32.8c0.1-5.3,0.1-10.6,0.2-15.9c0-3.4,0.5-7.4-1.8-10.3c-3.9-4.9-12.1-3.5-17.5-3.4
			C500.8,5.7,490,6,479.1,6.2C436.4,7,393.6,7.5,350.9,8.3C340.3,8.6,329.8,8.8,319.2,9.1c-1.9,0.1-1.9,3.1,0,3
			c39.6-1.1,79.2-1.6,118.8-2.2c20-0.3,39.9-0.7,59.9-1.1c4.6-0.1,9.2-0.2,13.9-0.3c3.9-0.1,10.1-1.3,13.7,1
			c4.3,2.8,2.6,11.3,2.5,15.6c0,5-0.1,9.9-0.1,14.9c-0.4,40.4-0.8,80.8-1.2,121.1c-0.2,17.6,0.4,35.6-3,53
			c-3.2,16.4-11.4,38.9-30.7,40.7c-9.5,0.9-19.2,0.1-28.7,0c-10.3-0.1-20.6-0.2-30.9-0.3c-19.9-0.2-39.8-0.4-59.7-0.6
			c-39.8-0.4-79.7-0.2-119.5-2.2c-20.2-1-40.6-2.5-60.6-5.6c-8.6-1.3-17.4-3.4-24.1-9.4c-5.6-4.9-9.1-11.6-11.5-18.6
			c-5.3-15.9-5.8-33.4-7.5-49.9c-2-19.9-4.1-39.9-6.1-59.8c-2-19.2-4.4-38.4-5.8-57.6c-0.7-9.2-0.7-18.6,1.9-27.5
			c0.7-2.3,1.6-6.1,3.6-7.6c2.5-1.9,6.3-1.8,9.3-1.8c5.3-0.2,10.6-0.3,15.9-0.5c40.1-1.1,80.2-1.6,120.4-1.5
			c9.9,0,19.9,0.1,29.8,0.2C321.1,12.1,321.1,9.1,319.2,9.1z"/>
	</g>
</g>
<g>
	<g>
		<path d="M506.3,16c-2,36.6-1.2,73.3-1.2,109.9c0,18.5,1.1,36.8,1.7,55.2c0.5,18.2-1.8,36.4-3.2,54.5c-0.2,1.9,2.8,1.9,3,0
			c1.4-17.8,3.7-35.7,3.3-53.6c-0.5-18.8-1.7-37.4-1.7-56.2c-0.1-36.6-0.8-73.3,1.2-109.9C509.4,14.1,506.4,14.1,506.3,16L506.3,16z
			"/>
	</g>
</g>
<g>
	<g>
		<path d="M507.9,26.5c3.9,0.9,7.8,1.3,11.7,1c1.9-0.1,1.9-3.1,0-3c-3.7,0.3-7.3,0-10.9-0.9C506.8,23.1,506,26,507.9,26.5
			L507.9,26.5z"/>
	</g>
</g>
<g>
	<g>
		<path d="M513.1,21.7c0.1-0.8,0.3-1.6,0.7-2.3c0.1-0.3,0.4-0.6,0.5-0.9c0.3-0.4,0-0.5-0.9-0.4c0.1,0.2,0.2,0.4,0.4,0.6
			c0.9,1.6,1.8,3.1,2.7,4.7c1,1.7,3.6,0.2,2.6-1.5c-0.8-1.4-1.6-2.7-2.3-4.1c-0.6-1-1.1-2.3-2.4-2.5c-2.5-0.3-3.7,3.7-4,5.6
			C509.9,22.8,512.7,23.6,513.1,21.7L513.1,21.7z"/>
	</g>
</g>
<g>
	<g>
		<path d="M506.3,219.5c2.4-0.2,4.9-0.4,7.3-0.6c1.9-0.2,1.9-3.2,0-3c-2.4,0.2-4.9,0.4-7.3,0.6C504.4,216.7,504.4,219.7,506.3,219.5
			L506.3,219.5z"/>
	</g>
</g>
<g>
	<g>
		<path d="M507.8,223.7c0.6,1.3,1.3,2.7,1.9,4c0.3,0.7,1.4,0.9,2.1,0.5c0.8-0.4,0.9-1.3,0.5-2.1c-0.6-1.3-1.3-2.7-1.9-4
			c-0.3-0.7-1.4-0.9-2.1-0.5C507.6,222.1,507.5,223,507.8,223.7L507.8,223.7z"/>
	</g>
</g>
<g>
	<g>
		<path d="M507.3,99.9c4.2,0,8.4-0.3,12.7-0.8c1.9-0.2,1.9-3.2,0-3c-4.2,0.5-8.4,0.8-12.7,0.8C505.4,96.9,505.4,99.9,507.3,99.9
			L507.3,99.9z"/>
	</g>
</g>
<g>
	<g>
		<path d="M506.3,134.1c4.4-0.3,8.9-0.7,13.3-1c1.9-0.1,1.9-3.1,0-3c-4.4,0.3-8.9,0.7-13.3,1C504.4,131.2,504.4,134.2,506.3,134.1
			L506.3,134.1z"/>
	</g>
</g>
<g>
	<g>
		<path d="M507.6,100.2c0.8,10.3,0.3,20.6-0.3,30.9c-0.1,0.9,1,1.8,1.9,1.4c2.8-1.1,5.7-0.6,8.3-1.4c0.4-0.1,0.9-0.1,1.2-0.4
			c1.3-1.1,1-3.1,1-4.7c0.3-8.6,0-17.3,0.6-26c0.1-0.8-0.7-1.5-1.5-1.5c-2.9-0.1-6.5-0.5-9.2,0.7c-0.5,0.2-0.8,0.8-0.7,1.3
			c0.1,2,0.9,3.9,1.2,5.9c0.4,2.9,0.2,5.5-0.1,8.4c-0.5,3.8-1.6,9.7-0.3,13.5c0.2,0.7,0.7,1.1,1.4,1.1c3.5,0.2,5.9-0.9,6.5-4.1
			c1.4-7.8-0.4-16.2-0.4-24c0-1.2-1.3-1.8-2.3-1.3c-1.3,0.7-1.5,0.9-2.3,2c0.8-0.1,1.6-0.2,2.4-0.3c-0.3-0.2-0.6-0.5-0.9-0.7
			c-0.9-0.7-2.7-0.4-2.6,1.1c0.7,7.3,0.9,14.7,0.4,22c1,0,2,0,3,0c-0.2-6.4-0.3-12.7,0.8-19c-1-0.1-2-0.3-2.9-0.4
			c0.3,8.1-0.5,16.1-1.4,24.2c1,0,2,0,3,0c-0.3-4.2-0.2-8.7-1-12.9c-0.6-3.2-2.9-5.6-4.1-8.6c-0.6-1.5-3-1.4-2.9,0.4
			c0,2.5,0.1,4.9,0.3,7.3c0.1,1.9,3.1,1.9,3,0c-0.2-2.4-0.3-4.9-0.3-7.3c-1,0.1-2,0.3-2.9,0.4c1.2,3.2,3.4,5.9,4.1,9.2
			c0.7,3.6,0.6,7.7,0.8,11.5c0.1,2,2.8,1.9,3,0c0.9-8,1.7-16.1,1.4-24.2c-0.1-1.6-2.6-2.1-2.9-0.4c-1.1,6.6-1.1,13.2-0.9,19.8
			c0.1,1.9,2.9,1.9,3,0c0.4-7.4,0.3-14.7-0.4-22c-0.9,0.4-1.7,0.7-2.6,1.1c0.3,0.2,0.6,0.5,0.9,0.7c0.8,0.6,1.7,0.5,2.4-0.3
			c0.4-0.3,0.8-0.6,1.3-1c-0.8-0.4-1.5-0.9-2.3-1.3c0,5.2,0.6,10.3,0.8,15.4c0.1,2.1,0.6,5.6-0.2,7.7c0.7,1.1,0.3,1.6-1.1,1.5
			c-0.9,0.2-1.7,0.4-2.6,0.6c0.5,0.4,1,0.7,1.4,1.1c-1.7-4.7,0.5-11.4,0.8-16.2c0.1-2.1-0.1-4.3-0.5-6.4c-0.2-1.4-0.9-2.4,0.1-3.5
			c0.7-0.7,5-0.1,5.8,0c-0.5-0.5-1-1-1.5-1.5c-0.4,6.4-0.3,12.8-0.4,19.2c0,2.1,0.8,6.8-0.7,8.3c-0.9,0.9-6.3,1.4-7.9,2
			c0.6,0.5,1.3,1,1.9,1.4c0.6-10.3,1.2-20.6,0.3-30.9C510.4,98.3,507.4,98.3,507.6,100.2L507.6,100.2z"/>
	</g>
</g>
<g>
	<g>
		<path d="M515.3,101.1c0.1,5.2,0.3,9.9-0.7,15.1c-0.8,4.1-1.6,8.1-1.7,12.3c0,1.5,2,2,2.8,0.8c1.9-3.2,2.8-6.3,3-10
			c0.1-1.9-2.9-1.9-3,0c-0.2,2.8-0.3,5.6-0.4,8.4c1,0,2,0,3,0c-0.1-1.8-0.1-5-2.4-5.4c-2.6-0.4-4.7,4.3-5.9,5.9
			c0.9,0.3,1.9,0.5,2.8,0.8c-0.4-3.4-0.7-6.9-1.1-10.3c-0.2-1.9-2.9-2-3,0c-0.1,3,0.2,5.9-0.5,8.9c1,0,1.9,0,2.9,0
			c-0.6-4.2-0.9-8.5-0.8-12.7c0.1-3-0.5-11.1,1.7-13c3.5-3,2,10.1,1.9,11c-0.6,3.4-1.3,6.8-1.8,10.3c1,0,2,0,3,0
			c0.4-6.1,0.2-12-0.6-18c-0.2-1.9-3.2-1.9-3,0c0.6,5.3,0.9,10.4-0.8,15.6c1,0.1,2,0.3,2.9,0.4c0.2-5.8,0.2-11.6,0-17.4
			c-0.1-1.6-2.6-2.1-2.9-0.4c-1.2,6.9-2.8,14.3-2.3,21.4c0.1,1.3,2.1,2.2,2.8,0.8c2.8-6.1,5.1-12.4,6.9-19c-1-0.1-2-0.3-2.9-0.4
			c0,6-0.2,11.8-1.7,17.6c-0.5,1.9,2.4,2.7,2.9,0.8c1.7-6.4,2.7-12.8,3.2-19.4c-1,0-2,0-3,0c0.1,5.9,0.6,12.7-1.5,18.3
			c-0.7,1.8,2.2,2.6,2.9,0.8c2.2-5.9,1.7-12.9,1.6-19.1c0-1.9-2.9-1.9-3,0c-0.5,6.3-1.5,12.5-3.1,18.6c1,0.3,1.9,0.5,2.9,0.8
			c1.6-6.1,1.8-12.2,1.8-18.4c0-1.7-2.5-2-2.9-0.4c-1.7,6.3-3.8,12.4-6.5,18.3c0.9,0.3,1.9,0.5,2.8,0.8c-0.5-6.8,1-13.9,2.2-20.6
			c-1-0.1-2-0.3-2.9-0.4c0.2,5.8,0.2,11.6,0,17.4c-0.1,1.7,2.4,2,2.9,0.4c1.8-5.4,1.5-10.8,0.9-16.3c-1,0-2,0-3,0c0.8,6,1,12,0.6,18
			c-0.1,2,2.8,1.9,3,0c0.7-6,3.5-12.9,2.3-19c-0.5-2.4-2.8-7.1-5.9-6.6c-3.5,0.6-3.5,7.3-3.7,9.8c-0.8,7-0.5,14,0.4,21
			c0.2,1.5,2.6,1.4,2.9,0c0.8-3.2,0.5-6.4,0.6-9.7c-1,0-2,0-3,0c0.4,3.4,0.7,6.9,1.1,10.3c0.2,1.5,1.9,2,2.8,0.8
			c0.3-0.4,2.6-4.6,2.7-2c0.1,1.9,2.9,1.9,3,0c0.1-2.8,0.2-5.6,0.4-8.4c-1,0-2,0-3,0c-0.2,3.2-1,5.7-2.6,8.5
			c0.9,0.3,1.9,0.5,2.8,0.8c0.1-5.1,1.5-9.9,2.2-14.9c0.6-4.2,0.3-8.3,0.2-12.5C518.3,99.2,515.3,99.1,515.3,101.1L515.3,101.1z"/>
	</g>
</g>
<g>
	<g>
		<g>
			<path d="M284.9,32c-1.9-0.9-4.9-1.4-6.8-0.2c-1.6,1-2.2,3.6-1.4,5.2c0.9,1.8,2.9,2.2,4.7,2.6c0.5,0.1,1.2,0.2,1.7,0.4
				c1.2,0.6-0.1,0.8-0.9,1.1c-1.4,0.5-3.5,0.5-4.7-0.5c-1.5-1.2-3.6,0.9-2.1,2.1c1.8,1.6,3.9,1.9,6.3,1.5c2.1-0.3,4.7-0.9,5.1-3.4
				c0.3-2.1-1.5-3.3-3.2-3.8c-0.9-0.3-2.6-0.3-3.4-0.9c-1.1-0.8-0.9-1.6,0.1-2c0.9-0.3,2.2-0.1,3.1,0.3
				C285.2,35.4,286.7,32.8,284.9,32L284.9,32z"/>
		</g>
	</g>
	<g>
		<g>
			<path d="M290.4,32.5c-2.9,2.9-3.6,7.6-1,11c2.5,3.3,6.7,2.1,9.6-0.1c7.5-5.8-4.2-17.4-10.2-9.9c-1.2,1.5,0.9,3.6,2.1,2.1
				c3.7-4.7,10.7,2.8,5.3,5.9c-2.1,1.2-4.2,1.6-5.2-1.2c-0.8-2.1-0.1-4.2,1.5-5.8C293.9,33.3,291.7,31.2,290.4,32.5L290.4,32.5z"/>
		</g>
	</g>
	<g>
		<g>
			<path d="M307.4,43.1c-0.1-3-0.3-6.1-0.7-9.1c-0.9,0.3-1.9,0.5-2.8,0.8c2.4,3.3,4.9,6.7,7.3,10c0.7,0.9,2.5,1,2.7-0.4
				c0.6-3.3,0.4-6.6,0.7-9.8c0.2-1.9-2.8-1.9-3,0c-0.3,3,0,6.1-0.6,9c0.9-0.1,1.8-0.2,2.7-0.4c-2.4-3.3-4.9-6.7-7.3-10
				c-0.8-1-3-0.9-2.8,0.8c0.4,3,0.6,6.1,0.7,9.1C304.5,45.1,307.5,45.1,307.4,43.1L307.4,43.1z"/>
		</g>
	</g>
	<g>
		<g>
			<path d="M326.9,44c-0.4-2.9-1-6.9-0.1-9.7c-0.3,0.3-0.7,0.7-1,1c0.4-0.1,1,0.3,1.2,0.5c0.6,0.2,0.7,0.5,0.3,1
				c0,0.5-0.3,0.9-0.9,0.9c-1.6,0.6-1.3,2.8,0.4,2.9c0.6,0,1.1,0.1,1.6,0.3c0.9,0.3,1,0.6,0.3,1.2c-0.2,0.7-0.8,1-1.5,0.8
				c-0.9,0-1,0-0.4,0.1c-1.5-1.2-3,1.4-1.5,2.6c1,0.8,3,0.4,4.1,0c1.3-0.5,2.4-1.4,2.8-2.8c0.9-3.5-2.6-4.9-5.3-5.1
				c0.1,1,0.3,2,0.4,2.9c1.8-0.7,3.6-1.8,3.5-4.1c-0.1-2.2-2-3.7-4-4.1c-2.5-0.6-2.9,1.1-3,3.2c-0.2,3.1,0,6.1,0.4,9.2
				C324.3,46.7,327.2,45.9,326.9,44L326.9,44z"/>
		</g>
	</g>
	<g>
		<g>
			<path d="M337,44.7c-0.4-2.2-0.6-4.4-0.6-6.6c0-1.9-3-1.9-3,0c0,2.5,0.3,5,0.7,7.4C334.4,47.4,337.3,46.6,337,44.7L337,44.7z"/>
		</g>
	</g>
	<g>
		<g>
			<path d="M334.4,35.5c1.9,0,1.9-3,0-3C332.5,32.5,332.5,35.5,334.4,35.5L334.4,35.5z"/>
		</g>
	</g>
	<g>
		<g>
			<path d="M341.4,45.2c-0.5-3.3-1.9-7.4-0.8-10.7c-0.3,0.3-0.7,0.7-1,1c0.6-0.2,2,0.1,2.2,0.8c0.5,1.2-1.3,1.4-2.1,1.5
				c-1.3,0.2-1.5,2.2-0.4,2.7c2.3,1.1,3.8,3,4.3,5.5c0.4,1.9,3.3,1.1,2.9-0.8c-0.7-3.2-2.8-5.9-5.7-7.3c-0.1,0.9-0.2,1.8-0.4,2.7
				c2.1-0.4,4.6-1.5,4.5-4c0-2-2.1-3.9-3.9-4.2c-6.6-1.3-3.1,10.3-2.7,13.5C338.7,47.9,341.6,47.1,341.4,45.2L341.4,45.2z"/>
		</g>
	</g>
	<g>
		<g>
			<path d="M356.2,45.8c0.5-3.7,1.3-7.3,2.3-10.8c-0.9,0.1-1.8,0.2-2.7,0.4c2.3,3.3,4.5,6.6,5.8,10.4c0.6,1.8,3.5,1,2.9-0.8
				c-1.4-4.1-3.7-7.6-6.1-11.1c-0.7-1-2.4-0.9-2.7,0.4c-1,3.6-1.8,7.2-2.3,10.8C353.1,46.9,355.9,47.7,356.2,45.8L356.2,45.8z"/>
		</g>
	</g>
	<g>
		<g>
			<path d="M356.2,43.4c1.7,0,3.4-0.1,5.1-0.2c1.9-0.1,1.9-3.1,0-3c-1.7,0.1-3.4,0.2-5.1,0.2C354.2,40.4,354.2,43.4,356.2,43.4
				L356.2,43.4z"/>
		</g>
	</g>
	<g>
		<g>
			<path d="M368.4,44.7c-0.4-1.7-0.6-3.4-0.6-5.1c0-1.4-0.4-3.3-0.1-4.7c-0.5,0.4-1,0.7-1.4,1.1c1.4,0,2.9,1.9,3.2,2.9
				c0.8,2.4-0.2,3.4-2.2,4.3c-1.7,0.8-0.2,3.4,1.5,2.6c3.2-1.5,4.7-3.8,3.7-7.4c-0.7-2.6-3.3-5.5-6.2-5.5c-0.6,0-1.3,0.5-1.4,1.1
				c-0.4,1.7-0.1,3.7,0,5.5c0,2,0.2,3.9,0.7,5.9C366,47.3,368.9,46.6,368.4,44.7L368.4,44.7z"/>
		</g>
	</g>
	<g>
		<g>
			<path d="M374.1,34.9c0.4,3.1,0.4,6.1,0.1,9.2c-0.2,1.9,2.8,1.9,3,0c0.3-3.1,0.3-6.1-0.1-9.2C376.9,33,373.9,33,374.1,34.9
				L374.1,34.9z"/>
		</g>
	</g>
	<g>
		<g>
			<path d="M382.3,44.8c0.2-3.4,0.5-6.8,1-10.2c-1,0-1.9,0-2.9,0c0.6,1.4,1.2,2.8,1.9,4.2c0.5,0.9,1,2.2,2.1,2.6
				c0.8,0.3,1.4,0,2-0.5c1.4-1.2,2.6-3.2,3.7-4.7c-0.9-0.4-1.7-0.7-2.6-1.1c0.4,3.3,0.4,6.6,0.1,9.9c-0.2,1.9,2.8,1.9,3,0
				c0.4-3.3,0.3-6.6-0.1-9.9c-0.1-1.1-1.6-2.2-2.6-1.1c-1.2,1.6-2.4,3.7-4,4.9c0.5-0.1,1-0.3,1.5-0.4c0,0-0.8-1.8-0.9-2
				c-0.5-0.9-0.9-1.8-1.3-2.8c-0.5-1.2-2.6-1.6-2.9,0c-0.5,3.6-0.9,7.3-1.1,11C379.2,46.8,382.2,46.8,382.3,44.8L382.3,44.8z"/>
		</g>
	</g>
</g>
<g>
	<g>
		<g>
			<path d="M245.7,134.3c-1,9.8-2,19.7-3,29.5c-0.2,1.9,2.8,1.9,3,0c1-9.8,2-19.7,3-29.5C248.9,132.4,245.9,132.4,245.7,134.3
				L245.7,134.3z"/>
		</g>
	</g>
	<g>
		<g>
			<path d="M264.4,135.2c-5.9,3.6-11.7,7.2-17.6,10.8c-1.1,0.7-0.9,2.3,0.4,2.7c4.2,1.4,24.3,8.1,21.1,14.9
				c-0.8,1.7,1.8,3.3,2.6,1.5c2-4.3-0.4-7.7-4-10.2c-5.7-4.1-12.3-7-19-9.1c0.1,0.9,0.2,1.8,0.4,2.7c5.9-3.6,11.7-7.2,17.6-10.8
				C267.5,136.8,266,134.2,264.4,135.2L264.4,135.2z"/>
		</g>
	</g>
	<g>
		<g>
			<path d="M276.9,167.1c0.1-5.6,0.7-11.1,1.9-16.6c0.5-2.2,2.5-13.7,5.3-13.3c1.3,0.1,4.4,5.3,5.1,6.2c1.3,1.8,2.5,3.7,3.7,5.7
				c2.8,4.8,4.9,9.8,6.5,15.1c0.6,1.8,3.5,1.1,2.9-0.8c-2-6.6-4.8-12.9-8.6-18.7c-1.7-2.7-3.7-5.3-5.8-7.7c-1-1.2-2.7-4-4.7-4.1
				c-3.9-0.1-5.5,10-6.2,12.5c-2,7.1-2.9,14.4-3.1,21.8C273.9,169,276.9,169,276.9,167.1L276.9,167.1z"/>
		</g>
	</g>
	<g>
		<g>
			<path d="M275.9,153.5c7.3,0,14.5,0.3,21.7,0.9c1.9,0.2,1.9-2.8,0-3c-7.2-0.6-14.5-0.9-21.7-0.9C274,150.6,274,153.6,275.9,153.5
				L275.9,153.5z"/>
		</g>
	</g>
	<g>
		<g>
			<path d="M298.3,137.4c1.7,2.7,3.6,5.2,5.8,7.5c1.2,1.2,3,3.7,5.1,3.4c2-0.3,4.3-3.8,5.4-5.2c1.9-2.4,3.6-4.9,5.1-7.5
				c0.9-1.7-1.6-3.2-2.6-1.5c-2.2,3.8-5.2,9.2-9.1,11.5c0.5,0,1,0,1.5,0c-3.6-1.6-6.6-6.5-8.7-9.7
				C299.9,134.2,297.3,135.7,298.3,137.4L298.3,137.4z"/>
		</g>
	</g>
	<g>
		<g>
			<path d="M307.7,147.4c0.7,3.4-0.7,6.7-0.8,10.1c-0.1,2.8,0.4,5.6,1.2,8.3c0.6,1.8,3.5,1.1,2.9-0.8c-1.1-3.8-1.3-7.3-0.7-11.1
				c0.4-2.5,0.8-4.7,0.3-7.3C310.1,144.7,307.3,145.5,307.7,147.4L307.7,147.4z"/>
		</g>
	</g>
	<g>
		<g>
			<path d="M328.2,135.9c0.3,9.9-0.2,19.7-1.5,29.6c-0.3,1.9,2.8,1.9,3,0c1.3-9.8,1.8-19.7,1.5-29.6
				C331.2,134,328.2,134,328.2,135.9L328.2,135.9z"/>
		</g>
	</g>
	<g>
		<g>
			<path d="M338.5,137.9c7.2,0.6,14.3,1,21.5,1c1.9,0,1.9-3,0-3c-7.2-0.1-14.3-0.4-21.5-1C336.6,134.8,336.6,137.8,338.5,137.9
				L338.5,137.9z"/>
		</g>
	</g>
	<g>
		<g>
			<path d="M348.2,138.4c0.4,8.7-0.1,17.4-0.8,26.1c-0.1,1.9,2.9,1.9,3,0c0.6-8.7,1.2-17.4,0.8-26.1
				C351.1,136.5,348.1,136.5,348.2,138.4L348.2,138.4z"/>
		</g>
	</g>
	<g>
		<g>
			<path d="M388.4,134.7c-16.9,1.3-16.3,30.2,0.3,30.3c9.1,0.1,14-5.2,15.1-13.9c1.3-9.4-5.5-13.8-13.6-16.4
				c-1.8-0.6-2.6,2.3-0.8,2.9c6.7,2.1,12.6,5.4,11.4,13.6c-0.9,6.1-4,10.4-10.6,10.9c-6.7,0.5-10.1-4.2-11.1-10.3
				c-1.1-6.4,2.2-13.4,9.3-14C390.3,137.5,390.3,134.5,388.4,134.7L388.4,134.7z"/>
		</g>
	</g>
	<g>
		<g>
			<path d="M407.7,137c0.8,4.3,1.3,8.6,1.4,13c0.1,3-0.5,6.4,0,9.4c0.1,0.5,0.6,0.9,1,1c4.8,1.7,11.5,1.2,16.6,1.6
				c1.9,0.2,1.9-2.8,0-3c-2.8-0.2-5.7-0.5-8.5-0.7c-0.9-0.1-4.4,0.1-5.1-0.4c-1.5-0.9-1-2.9-1-4.3c0.1-5.8-0.5-11.6-1.6-17.3
				C410.2,134.3,407.4,135.1,407.7,137L407.7,137z"/>
		</g>
	</g>
	<g>
		<g>
			<path d="M321.7,122.4c-19.8-0.6-39.7-1.2-59.5-1.7c-8.9-0.3-18.5-1.7-27.3-0.4c-5.9,0.9-10.2,4.4-12.4,9.9
				c-2.5,6.4-2.1,13.7-1.4,20.5c0.4,4.1,1,8.2,1.7,12.3c0.7,3.8,1.1,8.3,3.1,11.7c3.6,6.2,12,4.9,18,4.9c10.3,0.1,20.6,0.2,30.9,0.2
				c40.1,0.3,80.2,0.7,120.3,0.9c14.5,0.1,32.6-0.3,43-12.1c4.9-5.6,6-13.3,6.7-20.4c0.6-6.3,2-16-3.1-20.8
				c-5.6-5.4-16.4-5.7-23.7-6.2c-11-0.9-22-0.4-33-0.3c-22.8,0.3-45.7,0.9-68.5,1.8c-1.9,0.1-1.9,3.1,0,3
				c17.2-0.7,34.4-1.2,51.6-1.5c16.5-0.3,33.4-1.3,49.9,0c7.6,0.6,22.1,1,23.8,10.4c1.4,7.4,0.2,16.7-1.8,23.9
				c-4.8,17.3-26,19.3-40.9,19.4c-33.8,0.2-67.7-0.5-101.5-0.8c-16.9-0.1-33.9-0.3-50.8-0.4c-4.2,0-8.7,0.4-12.8-0.2
				c-6.1-1-6.9-6.3-7.9-11.4c-1.5-7.7-2.8-15.7-2.7-23.5c0.2-9.4,3.4-17.8,14.1-18.4c8.8-0.4,17.7,0.4,26.5,0.7
				c19.2,0.6,38.4,1.1,57.5,1.7C323.7,125.4,323.7,122.4,321.7,122.4L321.7,122.4z"/>
		</g>
	</g>
	<g>
		<g>
			<path d="M295.5,91.4c0.7-2.4,1.4-4.7,2.2-7.1c-0.9,0.1-1.8,0.2-2.7,0.4c1.4,2,2.9,4,3.6,6.4c0.6,1.8,3.5,1,2.9-0.8
				c-0.8-2.6-2.3-4.9-3.9-7.1c-0.7-1-2.3-0.9-2.7,0.4c-0.7,2.4-1.4,4.7-2.2,7.1C292.1,92.4,295,93.2,295.5,91.4L295.5,91.4z"/>
		</g>
	</g>
	<g>
		<g>
			<path d="M295.3,90.4c0.8,0.4,1.6,0.4,2.5,0c0.7-0.4,0.9-1.4,0.5-2.1c-0.4-0.7-1.3-0.9-2.1-0.5c0.2-0.1,0.4-0.1,0.6,0
				c-0.7-0.4-1.6-0.2-2.1,0.5C294.3,89,294.5,90.1,295.3,90.4L295.3,90.4z"/>
		</g>
	</g>
	<g>
		<g>
			<path d="M305.9,82.8c-1.9-0.5-6-0.8-5.5,2.3c0.2,1.1,1,2,1.8,2.7c0.4,0.3,1,1.1,1.5,1.2c0.1,0.1,0.1,0.1,0.2,0.2
				c0-0.2-0.1-0.4-0.1-0.5c-0.2-0.1-0.7,0.3-0.9,0.2c-1.4-1.3-3.5,0.8-2.1,2.1c1.7,1.7,6,0.8,6.1-1.9c0.1-1.3-1-2.2-2-2.9
				c-0.3-0.3-0.6-0.5-0.9-0.8c-0.4-0.4-0.3-0.6-0.8-0.2c-0.7,0.6,0.1,0.3,0.5,0.3c0.5,0,1,0.1,1.5,0.3
				C307,86.2,307.8,83.3,305.9,82.8L305.9,82.8z"/>
		</g>
	</g>
	<g>
		<g>
			<path d="M301.9,90.8c0.2,0.5,0.2,0.8,0.2,1.4c0,0.8,0.7,1.5,1.5,1.5c0.8,0,1.5-0.7,1.5-1.5c0-0.7-0.1-1.5-0.3-2.2
				c-0.2-0.8-1-1.3-1.8-1C302.2,89.1,301.7,90,301.9,90.8L301.9,90.8z"/>
		</g>
	</g>
	<g>
		<g>
			<path d="M309.7,91.1c0.5-1,0.6-2.1,1-3.2c0.4-1.1,1-2.2,1.5-3.3c-0.9,0-1.7,0-2.6,0c0.5,0.8,1,1.6,1.4,2.5
				c0.3,0.6,0.9,1.8,0.7,2.5c-0.5,1.9,2.4,2.7,2.9,0.8c0.7-2.4-1.1-5.4-2.4-7.3c-0.6-0.9-2.1-1.1-2.6,0c-0.5,1.1-1.1,2.1-1.5,3.2
				c-0.4,1.1-0.5,2.3-1,3.3C306.2,91.3,308.8,92.8,309.7,91.1L309.7,91.1z"/>
		</g>
	</g>
	<g>
		<g>
			<path d="M309.3,90.3c0.5,0.1,1.1,0.2,1.7,0.1c0.8-0.1,1.5-0.6,1.5-1.5c0-0.7-0.7-1.6-1.5-1.5c-0.4,0-0.5,0.1-0.9,0
				c-0.8-0.2-1.7,0.3-1.8,1C308.1,89.3,308.5,90.1,309.3,90.3L309.3,90.3z"/>
		</g>
	</g>
	<g>
		<g>
			<path d="M318.2,83.1c-2.6-0.8-3.5,2-3.7,4c-0.2,2.3,0.2,4.9,2.7,5.7c2.1,0.7,4.1-0.7,4.8-2.7c0.9-2.3-0.6-4.1-3-3.8
				c-1.9,0.2-1.9,3.2,0,3c0.1,0,1.1-0.1,0.4-0.2c-0.5-0.1-0.1,0-0.4,0.3c-0.5,0.4-0.7,0.8-1.3,0.2c-0.4-0.5-0.3-1.3-0.3-1.9
				c0-0.3,0-0.6,0.1-0.9c0-0.2,0.1-0.4,0.1-0.7c0.1-0.2,0-0.3-0.3-0.2C319.3,86.5,320.1,83.7,318.2,83.1L318.2,83.1z"/>
		</g>
	</g>
	<g>
		<g>
			<path d="M321.7,85c0.4,2,0.6,4,0.5,6c-0.1,1.9,2.9,1.9,3,0c0.1-2.3-0.1-4.5-0.6-6.8C324.2,82.3,321.3,83.1,321.7,85L321.7,85z"/>
		</g>
	</g>
	<g>
		<g>
			<path d="M325.8,84.6c0.3,2,0.5,4,0,6c-0.5,1.9,2.4,2.7,2.9,0.8c0.7-2.5,0.4-5.1,0-7.6C328.4,81.9,325.5,82.8,325.8,84.6
				L325.8,84.6z"/>
		</g>
	</g>
	<g>
		<g>
			<path d="M327.6,85.8c0.8,0.2,3.4,1.4,3.4,2.5c0,0.4-0.9,1.2-1.2,1.4c-0.5,0.4-1.1,0.8-1.6,0.3c-1.3-1.4-3.5,0.7-2.1,2.1
				c2.5,2.6,6.1,0.1,7.6-2.4c1.9-3.2-2.6-6.1-5.2-6.9C326.5,82.3,325.8,85.2,327.6,85.8L327.6,85.8z"/>
		</g>
	</g>
	<g>
		<g>
			<path d="M336.8,92.2c0.5-2.6,1.1-5.2,1.6-7.7c-0.9,0.1-1.8,0.2-2.7,0.4c0.7,1,1.5,2,2.1,3.1c0.4,0.8,1.3,2.4,1.1,3.4
				c-0.4,1.9,2.5,2.7,2.9,0.8c0.7-3-1.8-6.5-3.5-8.8c-0.7-0.9-2.5-1-2.7,0.4c-0.5,2.6-1.1,5.2-1.6,7.7
				C333.5,93.3,336.4,94.1,336.8,92.2L336.8,92.2z"/>
		</g>
	</g>
	<g>
		<g>
			<path d="M338.1,91.1c0.3,0,0.6-0.2,0.9-0.3c0.7-0.5,1-1.3,0.5-2.1c-0.4-0.7-1.4-1-2.1-0.5c-0.3,0.2,0.2,0-0.1,0
				c-0.8,0.1-1.2,1.1-1,1.8C336.4,90.9,337.3,91.2,338.1,91.1L338.1,91.1z"/>
		</g>
	</g>
	<g>
		<g>
			<path d="M345.7,91.7c-0.2-2.9-0.3-5.7-0.4-8.6c-0.1-1.9-3.1-1.9-3,0c0.1,2.9,0.3,5.7,0.4,8.6C342.9,93.7,345.9,93.7,345.7,91.7
				L345.7,91.7z"/>
		</g>
	</g>
	<g>
		<g>
			<path d="M346.1,89.4c0.5-0.9,1.1-1.7,1.8-2.5c0.7-0.8,1.4-1.5,1.8-2.5c0.3-0.8-0.3-1.6-1-1.8c-0.9-0.2-1.5,0.3-1.8,1
				c-0.3,0.7-1.1,1.3-1.6,1.9c-0.6,0.8-1.2,1.6-1.7,2.4C342.6,89.5,345.2,91.1,346.1,89.4L346.1,89.4z"/>
		</g>
	</g>
	<g>
		<g>
			<path d="M344.3,89.8c1.1,0.6,1.9,1.4,2.4,2.5c0.3,0.7,1.4,0.9,2.1,0.5c0.7-0.4,0.9-1.3,0.5-2.1c-0.7-1.5-2-2.8-3.5-3.6
				c-0.7-0.4-1.6-0.2-2.1,0.5C343.3,88.4,343.5,89.4,344.3,89.8L344.3,89.8z"/>
		</g>
	</g>
	<g>
		<g>
			<path d="M353.7,92c0.1-2.2,0.2-4.5,0.4-6.7c0.2-1.9-2.8-1.9-3,0c-0.2,2.2-0.3,4.5-0.4,6.7C350.6,93.9,353.6,93.9,353.7,92
				L353.7,92z"/>
		</g>
	</g>
	<g>
		<g>
			<path d="M353.6,81c0,0-0.1-0.1-0.1-0.1c-0.6-0.6-1.5-0.6-2.1,0c-0.6,0.6-0.6,1.5,0,2.1c0,0,0.1,0.1,0.1,0.1
				c0.6,0.6,1.5,0.6,2.1,0C354.2,82.5,354.2,81.6,353.6,81L353.6,81z"/>
		</g>
	</g>
	<g>
		<g>
			<path d="M357.4,92.4c0.2-2.5-0.5-5.1,0-7.6c-0.9,0.1-1.8,0.2-2.7,0.4c0.8,1.5,1.7,3,2.6,4.5c0.4,0.6,0.7,1.3,1.2,1.8
				c0.4,0.5,1,0.8,1.4,1.3c1.1,1.2,2.7-0.1,2.5-1.5c-0.3-2.5-0.3-5-0.1-7.5c0.2-1.9-2.8-1.9-3,0c-0.3,2.8-0.2,5.5,0.2,8.3
				c0.8-0.5,1.7-1,2.5-1.5c-0.4-0.5-0.9-0.8-1.3-1.2c-0.4-0.5-0.8-1.2-1.1-1.8c-0.8-1.3-1.6-2.6-2.3-4c-0.6-1.1-2.5-0.9-2.7,0.4
				c-0.6,2.8,0,5.6-0.2,8.4C354.2,94.3,357.2,94.3,357.4,92.4L357.4,92.4z"/>
		</g>
	</g>
	<g>
		<g>
			<path d="M363,84.8c0.2,1.3,0.2,2.6,0.1,4c-0.1,1.2-0.5,2.5-0.3,3.6c0.3,2.1,3.5,2,5.1,2c1.9,0.1,1.9-2.9,0-3
				c-0.8,0-2.1,0-2.9-0.3c0.2,0.4,0.5,0.9,0.7,1.3c-0.1-1.2,0.2-2.5,0.3-3.6c0.1-1.3,0.1-2.6-0.1-4C365.7,82.9,362.7,82.9,363,84.8
				L363,84.8z"/>
		</g>
	</g>
	<g>
		<g>
			<path d="M365.1,89.8c0.9,0,1.7-0.2,2.4-0.5c0.7-0.3,0.9-1.4,0.5-2.1c-0.4-0.8-1.3-0.9-2.1-0.5c-0.2,0.1-0.5,0.1-0.9,0.1
				c-0.8,0-1.5,0.7-1.5,1.5C363.6,89.2,364.3,89.8,365.1,89.8L365.1,89.8z"/>
		</g>
	</g>
	<g>
		<g>
			<path d="M366.7,84C366.7,84,366.7,84,366.7,84c-0.1,0.4-0.3,0.9-0.4,1.4c0,0,0,0,0.1-0.1c-0.2,0.1-0.4,0.3-0.7,0.4
				c-0.2,0.1,0.4,0,0.4,0c0.3,0,0.6,0,0.9-0.1c0.5,0,1.1-0.1,1.6-0.1c0.8-0.1,1.5-0.6,1.5-1.5c0-0.8-0.7-1.6-1.5-1.5
				c-1,0.1-1.9,0.1-2.9,0.2c-1.2,0.1-2.3,0.7-1.9,2.1C364.3,86.7,367.2,85.9,366.7,84L366.7,84z"/>
		</g>
	</g>
	<g>
		<g>
			<path d="M294.2,97.3c2.1-0.1,4.2,0.4,6.4,0.1c1.9-0.2,1.9-3.2,0-3c-2.1,0.2-4.2-0.2-6.4-0.1C292.2,94.4,292.2,97.4,294.2,97.3
				L294.2,97.3z"/>
		</g>
	</g>
	<g>
		<g>
			<path d="M295.7,97c0.3,1.1,0.3,2.3,0.1,3.4c-0.1,0.8,0.2,1.6,1,1.8c0.7,0.2,1.7-0.2,1.8-1c0.3-1.7,0.3-3.3-0.1-5
				C298.1,94.3,295.2,95.1,295.7,97L295.7,97z"/>
		</g>
	</g>
	<g>
		<g>
			<path d="M303,96.1c0.1,1.3,0.1,2.7-0.2,4c-0.4,1.9,2.5,2.7,2.9,0.8c0.3-1.6,0.5-3.2,0.3-4.8c-0.1-0.8-0.6-1.5-1.5-1.5
				C303.8,94.6,302.9,95.3,303,96.1L303,96.1z"/>
		</g>
	</g>
	<g>
		<g>
			<path d="M307.1,96.3c0.2,1-0.2,1.8-0.4,2.8c-0.2,0.9-0.2,1.8,0,2.7c0.4,1.9,3.3,1.1,2.9-0.8c-0.2-0.9,0.2-1.7,0.4-2.6
				c0.2-1,0.2-1.9,0-2.9c-0.1-0.8-1.1-1.2-1.8-1C307.3,94.7,306.9,95.5,307.1,96.3L307.1,96.3z"/>
		</g>
	</g>
	<g>
		<g>
			<path d="M312.3,95.4c-0.4,1.1-1.9,1.4-3,1.6c-1.5,0.2-2.2,2.5-0.4,2.9c0.6,0.1,1.2,0.3,1.7,0.5c0.2,0.1,0.4,0.2,0.7,0.3
				c0.5,0.3,0.3,0.4,0.5-0.1c-0.3,0.8-0.2,1.6,0.5,2.1c0.6,0.4,1.7,0.2,2.1-0.5c1.3-3.1-2.3-4.6-4.7-5.2c-0.1,1-0.3,2-0.4,2.9
				c2.6-0.3,4.8-1.2,5.8-3.8C315.9,94.4,313,93.6,312.3,95.4L312.3,95.4z"/>
		</g>
	</g>
	<g>
		<g>
			<path d="M315.7,96.7c0.7,1.8,0.5,3.6,0.4,5.4c-0.1,0.8,0.7,1.6,1.5,1.5c1.2-0.1,2.4-0.2,3.6-0.3c1.9-0.2,1.9-3.2,0-3
				c-1.2,0.1-2.4,0.2-3.6,0.3c0.5,0.5,1,1,1.5,1.5c0.2-2.1,0.3-4.2-0.5-6.2C317.9,94.1,315,94.9,315.7,96.7L315.7,96.7z"/>
		</g>
	</g>
	<g>
		<g>
			<path d="M325.1,103.3c1-1.9,1.1-4.1,2.3-5.8c-0.9,0-1.7,0-2.6,0c1.1,1.6,1.9,3.4,2.3,5.3c0.4,1.9,3.3,1.1,2.9-0.8
				c-0.4-2.2-1.3-4.2-2.6-6c-0.7-1-1.9-0.9-2.6,0c-1.3,1.7-1.4,3.9-2.3,5.8C321.6,103.5,324.2,105,325.1,103.3L325.1,103.3z"/>
		</g>
	</g>
	<g>
		<g>
			<path d="M324.5,102.9c0.6,0.4,1.4,0.5,2.1,0.3c0.8-0.2,1.3-1,1-1.8c-0.2-0.8-1.1-1.3-1.8-1c-0.2,0.1-0.2,0.1,0,0
				c0.4,0.1,0.5,0.1,0.2,0c-0.7-0.4-1.7-0.1-2.1,0.5C323.6,101.6,323.8,102.5,324.5,102.9L324.5,102.9z"/>
		</g>
	</g>
	<g>
		<g>
			<path d="M329.3,97.5c0.3,1.2,1.3,2.7,2.7,2.4c1.3-0.2,2.4-1.6,3.1-2.6c-0.9-0.3-1.9-0.5-2.8-0.8c-0.2,1.8-1.6,3.6-2.4,5.1
				c-0.9,1.7,1.7,3.2,2.6,1.5c1.1-2.1,2.5-4.2,2.8-6.6c0.2-1.6-2.1-1.9-2.8-0.8c-0.2,0.4-0.5,0.7-0.8,1c-0.1,0.1-0.3,0.2-0.5,0.3
				c0.8,0.3,1.1,0.2,0.9-0.3C331.7,94.8,328.8,95.6,329.3,97.5L329.3,97.5z"/>
		</g>
	</g>
	<g>
		<g>
			<path d="M337,103.8c1.4-2.1,2.4-4.4,2.9-6.9c-0.9,0.1-1.8,0.2-2.7,0.4c1.2,1.7,2.6,3.6,2.9,5.7c0.2,1.9,3.2,1.9,3,0
				c-0.4-2.8-1.7-5-3.3-7.2c-0.7-1-2.5-1-2.7,0.4c-0.4,2.2-1.3,4.3-2.5,6.2C333.3,103.9,335.9,105.4,337,103.8L337,103.8z"/>
		</g>
	</g>
	<g>
		<g>
			<path d="M337.6,102.9c0.5,0.1,0.9,0.1,1.4,0.1c0.8-0.1,1.5-0.6,1.5-1.5c0-0.8-0.7-1.6-1.5-1.5c-0.1,0-0.3,0-0.4,0
				c0,0-0.4,0-0.2,0c-0.8-0.1-1.7,0.2-1.8,1C336.4,101.8,336.8,102.8,337.6,102.9L337.6,102.9z"/>
		</g>
	</g>
	<g>
		<g>
			<path d="M346.3,102.4c0-0.7,0-1.4,0.1-2.2c0-0.6,0.4-1.9,0.2-2.4c0.1-0.4-0.1-0.5-0.6-0.2c-0.7-0.1-0.9,0-0.5,0.2
				c0.1,0.2,0.6,0.2,0.5,0.6c0,0.4-1.3,0.7-1.7,0.8c-1.1,0.4-1.4,1.6-0.7,2.5c0.5,0.7,1.3,0.9,2,1.4c0.8,0.5,1.5,1.1,2.1,1.8
				c1.3,1.4,3.5-0.7,2.1-2.1c-0.6-0.6-1.2-1.2-1.9-1.7c-0.6-0.5-1.7-0.8-2.2-1.5c-0.2,0.8-0.4,1.7-0.7,2.5c1.4-0.5,3.2-1,3.9-2.5
				c0.7-1.6-0.5-3.3-1.8-4.2c-1.3-0.8-2.9-0.6-3.4,1c-0.5,1.9-0.4,4.2-0.4,6.1C343.2,104.4,346.2,104.4,346.3,102.4L346.3,102.4z"/>
		</g>
	</g>
	<g>
		<g>
			<path d="M352.5,104.1c0.2-2,0.4-4.6,1.7-6.2c-0.3,0.2-0.6,0.5-0.9,0.7c0.1,0,0.1-0.1,0.2-0.1c-0.4-0.1-0.8-0.1-1.2-0.2
				c-0.4-0.4-0.4-0.4,0,0.2c0.2,0.3,0.3,0.6,0.5,0.9c0.3,0.5,0.6,1.1,0.9,1.6c0.6,1.2,1.2,2.3,1.8,3.5c0.9,1.7,3.5,0.2,2.6-1.5
				c-0.9-1.7-1.8-3.4-2.7-5.1c-0.6-1.1-1.2-2.8-2.8-2.3c-1.3,0.4-1.8,2.3-2.2,3.4c-0.5,1.6-0.7,3.4-0.9,5
				C349.2,106,352.2,106,352.5,104.1L352.5,104.1z"/>
		</g>
	</g>
	<g>
		<g>
			<path d="M352.5,103.9c0.9-0.1,1.8-0.1,2.7-0.1c0.8,0,1.5-0.7,1.5-1.5c0-0.8-0.7-1.5-1.5-1.5c-0.9,0-1.8,0-2.7,0.1
				c-0.8,0.1-1.5,0.6-1.5,1.5C351,103.2,351.7,104,352.5,103.9L352.5,103.9z"/>
		</g>
	</g>
	<g>
		<g>
			<path d="M358.3,97c0.3,1.8,0.3,3.6,0.1,5.4c-0.3,1.9,2.6,2.7,2.9,0.8c0.3-2.4,0.3-4.6-0.1-7C360.9,94.3,358,95.1,358.3,97
				L358.3,97z"/>
		</g>
	</g>
	<g>
		<g>
			<path d="M361.7,97.2c-0.2,1.6-2.8,2.4-1.9,4.2c0.4,0.8,1.3,1.3,2,1.8c0.8,0.6,1.6,1.1,2.5,1.6c1.7,1,3.2-1.6,1.5-2.6
				c-0.6-0.4-1.2-0.7-1.8-1.1c-0.5-0.3-1.3-0.7-1.6-1.2c0,0.5,0,1,0,1.5c0.6-1.2,2-2,2.2-3.4c0.1-0.8-0.2-1.6-1-1.8
				C362.9,96,361.8,96.4,361.7,97.2L361.7,97.2z"/>
		</g>
	</g>
	<g>
		<g>
			<path d="M296.1,111.1c-0.2-0.9-0.3-1.9-0.4-2.9c-0.1-0.8-0.3-1.8-0.1-2.6c-0.3,0.3-0.7,0.7-1,1c0.4-0.1,1-0.1,1.4-0.1
				c0.3,0,0.5,0,0.8,0c0.5,0.1,0.4-0.1-0.3-0.5c0,0,0.3,1,0.2,1.2c-0.2,0.2-0.8,0.1-1,0.2c0,1,0,2,0,3c0.2,0,1.4,0,1.4,0
				c0-0.2-0.1-0.2-0.5,0.3c-0.6,0.1-0.7,0.2-0.2,0.3c-1.3-1.4-3.5,0.7-2.1,2.1c1.7,1.7,4.9,0.3,5.7-1.7c1-2.7-1.9-4.2-4.2-4
				c-1.9,0.2-2,3,0,3c1.8,0,3.6-0.7,4-2.7c0.3-1.4-0.2-3.7-1.8-4.1c-1-0.2-2.1-0.1-3.1,0c-0.9,0.1-1.6,0.3-1.9,1.2
				c-0.3,1-0.1,2.4-0.1,3.4c0.1,1.2,0.3,2.4,0.5,3.7C293.6,113.8,296.5,113,296.1,111.1L296.1,111.1z"/>
		</g>
	</g>
	<g>
		<g>
			<path d="M301.2,108.6c-0.1,1.2-0.5,2.9,0.1,4c0.7,1.1,2.2,1.4,3.3,1.4c1.3,0,2.9-0.2,3.3-1.6c0.4-1.3,0.3-2.7,0.1-4
				c-0.1-0.8-1.1-1.2-1.8-1c-0.8,0.2-1.2,1-1,1.8c0.1,0.4,0.1,0.9,0.1,1.3c0,0.2,0,0.3,0,0.5c0,0.1-0.2,0.7-0.1,0.5
				c0.2-0.2,0.4-0.4,0.5-0.5c-0.3,0.2-0.9,0.1-1.3,0.1c-0.2,0-0.3-0.1-0.5-0.1c-0.2-0.1-0.3-0.1-0.1,0c0.1,0.1,0.1,0.1,0-0.1
				c0.1,0.2,0.3,0.4,0.4,0.7c-0.1-0.4,0-0.9,0-1.3c0-0.5,0.1-1,0.1-1.5c0.1-0.8-0.7-1.5-1.5-1.5
				C301.8,107.1,301.3,107.8,301.2,108.6L301.2,108.6z"/>
		</g>
	</g>
	<g>
		<g>
			<path d="M302.7,106.8c1.9,0,1.9-3,0-3C300.8,103.8,300.8,106.8,302.7,106.8L302.7,106.8z"/>
		</g>
	</g>
	<g>
		<g>
			<path d="M306,107.2c1.9,0,1.9-3,0-3C304.1,104.2,304.1,107.2,306,107.2L306,107.2z"/>
		</g>
	</g>
	<g>
		<g>
			<path d="M308.7,106.9c0.2,1.2,0.2,2.4,0.1,3.6c-0.1,0.9-0.3,1.9,0.3,2.7c1.1,1.5,4.2,0.8,5.8,0.4c1.9-0.5,1.1-3.4-0.8-2.9
				c-0.6,0.1-1.1,0.2-1.7,0.3c-0.3,0-1.1,0.2-1.4,0c0.2,0.3,0.5,0.6,0.7,0.9c-0.3-0.6,0.2-2,0.2-2.8c0-1-0.1-2-0.3-3
				C311.2,104.2,308.3,105,308.7,106.9L308.7,106.9z"/>
		</g>
	</g>
	<g>
		<g>
			<path d="M314.8,108.5c2.2,0.1,4.4,0.1,6.5,0.3c1.9,0.2,1.9-2.8,0-3c-2.2-0.2-4.4-0.2-6.5-0.3
				C312.9,105.4,312.9,108.4,314.8,108.5L314.8,108.5z"/>
		</g>
	</g>
	<g>
		<g>
			<path d="M317,107.8c0,1.8,0,3.7,0,5.5c0,1.9,3,1.9,3,0c0-1.8,0-3.7,0-5.5C320,105.8,317,105.8,317,107.8L317,107.8z"/>
		</g>
	</g>
	<g>
		<g>
			<path d="M323.5,107.4c-0.1,1-0.1,2.1-0.2,3.1c-0.1,0.9-0.3,2,0.1,2.9c0.8,2,3.3,1.4,4.9,1.2c1.9-0.2,1.9-3.2,0-3
				c-0.6,0.1-1.2,0.1-1.9,0.2c-0.4,0-0.8-0.1-0.4,0.3c0.4,0.5,0.2-0.3,0.3-0.7c0.1-1.3,0.2-2.7,0.3-4
				C326.7,105.5,323.7,105.5,323.5,107.4L323.5,107.4z"/>
		</g>
	</g>
	<g>
		<g>
			<path d="M325.8,111.7c0.6-0.1,1.1-0.1,1.7-0.2c0.8-0.1,1.5-0.6,1.5-1.5c0-0.7-0.7-1.6-1.5-1.5c-0.6,0.1-1.1,0.1-1.7,0.2
				c-0.8,0.1-1.5,0.6-1.5,1.5C324.4,110.9,325,111.8,325.8,111.7L325.8,111.7z"/>
		</g>
	</g>
	<g>
		<g>
			<path d="M325.7,108.3c1.2-0.1,2.4-0.2,3.5-0.2c1.9,0,1.9-3,0-3c-1.2,0-2.4,0.1-3.5,0.2c-0.8,0.1-1.5,0.6-1.5,1.5
				C324.2,107.5,324.9,108.3,325.7,108.3L325.7,108.3z"/>
		</g>
	</g>
	<g>
		<g>
			<path d="M333,113.9c0.2-2.1,0.4-4.3,0.7-6.4c-0.9,0.4-1.7,0.7-2.6,1.1c1.4,1.8,2.3,4.1,3.8,5.8c0.9,1.1,2.4,0.1,2.6-1.1
				c0.2-2.1,0.2-4.2,0-6.3c-0.2-1.9-3.2-1.9-3,0c0.2,2.1,0.2,4.2,0,6.3c0.9-0.4,1.7-0.7,2.6-1.1c-1.5-1.7-2.4-4-3.8-5.8
				c-0.9-1.2-2.4,0-2.6,1.1c-0.3,2.1-0.5,4.2-0.7,6.4C329.8,115.9,332.8,115.8,333,113.9L333,113.9z"/>
		</g>
	</g>
	<g>
		<g>
			<path d="M338.4,107.8c0.4,2.3-0.9,4.6,0,6.9c0.8,2,4,1,5.5,0.6c1.9-0.5,1.1-3.4-0.8-2.9c-0.8,0.2-2.1,0.6-2.9,0.4
				c0.3,0.2,0.6,0.5,0.9,0.7c-0.4-0.9,0-2.4,0.2-3.3c0.2-1.1,0.2-2.1,0-3.2C340.9,105.1,338,105.9,338.4,107.8L338.4,107.8z"/>
		</g>
	</g>
	<g>
		<g>
			<path d="M340.8,111.7c0.7,0,1.4,0,2.2-0.1c0.8-0.1,1.5-0.6,1.5-1.5c0-0.8-0.7-1.6-1.5-1.5c-0.7,0.1-1.4,0.1-2.2,0.1
				c-0.8,0-1.5,0.7-1.5,1.5C339.3,111.1,339.9,111.7,340.8,111.7L340.8,111.7z"/>
		</g>
	</g>
	<g>
		<g>
			<path d="M340.6,108.3c1.3,0,2.6-0.1,3.9-0.1c1.9-0.1,1.9-3.1,0-3c-1.3,0-2.6,0.1-3.9,0.1C338.7,105.4,338.7,108.4,340.6,108.3
				L340.6,108.3z"/>
		</g>
	</g>
	<g>
		<g>
			<path d="M352.8,106.4c-2.1,0.5-3.6,2.2-4.6,4c-1,1.9-1.1,4.7,1.4,5.3c1.8,0.4,4.7,0.7,5.8-1.1c0.5-0.8,0.7-2.1,0.3-2.9
				c-0.5-1.1-1.6-1.2-2.7-1.1c-1.9,0.3-1.1,3.2,0.8,2.9c0.1,0,0.2,0,0.3,0c-0.4-0.1-0.7-0.3-1.1-0.4c0.1,0.1,0.2,0.1,0.2,0.2
				c-0.1-0.4-0.3-0.7-0.4-1.1c0.1,1-0.2,0.7-1.1,0.7c-0.4,0-0.8-0.1-1.2-0.1c-0.4-0.1-0.4-0.1-0.2,0c0.2,0.1,0.3,0,0.2-0.4
				c0.7-1.3,1.5-2.7,3-3C355.4,108.9,354.6,106,352.8,106.4L352.8,106.4z"/>
		</g>
	</g>
	<g>
		<g>
			<path d="M356.2,110.8c0.2,1.1,0.3,2.2,0.4,3.3c0.1,1.9,3.1,1.9,3,0c-0.1-1.4-0.2-2.7-0.5-4.1c-0.1-0.8-1.1-1.2-1.8-1
				C356.4,109.2,356.1,110,356.2,110.8L356.2,110.8z"/>
		</g>
	</g>
	<g>
		<g>
			<path d="M357.2,108.7c1.9,0,1.9-3,0-3C355.2,105.7,355.2,108.7,357.2,108.7L357.2,108.7z"/>
		</g>
	</g>
	<g>
		<g>
			<path d="M363.4,113.7c-0.2-1-0.8-3.6,0.1-4.3c0.2-0.2,0.7,0,0.8-0.1c0.4-0.5,0.4-0.7,0.1-0.5c-0.2,0.1-0.3,0.1-0.5,0.2
				c-0.4,0.1-0.8,0.3-1.2,0.4c-1.2,0.4-1.5,2-0.4,2.7c1,0.7,2.2,1.3,2.7,2.4c0.9,1.7,3.5,0.2,2.6-1.5c-0.8-1.6-2.4-2.5-3.8-3.5
				c-0.1,0.9-0.2,1.8-0.4,2.7c1.5-0.5,3.6-0.9,3.7-2.9c0.1-1.7-1.6-3-3.2-3.1c-4.5-0.2-4.4,5.3-3.6,8.3
				C361,116.4,363.9,115.6,363.4,113.7L363.4,113.7z"/>
		</g>
	</g>
	<g>
		<g>
			<path d="M315.9,82.4c0.7,0,1.3-0.1,2-0.1c0.8,0,1.5-0.7,1.5-1.5c0-0.8-0.7-1.5-1.5-1.5c-0.7,0-1.3,0.1-2,0.1
				c-0.8,0-1.5,0.7-1.5,1.5C314.5,81.7,315.1,82.4,315.9,82.4L315.9,82.4z"/>
		</g>
	</g>
</g>
<g>
	<g>
		<path d="M307.1,211.2c1.4,1.6,2.8,3.2,4.2,4.8c1.3,1.4,3.4-0.7,2.1-2.1c-1.5-1.6-2.9-3.1-4.2-4.8c-0.5-0.6-1.6-0.5-2.1,0
			C306.5,209.7,306.6,210.6,307.1,211.2L307.1,211.2z"/>
	</g>
</g>
<g>
	<g>
		<path d="M314.7,209.8c-1.2,1.5-3.3,3.4-3.7,5.3c-0.2,1.1,0.4,2.2,0.3,3.3c-0.1,1.1-0.5,2-0.5,3.1c0,1.9,3,1.9,3,0
			c0-1.5,0.6-2.9,0.5-4.5c-0.1-1.3-0.4-1.4,0.5-2.6c0.7-0.9,1.4-1.8,2.1-2.6C318,210.5,315.9,208.3,314.7,209.8L314.7,209.8z"/>
	</g>
</g>
<g>
	<g>
		<path d="M319.5,221.1c0.3-3.1,0.6-6.3,2.7-8.6c-0.8-0.1-1.6-0.2-2.4-0.3c1.7,3.2,3.3,6.4,4.8,9.7c0.8,1.7,3.4,0.2,2.6-1.5
			c-1.6-3.2-3.2-6.5-4.8-9.7c-0.4-0.8-1.7-1-2.4-0.3c-2.7,3-3.3,6.8-3.6,10.8C316.3,223,319.3,223,319.5,221.1L319.5,221.1z"/>
	</g>
</g>
<g>
	<g>
		<path d="M319.5,219.3c0.9,0.1,1.8,0.2,2.8,0.2c0.8-0.1,1.5-0.7,1.5-1.5c0-0.8-0.7-1.6-1.5-1.5c-0.6,0-1.4,0-2,0
			c-0.8-0.1-1.7,0.2-1.8,1C318.3,218.2,318.7,219.2,319.5,219.3L319.5,219.3z"/>
	</g>
</g>
<g>
	<g>
		<path d="M336.2,220.8c0.1-1.9,0.2-3.9,0.3-5.8c0-0.4-0.1-2.4,0.1-2.5c0.2-0.3,1.6,0.2,2.1,0.5c1.9,1.1,2.3,3.6,1.1,5.4
			c-1.1,1.6-2.9,2.1-4.8,2.1c-1.9,0-1.9,3,0,3c2.9,0,5.8-1,7.4-3.5c1.6-2.6,1.5-6.1-0.7-8.4c-1.5-1.6-5.2-3.3-7.2-1.5
			c-1.1,1-0.8,2.9-0.9,4.2c-0.1,2.2-0.2,4.4-0.3,6.6C333.2,222.7,336.2,222.7,336.2,220.8L336.2,220.8z"/>
	</g>
</g>
<g>
	<g>
		<path d="M346.4,222.9c0.6-1.7,1.2-3.4,1.8-5.1c0.3-0.7,0.5-1.5,0.8-2.2c0.1-0.3,0.7-2.3,0.8-2.3c-0.5,0-1,0-1.5,0
			c1.1,0.8,2,3,2.6,4.1c0.7,1.5,1.2,3,1.6,4.6c0.5,1.9,3.4,1.1,2.9-0.8c-0.9-3.5-2.6-8.3-5.6-10.5c-0.5-0.3-1.1-0.2-1.5,0
			c-1.4,0.6-1.8,3.2-2.3,4.5c-0.9,2.3-1.7,4.6-2.5,6.9C342.8,224,345.7,224.8,346.4,222.9L346.4,222.9z"/>
	</g>
</g>
<g>
	<g>
		<path d="M347.9,220c1.2,0,2.4,0,3.6,0c1.9,0,1.9-3,0-3c-1.2,0-2.4,0-3.6,0C346,217,346,220,347.9,220L347.9,220z"/>
	</g>
</g>
<g>
	<g>
		<g>
			<path d="M314.5,232.1c-0.1-0.8-0.2-1.7-0.3-2.5c0-0.5-0.3-1.8,0-2.3c-0.4,0.2-0.9,0.5-1.3,0.7c1.4-0.1,2.1,0.9,2.4,2.2
				c0.1,0.7,0,0.9-0.6,1.2c-0.2,0.1-0.4,0.2-0.7,0.2c-0.1,0-0.6,0.1-0.4,0.1c-1.7-0.9-3.2,1.7-1.5,2.6c1.7,0.9,4.1,0.1,5.3-1.3
				c1.5-1.7,0.7-4.5-0.4-6.2c-1-1.4-4.1-2.9-5.5-1.1c-0.7,0.9-0.5,2.2-0.5,3.3c0,1.3,0.2,2.6,0.4,3.8
				C311.9,234.8,314.8,234,314.5,232.1L314.5,232.1z"/>
		</g>
	</g>
	<g>
		<g>
			<path d="M318.6,227.8c0.7,2.1,1.3,4.3,1.7,6.5c0.2,1.2,2.2,1.5,2.7,0.4c1.2-2.4,2-5,2.5-7.6c0.3-1.9-2.5-2.7-2.9-0.8
				c-0.4,2.4-1.1,4.7-2.2,6.9c0.9,0.1,1.8,0.2,2.7,0.4c-0.4-2.2-1-4.4-1.7-6.5C320.8,225.2,317.9,225.9,318.6,227.8L318.6,227.8z"/>
		</g>
	</g>
	<g>
		<g>
			<path d="M328.4,233.4c0-1.9,0.1-3.7,0.3-5.5c-0.9,0.3-1.9,0.5-2.8,0.8c0.9,1.3,1.7,3.3,3.6,3.1c1.7-0.1,3.2-1.6,4.1-2.9
				c-0.9-0.3-1.9-0.5-2.8-0.8c0,2,0,3.9,0.1,5.9c0,1.9,3,1.9,3,0c0-2,0-3.9-0.1-5.9c0-1.6-2-1.9-2.8-0.8c-0.2,0.3-0.4,0.6-0.7,0.8
				c-0.2,0.2-0.4,0.3-0.6,0.4c-0.4,0.1-0.4,0.2-0.2,0.3c0.2,0.2,0.2,0.2,0,0c-0.1-0.2-0.2-0.3-0.3-0.5c-0.3-0.4-0.5-0.8-0.8-1.1
				c-0.9-1.3-2.6-0.7-2.8,0.8c-0.2,1.8-0.3,3.7-0.3,5.5C325.5,235.3,328.5,235.3,328.4,233.4L328.4,233.4z"/>
		</g>
	</g>
	<g>
		<g>
			<path d="M337.6,228.3c0.3,1.6,0.3,3.3,0.1,4.9c-0.1,0.9,0.8,1.4,1.5,1.5c1.1,0.1,2.3,0.2,3.4,0.4c1.9,0.2,1.9-2.8,0-3
				c-1.1-0.1-2.3-0.2-3.4-0.4c0.5,0.5,1,1,1.5,1.5c0.2-1.9,0.1-3.8-0.2-5.7C340.1,225.6,337.3,226.5,337.6,228.3L337.6,228.3z"/>
		</g>
	</g>
	<g>
		<g>
			<path d="M340.1,231.9c0.7,0,1.4,0.1,2.1,0.1c0.8,0,1.5-0.7,1.5-1.5c0-0.8-0.7-1.5-1.5-1.5c-0.7,0-1.4-0.1-2.1-0.1
				c-0.8,0-1.5,0.7-1.5,1.5C338.6,231.3,339.3,231.9,340.1,231.9L340.1,231.9z"/>
		</g>
	</g>
	<g>
		<g>
			<path d="M338.9,228.9c1.2,0,2.4,0,3.7,0.1c0.8,0.1,1.5-0.7,1.5-1.5c0-0.9-0.7-1.4-1.5-1.5c-1.2-0.1-2.4-0.1-3.7-0.1
				C337,226,337,229,338.9,228.9L338.9,228.9z"/>
		</g>
	</g>
	<g>
		<g>
			<path d="M346.6,229c2,0.2,4,0.2,6,0c1.9-0.2,1.9-3.2,0-3c-2,0.2-4,0.3-6,0C344.6,225.8,344.7,228.8,346.6,229L346.6,229z"/>
		</g>
	</g>
	<g>
		<g>
			<path d="M348.1,228.1c0.1,2,0.3,4.1,0.5,6.1c0.2,1.9,3.2,1.9,3,0c-0.2-2-0.4-4.1-0.5-6.1C351,226.1,348,226.1,348.1,228.1
				L348.1,228.1z"/>
		</g>
	</g>
</g>
<g>
	<g>
		<path d="M328,256c0,7.2,0,14.3,0,21.5c0,1.9,3,1.9,3,0c0-7.2,0-14.3,0-21.5C331,254.1,328,254.1,328,256L328,256z"/>
	</g>
</g>
<g>
	<g>
		<path d="M329.4,276.2c-28.9,2.9-57.3,8.6-85.7,14.5c-1.9,0.4-1.1,3.3,0.8,2.9c28.1-5.8,56.3-11.5,84.9-14.3
			C331.3,279,331.4,276,329.4,276.2L329.4,276.2z"/>
	</g>
</g>
<g>
	<g>
		<path d="M330,277.7c32,0.2,63.9-0.1,95.9-1c1.9-0.1,1.9-3.1,0-3c-32,0.9-63.9,1.2-95.9,1C328.1,274.7,328.1,277.7,330,277.7
			L330,277.7z"/>
	</g>
</g>
<g>
	<g>
		<path d="M328,274.8c-27.5-0.1-55-1.4-82.4-4c-1.9-0.2-1.9,2.8,0,3c27.4,2.6,54.9,3.9,82.4,4C330,277.8,330,274.8,328,274.8
			L328,274.8z"/>
	</g>
</g>
<g>
	<g>
		<path d="M328.2,279.2c30.1,6.5,60.4,14.8,91.2,17c1.9,0.1,1.9-2.9,0-3c-30.5-2.2-60.6-10.5-90.5-16.9
			C327.2,275.9,326.4,278.8,328.2,279.2L328.2,279.2z"/>
	</g>
</g>
</svg>
