<?xml version="1.0" encoding="utf-8"?>
<!-- Generator: Adobe Illustrator 22.0.0, SVG Export Plug-In . SVG Version: 6.00 Build 0)  -->
<svg version="1.1" id="Layer_1" xmlns="http://www.w3.org/2000/svg" xmlns:xlink="http://www.w3.org/1999/xlink" x="0px" y="0px"
	 viewBox="0 0 512 512" style="enable-background:new 0 0 512 512;" xml:space="preserve">
<style type="text/css">
	.st0{fill:#F16D8E;}
	.st1{fill:#FFFFFF;}
	.st2{fill:#D6D6D6;}
	.st3{fill:#C2C1C0;}
</style>
<circle class="st0" cx="256" cy="256" r="256"/>
<g>
	<path class="st1" d="M461.6,166.2c0,0-85-9.2-132.4,20.5c-68.2,43.4-141.5,107.1-146,108.4c-15.7,6.3-15.9-7.7-17-10.7
		c-6-32.8-10.4-47.3-10.4-47.3c-55.5-8.1-59.5-7-104.3,1.6c0,0-50.2,181.5,84.9,157c43.9-11.7,60.1-32.1,70-41.2
		c163.8-154.3,170.2-160.6,200.8-167.9c51.1-11.3,62.5-12.9,62.5-12.9L461.6,166.2z"/>
	<path class="st2" d="M51.4,238.7c0,0,49.2,21.5,104.3-1.6C100.3,229,96.3,230.1,51.4,238.7z"/>
	
		<ellipse transform="matrix(0.9996 -2.764149e-02 2.764149e-02 0.9996 -6.5856 2.9565)" class="st3" cx="103.6" cy="239.7" rx="32.5" ry="4"/>
</g>
</svg>
