<?xml version="1.0" encoding="utf-8"?>
<!-- Generator: Adobe Illustrator 22.0.0, SVG Export Plug-In . SVG Version: 6.00 Build 0)  -->
<svg version="1.1" id="Layer_1" xmlns="http://www.w3.org/2000/svg" xmlns:xlink="http://www.w3.org/1999/xlink" x="0px" y="0px"
	 viewBox="0 0 666 369.5" style="enable-background:new 0 0 666 369.5;" xml:space="preserve">
<style type="text/css">
	.st0{fill:#AE7BFF;}
	.st1{fill:#FF4141;}
	.st2{fill:#48A4FF;}
</style>
<g>
	<g>
		<path d="M42.8,58.4C26.4,65.2,11.5,77.1,5.5,94.3c-5.2,14.8-2,33.2,9.6,44.3c13.1,12.5,36.9,14.3,52.9,7.2
			c19.5-8.6,23.8-28.3,18.1-47.4c-6.1-20.5-21.3-38.5-43.8-40c-2.8-0.2-2.8,4.2,0,4.4c23.2,1.5,37.7,23,41.4,44.3
			c5,28.5-21.6,41.9-46.4,37.3C18,140.7,6.1,125,7.6,105.4C9.1,85.1,26.2,70,43.9,62.7C46.5,61.6,45.4,57.4,42.8,58.4L42.8,58.4z"/>
	</g>
	<g>
		<path d="M32.7,63.3c-2.9-5.7-0.3-12.2,5.8-14.3c2.7-0.9,1.5-5.1-1.2-4.2c-8.8,3-12.6,12.4-8.4,20.7C30.2,68,34,65.8,32.7,63.3
			L32.7,63.3z"/>
	</g>
	<g>
		<path d="M46.2,61.1C45,55.9,48.8,50.8,53.9,50c2.8-0.5,1.6-4.7-1.2-4.2C45.2,47,40.3,54.9,42,62.3C42.6,65,46.8,63.8,46.2,61.1
			L46.2,61.1z"/>
	</g>
	<g>
		<path d="M59.7,65.4c2.4-5.4,8.1-8.9,14-8c2.8,0.4,3.9-3.8,1.2-4.2c-7.8-1.1-15.7,2.7-19,10.1C54.8,65.7,58.5,67.9,59.7,65.4
			L59.7,65.4z"/>
	</g>
	<g>
		<path d="M51.7,102.6c2.8,0,2.8-4.4,0-4.4C48.9,98.2,48.8,102.6,51.7,102.6L51.7,102.6z"/>
	</g>
	<g>
		<path d="M68.8,101.5c2.8,0,2.8-4.4,0-4.4C66,97.1,66,101.5,68.8,101.5L68.8,101.5z"/>
	</g>
	<g>
		<path d="M56.9,157.7c3.2,19.7,3.9,39.6,2.2,59.4c-0.2,2.8,4.1,2.8,4.4,0c1.7-20.3,0.9-40.5-2.4-60.6
			C60.7,153.8,56.5,155,56.9,157.7L56.9,157.7z"/>
	</g>
	<g>
		<path d="M50,225.8c-9.8-19-4.6-41.5-9.2-61.8c-0.6-2.7-4.9-1.6-4.2,1.2c4.8,20.8-0.5,43.3,9.7,62.9
			C47.5,230.6,51.3,228.3,50,225.8L50,225.8z"/>
	</g>
	<g>
		<path d="M54.7,195.7c-1.5-6.2-2.9-12.3-4-18.6c-0.9-4.9-0.3-11.9-2.9-16.3c-3.2-5.5-9.5-2-11.7,2.3c-1.3,2.5,2.5,4.7,3.8,2.2
			c4.2-8.3,5,3.2,5.3,4.9c0.4,2.7,0.8,5.4,1.3,8c1.1,6.2,2.5,12.4,4,18.6C51.1,199.6,55.4,198.4,54.7,195.7L54.7,195.7z"/>
	</g>
	<g>
		<path d="M50.6,260.7c-3.3,0.3-6.4,1.1-9.5,2.5c-2.6,1.1-0.3,4.9,2.2,3.8c2.3-1,4.8-1.6,7.3-1.9C53.3,264.9,53.4,260.5,50.6,260.7
			L50.6,260.7z"/>
	</g>
	<g>
		<path d="M55,266.2c-1.1,3-2.5,5.7-4.2,8.4c-1.5,2.4,2.3,4.6,3.8,2.2c1.9-3,3.4-6.1,4.6-9.4C60.2,264.8,56,263.6,55,266.2L55,266.2
			z"/>
	</g>
	<g>
		<path d="M41.2,270.8c2.8,0,2.8-4.4,0-4.4C38.3,266.4,38.3,270.8,41.2,270.8L41.2,270.8z"/>
	</g>
	<g>
		<path d="M68.8,275.2c2.8,0,2.8-4.4,0-4.4C66,270.8,66,275.2,68.8,275.2L68.8,275.2z"/>
	</g>
	<g>
		<path d="M52.8,281.9c2.8,0,2.8-4.4,0-4.4C50,277.5,50,281.9,52.8,281.9L52.8,281.9z"/>
	</g>
	<g>
		<path d="M134.3,175c-33.9,20.3-69.7,37.7-101.8,60.9c-0.6,0.4-1.2,1.1-1.1,1.9c4.4,34,8.5,68.5,3.5,102.7
			c-0.4,2.8,3.8,3.9,4.2,1.2c2.7-18.4,3-36.9,1.8-55.4c-0.6-9.3-1.5-18.6-2.6-27.8c-0.6-5-1.6-10.1-1.9-15.1
			c-0.3-5.6,2.5-6.7,6.9-9.7c29.8-20.3,62.3-36.3,93.2-54.8C138.9,177.3,136.7,173.5,134.3,175L134.3,175z"/>
	</g>
	<g>
		<g>
			<path d="M133.8,248.6c-0.6-12-0.6-24.1,0-36.1c0.3-5.5,0.7-11.1,1.3-16.6c0.7-6.6,0.4-14.6,4-20.3c3.3-5.2,9.9-8.9,14.9-12.4
				c4.3-3,8.7-5.9,13.2-8.7c9.7-6,19.7-11.5,30-16.4c-1.1-0.6-2.2-1.3-3.3-1.9c1.6,13.1,2.4,26.3,2.3,39.5
				c-0.1,6.8,0.4,14.6-1.3,21.2c-1.6,6.1-6,10.1-11.1,13.4c-9,5.8-18.6,10.5-27.4,16.5c-9.2,6.3-17.9,13.2-26.2,20.6
				c-2.1,1.9,1,5,3.1,3.1c9.9-8.9,20.4-17,31.7-24.1c9.1-5.8,20.2-10,27.9-17.7c7.8-7.8,7.4-18.5,7.7-28.8
				c0.3-14.6-0.5-29.2-2.3-43.8c-0.2-1.7-1.7-2.7-3.3-1.9c-11.9,5.7-23.4,12.1-34.4,19.3c-8.1,5.2-20,11.3-25.4,19.5
				c-2.7,4.2-2.9,9.6-3.5,14.5c-0.8,6.4-1.4,12.9-1.9,19.4c-0.9,13.9-1,27.8-0.4,41.6C129.6,251.4,133.9,251.4,133.8,248.6
				L133.8,248.6z"/>
		</g>
		<g>
			<path d="M168.2,181.6c-7.2-0.8-13.5,11.4-6.6,15.7c3.2,2,7.1,1.1,9.5-1.6c3-3.3,2.9-7.9,1.7-12c-0.8-2.7-5-1.6-4.2,1.2
				c0.6,2.2,1.1,4.7,0,6.8c-0.8,1.5-2.4,2.8-4.1,2.2c-2.3-0.8-1.5-3.2-0.7-4.8c0.9-1.8,2.2-3.4,4.4-3.1
				C171,186.3,171,182,168.2,181.6L168.2,181.6z"/>
		</g>
		<g>
			<path d="M165.6,198.8c1,8.8,1.8,17.6,2.1,26.5c0.2,6.1-2,9.5-7,12.9c-3.6,2.4-7.3,4.9-10.9,7.3c-2.3,1.6-0.1,5.4,2.2,3.8
				c4.7-3.2,9.4-6.4,14.1-9.5c3.2-2.1,5.4-3.1,6-6.9c1.5-10.7-1-23.4-2.2-34C169.6,196,165.3,196,165.6,198.8L165.6,198.8z"/>
		</g>
	</g>
	<g>
		<path d="M169.6,237.7c4.8-2.8,9.5-5.7,14.3-8.5c2.4-1.4,0.2-5.2-2.2-3.8c-4.8,2.8-9.5,5.7-14.3,8.5
			C164.9,235.3,167.1,239.1,169.6,237.7L169.6,237.7z"/>
	</g>
	<g>
		<path d="M117.9,359.9c0.2-23.5,1.2-48.1,6.1-71.2c2.6-12.1,10.3-16.9,20.3-23c10.1-6.2,20.3-12.4,30.5-18.5
			c19.6-11.9,39.7-23.2,59-35.6c5.7-3.7,11.7-8.2,13.6-15.1c2.2-7.7-1.5-15-6.2-20.9c-1.7-2.2-4.8,0.9-3.1,3.1
			c4.5,5.8,7.7,13.3,3.4,20.2c-2.7,4.5-7.4,7.3-11.8,10c-8.9,5.4-17.8,10.7-26.7,16.1c-19.1,11.5-38.3,23-57.3,34.6
			c-6.8,4.2-14.8,8-20,14.2c-5,5.9-6.1,13.7-7.2,21.1c-3.1,21.5-4.8,43.2-5,64.9C113.5,362.7,117.9,362.7,117.9,359.9L117.9,359.9z"
			/>
	</g>
	<g>
		<path d="M244.3,195.6c0.7,37-1.2,73.9-5.6,110.6c-0.3,2.8,4,2.8,4.4,0c4.4-36.7,6.3-73.6,5.6-110.6
			C248.7,192.8,244.3,192.8,244.3,195.6L244.3,195.6z"/>
	</g>
	<g>
		<path d="M37.4,233.4c-17.4,16.5,14.8,34,26.4,39.4c21.2,10,45.5,12.8,67,2.2c2.5-1.2,0.3-5-2.2-3.8c-17,8.4-36.2,7.7-53.7,1.5
			c-10-3.6-50.2-21.2-34.3-36.2C42.6,234.5,39.5,231.4,37.4,233.4L37.4,233.4z"/>
	</g>
	<g>
		<path d="M190.7,237.1c-0.4,10.9-1.4,21.8-3,32.6c-0.4,2.8,3.8,3.9,4.2,1.2c1.6-11.2,2.7-22.4,3.1-33.7
			C195.2,234.3,190.8,234.3,190.7,237.1L190.7,237.1z"/>
	</g>
	<g>
		<path d="M57,156.7c-2.5,5.9-5.1,12.1-4.4,18.7c0.7,6.6,4.3,12.3,8.2,17.4c8.8,11.4,21.1,19.6,33,27.4c2.4,1.6,4.6-2.2,2.2-3.8
			c-9.3-6.2-18.7-12.4-26.6-20.4c-3.9-4-7.7-8.5-10.2-13.5c-4-8.2-1.9-15.6,1.5-23.6C61.9,156.4,58.1,154.1,57,156.7L57,156.7z"/>
	</g>
	<g>
		<path d="M60.8,160.4c10.3,3.4,20,12.1,28,19.1c9.5,8.4,16.1,18.4,20.9,30.1c1.1,2.6,5.3,1.4,4.2-1.2c-5.1-12.4-12-23.1-22.1-32.1
			c-8.7-7.7-18.9-16.6-29.9-20.2C59.3,155.2,58.2,159.5,60.8,160.4L60.8,160.4z"/>
	</g>
	<g>
		<path d="M61.7,157.1c0.1-3.8-0.3-7.5-1.1-11.2c-0.6-2.8-4.8-1.6-4.2,1.2c0.7,3.3,1,6.6,0.9,10C57.3,159.9,61.7,159.9,61.7,157.1
			L61.7,157.1z"/>
	</g>
	<g>
		<path d="M50.6,196.8c1.7,3.9,4,8.2,7.3,10.9c1.5,1.2,3.2,2.1,4.9,2.9c1.2,0.5,5.2,1.5,5.5,2.8c0.4,2.8,4.7,1.6,4.2-1.2
			c-0.6-3.8-5.6-4.5-8.5-5.9c-4.8-2.4-7.5-7-9.6-11.8C53.3,192,49.5,194.2,50.6,196.8L50.6,196.8z"/>
	</g>
	<g>
		<path d="M134.5,195.5c-3.3-3.8-8.5-6.5-13.2-3.4c-2.4,1.5-0.2,5.3,2.2,3.8c3-1.9,5.9,0.5,7.9,2.7
			C133.3,200.7,136.4,197.6,134.5,195.5L134.5,195.5z"/>
	</g>
	<g>
		<path d="M121.4,192.7c-9.9,8.8-22.4,13.4-33.6,20.1c-6.9,4.1-10.8,9.3-5.4,16.7c14.3,19.6,35.5-2.4,49.5-10.7
			c2.4-1.4,0.2-5.2-2.2-3.8c-8.7,5.2-36.1,30.5-43.8,11.7c-3.9-9.4,13.6-15.3,20-18.6c6.7-3.5,13-7.3,18.6-12.3
			C126.6,193.9,123.5,190.8,121.4,192.7L121.4,192.7z"/>
	</g>
	<g>
		<path d="M78.6,234.2c-2.6-3.5-8.9-9.2-13.7-6.6c-4.7,2.6-2.6,12.2-0.1,15.7c2.6,3.7,9.3,9.1,14.1,5.8c4.4-3.1,1.2-11.3-0.9-14.9
			c-1.4-2.4-5.2-0.2-3.8,2.2c1,1.8,3.1,5.9,2.3,8.2c-1.2,3.2-7.1-2.3-8.2-4c-0.9-1.4-1.3-2.9-1.4-4.6c0-0.6-0.4-3.3,0.1-3.8
			c2-2.3,6.8,2.8,7.9,4.2C76.5,238.6,80.3,236.4,78.6,234.2L78.6,234.2z"/>
	</g>
	<g>
		<path d="M77.5,250c11,1.7,22.6-0.5,33.5,2.3c9.8,2.6,15.2,10.6,25.9,10.6c4.7,0,8.5-0.8,13.1,1.2c2,0.9,3.7,2.5,5.6,3.5
			c3.2,1.7,6.5,2.5,10.1,2.7c10,0.5,21.8-0.2,31.1-4c7.1-2.9,13.6-8.1,16.6-15.4c1.5-3.8,1.6-7.4,1.8-11.4c0.2-3.7,0.2-7,3-10
			c1.8-2,4.5-3.2,6.7-4.8c6.2-4.7,7-12.9,7.2-20.2c0.1-5-2-8.3-2.9-12.9c-0.8-4,2.1-7.4-0.4-10.8c-1.6-2.3-5.4-0.1-3.8,2.2
			c0.9,1.3-0.8,6.8-0.3,8.8c1.1,5.1,3.2,8.5,3,14c-0.3,6.5-1.1,12.3-6.6,16.4c-2.5,1.9-5.3,3.2-7.2,5.8c-4.3,5.8-1.9,13.1-3.8,19.6
			c-3.1,10.7-14.5,15.7-24.5,17.3c-4.9,0.8-9.9,1-14.9,1.1c-6.6,0.1-10.9-1.2-16.5-4.5c-8.2-4.9-17-0.5-25.3-4.5
			c-3.4-1.6-6-4.6-9.4-6.3c-3.3-1.7-7-2.8-10.7-3.4c-9.9-1.6-20-0.1-29.9-1.6C75.9,245.4,74.7,249.6,77.5,250L77.5,250z"/>
	</g>
	<g>
		<path d="M143.4,243.1c5.6,4.2,11.8,6.5,18.7,7.6c6.8,1.1,15.3-0.6,21.5,2.3c4.8,2.2,8.1,4.4,13.6,3.2c4.3-1,6.8-3.3,8.2-7.3
			c2.7-7.7,6.4-13.7,11.5-20.1c3.4-4.3,7.8-8.7,9.5-13.9c1.9-5.6-0.2-10.5-1.5-15.9c-1.6-6.4,2.6-10.2-0.3-16.4
			c-1.2-2.6-5-0.3-3.8,2.2c1.7,3.6-1.3,8.8-0.7,13c1,6.5,4.3,11.2,1,17.9c-4.4,8.8-12.7,15.2-17.1,24.2c-2.6,5.3-3.2,12.8-10.9,12.3
			c-4.6-0.3-8.3-4.1-12.9-4.8c-4.6-0.7-9.5,0-14.1-0.5c-7.6-0.8-14.4-3-20.5-7.5C143.3,237.6,141.1,241.4,143.4,243.1L143.4,243.1z"
			/>
	</g>
	<g>
		<path d="M119.2,228.3c3.1-0.8,6.2-0.6,9.2,0.7c2.6,1.1,4.8-2.7,2.2-3.8c-4-1.8-8.2-2.3-12.6-1.2
			C115.3,224.7,116.5,229,119.2,228.3L119.2,228.3z"/>
	</g>
	<g>
		<path d="M184.2,200.4c1.5,6,3.2,12,5.1,17.9c1.3,4,2.4,9.3,5.1,12.7c1.9,2.3,4.3,3.2,7.3,3.6c3.2,0.4,6.2,0,9.4,0.6
			c2.4,0.5,4.6,1.6,7,2c6.8,1.1,10.8-3.5,11.7-9.9c0.6-4.3,0-8.9-1.6-12.9c-2.1-5.5-6.7-9.7-7.4-15.8c-0.3-2.8-4.7-2.8-4.4,0
			c0.6,5.3,3.1,8.8,5.7,13.3c2.1,3.9,3.6,7.9,3.5,12.4c0,1.5-0.1,5.1-1.4,6.3c-2.4,2.3-7.9,1.4-10.7,0.7c-2.9-0.7-5.6-0.6-8.5-1
			c-3.1-0.5-6.7-1.8-8.4-4.3c-1-1.4-1.4-3.5-1.9-5.1c-2.4-7.1-4.5-14.3-6.4-21.6C187.7,196.5,183.5,197.6,184.2,200.4L184.2,200.4z"
			/>
	</g>
	<g>
		<path d="M186.6,196.6c-0.9,0.2-1.8,0.5-2.8,0.7c-2,0.5-2.1,3.7,0,4.2c1.1,0.2,2,0.1,3-0.4c1-0.6,1.4-2,0.8-3c-0.6-1-2-1.4-3-0.8
			c0.1-0.1,0.3-0.1,0.4,0c0,1.4,0,2.8,0,4.2c0.9-0.2,1.8-0.5,2.8-0.7c1.1-0.3,1.8-1.6,1.5-2.7C188.9,197,187.7,196.3,186.6,196.6
			L186.6,196.6z"/>
	</g>
	<g>
		<path d="M221.4,212.4c7.3-3.3,14.3-7.1,20.9-11.6c2.3-1.6,0.1-5.4-2.2-3.8c-6.6,4.5-13.6,8.3-20.9,11.6
			C216.7,209.7,218.9,213.5,221.4,212.4L221.4,212.4z"/>
	</g>
	<g>
		<path d="M198.9,147.6c4.1,0.9,8.7,2.1,11.7,5.2c4.2,4.3,3.1,10.1,2.7,15.5c-0.9,12.1-1.9,24.1-2.5,36.2c-0.1,2.8,4.2,2.8,4.4,0
			c0.4-8.4,1-16.7,1.7-25.1c0.5-6.8,2.1-14.3,1.1-21.1c-1.4-9.2-9.7-13.1-17.9-15C197.3,142.8,196.1,147,198.9,147.6L198.9,147.6z"
			/>
	</g>
	<g>
		<path d="M240.9,199.8c-0.7-22.4-3.4-44.8-2.1-67.2c0-0.8-0.4-1.5-1.1-1.9c-13.4-7.7-28.4-11.1-42.9-15.8c-6.7-2.2-9.2-2-15.3,1.9
			c-5.9,3.7-10.6,8.8-16.9,12c-1.4,0.7-1.5,3.1,0,3.8c9.9,4.7,8.6-6.8,0.5-4c-1.7,0.6-2.3,3.1-0.5,4c7.1,3.8,14.6,6.6,22.1,9.5
			c2.6,1,3.8-3.2,1.2-4.2c-7.1-2.8-14.3-5.4-21-9c-0.2,1.3-0.3,2.7-0.5,4c0.2-1.3,0.3-2.7,0.5-4c0,1.3,0,2.5,0,3.8
			c9.2-4.7,16.5-16.2,27.7-13.8c11.4,2.4,23.8,6.6,34.4,11.3c1.5,0.7,5.5,1.8,6.5,3.2c1.8,2.5,0.7,7.1,0.6,9.9
			c-0.1,6.3,0.1,12.6,0.4,18.9c0.6,12.6,1.6,25.1,2.1,37.7C236.6,202.6,241,202.6,240.9,199.8L240.9,199.8z"/>
	</g>
	<g>
		<path d="M162.3,132.7c0.9,6.1,1.7,12.2,2.2,18.3c0.2,2.8,4.6,2.8,4.4,0c-0.5-6.5-1.3-13-2.3-19.5
			C166.1,128.8,161.9,130,162.3,132.7L162.3,132.7z"/>
	</g>
	<g>
		<path d="M219.7,208.1c-1,0.3-2,0.6-3,0.9c-0.4,0.1-1,0.1-1.4,0.3c-0.7,0-0.7,0.1-0.2,0.5c0.5,0.5,0.5,0.5,0.2-0.2
			c0-0.9-0.4-1.8-0.5-2.7c-0.1-1.1,0-2.2,0.1-3.3c0.2-1.2-1.1-2.2-2.2-2.2c-1.3,0-2,1-2.2,2.2c-0.3,2.6-0.4,6.8,1.4,9
			c1.9,2.4,6.5,0.5,8.8-0.3C223.6,211.5,222.4,207.2,219.7,208.1L219.7,208.1z"/>
	</g>
	<g>
		<path d="M214.1,208.6c-5.6-1.8-9.8-6.3-15.4-8.1c-2.7-0.8-3.8,3.4-1.2,4.2c5.6,1.8,9.8,6.3,15.4,8.1
			C215.6,213.7,216.8,209.5,214.1,208.6L214.1,208.6z"/>
	</g>
	<g>
		<path d="M233.2,132.4c-7.3,5.7-14.4,11.8-22.9,15.8c-2.6,1.2-0.3,5,2.2,3.8c8.8-4.1,16.2-10.5,23.8-16.5
			C238.5,133.8,235.4,130.7,233.2,132.4L233.2,132.4z"/>
	</g>
	<g>
		<path d="M167.3,234.9c-3.6,4.9-7.3,9.7-11.2,14.4c-1.8,2.2,1.3,5.3,3.1,3.1c4.1-5,8.1-10.1,11.8-15.3
			C172.7,234.8,168.9,232.6,167.3,234.9L167.3,234.9z"/>
	</g>
	<g>
		<path d="M169.4,238.5c4.9-0.4,9.8-1.1,14.7-2.1c2.8-0.6,1.6-4.8-1.2-4.2c-4.5,0.9-9,1.6-13.5,1.9
			C166.6,234.4,166.6,238.7,169.4,238.5L169.4,238.5z"/>
	</g>
	<g>
		<path d="M58.6,131.7c3.5-1.7,7.2-2.7,11-3c2.8-0.3,2.8-4.6,0-4.4c-4.6,0.4-9,1.6-13.2,3.6C53.8,129.1,56,132.9,58.6,131.7
			L58.6,131.7z"/>
	</g>
	<g>
		<path class="st0" d="M345,233c-17.3-1.6-29.7,13.5-27.9,29.7c1.8,16.6,11.2,27.7,28.4,28.5c17.1,0.9,24.6-11.6,26.6-27
			c2.2-16.9-13.4-28.2-28.5-30.7c-2.8-0.5-3.9,3.7-1.2,4.2c10.4,1.8,22.8,8,25.4,19.3c1.3,5.8-1,15.1-3.7,20.3
			c-3.3,6.4-9.2,9.4-16.3,9.6c-14,0.2-23.2-7.6-25.8-21.3c-1.3-6.8-1.3-14.9,3.6-20.4c4.4-5.1,12.9-8.5,19.5-7.9
			C347.8,237.6,347.8,233.2,345,233L345,233z"/>
	</g>
	<g>
		<path class="st0" d="M342.2,234.8c0.7,18.2,0.5,36.4-0.7,54.6c-0.2,2.8,4.2,2.8,4.4,0c1.2-18.2,1.4-36.4,0.7-54.6
			C346.5,232,342.1,232,342.2,234.8L342.2,234.8z"/>
	</g>
	<g>
		<path class="st0" d="M368.5,260.4c-7.8,6.4-20.8,4.8-30.3,4.1c-9.3-0.7-14.1-5.7-21.4-10.1c-4.4-2.7-6.7-5.8-9.9-9.8
			c-1.6-2-3.3-4-5.5-5.3c-6.2-3.8-12-1.8-17.9,1.3c-2.3,1.2-5.3,3-8.1,2.8c-7.3-0.6-6-5.5-8.2-9.1c-1.3-2.2-3.4-3.7-5.6-4.8
			c-3.6-1.8-7.7-2.6-10.8-5.3c-3.6-3-5.7-7.5-7-11.9c-1-3.3-1.1-7-2.6-10.1c-1.1-2.1-3.2-3.2-4.1-5.3c-1.2-2.6,0.2-5.4-0.2-8.3
			c-0.4-3.2-1.8-5.6-3.8-8c-1.8-2.2-4.8,0.9-3.1,3.1c4.6,5.8,0.2,9.3,1.7,14.7c1,3.4,4.3,3.3,5.8,6.6c3,6.6,2.6,13.5,7.4,19.5
			c2.2,2.8,4.9,4.8,8.2,6.3c1.4,0.6,2.8,1.1,4.2,1.6c4.8,2,5.7,3.8,7.7,8.4c2.8,6.3,8.7,8.2,15.2,6.2c4.8-1.5,8.8-5.7,14-5.4
			c7,0.4,9.3,6.7,13,11.3c2.5,3,5.2,3.9,8.2,6.1c2.8,1.9,5.3,4.3,8.2,6c7.5,4.5,16.2,4.2,24.6,4.3c8.7,0.1,16.2,0.2,23.3-5.6
			C373.7,261.7,370.6,258.6,368.5,260.4L368.5,260.4z"/>
	</g>
	<g>
		<path class="st0" d="M325.6,244.5c11.6,4.1,23.6,4.7,35.5,1.8c2.7-0.7,1.6-4.9-1.2-4.2c-11.2,2.7-22.3,2.1-33.1-1.8
			C324.1,239.3,322.9,243.5,325.6,244.5L325.6,244.5z"/>
	</g>
	<g>
		<path class="st0" d="M365.3,276.2c-13.8,3.5-27.6,2.9-41.1-1.6c-2.7-0.9-3.8,3.3-1.2,4.2c14.2,4.7,28.9,5.2,43.5,1.6
			C369.2,279.8,368.1,275.5,365.3,276.2L365.3,276.2z"/>
	</g>
	<g>
		<path class="st0" d="M342.9,233c-9.1,5.7-13.4,14.6-13.2,25.2c0.1,6.1,0.1,12.7,1.2,18.7c1,5.8,4.4,9.5,8.7,13.3
			c2.1,1.8,5.2-1.2,3.1-3.1c-4.2-3.7-7.1-7.2-7.7-13c-0.5-4.4-0.5-9-0.7-13.4c-0.5-10,2-18.4,10.9-23.9
			C347.5,235.3,345.3,231.5,342.9,233L342.9,233z"/>
	</g>
	<g>
		<path class="st0" d="M343.6,237.1c8.2,6.9,12.3,13.1,12.9,24.1c0.3,5.2,0.3,10.6-2.1,15.3c-2.6,4.9-7.6,7.7-12.1,10.8
			c-2.3,1.6-0.1,5.4,2.2,3.8c4.2-2.9,9-5.6,12.1-9.7c3.7-5,4.5-11.3,4.4-17.4c-0.2-13.3-4.1-21.5-14.3-30
			C344.5,232.2,341.4,235.3,343.6,237.1L343.6,237.1z"/>
	</g>
	<g>
		<path class="st1" d="M370.4,264.7c11.7-6.5,23.6-13.7,30.6-25.6c6.9-11.7,8.6-25.5,9.5-38.9c0.2-2.8-4.2-2.8-4.4,0
			c-0.8,12.5-2.4,25.6-8.9,36.6c-6.6,11.3-18,17.8-29.1,24C365.7,262.3,367.9,266.1,370.4,264.7L370.4,264.7z"/>
	</g>
	<g>
		<path class="st1" d="M392.4,178.7c6.5-12.6,13.6-24.9,21.3-36.8c-1.3,0-2.5,0-3.8,0c8.5,11.9,17.1,23.9,25.6,35.8
			c0.6-1.1,1.3-2.2,1.9-3.3c-15.4,1-30.8,1.8-46.3,1.6c-2.8,0-2.8,4.4,0,4.4c15.5,0.2,30.9-0.6,46.3-1.6c1.5-0.1,2.9-1.8,1.9-3.3
			c-8.5-11.9-17.1-23.9-25.6-35.8c-1-1.3-2.8-1.5-3.8,0c-7.7,11.9-14.8,24.2-21.3,36.8C387.3,179,391.1,181.2,392.4,178.7
			L392.4,178.7z"/>
	</g>
	<g>
		<path class="st1" d="M409.5,152.8c0,4.6,0,9.3,0,13.9c0,2.8,4.4,2.8,4.4,0c0-4.6,0-9.3,0-13.9C413.9,150,409.5,150,409.5,152.8
			L409.5,152.8z"/>
	</g>
	<g>
		<path class="st1" d="M411.4,174.3c2.8,0,2.8-4.4,0-4.4C408.6,170,408.6,174.3,411.4,174.3L411.4,174.3z"/>
	</g>
	<g>
		<path class="st0" d="M315.6,298.3c0.9,2.6,2,5.1,3.5,7.4c0.9,1.4,2.9,1.4,3.8,0c1.5-2.4,3-4.9,4.4-7.4c-1.3-0.2-2.7-0.3-4-0.5
			c1,3.5,2.4,6.8,4.4,9.9c1.1,1.7,3.4,1.3,4-0.5c1.2-3.4,2.9-6.5,4.9-9.4c1.6-2.3-2.2-4.5-3.8-2.2c-2.3,3.3-4,6.7-5.4,10.5
			c1.3-0.2,2.7-0.3,4-0.5c-1.8-2.8-3.1-5.7-4-8.8c-0.5-1.8-3.1-2.2-4-0.5c-1.4,2.5-2.9,5-4.4,7.4c1.3,0,2.5,0,3.8,0
			c-1.3-2-2.3-4.1-3.1-6.4C318.9,294.5,314.7,295.6,315.6,298.3L315.6,298.3z"/>
	</g>
	<g>
		<path class="st0" d="M333.1,296.8c0.9,2.6,2,5.1,3.5,7.4c0.9,1.4,2.9,1.4,3.8,0c1.5-2.4,3-4.9,4.4-7.4c-1.3-0.2-2.7-0.3-4-0.5
			c1,3.5,2.4,6.8,4.4,9.9c1.1,1.7,3.4,1.3,4-0.5c1.2-3.4,2.9-6.5,4.9-9.4c1.6-2.3-2.2-4.5-3.8-2.2c-2.3,3.3-4,6.7-5.4,10.5
			c1.3-0.2,2.7-0.3,4-0.5c-1.8-2.8-3.1-5.7-4-8.8c-0.5-1.8-3.1-2.2-4-0.5c-1.4,2.5-2.9,5-4.4,7.4c1.3,0,2.5,0,3.8,0
			c-1.3-2-2.3-4.1-3.1-6.4C336.4,293,332.2,294.1,333.1,296.8L333.1,296.8z"/>
	</g>
	<g>
		<path class="st0" d="M350.6,295.3c0.9,2.6,2,5.1,3.5,7.4c0.9,1.4,2.9,1.4,3.8,0c1.5-2.4,3-4.9,4.4-7.4c-1.3-0.2-2.7-0.3-4-0.5
			c1,3.5,2.4,6.8,4.4,9.9c1.1,1.7,3.4,1.3,4-0.5c1.2-3.4,2.9-6.5,4.9-9.4c1.6-2.3-2.2-4.5-3.8-2.2c-2.3,3.3-4,6.7-5.4,10.5
			c1.3-0.2,2.7-0.3,4-0.5c-1.8-2.8-3.1-5.7-4-8.8c-0.5-1.8-3.1-2.2-4-0.5c-1.4,2.5-2.9,5-4.4,7.4c1.3,0,2.5,0,3.8,0
			c-1.3-2-2.3-4.1-3.1-6.4C354,291.5,349.7,292.7,350.6,295.3L350.6,295.3z"/>
	</g>
	<g>
		<path class="st1" d="M415.7,127.6c8.4-25.3,29.9-44.1,54.8-52.7c29.6-10.2,61.9-5.9,91,4.2c2.7,0.9,3.8-3.3,1.2-4.2
			c-31-10.8-66-15-97.3-2.7c-24.7,9.7-45.4,28.8-53.8,54.3C410.6,129.2,414.9,130.3,415.7,127.6L415.7,127.6z"/>
	</g>
	<g>
		<path class="st1" d="M552.3,67.9c1.9,1.9,3.8,3.9,5.8,5.8c0.9,0.9,1.7,1.7,2.6,2.6c0.4,0.4,0.9,0.9,1.3,1.3c1,0.6,0.8,1-0.4,1.3
			c-1.3,1.7-4.4,3.1-6.2,4.3c-2.6,1.8-5.1,3.6-7.7,5.4c-2.3,1.6-0.1,5.4,2.2,3.8c3.6-2.5,7.2-5,10.8-7.5c1.8-1.2,5.8-3,6.5-5.4
			c0.7-2.4-1.3-4-2.7-5.5c-2.9-3.1-6-6-9-9C553.4,62.8,550.3,65.9,552.3,67.9L552.3,67.9z"/>
	</g>
	<g>
		<path class="st1" d="M595.3,46.5c5.6,27.1,7.7,54.6,6.5,82.2c-0.1,2.8,4.3,2.8,4.4,0c1.2-28-1.1-55.9-6.7-83.3
			C599,42.6,594.8,43.8,595.3,46.5L595.3,46.5z"/>
	</g>
	<g>
		<path class="st1" d="M599.7,47.3c11.8-1,23.6-2,35.5-3.1c3-0.3,6.9-1.3,9.9-0.9c0.9-0.1,1.9-0.2,2.8-0.2c1.8,1.5,2.9,3.3,3.2,5.5
			c1.9,5.2,2.2,11.5,2.6,17.1c1.3,21.3,0.4,42.1,4.9,63.2c0.7-0.9,1.4-1.8,2.1-2.8c-18.7,1.5-37.4,2.4-56.1,2.9
			c-2.8,0.1-2.8,4.5,0,4.4c18.7-0.5,37.4-1.5,56.1-2.9c1.5-0.1,2.4-1.3,2.1-2.8c-2.9-13.7-4.2-27.4-4.3-41.3
			c-0.1-11.3,0.2-22.8-2-34c-0.6-3.3-1.4-10.3-4.4-12.7c-2.6-2.1-7-0.8-9.8-0.5c-14.2,1.2-28.4,2.4-42.6,3.7
			C596.9,43.1,596.9,47.5,599.7,47.3L599.7,47.3z"/>
	</g>
	<g>
		<path class="st1" d="M608.6,58.4c7.6-1.4,15.1-1.7,22.8-0.9c2.8,0.3,2.8-4.1,0-4.4c-8-0.8-16-0.4-23.9,1.1
			C604.7,54.7,605.8,58.9,608.6,58.4L608.6,58.4z"/>
	</g>
	<g>
		<path class="st1" d="M642.1,56.4c2.8,0,2.8-4.4,0-4.4C639.3,52,639.2,56.4,642.1,56.4L642.1,56.4z"/>
	</g>
	<g>
		<path class="st1" d="M608.5,71.3c7.3-1.8,14.8,0.1,22.1-1.5c2.8-0.6,1.6-4.8-1.2-4.2c-7.3,1.6-14.8-0.2-22.1,1.5
			C604.6,67.8,605.7,72,608.5,71.3L608.5,71.3z"/>
	</g>
	<g>
		<path class="st1" d="M642.6,67.1c2.8,0,2.8-4.4,0-4.4C639.7,62.8,639.7,67.1,642.6,67.1L642.6,67.1z"/>
	</g>
	<g>
		<path class="st1" d="M608.6,82.8c8.8-1.2,17.5-2.4,26.3-3.6c2.8-0.4,1.6-4.6-1.2-4.2c-8.8,1.2-17.5,2.4-26.3,3.6
			C604.6,78.9,605.8,83.2,608.6,82.8L608.6,82.8z"/>
	</g>
	<g>
		<path class="st1" d="M644.5,78.3c2.8,0,2.8-4.4,0-4.4C641.7,74,641.7,78.3,644.5,78.3L644.5,78.3z"/>
	</g>
	<g>
		<path class="st1" d="M603.9,127.4c-6-5.8-15.6-12.6-18-20.8c-2.3-7.7-1.4-17.9-1.8-25.9c-0.8-17.3-0.8-34.6-0.1-51.9
			c-1.2,0.5-2.5,1-3.7,1.5c6,5.9,11.2,12.4,15.8,19.5c1.5,2.4,5.3,0.2,3.8-2.2c-4.7-7.4-10.2-14.2-16.4-20.4
			c-1.4-1.4-3.7-0.3-3.7,1.5c-0.8,20.2-0.6,40.4,0.6,60.6c0.4,6.7-0.5,16.4,2.5,22.7c1.7,3.4,5.3,6,7.9,8.6
			c3.4,3.3,6.8,6.6,10.2,9.9C602.8,132.5,605.9,129.4,603.9,127.4L603.9,127.4z"/>
	</g>
	<g>
		<path class="st1" d="M610.4,21.5c-9.5,1.2-18.9,2.6-28.3,4.2c-2.8,0.5-1.6,4.7,1.2,4.2c9-1.6,18-3,27.1-4.1
			C613.2,25.6,613.2,21.2,610.4,21.5L610.4,21.5z"/>
	</g>
	<g>
		<path class="st1" d="M652.2,39.2c-7.1-7.9-13.8-18.8-25.5-19.3c-2.8-0.1-2.8,4.3,0,4.4c10.1,0.4,16.4,11.3,22.4,18
			C651,44.4,654.1,41.3,652.2,39.2L652.2,39.2z"/>
	</g>
	<g>
		<path class="st2" d="M519.4,208.6c5.6,27.1,7.7,54.6,6.5,82.2c-0.1,2.8,4.3,2.8,4.4,0c1.2-28-1.1-55.9-6.7-83.3
			C523.1,204.7,518.8,205.9,519.4,208.6L519.4,208.6z"/>
	</g>
	<g>
		<path class="st2" d="M523.8,209.4c11.8-1,23.6-2,35.5-3.1c3-0.3,6.9-1.3,9.9-0.9c0.9-0.1,1.9-0.2,2.8-0.2c1.8,1.5,2.9,3.3,3.2,5.5
			c1.9,5.2,2.2,11.5,2.6,17.1c1.3,21.3,0.4,42.1,4.9,63.2c0.7-0.9,1.4-1.8,2.1-2.8c-18.7,1.5-37.4,2.4-56.1,2.9
			c-2.8,0.1-2.8,4.5,0,4.4c18.7-0.5,37.4-1.5,56.1-2.9c1.5-0.1,2.4-1.3,2.1-2.8c-2.9-13.7-4.2-27.4-4.3-41.3
			c-0.1-11.3,0.2-22.8-2-34c-0.6-3.3-1.4-10.3-4.4-12.7c-2.6-2.1-7-0.8-9.8-0.5c-14.2,1.2-28.4,2.4-42.6,3.7
			C521,205.2,521,209.6,523.8,209.4L523.8,209.4z"/>
	</g>
	<g>
		<path class="st2" d="M532.7,220.5c7.6-1.4,15.1-1.7,22.8-0.9c2.8,0.3,2.8-4.1,0-4.4c-8-0.8-16-0.4-23.9,1.1
			C528.7,216.8,529.9,221,532.7,220.5L532.7,220.5z"/>
	</g>
	<g>
		<path class="st2" d="M566.1,218.5c2.8,0,2.8-4.4,0-4.4C563.3,214.2,563.3,218.5,566.1,218.5L566.1,218.5z"/>
	</g>
	<g>
		<path class="st2" d="M532.5,233.4c7.3-1.8,14.8,0.1,22.1-1.5c2.8-0.6,1.6-4.8-1.2-4.2c-7.3,1.6-14.8-0.2-22.1,1.5
			C528.6,229.9,529.8,234.1,532.5,233.4L532.5,233.4z"/>
	</g>
	<g>
		<path class="st2" d="M566.6,229.2c2.8,0,2.8-4.4,0-4.4C563.8,224.9,563.8,229.2,566.6,229.2L566.6,229.2z"/>
	</g>
	<g>
		<path class="st2" d="M532.7,244.9c8.8-1.2,17.5-2.4,26.3-3.6c2.8-0.4,1.6-4.6-1.2-4.2c-8.8,1.2-17.5,2.4-26.3,3.6
			C528.7,241,529.9,245.3,532.7,244.9L532.7,244.9z"/>
	</g>
	<g>
		<path class="st2" d="M568.6,240.4c2.8,0,2.8-4.4,0-4.4C565.7,236.1,565.7,240.4,568.6,240.4L568.6,240.4z"/>
	</g>
	<g>
		<path class="st2" d="M528,289.5c-6-5.8-15.6-12.6-18-20.8c-2.3-7.7-1.4-17.9-1.8-25.9c-0.8-17.3-0.8-34.6-0.1-51.9
			c-1.2,0.5-2.5,1-3.7,1.5c6,5.9,11.2,12.4,15.8,19.5c1.5,2.4,5.3,0.2,3.8-2.2c-4.7-7.4-10.2-14.2-16.4-20.4
			c-1.4-1.4-3.7-0.3-3.7,1.5c-0.8,20.2-0.6,40.4,0.6,60.6c0.4,6.7-0.5,16.4,2.5,22.7c1.7,3.4,5.3,6,7.9,8.6
			c3.4,3.3,6.8,6.6,10.2,9.9C526.9,294.6,530,291.5,528,289.5L528,289.5z"/>
	</g>
	<g>
		<path class="st2" d="M576.3,201.3c-7-7.5-15.6-19.7-26.9-19.2c-14.4,0.7-29,3.3-43.2,5.8c-2.8,0.5-1.6,4.7,1.2,4.2
			c12.2-2.2,24.5-3.9,36.8-5.1c7.6-0.8,11.3,0.1,17,5.4c4.1,3.9,8.1,7.9,12,12C575.1,206.5,578.2,203.4,576.3,201.3L576.3,201.3z"/>
	</g>
	<g>
		<path class="st1" d="M592.2,137.7c-8.3,11.5-16.9,22.9-25.8,34c-1.7,2.2,1.3,5.3,3.1,3.1c9.1-11.4,17.9-23,26.5-34.9
			C597.7,137.6,593.9,135.4,592.2,137.7L592.2,137.7z"/>
	</g>
	<g>
		<path class="st1" d="M565.2,159.5c-0.1,3.1-0.3,6.2-0.4,9.3c-0.1,2-1,5.3,0.5,7c1.5,1.8,3.7,0.9,5.6,0.2c3.2-1.2,6.3-2.4,9.5-3.6
			c2.6-1,1.5-5.2-1.2-4.2c-2,0.8-4.1,1.5-6.1,2.3c-1.2,0.4-4.3,2.3-5.4,1.8c0.4,0.3,0.9,0.7,1.3,1c0,0.1,0.2-1.8,0.2-2.3
			c0.1-1.4,0.1-2.7,0.2-4.1c0.1-2.5,0.2-5.1,0.4-7.6C569.7,156.7,565.3,156.7,565.2,159.5L565.2,159.5z"/>
	</g>
	<g>
		<path class="st2" d="M592,226.3c9.1-12.4,16-26.2,23.2-39.7c7.8-14.6,15.6-29.2,23.3-43.8c1.3-2.5-2.5-4.7-3.8-2.2
			c-7.8,14.6-15.6,29.2-23.3,43.8c-7.2,13.5-14.2,27.3-23.2,39.7C586.6,226.3,590.4,228.5,592,226.3L592,226.3z"/>
	</g>
	<g>
		<path class="st2" d="M623.9,150.3c4.7-3.3,9.3-6.7,14-10c-1.1-0.4-2.1-0.9-3.2-1.3c1.2,5.9,1.8,11.9,1.8,17.9c0,2.8,4.4,2.8,4.4,0
			c0-6.4-0.7-12.8-2-19.1c-0.3-1.3-2.1-2.1-3.2-1.3c-4.7,3.3-9.3,6.7-14,10C619.4,148.2,621.6,152,623.9,150.3L623.9,150.3z"/>
	</g>
	<g>
		<path class="st1" d="M400.4,210.3c3.4-4.6,6.9-9.2,10.3-13.8c-1.3,0-2.5,0-3.8,0c3,5.3,5.4,10.8,7.2,16.5c0.8,2.7,5.1,1.5,4.2-1.2
			c-1.9-6.1-4.5-12-7.7-17.6c-0.9-1.6-2.8-1.3-3.8,0c-3.4,4.6-6.9,9.2-10.3,13.8C394.9,210.4,398.7,212.6,400.4,210.3L400.4,210.3z"
			/>
	</g>
	<g>
		<path class="st1" d="M424.5,93.6c-3.5-5.1-7.5-9.7-12.1-13.8c-0.1,1.1-0.3,2.3-0.4,3.4c2.3-1.2,5.5,0.8,8,0.7
			c1.7-0.1,3.3-0.6,4.6-1.6c3.1-2.5,3.6-7.1,3.7-10.8c-1.4,0.4-2.7,0.7-4.1,1.1c2.3,3.9,4.6,7.8,6.9,11.7c1.4,2.4,5.2,0.2,3.8-2.2
			c-2.3-3.9-4.6-7.8-6.9-11.7c-1.1-1.9-4-1-4.1,1.1c-0.2,4.9-1.2,8.6-6.9,7.5c-2.7-0.5-4.7-0.9-7.2,0.4c-1.2,0.6-1.5,2.5-0.4,3.4
			c4.3,3.9,8.1,8.2,11.4,12.9C422.3,98.1,426.1,95.9,424.5,93.6L424.5,93.6z"/>
	</g>
	<g>
		<path class="st1" d="M431.7,67.3c1.3,3.3,4.7,4.6,8,3.4c3.9-1.4,5-5.9,5.5-9.5c-1.3,0.2-2.7,0.3-4,0.5c0.7,1.3-0.9,3.2-1.4,4.4
			c-0.6,1.4-0.9,2.9-0.9,4.5c0,2.9,1.1,5.4,2.9,7.7c1.7,2.2,4.8-0.9,3.1-3.1c-2.4-3-1.6-6-0.2-9.2c1-2.2,1.5-4.3,0.3-6.5
			c-0.8-1.5-3.7-1.4-4,0.5c-0.2,1.4-0.4,3-0.9,4.3c-0.4,0.9-3.2,4.1-4.1,1.8C434.9,63.5,430.6,64.7,431.7,67.3L431.7,67.3z"/>
	</g>
	<g>
		<path class="st2" d="M520,299c-9.2-7.5-20,7.6-11.9,15.1c3.2,2.9,9.7,4.3,12.1-0.3c2-3.8-0.7-9.5-5.5-7.9
			c-2.7,0.9-1.5,5.1,1.2,4.2c0.6,0.1,0.7,0.3,0.6,0.8c0.1,0.5-0.1,0.9-0.8,1c-0.9,0.7-1.8,0.5-2.8,0.1c-1.8-0.7-3.3-2.5-3.4-4.5
			c0-3.4,4-8.2,7.4-5.4C519.1,303.9,522.2,300.8,520,299L520,299z"/>
	</g>
	<g>
		<path class="st2" d="M524.4,299.9c-2.8,2.7-5.6,6.8-3.7,10.8c1.8,3.7,6.5,6.2,10.5,5.4c4.5-0.9,6.5-5.2,5.3-9.4
			c-1.4-4.7-4.3-6.9-9-7.7c-2.8-0.5-3.9,3.8-1.2,4.2c2.4,0.4,4.4,0.7,5.5,3.1c1,2.2,1.3,5.1-1.8,5.4c-1.8,0.2-4.6-1.3-5.3-3.1
			c-0.8-2.1,1.5-4.4,2.8-5.8C529.5,301.1,526.4,298,524.4,299.9L524.4,299.9z"/>
	</g>
	<g>
		<path class="st2" d="M539.6,299.7c-3.9,1.8-4.4,7.1-3.2,10.8c1.3,4.1,6.8,5.6,10.4,3.9c3.8-1.8,5.5-6.2,3.9-10.1
			c-1.8-4.4-6.6-5.2-10.9-5.5c-2.8-0.2-2.8,4.2,0,4.4c1.8,0.1,4.1,0.1,5.6,1.3c1.8,1.3,2.1,3.9,0.4,5.4c-1.8,1.6-5,0.9-5.4-1.6
			c-0.3-1.8-0.5-4,1.4-4.9C544.3,302.3,542.1,298.5,539.6,299.7L539.6,299.7z"/>
	</g>
	<g>
		<path class="st2" d="M560.3,299.5c-4.2-1.4-7.2,2.3-8.6,5.8c-0.7,1.7-1.5,4-0.9,5.8c0.6,1.9,2.4,2.8,4.1,3.5
			c3.6,1.4,8.2,0.8,10.2-2.9c0.7-1.4,0.9-3.3,0-4.6c-1.2-1.7-3.6-1.7-5.5-1.6c-2.8,0.1-2.8,4.5,0,4.4c0.6,0,1.6,0.2,2.2,0.1
			c-0.3-0.6-0.5-0.6-0.6-0.1c-0.1,0.3-0.4,0.6-0.7,0.8c-1.2,0.8-3.6,0.5-4.7-0.3c-0.7-0.5-0.6-0.4-0.6-1.2c0-0.7,0.5-1.8,0.8-2.5
			c0.6-1.2,1.6-3.3,3.3-2.8C561.8,304.6,563,300.4,560.3,299.5L560.3,299.5z"/>
	</g>
	<g>
		<path class="st2" d="M565.3,301.1c0.1,2.3,0,4.6-0.1,6.9c-0.1,1.5-0.6,3.3-0.1,4.7c0.5,1.3,1.5,1.6,2.7,1.8
			c2.2,0.3,4.4,0.3,6.6,0.4c2.8,0.2,2.8-4.2,0-4.4c-1.1-0.1-2.2-0.1-3.3-0.2c-0.6,0-2.3,0.2-2.8-0.1c0.3,0.4,0.7,0.9,1,1.3
			c-0.1-0.3,0.1-1.3,0.2-1.8c0.1-1,0.2-2,0.2-3c0.1-1.9,0.1-3.8,0-5.6C569.6,298.3,565.2,298.3,565.3,301.1L565.3,301.1z"/>
	</g>
	<g>
		<path class="st2" d="M576.2,300.9c0.4,2.4,0.8,4.9,1,7.3c0.2,1.7-0.1,4.1,0.5,5.7c0.5,1.3,1.6,1.8,2.9,1.6
			c0.6-0.1,1.2-0.5,1.8-0.6c1.3-0.3,2.5,0,3.7,0.4c2.6,1,3.8-3.2,1.2-4.2c-1.4-0.5-2.8-0.8-4.2-0.7c-0.6,0-1.2,0.1-1.8,0.3
			c-0.5,0.1-1.8,0.2-0.8,0.6c0.5,0.5,1,1,1.5,1.5c-0.5-2-0.3-4.5-0.5-6.6c-0.3-2.2-0.6-4.4-1-6.5C579.9,297,575.7,298.2,576.2,300.9
			L576.2,300.9z"/>
	</g>
	<g>
		<path class="st2" d="M581,307.8c1.2-0.3,2.4-0.4,3.6-0.2c1.2,0.2,2.4-0.3,2.7-1.5c0.3-1-0.4-2.5-1.5-2.7c-2-0.3-4-0.3-6,0.2
			C577.1,304.3,578.3,308.5,581,307.8L581,307.8z"/>
	</g>
	<g>
		<path class="st2" d="M579.7,302.4c1.1-0.3,2.3-0.4,3.3,0.1c1.1,0.5,2.4,0.3,3-0.8c0.5-0.9,0.3-2.5-0.8-3c-2.2-1-4.4-1.2-6.7-0.5
			C575.9,299,577,303.2,579.7,302.4L579.7,302.4z"/>
	</g>
	<g>
		<path class="st1" d="M618.8,35.9c-9.8-4.4-6.4-12.3-2.9-19.4c1.8-3.6,2.5-7.3,2.6-11.3c-1.4,0.4-2.7,0.7-4.1,1.1
			c3,5.8,2,11.3,2.5,17.5c0.4,5,5.2,7.9,2.4,13.4c-1.3,2.5,2.5,4.7,3.8,2.2c3.1-6.1,0.5-9-1.3-14.7c-1.1-3.7-0.3-8-0.8-11.9
			c-0.4-3.2-1.3-5.9-2.8-8.7c-1-2-4-1-4.1,1.1c-0.2,5.1-2.1,9-4.5,13.4c-1.3,2.3-2.4,4.8-2.4,7.5c0,5.7,4.3,11.3,9.3,13.5
			C619.2,40.8,621.4,37,618.8,35.9L618.8,35.9z"/>
	</g>
	<g>
		<path class="st1" d="M621.8,22.6c0.4-3.7,1-7.4,1.7-11c-1.2,0.3-2.4,0.6-3.7,1c5.7,5.6,2.9,18.5-0.5,24.6
			c-1.4,2.5,2.4,4.7,3.8,2.2c4.5-8.1,7.1-22.7-0.2-29.9c-1.1-1.1-3.4-0.7-3.7,1c-0.8,4.1-1.4,8.1-1.8,12.2
			C617.1,25.4,621.5,25.4,621.8,22.6L621.8,22.6z"/>
	</g>
	<g>
		<path class="st1" d="M464.4,50.2c-4.5,0.5-9.4,5.9-6.1,10.3c1.4,1.8,3.5,2.4,5.7,2.6c0.7,0.1,1.5-0.2,1.2,0.3
			c-0.3,0.4-2.7,1.2-2.9,1.3c-1.9,0.7-3.9,1.3-5.9,1.4c-2.8,0.2-2.8,4.6,0,4.4c3.1-0.2,5.8-1,8.7-2.2c2-0.8,4.5-1.8,5.2-4
			c0.6-1.9-0.4-3.8-2.1-4.8c-1-0.6-2.1-0.6-3.2-0.7c-1.3-0.1-1.8,0.1-2.4-1.3c-0.6-1.3,0.1-2.7,1.9-2.9
			C467.2,54.3,467.2,49.9,464.4,50.2L464.4,50.2z"/>
	</g>
	<g>
		<path class="st1" d="M479.8,46.7c-2.4,0-6-0.7-8,1c-1.9,1.6-1.7,4.4-1.2,6.6c0.3,1.5,0.9,2.9,1.4,4.3c0.5,1.5,0.9,3.4,1.7,4.7
			c1.5,2.4,4.8,1,7,0.6c2.8-0.5,1.6-4.7-1.2-4.2c-1.2,0.2-2.6,0.7-3.8,0.6c0.6,0.4,1.3,0.7,1.9,1.1c-1.2-2-2-5.1-2.6-7.4
			c-0.3-1.2-0.9-2.5,0.6-2.9c1.2-0.3,3,0,4.3,0C482.6,51.1,482.6,46.7,479.8,46.7L479.8,46.7z"/>
	</g>
	<g>
		<path class="st1" d="M474.9,58.1c1.2-0.1,2.4-0.1,3.5-0.2c1.1-0.1,2.2-1,2.2-2.2c-0.1-1.1-1-2.2-2.2-2.2c-1.2,0.1-2.4,0.1-3.5,0.2
			c-1.1,0.1-2.2,1-2.2,2.2C472.8,57,473.7,58.1,474.9,58.1L474.9,58.1z"/>
	</g>
	<g>
		<path class="st1" d="M489.7,60.1c-0.6-2.7-1.5-6.9-0.6-9.6c0.2-0.7,0.6-1.3,1.3-1.6c0.6-0.2,2.7-0.2,2.6,0.9
			c-0.1,1.2-3.6,1.6-4.4,1.7c-2,0.2-3.2,2.9-1.1,4.1c1.9,1.1,6.2,2.6,6.4,5.1c0.2,2.8,4.6,2.8,4.4,0c-0.4-4.9-4.8-6.7-8.6-8.9
			c-0.4,1.4-0.7,2.7-1.1,4.1c3.1-0.3,7.7-1.2,8.6-4.8c0.9-3.3-1.7-6.3-4.9-6.7c-9.5-1.3-8.2,11.1-6.9,16.9
			C486.1,64,490.3,62.8,489.7,60.1L489.7,60.1z"/>
	</g>
	<g>
		<path class="st1" d="M499.1,47.9c1.6,4.2,2.8,8.5,3.7,12.9c0.4,1.9,3.1,2.1,4,0.5c2.4-4.2,4.8-8.4,7.2-12.6
			c1.4-2.5-2.4-4.7-3.8-2.2c-2.4,4.2-4.8,8.4-7.2,12.6c1.3,0.2,2.7,0.3,4,0.5c-0.9-4.4-2.2-8.7-3.7-12.9
			C502.4,44.1,498.1,45.2,499.1,47.9L499.1,47.9z"/>
	</g>
	<g>
		<path class="st1" d="M516.2,48.7c-0.1,2.3-0.2,4.5-0.6,6.8c-0.2,1.6-1,3.5-0.7,5.1c0.3,1.3,1.2,1.9,2.5,2.1
			c2.2,0.3,4.3,0.2,6.5,0.8c2.7,0.7,3.9-3.5,1.2-4.2c-1.3-0.4-2.6-0.6-3.9-0.8c-0.6-0.1-1.3-0.1-1.9-0.2c-0.3,0-0.6,0-1,0
			c-0.6,0-0.6,0-0.1,0.1c0.4,0.6,0.7,1.3,1.1,1.9c-0.1-1.8,0.6-3.8,0.9-5.6c0.3-2,0.4-4,0.5-6C520.6,45.8,516.3,45.8,516.2,48.7
			L516.2,48.7z"/>
	</g>
	<g>
		<path class="st1" d="M520.1,55.5c-0.4,0,0.5,0.2,0.2,0.1c1,0.5,2.4,0.3,3-0.8c0.6-1,0.3-2.4-0.8-3c-0.8-0.4-1.5-0.6-2.4-0.7
			c-1.1-0.1-2.2,1.1-2.2,2.2C517.9,54.5,518.8,55.4,520.1,55.5L520.1,55.5z"/>
	</g>
	<g>
		<path class="st1" d="M518.8,49.8c2.5,0,5,0.2,7.4,0.8c2.7,0.6,3.9-3.6,1.2-4.2c-2.8-0.7-5.7-1-8.6-1C516,45.4,516,49.8,518.8,49.8
			L518.8,49.8z"/>
	</g>
	<g>
		<path class="st1" d="M534.5,62.6c0.3-3,1.2-6,2.6-8.7c0.3-0.6,0.6-1.2,1-1.7c0.9-1.7,2-1.8,3.3-0.2c-0.8,0.9-4.2,0.1-5.1-0.1
			c-2.7-0.7-3.9,3.5-1.2,4.2c3,0.8,6.4,4.1,5.9,7.4c-0.4,2.8,3.8,3.9,4.2,1.2c0.8-5.7-3.3-11.4-9-12.8c-0.4,1.4-0.8,2.8-1.2,4.2
			c3.1,0.8,8.3,1.2,10.5-1.8c1.9-2.7,0-6.4-2.8-7.6c-8.5-3.8-12.1,10.2-12.8,15.8C529.8,65.4,534.2,65.4,534.5,62.6L534.5,62.6z"/>
	</g>
	<g>
		<path class="st2" d="M416,282c0.2,2.8,0.4,5.7,0.6,8.5c0.2,2.8,4.6,2.8,4.4,0c-0.2-2.8-0.4-5.7-0.6-8.5
			C420.1,279.2,415.8,279.2,416,282L416,282z"/>
	</g>
	<g>
		<path class="st2" d="M417.2,277.3c2.8,0,2.8-4.4,0-4.4C414.4,273,414.4,277.3,417.2,277.3L417.2,277.3z"/>
	</g>
	<g>
		<path class="st2" d="M429,291c-0.2-4-0.4-7.9-0.7-11.9c-1.1,0.6-2.2,1.3-3.3,1.9c1.8,1,3,3.8,4.1,5.5c1.4,2,2.7,4,4.1,6
			c1,1.5,3.5,1.4,4-0.5c1.1-4.2,1.4-8.4,0.9-12.7c-0.4-2.8-4.7-2.8-4.4,0c0.5,3.9,0.3,7.7-0.7,11.5c1.3-0.2,2.7-0.3,4-0.5
			c-1.7-2.6-3.5-5.1-5.2-7.7c-1.3-1.9-2.5-4.3-4.6-5.4c-1.4-0.8-3.4,0.2-3.3,1.9c0.2,4,0.4,7.9,0.7,11.9
			C424.8,293.8,429.2,293.8,429,291L429,291z"/>
	</g>
	<g>
		<path class="st2" d="M440.2,278.6c-0.1,4.2,0.2,8.3,0.8,12.4c0.5,2.8,4.7,1.6,4.2-1.2c-0.6-3.7-0.8-7.4-0.7-11.2
			C444.7,275.8,440.3,275.8,440.2,278.6L440.2,278.6z"/>
	</g>
	<g>
		<path class="st2" d="M443.3,280.7c1.4-0.2,2.9-0.2,4.3,0.1c1.2,0.2,2.4-0.3,2.7-1.5c0.3-1.1-0.4-2.5-1.5-2.7
			c-1.8-0.4-3.6-0.5-5.4-0.3c-1.2,0.1-2.2,0.9-2.2,2.2C441.1,279.6,442.1,280.8,443.3,280.7L443.3,280.7z"/>
	</g>
	<g>
		<path class="st2" d="M444.9,287.2c0.2-0.1,0.5-0.1,0.9-0.1c1.1,0.1,2.2-1.1,2.2-2.2c-0.1-1.3-1-2.1-2.2-2.2
			c-1.1-0.1-2.1,0.2-3.1,0.7c-1.1,0.5-1.3,2-0.8,3C442.5,287.5,443.8,287.7,444.9,287.2L444.9,287.2z"/>
	</g>
	<g>
		<path class="st2" d="M458.2,276.9c-3.9-0.2-6.2,1.9-6.8,5.6c-0.6,3.4,0.3,7.5,4.2,8.4c2.8,0.7,7.3-0.8,8.6-3.6
			c1.7-3.2-1-7.6-3.4-9.7c-2.1-1.9-5.2,1.2-3.1,3.1c1.1,1,2.2,2.4,2.5,3.9c0.1,0.8,0,0.9-0.7,1.3c-0.6,0.3-1.5,0.7-2.2,0.7
			c-1.9,0.1-1.9-1.9-1.6-3.4c0.3-1.7,0.8-2.1,2.5-2.1C461,281.4,461,277,458.2,276.9L458.2,276.9z"/>
	</g>
	<g>
		<path class="st2" d="M367.9,265.4c15.5-1.2,29.3,8.3,34.1,23c3.5,10.7,9.4,16.3,20.9,18c25.7,3.7,53.1-10.2,69.4-29.5
			c1.8-2.1-1.3-5.3-3.1-3.1c-9.3,10.9-21,19.3-34.5,24.1c-11.6,4.1-28.1,7.7-39.7,1.7c-6.8-3.5-7.5-9.7-10-16.1
			c-1.9-4.8-5-9.2-8.8-12.7c-7.7-7.1-17.8-10.7-28.2-9.9C365.1,261.2,365.1,265.6,367.9,265.4L367.9,265.4z"/>
	</g>
	<g>
		<path class="st2" d="M481.5,276.7c1.6-0.2,3.2-0.4,4.8-0.6c1.2-0.2,3.2-0.8,4.3-0.4c-0.4-0.3-0.9-0.7-1.3-1
			c0.9,1.3,0.5,4.4,0.5,5.9c0,2.1-0.3,4.2-0.7,6.3c-0.5,2.8,3.7,3.9,4.2,1.2c0.5-2.6,0.8-5.3,0.9-8c0-2.1,0.2-4.9-0.7-6.8
			c-0.7-1.5-1.9-2-3.5-2c-2.8,0.1-5.8,0.8-8.6,1.1C478.7,272.7,478.7,277.1,481.5,276.7L481.5,276.7z"/>
	</g>
	<g>
		<path class="st2" d="M413.3,260c-0.2,4.5,1.3,12.3,7.4,11.5c6-0.8,6.7-8.3,6.3-12.9c-0.3-2.8-4.6-2.8-4.4,0
			c0.2,2.4,0.8,7.1-1.9,8.4c-2.9,1.4-3-5.6-3-6.9C417.8,257.2,413.4,257.2,413.3,260L413.3,260z"/>
	</g>
	<g>
		<path class="st2" d="M438,256.2c-2.1-0.5-4.2-0.5-5.9,1c-1.4,1.2-2.1,3.2-1.5,5c0.7,1.8,2.2,2.2,3.6,3.3c1.2,0.8,0.5,1.8-0.9,1.9
			c-1.2,0.1-2.3-0.6-3.3-1.1c-2.4-1.4-4.6,2.3-2.2,3.8c3.5,2.1,8.9,2.8,11-1.6c0.8-1.6,0.6-3.7-0.5-5.1c-0.6-0.8-1.4-1.2-2.2-1.7
			c-0.2-0.1-1.1-0.4-1.2-0.7c-0.3-1,1.6-0.5,1.9-0.4C439.5,261.1,440.7,256.8,438,256.2L438,256.2z"/>
	</g>
	<g>
		<path class="st2" d="M440.4,258.7c1.6,3.7-0.1,7.5,0.5,11.3c0.5,3.3,5,3.1,7.5,3.1c2.8,0,2.8-4.4,0-4.4c-0.6,0-1.2,0-1.8,0
			c-0.5,0-1-0.1-1.5-0.2c-0.7-0.1-0.8-0.1-0.2,0c0.4,0.2,0.5,0.1,0.4-0.3c0-0.3,0-0.6,0-0.9c0-0.7,0.1-1.4,0.1-2.2
			c0.1-2.6,0.3-5.1-0.8-7.5C443.5,255,439.3,256.1,440.4,258.7L440.4,258.7z"/>
	</g>
	<g>
		<path class="st2" d="M443.8,265.1c0.8-0.1,1.8-0.1,2.7,0c1.1,0.1,2.2-1.1,2.2-2.2c-0.1-1.3-1-2.1-2.2-2.2c-1.3-0.1-2.6,0-3.9,0.2
			c-1.2,0.2-1.8,1.6-1.5,2.7C441.5,264.9,442.7,265.3,443.8,265.1L443.8,265.1z"/>
	</g>
	<g>
		<path class="st2" d="M443,259.2c1.5-0.3,3-0.4,4.5-0.2c1.2,0.1,2.2-1.1,2.2-2.2c0-1.3-1-2.1-2.2-2.2c-1.9-0.2-3.8,0-5.7,0.4
			c-1.2,0.3-1.8,1.6-1.5,2.7C440.7,258.9,441.9,259.5,443,259.2L443,259.2z"/>
	</g>
	<g>
		<path class="st2" d="M457.4,269.1c-0.6-2.9-0.9-5.8-0.8-8.7c0-0.6,0-1.1,0.1-1.7c1.8-0.9,2.6-0.5,2.3,1.2c-0.3,1.7-2,2.1-3.4,2.1
			c0,1.5,0,2.9,0,4.4c2.8-0.1,3.9,2.5,4.5,4.8c0.8,2.7,5,1.6,4.2-1.2c-1.2-4.3-3.9-8.2-8.7-8c-2.8,0.1-2.8,4.3,0,4.4
			c3.1,0.1,6.2-1.4,7.4-4.5c1.2-3.1,0-6.7-3.1-8.1c-9.6-4.3-7.6,12.1-6.7,16.6C453.8,273,458,271.8,457.4,269.1L457.4,269.1z"/>
	</g>
	<g>
		<path class="st1" d="M374.5,162.9c4.4,0.3,8.9,0.4,13.3,0.3c2.8-0.1,2.8-4.4,0-4.4c-4.4,0.1-8.9,0-13.3-0.3
			C371.7,158.3,371.7,162.7,374.5,162.9L374.5,162.9z"/>
	</g>
	<g>
		<path class="st1" d="M376.1,155.8c1.8,3.4,3.5,6.9,4.9,10.5c1.1,2.6,5.3,1.4,4.2-1.2c-1.6-3.9-3.4-7.8-5.4-11.5
			C378.6,151.1,374.8,153.3,376.1,155.8L376.1,155.8z"/>
	</g>
	<g>
		<path class="st1" d="M383.8,142.8c-3,2.1-5.1,7.5-1.5,10.1c1.7,1.2,3.8,0.7,5.3-0.4c0.9-0.6,2.1-2.4,1.7-0.2
			c-0.3,1.3-0.8,2.6-1.3,3.8c-1.1,2.6,3.2,3.7,4.2,1.2c1.2-3,3.1-8-0.5-10.1c-1.6-0.9-3.4-0.5-4.9,0.4c-0.3,0.2-1.9,1.6-2,1.6
			c-0.7-0.3,0.8-2.4,1.1-2.6C388.3,144.9,386.1,141.1,383.8,142.8L383.8,142.8z"/>
	</g>
	<g>
		<path class="st1" d="M391,131.9c-2.5,2.9-6.2,8.8-1.9,12c1.8,1.3,3.7,0.5,5.3-0.6c0.8-0.5,1.3-0.9,2.2-1.1
			c0.8-0.2,0.7-0.9-0.1,0.7c-0.6,1.4-1.4,2.6-2.3,3.8c-1.7,2.3,2.1,4.4,3.8,2.2c2-2.7,6-8.8,1.1-10.8c-1.9-0.8-4.3-0.3-6,0.7
			c-1.2,0.7-1.9,2.2-1.5,0.1c0.2-1.5,1.5-2.9,2.5-4C395.9,132.9,392.8,129.8,391,131.9L391,131.9z"/>
	</g>
	<g>
		<path class="st1" d="M568.1,135.1c2.8,0,2.8-4.4,0-4.4C565.3,130.7,565.3,135.1,568.1,135.1L568.1,135.1z"/>
	</g>
	<g>
		<path class="st1" d="M579.1,134.8c2.8,0,2.8-4.4,0-4.4C576.3,130.4,576.3,134.8,579.1,134.8L579.1,134.8z"/>
	</g>
	<g>
		<path class="st1" d="M565.5,127.4c0.9,1.2,2,2.1,3.5,2.5c1.1,0.3,2.4-0.4,2.7-1.5c0.3-1.1-0.3-2.4-1.5-2.7c-0.1,0-0.3-0.1-0.4-0.1
			c0.3,0.1-0.1-0.1-0.2-0.1c-0.3-0.2,0.2,0.2-0.1-0.1c0,0-0.3-0.4-0.2-0.2c-0.7-1-1.9-1.4-3-0.8C565.4,125,564.8,126.4,565.5,127.4
			L565.5,127.4z"/>
	</g>
	<g>
		<path class="st1" d="M577.7,130.1c1.1-0.6,2.3-1.3,3.4-1.9c1-0.6,1.4-2,0.8-3c-0.6-1-2-1.4-3-0.8c-1.1,0.6-2.3,1.3-3.4,1.9
			c-1,0.6-1.4,2-0.8,3C575.3,130.3,576.7,130.7,577.7,130.1L577.7,130.1z"/>
	</g>
	<g>
		<path class="st1" d="M564.7,139c0.2,3.4,4.6,3.3,7.2,3.4c2.6,0.1,6.8,0.4,8.7-1.8c1.8-2.1-1.3-5.2-3.1-3.1
			c-0.7,0.8-3.5,0.5-4.4,0.5c-1.4,0-3.8,0.2-5.1-0.6c0.4,0.6,0.7,1.3,1.1,1.9c0-0.1,0-0.2,0-0.3C568.9,136.2,564.6,136.2,564.7,139
			L564.7,139z"/>
	</g>
	<g>
		<path class="st2" d="M627.4,187c1.1-0.9,2.3-1.8,3.4-2.7c0.9-0.7,0.8-2.3,0-3.1c-0.9-0.9-2.2-0.7-3.1,0c-1.1,0.9-2.3,1.8-3.4,2.7
			c-0.9,0.7-0.8,2.3,0,3.1C625.2,187.9,626.4,187.7,627.4,187L627.4,187z"/>
	</g>
	<g>
		<path class="st2" d="M643,182.1c-1.3-0.8-2.7-1.5-4.2-2c-1.1-0.4-2.4,0.4-2.7,1.5c-0.3,1.2,0.4,2.3,1.5,2.7c1.1,0.4,2,0.8,3.1,1.5
			c1,0.6,2.4,0.2,3-0.8C644.4,184,644,182.7,643,182.1L643,182.1z"/>
	</g>
	<g>
		<path class="st2" d="M629.9,191.8c2.8,0,2.8-4.4,0-4.4C627.1,187.4,627.1,191.8,629.9,191.8L629.9,191.8z"/>
	</g>
	<g>
		<path class="st2" d="M638,191.4c2.8,0,2.8-4.4,0-4.4C635.2,187,635.2,191.4,638,191.4L638,191.4z"/>
	</g>
	<g>
		<path class="st2" d="M628.3,197.5c2.4,4.2,10.1,4.5,12.1-0.3c0.5-1.1,0.3-2.3-0.8-3c-0.9-0.5-2.5-0.3-3,0.8
			c-0.7,1.7-3.6,1.9-4.5,0.3C630.7,192.9,626.9,195.1,628.3,197.5L628.3,197.5z"/>
	</g>
</g>
</svg>
