<?xml version="1.0" encoding="utf-8"?>
<!-- Generator: Adobe Illustrator 22.0.0, SVG Export Plug-In . SVG Version: 6.00 Build 0)  -->
<svg version="1.1" id="Layer_1" xmlns="http://www.w3.org/2000/svg" xmlns:xlink="http://www.w3.org/1999/xlink" x="0px" y="0px"
	 viewBox="0 0 666 384" style="enable-background:new 0 0 666 384;" xml:space="preserve">
<style type="text/css">
	.st0{fill:#212121;}
	.st1{fill:#FF4217;}
</style>
<g>
	<g>
		<g>
			<g>
				<g>
					<path d="M307.6,146.2c3.5,21.7,4.3,43.7,2.5,65.6c-0.3,3.1,4.5,3.1,4.8,0c1.9-22.4,1-44.8-2.6-66.9
						C311.8,141.8,307.1,143.1,307.6,146.2L307.6,146.2z"/>
				</g>
				<g>
					<path d="M300.7,259.9c-3.6,0.4-7.1,1.2-10.5,2.7c-2.8,1.3-0.4,5.4,2.5,4.1c2.6-1.2,5.3-1.8,8-2.1
						C303.8,264.5,303.8,259.7,300.7,259.9L300.7,259.9z"/>
				</g>
				<g>
					<path d="M305.6,266c-1.2,3.2-2.7,6.3-4.7,9.3c-1.7,2.6,2.5,5,4.1,2.5c2.1-3.2,3.8-6.7,5.2-10.3
						C311.3,264.3,306.6,263,305.6,266L305.6,266z"/>
				</g>
				<g>
					<path d="M290.3,271.1c3.1,0,3.1-4.8,0-4.8C287.2,266.1,287.2,271.1,290.3,271.1L290.3,271.1z"/>
				</g>
				<g>
					<path class="st0" d="M320.8,275.8c3.1,0,3.1-4.8,0-4.8S317.7,275.8,320.8,275.8L320.8,275.8z"/>
				</g>
				<g>
					<path d="M303.1,283.2c3.1,0,3.1-4.8,0-4.8C300,278.4,300,283.2,303.1,283.2L303.1,283.2z"/>
				</g>
				<g>
					<path d="M393.1,165.3c-37.5,22.4-76.8,41.5-112.4,67.1c-0.6,0.5-1.3,1.2-1.2,2.1c4.9,37.5,9.4,75.5,3.9,113.3
						c-0.4,3.1,4.3,4.4,4.7,1.3c3-20.3,3.4-40.7,2.1-61.2c-0.6-10.2-1.7-20.6-2.8-30.8c-0.6-5.6-1.7-11.1-2.1-16.7
						c-0.4-6.2,2.7-7.4,7.6-10.6c32.9-22.4,68.7-40,102.8-60.4C398.2,167.8,395.7,163.7,393.1,165.3L393.1,165.3z"/>
				</g>
				<g>
					<path d="M374.9,369.4c0.1-26,1.3-53.2,6.7-78.5c2.8-13.5,11.4-18.6,22.4-25.4c11.1-6.9,22.4-13.7,33.6-20.4
						c21.7-13.1,43.7-25.6,65.2-39.2c6.3-4,12.8-9.1,15-16.7c2.5-8.5-1.7-16.6-6.9-23.2c-1.9-2.5-5.3,1-3.4,3.4
						c5,6.5,8.4,14.6,3.8,22.4c-3,4.9-8.1,8.1-12.9,11c-9.8,6-19.7,11.9-29.5,17.7c-21.1,12.7-42.3,25.4-63.3,38.3
						c-7.5,4.7-16.3,8.8-22.1,15.7c-5.4,6.5-6.7,15.1-8,23.3c-3.5,23.7-5.3,47.6-5.6,71.7C370.1,372.5,374.9,372.5,374.9,369.4
						L374.9,369.4z"/>
				</g>
				<g>
					<path d="M286.2,229.7c-19.3,18.2,16.3,37.5,29.1,43.6c23.4,11,50.2,14.1,74,2.3c2.8-1.4,0.4-5.6-2.5-4.1
						c-18.8,9.2-40,8.5-59.2,1.7c-11-3.9-55.4-23.4-37.9-40C291.9,231,288.5,227.6,286.2,229.7L286.2,229.7z"/>
				</g>
				<g>
					<path d="M455.2,233.8c-0.5,12-1.6,24.1-3.4,36c-0.4,3.1,4.3,4.4,4.7,1.3c1.8-12.4,3-24.7,3.5-37.3
						C460.3,230.7,455.4,230.7,455.2,233.8L455.2,233.8z"/>
				</g>
				<g>
					<path d="M393.3,187.9c-3.6-4.1-9.4-7.1-14.6-3.8c-2.6,1.7-0.1,5.8,2.5,4.1c3.2-2.1,6.6,0.5,8.7,3
						C392,193.7,395.3,190.2,393.3,187.9L393.3,187.9z"/>
				</g>
				<g>
					<path d="M378.8,184.9c-10.9,9.7-24.7,14.7-37.1,22.1c-7.6,4.5-11.9,10.2-6,18.4c15.8,21.6,39.2-2.6,54.7-11.8
						c2.7-1.6,0.3-5.8-2.5-4.1c-9.6,5.7-39.8,33.6-48.4,12.9c-4.3-10.3,15-16.8,22.1-20.6c7.4-3.9,14.4-8,20.6-13.6
						C384.6,186.2,381.1,182.7,378.8,184.9L378.8,184.9z"/>
				</g>
				<g>
					<path d="M331.6,230.6c-2.8-3.9-9.8-10.2-15.1-7.2c-5.2,2.8-2.8,13.5-0.1,17.3c2.8,4,10.2,10.1,15.5,6.5
						c4.9-3.4,1.3-12.5-0.9-16.4c-1.6-2.7-5.7-0.3-4.1,2.5c1.2,1.9,3.4,6.6,2.5,9.1c-1.3,3.5-7.8-2.6-9.1-4.4c-1-1.6-1.4-3.2-1.6-5
						c0-0.6-0.4-3.6,0.1-4.3c2.2-2.5,7.5,3.1,8.7,4.7C329.2,235.5,333.5,233,331.6,230.6L331.6,230.6z"/>
				</g>
				<g>
					<path d="M330.4,248c12.2,1.8,25-0.5,36.9,2.6c10.9,2.8,16.8,11.6,28.6,11.8c5.2,0,9.3-0.9,14.4,1.4c2.2,1,4,2.7,6.2,3.9
						c3.5,1.9,7.1,2.8,11.1,3c11,0.6,24.1-0.3,34.4-4.4c7.8-3.2,15-8.9,18.4-16.9c1.7-4.1,1.7-8.1,1.9-12.5c0.3-4,0.3-7.8,3.2-11
						c2.1-2.2,5-3.5,7.4-5.3c6.9-5.2,7.8-14.2,7.9-22.4c0.1-5.4-2.2-9.1-3.2-14.2c-0.9-4.4,2.3-8.1-0.4-11.9c-1.8-2.5-6-0.1-4.1,2.5
						c1,1.4-0.8,7.5-0.4,9.7c1.2,5.6,3.6,9.3,3.4,15.4c-0.3,7.1-1.2,13.6-7.2,18.1c-2.8,2.1-5.8,3.6-7.9,6.5
						c-4.8,6.5-2.2,14.5-4.3,21.7c-3.5,11.8-16,17.3-27,19.1c-5.4,0.9-11,1-16.4,1.2c-7.2,0.1-12-1.3-18.2-4.9
						c-9.1-5.4-18.8-0.6-27.9-4.9c-3.8-1.8-6.6-5-10.3-7c-3.8-1.9-7.8-3.1-11.9-3.8c-11-1.8-22.1-0.1-33-1.8
						C328.6,243,327.3,247.7,330.4,248L330.4,248z"/>
				</g>
				<g>
					<path d="M376.5,224.1c3.4-0.9,6.9-0.6,10.1,0.8c2.8,1.3,5.3-3,2.5-4.1c-4.5-1.9-9.1-2.5-13.8-1.3
						C372.1,220.2,373.4,224.9,376.5,224.1L376.5,224.1z"/>
				</g>
				<g>
					<path d="M448.1,193.3c1.7,6.6,3.5,13.2,5.7,19.7c1.4,4.4,2.6,10.3,5.7,14c2.1,2.6,4.8,3.6,8,4c3.5,0.5,6.9,0,10.3,0.6
						c2.6,0.5,5.2,1.8,7.8,2.2c7.5,1.2,11.9-3.8,12.9-10.9c0.6-4.8,0-9.8-1.7-14.2c-2.3-6.1-7.4-10.7-8.1-17.5
						c-0.4-3.1-5.2-3.1-4.8,0c0.6,5.8,3.5,9.7,6.2,14.7c2.3,4.3,4,8.8,3.9,13.7c0,1.7-0.1,5.7-1.6,7c-2.6,2.6-8.8,1.6-11.9,0.8
						c-3.1-0.8-6.2-0.6-9.3-1.2c-3.5-0.5-7.4-1.9-9.3-4.8c-1-1.6-1.6-3.9-2.1-5.6c-2.7-7.9-5-15.8-7-23.9
						C452,188.9,447.3,190.2,448.1,193.3L448.1,193.3z"/>
				</g>
				<g>
					<path d="M450.7,189.2c-1,0.3-2.1,0.5-3.1,0.8c-2.2,0.6-2.3,4.1,0,4.7c1.2,0.3,2.2,0.1,3.2-0.5c1.2-0.6,1.6-2.2,0.9-3.4
						c-0.6-1.2-2.2-1.6-3.4-0.9c0.1,0,0.3,0,0.4,0c0,1.6,0,3.1,0,4.7c1-0.3,2.1-0.5,3.1-0.8c1.3-0.4,2.1-1.7,1.7-3
						C453.4,189.6,452,188.8,450.7,189.2L450.7,189.2z"/>
				</g>
				<g>
					<path d="M321.7,208.3c-0.8-4.5-3-7.9-6.2-11.1c-1.8-1.8-3.9-3.5-5.7-5.4c-3.2-3.6-3.5-7.4-4.1-11.9
						c-1.6-10.6-8.9-12.4-18.2-9.3c-1.3,0.4-1.9,1.8-1.3,3.1c0.8,1.4,2.1,4.5,4.3,4.3c0.9-0.1,1.8-0.5,2.1-1.6
						c0.5-2.7-1.4-6.2-4.4-5.8c-1.7,0.3-2.6,1.7-1.8,3.2c4.8,10.1,4.1,19,4.5,29.6c0.3,7.1,3,13.3,6.6,19.5c1.4,2.3,5,0.3,3.6-2.2
						c-5.4-9.1-5.8-16.3-5.8-26.5c0-7.9-2.1-15.5-5.4-22.6c-0.6,1-1.2,2.1-1.8,3.2c0.3,0.6,0.4,0.9,0.4,0.5c0.6-0.5,1.4-1,2.1-1.6
						c0.8-0.5,0.6-1.3-0.5-2.1c-0.4,1-0.9,2.1-1.3,3.1c1.9-0.6,4.9-1.8,7-1.6c6.2,0.9,5.8,6.7,6.3,10.9c0.4,3.2,0.9,5.7,3,8.4
						c4.4,6,11.5,9.3,12.9,17.2C318.1,212.2,322.1,211,321.7,208.3L321.7,208.3z"/>
				</g>
				<g>
					<path d="M307.8,145.1c-2.8,6.5-5.7,13.3-4.9,20.6s4.7,13.6,9.1,19.3c9.7,12.7,23.3,21.6,36.5,30.3c2.6,1.7,5-2.5,2.5-4.1
						c-10.3-6.9-20.7-13.7-29.4-22.5c-4.3-4.4-8.4-9.3-11.3-14.9c-4.4-9.1-2.1-17.2,1.7-26.1C313.1,144.7,308.9,142.2,307.8,145.1
						L307.8,145.1z"/>
				</g>
				<g>
					<path d="M312,149.1c11.4,3.8,22.1,13.3,30.9,21.1c10.5,9.3,17.7,20.3,23.2,33.2c1.2,2.8,5.8,1.6,4.7-1.3
						c-5.7-13.7-13.2-25.5-24.3-35.4c-9.6-8.4-20.8-18.2-33-22.4C310.4,143.5,309.1,148.2,312,149.1L312,149.1z"/>
				</g>
			</g>
			<g>
				<path d="M313,145.5c0.1-4.1-0.4-8.3-1.2-12.3c-0.6-3.1-5.3-1.8-4.7,1.3c0.8,3.6,1.2,7.4,1,11.1C308,148.6,313,148.6,313,145.5
					L313,145.5z"/>
			</g>
			<g>
				<g>
					<g>
						<path d="M349.4,109.8c-0.1,2.6,3.9,3.6,4.3,0.9c0.1-0.4,0.1-0.7,0.1-1.1C353.6,107.3,350,107.4,349.4,109.8z"/>
						<path d="M351.4,97.5c-1.4-6.4-2.7-12.8-4.6-19.1c-3.1-10.4-7.3-22.4-13.4-31.5c-10.8-16.2-34.9-17.4-50.7-9.1
							c-7.9,4.1-12.9,8-17,15.9c-4.7,9.3-8.2,18.6-8,29.1c0.1,4.4,0.6,8.6-0.9,12.9c-1,3.1-2.9,6-4.4,8.9c-2.4,5-4.6,10.1-6.5,15.3
							c-2.2,5.9-4.2,11.8-6,17.8c-0.6,2.1-1.1,3.7-1.2,5.3c1.5-0.3,3-1.3,4.5-1.9c0.6-3.5,2.6-7.6,3.4-9.9c1.4-4.2,2.9-8.5,4.5-12.6
							c3.2-8.3,9.4-16.7,10.8-25.5c1.4-8.8-0.5-17.1,2.6-25.9c3-8.8,6.6-16.9,14.5-22.1c8.6-5.6,18-9.4,28.4-7.6
							c10.3,1.8,19.4,6.2,24.3,15.8c4.5,8.8,8.3,18.2,11,27.7c1.3,4.5,2.3,9.1,3.3,13.7c0.8,3.8,3.8,11.2,3.2,14.9
							c0,0.1,0,0.2,0,0.3c0.5-2.3,4.1-2.4,4.4-0.2C354,105.6,352.2,101.3,351.4,97.5z"/>
					</g>
					<g>
						<path d="M299.8,49.2c2.7,6.7,5,13.5,6.9,20.5c1-0.7,1.9-1.5,2.9-2.2c-18.1-7.8-39.4,4.9-49.6,20c-1.4,2.1,2,4,3.4,2
							c8.9-13,28.4-25.4,44.3-18.6c1.5,0.6,3.3-0.4,2.9-2.2c-1.9-7-4.1-13.8-6.9-20.5C302.6,45.9,298.8,46.9,299.8,49.2L299.8,49.2z
							"/>
					</g>
					<g>
						<path d="M305.3,49.7c4,9.9,6.6,20.1,7.7,30.8c0.3,2.5,4.1,2.5,3.9,0c-1.2-11-3.7-21.5-7.8-31.8
							C308.1,46.4,304.3,47.4,305.3,49.7L305.3,49.7z"/>
					</g>
					<g>
						<path d="M310.1,49c3.1,6.9,5.3,14,6.7,21.3c0.2,0.9,1.5,1.7,2.4,1.4c6.9-2.8,13.8-3.2,20.9-1c2.4,0.7,3.4-3,1-3.7
							c-7.7-2.3-15.5-2-23,1c0.8,0.5,1.6,0.9,2.4,1.4c-1.5-7.7-3.9-15.1-7.1-22.3C312.4,44.8,309.1,46.8,310.1,49L310.1,49z"/>
					</g>
					<g>
						<path d="M316.5,79.3c-3.7-6.3-14.9-7-21.2-5.1c-8.1,2.5-13.9,9.6-17,17.3c-4.1,10-4,20.9-6.2,31.4c-0.7,3.3-1.5,7.3-3.2,10.2
							c-2,3.4-5,3.9-8.6,4.5c-5.9,1-11.6,2.7-17.2,4.8c-2.3,0.9-1.3,4.6,1,3.7c4.9-1.8,9.9-3.4,15-4.4c3-0.6,7.4-0.3,10-2.1
							c5.5-3.7,6.8-15.5,7.7-21.2c1.6-10,2-20.8,7.2-29.8c2.8-4.7,7-8.9,12.3-10.6c4.3-1.4,14.3-1.1,16.9,3.3
							C314.4,83.4,317.8,81.5,316.5,79.3L316.5,79.3z"/>
					</g>
					<g>
						<path d="M317.2,82.1c6-7.6,18.3-5.7,25.8-1.7c2.2,1.2,4.2-2.2,2-3.4c-8.9-4.8-23.4-6.7-30.5,2.3
							C312.9,81.3,315.7,84.1,317.2,82.1L317.2,82.1z"/>
					</g>
					<g>
						<path d="M332.2,130.8c-9.4,0.2-18.9,0.2-28.3,0.7c-2.5,0.1-2.5,4,0,3.9c9.4-0.5,18.8-0.5,28.3-0.7
							C334.7,134.6,334.7,130.8,332.2,130.8L332.2,130.8z"/>
					</g>
					<g>
						<path d="M339.6,130c-1.9-2.1-5.3-1.3-6.9,0.7c-0.8,1-1.1,2.3-1,3.6c0.1,1.4,1.1,2.5,2.3,3.2c1.1,0.6,2.4,1,3.6,0.9
							c1.5-0.1,2.3-1,3-2.3C341.8,133.8,341.3,131.7,339.6,130c-1.7-1.8-4.5,0.9-2.7,2.7c0.1,0.1,0.5,0.4,0.6,0.7
							c0.1,0.4-0.3,1.2-0.7,1.5c0.3-0.2,0.6-0.3,0.9-0.5c-0.4,0.1-0.8,0-1.2-0.1c-0.2-0.1-0.4-0.3-0.7-0.3c-0.1-0.1-0.2-0.2-0.3-0.3
							c0.1,0.4,0.2,0.4,0.1,0.1c0.1-0.4,0-0.6,0.3-0.9c0.3-0.3,0.7-0.4,0.9-0.2C338.5,134.6,341.2,131.8,339.6,130z"/>
					</g>
					<g>
						<path d="M275.3,115.6c6,6.7,13.7,12.8,21.3,17.7c2.1,1.4,4-2,2-3.4c-7.2-4.7-14.7-10.6-20.5-17.1
							C276.4,111,273.6,113.7,275.3,115.6L275.3,115.6z"/>
					</g>
					<g>
						<path d="M272.5,133.2c7.7,3,16.4,3.4,24.5,4.6c2.4,0.4,3.5-3.4,1-3.7c-8.1-1.2-16.9-1.6-24.5-4.6
							C271.2,128.5,270.2,132.3,272.5,133.2L272.5,133.2z"/>
					</g>
					<g>
						<path d="M299.5,128.9c-3.3,1.4-5.4,6.2-2.2,8.9c0.8,0.7,2,0.8,2.7,0c0.7-0.7,0.8-2.1,0-2.7c-0.5-0.4-0.5-0.6-0.4-1.2
							c0.1-0.4,0.4-1,0.8-1.2c1-0.4,1.7-1.3,1.4-2.4C301.6,129.3,300.4,128.5,299.5,128.9L299.5,128.9z"/>
					</g>
					<g>
						<path d="M296.8,137.4c2.4,1.9,5.8,2.4,8,0c2.1-2.3,1.7-5.7-0.7-7.7c-0.8-0.7-2-0.8-2.7,0c-0.7,0.7-0.8,2.1,0,2.7
							c0.3,0.2,0.5,0.5,0.7,0.7c0.1,0.1,0.2,0.6,0.2,0.4c0,0,0,0.6,0,0.3c0,0.1,0,0.3-0.1,0.4c0,0.1-0.2,0.4-0.2,0.4
							c-0.4,0.4-0.6,0.5-1,0.6c-0.3,0-1-0.1-1.5-0.6c-0.8-0.7-2-0.8-2.7,0C296.1,135.3,296,136.7,296.8,137.4L296.8,137.4z"/>
					</g>
				</g>
				<g>
					<path d="M338.5,132.3c5.2,0.8,10,2.5,13.1-3.1c2.9-5.3,2.2-13.6,2.3-19.4c0-2.5-3.8-2.5-3.9,0c0,3.9-0.2,7.8-0.5,11.7
						c-0.2,2-0.2,4.5-1.5,6.2c-2.3,3.1-5.5,1.3-8.4,0.8C337.1,128.1,336,131.9,338.5,132.3L338.5,132.3z"/>
				</g>
				<g>
					<path d="M337.7,128.2c-3.3-5.3-5.5-11.2-8.5-16.6c-1.7-3-4.7-8.9-8.7-9.2c-3.8-0.3-5.6,4.9-7.2,7.3
						c-4.2,6.5-8.6,12.9-13.3,19.1c-1.5,2,1.9,3.9,3.4,2c2.9-3.9,5.8-7.9,8.5-12c1.6-2.4,6-12.2,9.5-11.6c2.7,0.5,6.1,9.6,7.2,11.9
						c1.8,3.8,3.5,7.5,5.8,11.1C335.7,132.3,339,130.3,337.7,128.2L337.7,128.2z"/>
				</g>
				<g>
					<path d="M312.4,132.1c-0.8-3.5-1.2-7-1.3-10.5c0-2.5-3.9-2.5-3.9,0c0,3.9,0.5,7.8,1.4,11.6
						C309.2,135.5,312.9,134.5,312.4,132.1L312.4,132.1z"/>
				</g>
				<g>
					<path d="M321.1,132.9c0.4-9,0.7-18,0.9-26.9c0-2.5-3.8-2.5-3.9,0c-0.2,9-0.5,18-0.9,26.9C317.1,135.4,321,135.4,321.1,132.9
						L321.1,132.9z"/>
				</g>
				<g>
					<path d="M328.4,118.6c0,4.2-0.9,8.2-2.9,12c-1.2,2.2,2.2,4.2,3.4,2c2.3-4.4,3.4-9,3.4-14C332.3,116.1,328.4,116.1,328.4,118.6
						L328.4,118.6z"/>
				</g>
			</g>
			<g>
				<path d="M344.1,131.8c2.5-3.9,4.4-8.1,5.4-12.6c0.6-2.8,1.8-7.4,0.4-10.1c-1.4-2.6-5.5-4.6-8-6c-3.7-2-7.4-3.2-11.7-3.1
					c-2.5,0.1-2.5,3.9,0,3.9c5.2-0.1,15,3,16.1,9.1c1,5.3-2.9,12.5-5.7,16.8C339.3,131.9,342.7,133.9,344.1,131.8L344.1,131.8z"/>
			</g>
			<g>
				<path d="M314.7,98.7c-7.9,0.6-19,1.8-25.3,7.1c-2.2,1.9-2.9,4.2-2.3,7c0.3,1.6,1.2,3,1.9,4.4c1.5,3.1,2.1,5.9,2.4,9.3
					c0.2,2.5,4.1,2.5,3.9,0c-0.2-2.8-0.5-5.6-1.5-8.2c-1-2.7-4.5-6.7-2.1-9.4c2.2-2.5,7.9-3.6,11-4.5c3.9-1,7.9-1.6,12-1.9
					C317.2,102.4,317.2,98.5,314.7,98.7L314.7,98.7z"/>
			</g>
			<g>
				<path d="M328.1,105.4c0.2,0.1,0.3,0.2,0.5,0.3c1.5,1,3.9-1.1,2.7-2.7c-1.2-1.5-1.9-2.4-3.1-3.8c-0.7-0.7-2.1-0.8-2.7,0
					c-2.3,2.6-6.3,1.8-8.7,0c-0.7-0.5-1.8-0.3-2.4,0.3c-7.9,8.3-15.2,17.8-21.1,27.6c-0.8,1.3,0.2,2.9,1.7,2.9
					c16.2,0.8,32.3,1.5,48.5,2.3c1.2,0.1,2.3-1.3,1.9-2.5c-3.6-9.8-8.4-18.8-14.5-27.2c-1.5-2-4.8-0.1-3.4,2
					c5.9,8.1,10.6,16.8,14.1,26.3c0.6-0.8,1.2-1.6,1.9-2.5c-16.2-0.8-32.3-1.5-48.5-2.3c0.6,1,1.1,1.9,1.7,2.9
					c5.7-9.6,12.8-18.8,20.5-26.8c-0.8,0.1-1.6,0.2-2.4,0.3c3.8,2.9,10,3.2,13.4-0.6c-0.9,0-1.8,0-2.7,0c0.8,1,1.7,2,2.5,3
					c0.9-0.9,1.8-1.8,2.7-2.7c-0.2-0.1-0.3-0.2-0.5-0.3C327.9,100.8,326,104.1,328.1,105.4z"/>
			</g>
			<g>
				<path d="M328.6,100.5c-1.3-2.8-4.7-6.4-8-6.5c-3.8-0.2-6.5,2.9-7.2,6.4c-0.5,2.4,3.3,3.5,3.7,1c0.4-2.1,1.9-4.4,4.3-3.1
					c1.6,0.8,3.1,2.6,3.8,4.2C326.2,104.7,329.6,102.8,328.6,100.5L328.6,100.5z"/>
			</g>
			<g>
				<path d="M321.5,96c-0.2-3-0.6-6-1.4-8.8c-0.9-3.1-2.7-5.9-3.4-9c-0.6-2.4-4.3-1.4-3.7,1c0.6,2.8,2.2,5.2,3,7.9
					c0.9,2.9,1.4,5.9,1.6,9C317.8,98.5,321.7,98.5,321.5,96L321.5,96z"/>
			</g>
			<g>
				<path d="M287.9,107.2c-2.4,2.8-8.2,2.9-11.6,3.5c-2.4,0.5-1.4,4.2,1,3.7c4.3-0.8,10.3-0.9,13.4-4.5
					C292.3,108.1,289.6,105.3,287.9,107.2L287.9,107.2z"/>
			</g>
			<g>
				<path d="M310.6,93.5c-3.8,3-11.2,3.2-15.7,3.6c-1.2,0.1-2.4,0.2-3.6,0.3c-1.8-0.1-2.5-1-2.1-2.7c-0.5-1.9,0.4-4.3,1.2-6
					c2.1-4.5,7.5-7.1,12.4-6.2c6.1,1.1,7.7,7,7.2,12.3c-0.2,2.5,3.7,2.5,3.9,0c0.6-6.8-2.2-14-9.4-15.9c-6.5-1.7-14.1,1.5-17.3,7.4
					c-2.1,3.9-3.9,13.5,2.2,14.8c3.7,0.8,8.5-0.5,12.2-1.1c4.2-0.7,8.3-1.2,11.7-3.9C315.3,94.7,312.5,92,310.6,93.5z"/>
			</g>
			<g>
				<path d="M326.9,96.4c4,1.5,13.6,5.2,16.5,0.2c3-5.1,0.3-13.5-4.7-16.2c-4.4-2.4-12.5-3.3-16,1c-1.9,2.3-2,5.8-1.6,8.7
					c0.5,3.2,2.5,4.9,5.4,6.1c2.3,1,4.3-2.4,2-3.4c-2.3-1-3.4-2.4-3.6-5.1c-0.2-2.6,0.6-4.5,3.2-5.2c3.3-0.9,8.5,0.2,10.7,2.9
					c1.2,1.5,1.8,3.6,2,5.5c0.1,1,0,2.1-0.3,3.1c-0.5,1-1.3,1.3-2.3,1c-3.1,0.5-7.2-1.3-10.1-2.3C325.6,91.8,324.6,95.5,326.9,96.4z
					"/>
			</g>
			<g>
				<path d="M487.3,20.4c-38.6-7.1-79.7-8.2-114.8,11.9c-2.2,1.2-0.2,4.6,2,3.4c34.1-19.5,74.3-18.4,111.8-11.5
					C488.8,24.6,489.8,20.9,487.3,20.4L487.3,20.4z"/>
			</g>
			<g>
				<path d="M373.3,26.2c-1.2,2.2-4.5,7.2-2.1,9.5c1.2,1.2,3.5,1.1,5,1.4c2.4,0.4,4.8,0.8,7.2,1.3c2.4,0.4,3.5-3.3,1-3.7
					c-2-0.3-3.9-0.7-5.9-1c-0.9-0.2-1.8-0.3-2.7-0.5c-0.4-0.1-2.4-0.5-2.1-0.3c0.2,0.5,0.4,0.9,0.6,1.4c-0.2-2.1,1.4-4.3,2.3-6.1
					C377.9,25.9,374.5,24,373.3,26.2L373.3,26.2z"/>
			</g>
			<g>
				<path d="M505,13.2c-4.1-1.4-9,0.1-8.3,5.2c0.2,1.8,1.4,3.1,3.1,3.7c0.5,0.2,1,0.2,1.4,0.4c0.3,0,0.6,0.1,0.9,0.3
					c0.4,0.1,0.4,0.3,0,0.5c-0.5,1.4-3.4,1-4.3,0.5c-2.1-1.3-4.1,2-2,3.4c3.3,2,10.1,0.7,10.4-3.9c0.1-2-1.1-3.5-2.9-4.2
					c-0.7-0.3-2.6-0.3-2.9-1.2c-0.6-2.1,2.7-1.1,3.4-0.8C506.3,17.8,507.3,14,505,13.2L505,13.2z"/>
			</g>
			<g>
				<path d="M507.5,15.1c-0.1,4.4-0.7,12.9,5.5,13c2.6,0,4.2-2.3,5.2-4.4c1.1-2.6,0.8-5.8,0.6-8.6c-0.2-2.5-4.1-2.5-3.9,0
					c0.2,1.7,0.3,3.5,0.2,5.2c-0.1,0.9-0.7,3.7-2,3.9c-2.1,0.4-1.7-7.7-1.7-9.1C511.4,12.6,507.5,12.6,507.5,15.1L507.5,15.1z"/>
			</g>
			<g>
				<path d="M520.9,15.2c0,3.6-0.1,7.2-0.4,10.8c-0.2,2.5,3.7,2.5,3.9,0c0.3-3.6,0.4-7.2,0.4-10.8C524.8,12.7,520.9,12.7,520.9,15.2
					L520.9,15.2z"/>
			</g>
			<g>
				<path d="M524,17c0.4-0.3,3.5-1.3,4-0.7c0.9,1.1-3.2,2.3-3.7,2.3c-2.4,0.3-2.5,4.1,0,3.9c1-0.1,4.3-0.4,3.9,1
					c-0.3,1.3-2.7,1.7-3.9,1.1c-2.2-1.2-4.2,2.2-2,3.4c3.3,1.7,8.6,0.4,9.8-3.4c1.5-4.9-4.4-6.3-7.9-5.9c0,1.3,0,2.6,0,3.9
					c3.3-0.3,9.1-2.8,7.9-7.1c-1.1-3.9-7.5-3.8-10.2-1.8C520.1,15.2,522,18.5,524,17L524,17z"/>
			</g>
			<g>
				<path d="M537.4,23.3c2,0.1,4.1,0.1,6.1,0c2.5-0.1,2.5-3.9,0-3.9c-2,0.1-4.1,0-6.1,0C534.9,19.3,534.9,23.2,537.4,23.3
					L537.4,23.3z"/>
			</g>
			<g>
				<path d="M548.7,17.4c1.6,0,3.2,0.1,4.7,0.2c1,0.1,3.1-0.2,4,0.3c-0.3-0.7-0.6-1.5-0.9-2.2c-0.5,2.1-3,4.4-4.7,5.6
					c-2,1.3-4.1,2.1-5.8,3.8c-1.3,1.3-0.2,3.2,1.4,3.3c4,0.4,7.9,1,11.9,0.7c2.5-0.2,2.5-4.1,0-3.9c-4,0.3-8-0.4-11.9-0.7
					c0.5,1.1,0.9,2.2,1.4,3.3c2-2,5-2.9,7.1-4.9c1.7-1.5,3.8-4,4.4-6.2c0.2-0.8-0.1-1.8-0.9-2.2c-1.3-0.8-3.1-0.6-4.5-0.8
					c-2-0.2-4.1-0.3-6.1-0.3C546.2,13.5,546.2,17.3,548.7,17.4L548.7,17.4z"/>
			</g>
			<g>
				<path d="M562.6,16.9c0.6,3.5,0.8,7,0.6,10.6c0,1,0.9,2.1,1.9,1.9c4.2-0.5,9,0.5,13.3,0.9c2.5,0.2,2.5-3.7,0-3.9
					c-4.3-0.4-9.1-1.4-13.3-0.9c0.6,0.6,1.3,1.3,1.9,1.9c0.2-3.9-0.1-7.8-0.8-11.6C565.9,13.4,562.2,14.5,562.6,16.9L562.6,16.9z"/>
			</g>
			<g>
				<path d="M566.3,23.3c1.2,0,2.4,0,3.6,0.1c1,0.1,1.9-0.9,1.9-1.9c0-1.1-0.9-1.9-1.9-1.9c-1.2-0.1-2.4-0.1-3.6-0.1
					C563.8,19.5,563.8,23.3,566.3,23.3L566.3,23.3z"/>
			</g>
			<g>
				<path d="M566,18.2c4-0.9,8.8-0.4,12.8-0.5c2.5-0.1,2.5-4,0-3.9c-4.5,0.1-9.5-0.3-13.9,0.7C562.5,15,563.5,18.7,566,18.2
					L566,18.2z"/>
			</g>
			<g>
				<path d="M586.4,29.3c-0.2-3.1-1.1-7.1-0.2-10.1c0.4-1.4,1-2,2.5-2.1c1.3-0.1,2.3,0,2.7,1.3c0.5,1.8-1.5,1.8-2.8,2
					c-0.9,0.1-1.9,0.1-2.8-0.2c-0.2,1.3-0.3,2.5-0.5,3.8c1.3-0.1,3.8,1.7,4.9,2.4c1.8,1.1,2.9,2.8,4,4.6c1.3,2.1,4.6,0.2,3.4-2
					c-1.4-2.4-3-4.5-5.4-6c-1.7-1.1-4.7-3.1-6.8-2.9c-2.1,0.2-2.7,3.1-0.5,3.8c3.4,1.1,8.5,0.2,10.6-3c1.9-2.9,0.1-5.9-2.8-7.1
					c-2.9-1.1-8-1-9.6,2.3c-0.7,1.4-0.7,3.5-0.8,5c-0.2,2.7,0.3,5.5,0.5,8.2C582.7,31.7,586.6,31.8,586.4,29.3L586.4,29.3z"/>
			</g>
			<g>
				<path d="M607.2,13.4c-5.1-0.5-7.3,4.9-8.1,9.1c-0.9,4.6,2.7,9.2,7.3,10.1c5.2,1,8.6-3.4,9.1-8.1c0.5-5-2.6-9.6-7.5-10.8
					c-2.4-0.6-3.5,3.1-1,3.7c2.6,0.7,4.5,2.7,4.7,5.5c0.2,3.1-1.6,7-5.3,5.6c-2.6-1-3.8-3.3-3.2-5.9c0.5-2.2,1.4-5.6,4.2-5.3
					C609.7,17.5,609.7,13.6,607.2,13.4L607.2,13.4z"/>
			</g>
			<g>
				<path class="st1" d="M619.3,20.4c-42.3-0.2-84.4-5.5-126.7-3.1c-2.5,0.1-2.5,4,0,3.9c42.3-2.4,84.4,2.9,126.7,3.1
					C621.8,24.2,621.8,20.4,619.3,20.4L619.3,20.4z"/>
			</g>
			<g>
				<path d="M496.5,45.5c0.1-2.4,0.3-4.8,0.6-7.2c0-0.4,0.3-4.4,0.7-4.6c-0.1,0.9,0.2,1.3,1,1.3c0.6,0.2,1.2,0.5,1.6,1
					c1.6,1.7,1.5,4.7,0.2,6.6c-0.9,1.3-4.4,2.3-5.5,1.6c-2.1-1.4-4,2-2,3.4c2.6,1.8,8.1,0.4,10-1.9c2.5-2.9,3.1-7.8,1-11.1
					c-1.4-2.3-6.8-5.6-9.3-3.3c-1.4,1.2-1.3,4.1-1.5,5.8c-0.4,2.8-0.6,5.6-0.7,8.5C492.5,48,496.4,48,496.5,45.5L496.5,45.5z"/>
			</g>
			<g>
				<path d="M508.5,48c0.5-2.3,1.4-4.4,2.3-6.5c0.9-2,1.5-4.1,2.5-6c-1,0.1-2,0.3-3,0.4c1.2,1.2,1.9,3.7,2.5,5.3
					c0.7,2.1,0.9,4.2,1.6,6.3c0.8,2.4,4.5,1.3,3.7-1c-1.4-4.2-1.6-10-5-13.3c-0.8-0.8-2.5-0.8-3,0.4c-1,2.2-1.8,4.6-2.8,6.8
					c-1,2.1-1.9,4.3-2.4,6.6C504.3,49.4,508,50.4,508.5,48L508.5,48z"/>
			</g>
			<g>
				<path d="M509.6,45.8c1.6-0.1,3.1-0.2,4.7-0.2c2.5-0.1,2.5-4,0-3.9c-1.6,0.1-3.1,0.2-4.7,0.2C507.1,42,507.1,45.9,509.6,45.8
					L509.6,45.8z"/>
			</g>
			<g>
				<path d="M523.4,47.6c0.1-1.6,0.2-3.3,0.3-4.9c0.2-1.8,0.1-4.4,0.8-6c0.9-2,3.5-1.3,3.7,0.9c0.3,2.5-2.8,2.2-4.5,1.5
					c-0.3,1.2-0.7,2.5-1,3.7c1.6,0.3,5.3,1.9,5.3,4c0,2.5,3.9,2.5,3.9,0c0-4-4.6-7-8.1-7.7c-2.5-0.5-3.3,2.8-1,3.7
					c2.7,1.1,7.9,1,9.3-2.2c1.2-2.7-0.6-6.6-2.9-8.2c-2.3-1.6-6.6-1.4-7.9,1.4c-0.8,1.8-0.9,4.2-1.1,6.1c-0.3,2.5-0.5,5.1-0.6,7.6
					C519.4,50,523.3,50,523.4,47.6L523.4,47.6z"/>
			</g>
			<g>
				<path d="M535.6,35.3c0.4,4.1,0.5,8.2,0.3,12.3c-0.2,2.5,3.7,2.5,3.9,0c0.2-4.1,0.1-8.2-0.3-12.3
					C539.2,32.9,535.4,32.9,535.6,35.3L535.6,35.3z"/>
			</g>
			<g>
				<path d="M546.1,34.7c-2.4,2.8-5.5,4.5-8.8,6c-2.1,1.1-0.5,3.8,1.5,3.5c1.9-0.3,5.1,2.7,5.6,4.3c0.8,2.3,4.6,1.3,3.7-1
					c-1.4-3.9-6.2-7.6-10.4-7c0.5,1.2,1,2.4,1.5,3.5c3.5-1.7,6.9-3.6,9.6-6.7C550.5,35.6,547.8,32.8,546.1,34.7L546.1,34.7z"/>
			</g>
			<g>
				<path d="M555.4,37.8c1.1,3.6,1.7,7.4,1.8,11.1c0,1.8,2.7,2.8,3.6,1c1.8-3.8,3.8-7.5,4.8-11.6c-1.2,0-2.5,0-3.7,0
					c1.2,3.9,2.1,7.9,2.5,12c0.2,1.7,2.7,2.9,3.6,1c1.9-3.7,2.9-7.8,4.7-11.5c1.1-2.2-2.3-4.2-3.4-2c-1.8,3.7-2.8,7.9-4.7,11.5
					c1.2,0.3,2.4,0.7,3.6,1c-0.5-4.5-1.3-8.8-2.7-13.1c-0.5-1.8-3.3-1.9-3.7,0c-1,3.8-2.8,7.1-4.4,10.7c1.2,0.3,2.4,0.7,3.6,1
					c-0.1-4-0.8-8.3-2-12.2C558.4,34.4,554.6,35.4,555.4,37.8L555.4,37.8z"/>
			</g>
			<g>
				<path d="M575.3,51.2c1.9-3.9,3.6-8,4.9-12.2c-1.2,0.2-2.4,0.3-3.5,0.5c2.2,3.5,3.3,7.4,4.5,11.4c0.7,2.4,4.4,1.4,3.7-1
					c-1.2-4.3-2.5-8.5-4.9-12.3c-0.9-1.5-3-1.1-3.5,0.5c-1.2,3.9-2.7,7.6-4.5,11.2C570.9,51.5,574.2,53.5,575.3,51.2L575.3,51.2z"/>
			</g>
			<g>
				<path d="M577,49.1c1.2-0.2,2.4-0.2,3.6-0.2c2.5,0,2.5-3.9,0-3.9c-1.6,0-3.1,0.1-4.7,0.4c-1,0.1-1.6,1.5-1.4,2.4
					C574.9,48.8,575.9,49.2,577,49.1L577,49.1z"/>
			</g>
			<g>
				<path d="M586.6,40.6c3.7,0,7.3,0.7,10.9,0.7c2.5,0,2.5-3.9,0-3.9c-3.7,0-7.3-0.7-10.9-0.7C584.1,36.8,584.1,40.7,586.6,40.6
					L586.6,40.6z"/>
			</g>
			<g>
				<path d="M589.6,40.3c0.5,3.3,0.1,6.6,0.5,9.9c0.3,2.5,4.2,2.5,3.9,0c-0.4-3.6-0.1-7.3-0.6-11C593,36.8,589.3,37.9,589.6,40.3
					L589.6,40.3z"/>
			</g>
			<g>
				<path d="M600.1,39.6c0,2,0,4-0.2,6c-0.1,1.5-0.7,3.5-0.3,4.9c0.2,0.6,0.7,1.2,1.4,1.4c2.4,0.5,5.2,0.1,7.6,0
					c2.5,0,2.5-3.9,0-3.9c-1.2,0-2.3,0-3.5,0c-0.9,0-2.2,0.2-3.1,0.1c0.5,0.5,0.9,0.9,1.4,1.4c-0.2-0.6,0.2-1.8,0.3-2.4
					c0.1-0.7,0.1-1.5,0.2-2.2c0.1-1.7,0.1-3.5,0.1-5.2C604,37.1,600.1,37.1,600.1,39.6L600.1,39.6z"/>
			</g>
			<g>
				<path d="M603.2,45.6c1.3-0.1,2.6-0.2,4-0.1c1,0,1.9-0.9,1.9-1.9c0-1.1-0.9-1.9-1.9-1.9c-1.3,0-2.6,0-4,0.1
					c-1,0.1-1.9,0.8-1.9,1.9C601.3,44.6,602.2,45.7,603.2,45.6L603.2,45.6z"/>
			</g>
			<g>
				<path d="M603,40.7c2.1-0.5,4.2-0.6,6.3-0.3c1,0.1,1.9-1,1.9-1.9c0-1.2-0.9-1.8-1.9-1.9c-2.5-0.3-4.9-0.1-7.3,0.5
					C599.5,37.6,600.6,41.4,603,40.7L603,40.7z"/>
			</g>
			<g>
				<path d="M617.1,50.6c-0.1-3,0-6,0.3-9c0.1-0.7,0-1.4,0.6-1.7c0.4-0.2,1.9-0.1,2.2,0.4c0.7,1-0.2,1.4-0.8,1.7
					c-0.8,0.4-2.1,0.4-3,0.5c0.3,1.2,0.7,2.4,1,3.6c0,0,0.1,0,0.1-0.1c-0.5,0.1-1,0.1-1.5,0.2c0.9,0.3,1.9,1.6,2.6,2.2
					c1,0.9,1.9,1.8,2.5,3.1c1.1,2.2,4.5,0.3,3.4-2c-1.1-2.2-3-3.8-4.9-5.3c-1.3-1-2.5-2.2-4.2-1.4c-1.7,0.9-0.9,3.7,1,3.6
					c2.8-0.1,7-0.6,8-3.8c0.8-2.7-1-5.3-3.5-6.2c-2.4-0.8-5.7-0.7-6.9,1.9c-0.8,1.6-0.7,3.9-0.9,5.7c-0.2,2.2-0.2,4.4-0.1,6.6
					C613.3,53.1,617.2,53.1,617.1,50.6L617.1,50.6z"/>
			</g>
			<g>
				<path d="M501.5,66.2c-0.1-1.9-0.2-3.8-0.2-5.8c0-1.7-0.3-4,0.2-5.6c-0.3,0.4-0.6,0.8-0.9,1.2c1.1-0.6,3.1-0.5,4.3,0
					c1.7,0.7,2.2,2.5,2.1,4.2c-0.1,3.5-4.8,4.9-7.6,3.9c-2.3-0.9-3.3,2.9-1,3.7c3.5,1.4,9,0,11.3-3.2c2.1-2.9,1.7-8.1-0.8-10.7
					c-2.2-2.3-7.4-3.3-10.1-1.3c-1.6,1.1-1.2,3.7-1.2,5.4c0,2.7,0.1,5.4,0.2,8.2C497.8,68.7,501.6,68.7,501.5,66.2L501.5,66.2z"/>
			</g>
			<g>
				<path d="M514.2,67.3c0.6-4,2.2-8.5,4-12.1c-1,0.1-2,0.3-3,0.4c2.8,3.4,4.5,7.5,5.1,11.8c0.3,2.4,4.2,2.5,3.9,0
					c-0.7-5.5-2.8-10.3-6.3-14.6c-0.8-0.9-2.5-0.6-3,0.4c-2,3.9-3.8,8.7-4.4,13C510.1,68.7,513.9,69.8,514.2,67.3L514.2,67.3z"/>
			</g>
			<g>
				<path d="M514.9,64.7c2.1-0.3,4.2-0.5,6.3-0.6c2.5-0.1,2.5-4,0-3.9c-2.5,0.1-4.9,0.3-7.3,0.7c-1,0.2-1.6,1.5-1.4,2.4
					C512.8,64.5,513.9,64.9,514.9,64.7L514.9,64.7z"/>
			</g>
			<g>
				<path d="M529.9,67.9c-0.2-3.6-0.3-7.1,0.3-10.7c0-0.3,0.1-2,0.3-2.1c-0.2,0.1,2.1,0.6,2.3,0.7c1.3,0.3,1.7,0.7,0.5,1.6
					c-0.7,0.6-1.9,0.9-2.7,0.5c-2.1-0.8-3.4,2.5-1.5,3.5c2.4,1.4,6.4,2.9,6.3,6.1c-0.1,2.5,3.8,2.5,3.9,0c0.1-5-4.3-7.3-8.2-9.5
					c-0.5,1.2-1,2.4-1.5,3.5c2.8,1.1,6.9-0.9,8.1-3.5c1.4-2.9-0.6-5.3-3.4-6.1c-2.5-0.7-6.4-1-7.5,1.9c-1.5,4.1-1,9.5-0.8,13.8
					C526.2,70.4,530.1,70.4,529.9,67.9L529.9,67.9z"/>
			</g>
			<g>
				<path d="M541.4,56.4c3.2-0.3,6.4,0,9.6,0.1c2.5,0.1,2.5-3.8,0-3.9c-3.2-0.1-6.4-0.4-9.6-0.1C538.9,52.7,538.9,56.6,541.4,56.4
					L541.4,56.4z"/>
			</g>
			<g>
				<path d="M544.3,55.4c0.5,3.9,0.5,7.8,0,11.7c-0.3,2.4,3.4,3.5,3.7,1c0.7-4.6,0.7-9.1,0-13.8C547.7,51.9,544,53,544.3,55.4
					L544.3,55.4z"/>
			</g>
			<g>
				<path d="M554.9,55.6c0.4,4.5-0.7,9,0.2,13.5c0.5,2.4,4.2,1.4,3.7-1c-0.8-4.1,0.3-8.3-0.1-12.5C558.6,53.1,554.7,53.1,554.9,55.6
					L554.9,55.6z"/>
			</g>
			<g>
				<path d="M563.4,55.9c0.2,4.1,0,8.2-0.7,12.3c-0.4,2.4,3.3,3.5,3.7,1c0.8-4.4,1.1-8.8,0.8-13.3C567.1,53.4,563.2,53.4,563.4,55.9
					L563.4,55.9z"/>
			</g>
			<g>
				<path d="M558.7,63.8c2.3-0.4,4.6-0.5,6.9-0.2c2.4,0.4,3.5-3.4,1-3.7c-3-0.5-5.9-0.4-8.9,0.2C555.3,60.5,556.3,64.2,558.7,63.8
					L558.7,63.8z"/>
			</g>
			<g>
				<path d="M577.9,58.1c1.1,3.6,2.2,7.3,3.4,10.9c0.5,1.6,2.7,1.9,3.5,0.5c2.2-3.9,4.4-7.6,5.8-11.9c0.7-2.4-3-3.4-3.7-1
					c-1.2,4-3.3,7.4-5.4,10.9c1.2,0.2,2.4,0.3,3.5,0.5c-1.1-3.6-2.2-7.3-3.4-10.9C580.9,54.7,577.2,55.7,577.9,58.1L577.9,58.1z"/>
			</g>
			<g>
				<path d="M592.9,70.5c2.1-4.3,3.8-8.7,5.1-13.2c-1.1,0.3-2.2,0.6-3.2,0.9c1.6,2,2.5,4.3,3.2,6.7c0.5,1.9,0.8,4,1.8,5.7
					c1.3,2.1,4.7,0.2,3.4-2c-1.3-2-1.4-4.9-2.2-7.2c-0.8-2.2-1.9-4.2-3.4-6c-1-1.2-2.9-0.4-3.2,0.9c-1.2,4.2-2.8,8.3-4.7,12.3
					C588.4,70.8,591.8,72.7,592.9,70.5L592.9,70.5z"/>
			</g>
			<g>
				<path d="M594.9,67.9c1.3-0.1,2.5-0.1,3.8-0.2c1,0,1.9-0.9,1.9-1.9c0-1-0.9-2-1.9-1.9c-1.3,0.1-2.5,0.1-3.8,0.2
					c-1,0-1.9,0.9-1.9,1.9C592.9,67,593.8,68,594.9,67.9L594.9,67.9z"/>
			</g>
			<g>
				<path d="M610.1,69.8c-0.2-2.4-0.3-4.7-0.2-7.1c0.1-1.7-0.4-4.8,1.7-5.1c3-0.5,3.5,2.9,3.3,5.1c-0.2,2.9-2.3,4.8-5.2,4.9
					c-2.5,0.1-2.5,4,0,3.9c4.1-0.1,7.7-2.6,8.8-6.7c0.8-3.1,0.4-7.6-2.2-9.7c-2.3-1.9-7.3-2.2-9,0.7c-1,1.7-1,4.1-1.1,6
					c-0.1,2.7-0.1,5.4,0.2,8.1C606.4,72.3,610.3,72.3,610.1,69.8L610.1,69.8z"/>
			</g>
			<g>
				<path d="M620.1,57.4c0.2,2.2,0.1,4.3,0,6.4c-0.1,1.8-0.5,4.3,0.1,6c0.4,1.1,1,1.5,2.1,1.6c2.1,0.3,4.3,0,6.5,0.3
					c2.5,0.3,2.5-3.6,0-3.9c-2-0.2-4.2,0.1-6.1-0.2c0.5,0.5,0.9,0.9,1.4,1.4c-0.6-1.5-0.1-4.1,0-5.6c0.1-2,0.1-4,0-6
					C623.8,55,619.9,55,620.1,57.4L620.1,57.4z"/>
			</g>
			<g>
				<path d="M623,65.3c1.6,0.1,3.1,0.2,4.7,0.2c2.5,0,2.5-3.9,0-3.9c-1.6,0-3.2,0-4.7-0.2c-1-0.1-1.9,1-1.9,1.9
					C621,64.5,621.9,65.2,623,65.3L623,65.3z"/>
			</g>
			<g>
				<path d="M623,59c1.9-0.3,3.8-0.4,5.7-0.2c2.5,0.2,2.5-3.7,0-3.9c-2.3-0.2-4.5,0-6.7,0.3c-1,0.2-1.6,1.5-1.4,2.4
					C620.9,58.8,622,59.2,623,59L623,59z"/>
			</g>
			<g>
				<path d="M636.6,70.3c-0.3-2.1-0.4-4.3-0.3-6.5c0.1-1.6-0.1-4.3,0.5-5.8c0.3-0.7,0.1-0.4,0-0.4c0.6-0.2,2.3,0.2,2.9,0.4
					c3.7,1.4,0,5.3-1.7,3.9c-0.8,1-1.6,2-2.4,3c2.5,1.1,5.3,2.3,6.1,5.2c0.6,2.4,4.4,1.4,3.7-1c-1-4-4.3-5.9-7.9-7.5
					c-1.8-0.8-4.2,1.6-2.4,3c6.5,5.1,14.8-6.1,6.8-10c-2.4-1.2-7.7-2.2-8.8,1.1c-0.7,2-0.6,4.7-0.7,6.8c-0.2,2.9,0,5.8,0.4,8.6
					C633.2,73.8,636.9,72.7,636.6,70.3L636.6,70.3z"/>
			</g>
			<g>
				<path class="st1" d="M489.8,39.8c48.6,3.4,97.3,6.1,146,8.1c2.5,0.1,2.5-3.8,0-3.9c-48.7-2-97.4-4.7-146-8.1
					C487.3,35.8,487.3,39.7,489.8,39.8L489.8,39.8z"/>
			</g>
			<g>
				<path d="M242.3,142.8c0.2-0.2,0.6-0.2,0.2-0.2c0,0-0.3,0-0.3,0c0,0,0.3,0.2,0.3,0.3c0,0.2,0.1,0.5,0.1,0.7c0,0.1,0,0.1,0,0
					c0.3-0.3,0.4-0.9,0.5-1.3c0.1-0.5,0.2-1.1,0.2-1.6c0.1-1-1-1.9-1.9-1.9c-1.1,0-1.8,0.9-1.9,1.9c-0.1,0.7-0.4,1.2-0.6,1.9
					c-0.3,1,0,2.2,0.7,2.9c1.3,1.3,4,1.4,5.4,0.1C246.8,143.8,244.1,141,242.3,142.8L242.3,142.8z"/>
			</g>
			<g>
				<path d="M239.5,141c0,0.5,0,1,0,1.5c-0.1,1,0.9,2,1.9,1.9c1.1,0,1.9-0.9,1.9-1.9c0-0.5,0-1,0-1.5c0-1-0.9-2-1.9-1.9
					C240.4,139.1,239.5,139.9,239.5,141L239.5,141z"/>
			</g>
		</g>
		<g>
			<path d="M221.9,233.3c-1.9-1.9-4.9,1-3,2.8c8.1,8.4,16.3,16.9,24.4,25.5c4.4,4.7,7.6,5.7,1.9,10.2c-4,3.2-8.3,6.1-12.9,8.1
				c-10.2,4.7-22.8,5.6-32.6-0.5c-8.8-5.4-19.8-20.3-17.6-30.9c1.9-10,5.7-19.3,7-29.5c0.6-5.2,1-10.5,1.4-15.7
				c0.1-2.6,0.3-5.2,0.4-7.8c0.1-2.1,0.3-4.1,0.5-6.2c2.3-1.3,4.5-2.6,6.9-3.9c7,0,7.5,13.2,8.1,17.5c0.6,4.4,1.6,8.8,3.1,13.1
				c2.8,8.3,7.2,15.5,12.8,22.2c1.7,2.1,4.7-0.9,3-3c-9.2-11-13.3-23.3-15.4-37.4c-1-7.8-4.8-17.5-14.5-16.8
				c-7.8,0.5-8.4,8.5-8.7,14.7c-0.6,12.8-1.6,25.7-4.7,38.2c-2.5,9.7-7.2,18.1-2.3,27.7c4,7.9,10,16.8,17.7,21.6
				c16.6,10.2,36.9,3,50.7-8.3c7.1-5.8,5.8-8-0.1-14.2C239.4,251.6,230.7,242.5,221.9,233.3L221.9,233.3z"/>
		</g>
		<g>
			<path d="M253.3,268.2c0.1-2.7-4.1-2.7-4.3,0c-1.2,17.3,0,34.4,3.5,51.4c0.6,2.6,4.7,1.6,4.1-1.2
				C253.2,301.8,252.2,285.1,253.3,268.2L253.3,268.2z"/>
		</g>
		<g>
			<path d="M214.5,285.9c-0.4-2.7-4.5-1.6-4,1.2c1.9,13.8-1,27.7,0.1,41.5c0.3,2.7,4.5,2.7,4.3,0
				C213.6,314.4,216.6,300.1,214.5,285.9L214.5,285.9z"/>
		</g>
		<g>
			<path d="M181.3,253.6c-0.3-2.7-4.5-2.7-4.3,0c1.6,14.5,2.8,28.8,4,43.3c0.3,2.7,4.5,2.7,4.3,0
				C184.1,282.4,182.8,267.9,181.3,253.6L181.3,253.6z"/>
		</g>
		<g>
			<path d="M217.9,290.7c-0.3,1,0.3,2.2,1.4,2.6c1,0.4,2.5-0.3,2.6-1.4c0.3-1.8,0.3-3.6-0.4-5.4c-0.4-1-1.4-1.7-2.6-1.4
				c-1,0.3-1.8,1.6-1.4,2.6C217.9,288.6,218,289.7,217.9,290.7L217.9,290.7z"/>
		</g>
		<g>
			<g>
				<g>
					<path d="M198.9,186.8c-0.5-3.1,4.1-4.4,4.7-1.3c3.6,22.1,4.5,44.5,2.6,66.9c-0.3,3.1-5,3.1-4.8,0
						C203.1,230.6,202.4,208.6,198.9,186.8L198.9,186.8z"/>
				</g>
				<g>
					<path d="M198.9,184.5c3.1,0,3.2,4.9,0.1,4.7c-12.8-0.4-26.5-6.4-38.1-11.8c-13.5-6.1-24.1-15.4-33.5-26.8
						c-1.9-2.3,2.1-4.9,4.1-2.5c8.9,10.7,18.9,19.2,31.7,25.1C173.9,178.2,186.9,184.1,198.9,184.5L198.9,184.5z"/>
				</g>
				<g>
					<path d="M204.2,186.1c-0.1,3.1-4.9,3.1-4.8,0.1c0.1-3.8-0.3-7.5-1-11.1c-0.6-3.1,4-4.4,4.7-1.3
						C203.8,177.8,204.3,181.9,204.2,186.1L204.2,186.1z"/>
				</g>
				<g>
					<path d="M183.7,77.9c2.8-1.3,4,3.4,1.2,4.7c-19.3,8-37.9,24.6-39.6,46.7c-1.7,21.3,11.3,38.5,32.3,42.4
						c27,4.9,56.1-9.6,50.6-40.7c-4-23.2-19.9-46.6-45.1-48.2c-3.1-0.3-3.1-5,0-4.8c24.6,1.6,41.1,21.2,47.9,43.6
						c6.2,20.8,1.6,42.3-19.7,51.7c-17.5,7.8-43.5,5.8-57.7-7.9c-12.5-12-16.2-32.1-10.5-48.2C149.6,98.2,165.9,85.3,183.7,77.9
						L183.7,77.9z"/>
				</g>
				<g>
					<path d="M172.7,83.1c1.3,2.8-2.8,5.2-4.1,2.5c-4.5-9.1-0.4-19.4,9.2-22.6c3-0.9,4.1,3.6,1.3,4.7
						C172.5,69.8,169.6,76.9,172.7,83.1L172.7,83.1z"/>
				</g>
				<g>
					<path d="M187.4,80.8c0.8,3-3.9,4.3-4.7,1.2c-1.8-8,3.5-16.6,11.8-18c3-0.4,4.3,4.1,1.3,4.7C190.2,69.5,186.1,75.1,187.4,80.8
						L187.4,80.8z"/>
				</g>
				<g>
					<path d="M202.1,85.4c-1.2,2.8-5.3,0.4-4-2.5c3.6-8,12.2-12.3,20.7-11c3,0.5,1.7,5-1.3,4.7C210.9,75.7,204.8,79.5,202.1,85.4
						L202.1,85.4z"/>
				</g>
				<g>
					<path d="M193.4,126c-3.1,0-3.1-4.8,0-4.8C196.5,121.3,196.5,126,193.4,126L193.4,126z"/>
				</g>
				<g>
					<path d="M212.1,124.9c-3.1,0-3-4.8,0-4.8C215.2,120.1,215.2,124.9,212.1,124.9L212.1,124.9z"/>
				</g>
				<g>
					<path d="M201.5,184.7c10.9-4.9,20.7-15.3,28.7-24c9.6-10.3,15.7-22,19.8-35.3c0.9-2.9,5.6-2.1,4.7,0.8
						c-4.4,14.2-10.6,26.7-20.8,37.5c-8.7,9.4-19,20.2-30.8,25.4C200.4,190.5,198.7,185.9,201.5,184.7L201.5,184.7z"/>
				</g>
				<g>
					<path d="M205.6,159.7c-3.1,0.8-6.3-6.3-7-8.5c-1.1-3.9,1.7-7.7,6-7.5c5.7,0.3,3.2,14.3,0.2,17.1c-1.8,1.7,0.9,4.5,2.7,2.7
						c4.4-4.2,4.7-12.3,3.8-17.9c-1-6.2-5.9-7.1-11.3-4.8c-5.4,2.3-6.7,7.3-4.7,12.6c1.8,4.6,5.4,11.4,11.3,9.9
						C209,162.9,208,159.1,205.6,159.7L205.6,159.7z"/>
				</g>
			</g>
			<g>
				<path d="M204,251.2c-2.6,0.9-1.4,5,1,4c8.5-3,19,6.1,26,10.2c6.2,3.6,15.9,7.2,19.9,13.6c3.9,6.3,4.7,15.9,5.8,23
					c1.4,8.5,2.1,17.2,2.3,25.9c0.1,2.7,4.4,2.7,4.3,0c-0.3-10.9-1.3-21.6-3.4-32.2c-1.4-7.5-2.5-16.9-8.4-22.5
					c-6.9-6.5-17.1-10.6-25.2-15.4C219.6,253.8,212.2,248.4,204,251.2L204,251.2z"/>
			</g>
			<g>
				<path d="M205.5,252.3c-1.3-2.5-4.9-0.3-3.8,2.2c7.1,13.1,16.7,26.6,21.1,40.9c4.5,14.5,0.1,30,1.7,44.9c0.3,2.7,4.5,2.7,4.3,0
					c-1.7-15.3,2.7-31.2-1.8-46C222.4,279.6,212.7,265.7,205.5,252.3L205.5,252.3z"/>
			</g>
		</g>
		<g>
			<path d="M61.8,101.2c10.6-6.9,21.9-12.4,34.1-16.1c10.2-3.1,32.4-10.6,39.3,1c1.3,2.1,4.6,0.2,3.4-2c-7.1-11.9-23.9-7.6-35-5.1
				c-15.6,3.5-30.3,10-43.7,18.8C57.7,99.2,59.7,102.6,61.8,101.2L61.8,101.2z"/>
		</g>
		<g>
			<path d="M136.5,71.9c0,2.4-0.1,4.8-0.4,7.2c-0.1,1.1-0.2,2.2-0.4,3.3c-0.1,0.7-0.2,1.4-0.3,2.1c0.5-0.5,0.4-0.7-0.2-0.5
				c-4.1,0.4-7.8,0.4-11.9,1.6c-2.4,0.8-1.4,4.5,1,3.7c3-1,6.1-1.5,9.2-1.5c1.6,0,3.7,0.5,5-0.9c1.1-1.3,1-3.9,1.2-5.5
				c0.4-3.2,0.6-6.4,0.6-9.7C140.4,69.4,136.5,69.4,136.5,71.9L136.5,71.9z"/>
		</g>
		<g>
			<path d="M30,102.3c-3.1-1.4-7.7,0.3-8.1,4c-0.1,1.5,0.5,3.1,1.7,4c0.3,0.3,2.4,0.9,2.4,1.2c0.1,1.1-2.2,1-2.7,0.6
				c-2-1.5-4,1.9-2,3.4c2.7,1.9,7.3,0.6,8.3-2.7c0.4-1.5,0.1-3.1-1.1-4.2c-0.7-0.6-1.5-0.7-2.2-1.1c-0.3-0.2-0.8-0.3-0.7-0.8
				c0.1-0.6,1.8-1.1,2.3-0.9C30.3,106.7,32.3,103.3,30,102.3L30,102.3z"/>
		</g>
		<g>
			<path d="M32.1,104.4c0,2-0.1,4-0.3,5.9c-0.1,1.5-0.7,3.4-0.4,4.8c0.7,2.9,5.2,2.2,7.3,1.7c2.4-0.6,1.4-4.3-1-3.7
				c-0.9,0.2-2.5,0.6-3.4,0.1c0.3,0.6,0.6,1.1,1,1.7c-0.2-1.6,0.3-3.4,0.4-5c0.1-1.8,0.2-3.7,0.2-5.5
				C36,101.9,32.1,101.9,32.1,104.4L32.1,104.4z"/>
		</g>
		<g>
			<path d="M34.8,111.2c0.7,0.1,1.4,0.3,2.1,0.4c1,0.2,2.1-0.3,2.4-1.4c0.2-1-0.3-2.2-1.4-2.4c-0.7-0.1-1.4-0.3-2.1-0.4
				c-1-0.2-2.1,0.3-2.4,1.4C33.2,109.8,33.7,111,34.8,111.2L34.8,111.2z"/>
		</g>
		<g>
			<path d="M35.4,106.2c1.2-0.3,2.5-0.3,3.7-0.3c2.5,0.1,2.5-3.8,0-3.9c-1.6-0.1-3.2,0.1-4.8,0.4c-1,0.2-1.6,1.4-1.4,2.4
				C33.3,105.9,34.4,106.4,35.4,106.2L35.4,106.2z"/>
		</g>
		<g>
			<path d="M46.1,116c-0.2-3.7-0.1-7.4,0.5-11.1c-1.1,0.3-2.2,0.6-3.2,0.9c3.4,3.1,6,6.7,8.5,10.5c1,1.4,3.8,1.1,3.6-1
				c-0.4-3.8-0.4-7.5,0.3-11.2c0.4-2.4-3.3-3.5-3.7-1c-0.7,4.1-0.9,8.1-0.4,12.3c1.2-0.3,2.4-0.7,3.6-1c-2.7-4-5.5-8-9.1-11.3
				c-1-0.9-3-0.7-3.2,0.9c-0.7,4-0.9,8.1-0.7,12.2C42.4,118.5,46.2,118.5,46.1,116L46.1,116z"/>
		</g>
	</g>
	<g>
		<g>
			<path d="M392.5,246.5c-0.6-13.3-0.6-26.5,0-39.8c0.3-6.1,0.8-12.3,1.4-18.4c0.8-7.2,0.5-16.2,4.4-22.4
				c3.6-5.8,10.9-9.8,16.4-13.7c4.8-3.4,9.6-6.6,14.5-9.6c10.7-6.7,21.7-12.7,33.1-18.1c-1.2-0.6-2.5-1.4-3.6-2.1
				c1.8,14.5,2.7,29,2.6,43.6c0,7.5,0.5,16-1.4,23.4c-1.7,6.7-6.7,11.3-12.3,14.9c-10,6.3-20.4,11.6-30.3,18.2
				c-10.2,7-19.8,14.6-29,22.8c-2.3,2.1,1.2,5.4,3.4,3.4c10.9-9.8,22.5-18.8,34.9-26.6c10.1-6.3,22.2-11,30.8-19.5
				c8.7-8.5,8.3-20.4,8.4-31.8c0.4-16.2-0.5-32.2-2.5-48.2c-0.3-1.8-1.8-3-3.6-2.1c-13.1,6.3-25.7,13.3-38,21.2
				c-8.9,5.8-22.1,12.4-28.1,21.6c-3,4.7-3.2,10.6-3.9,16c-0.9,7.1-1.6,14.2-2.1,21.3c-1,15.3-1.2,30.7-0.4,45.9
				C387.8,249.6,392.6,249.6,392.5,246.5L392.5,246.5z"/>
		</g>
		<g>
			<path d="M430.5,172.6c-8-0.9-14.9,12.5-7.2,17.3c3.5,2.2,7.8,1.2,10.5-1.8c3.2-3.6,3.2-8.8,1.9-13.2c-0.9-3-5.6-1.7-4.7,1.3
				c0.6,2.3,1.3,5.2,0,7.5c-0.9,1.6-2.6,3.1-4.5,2.5c-2.6-0.9-1.7-3.5-0.8-5.3c1-1.9,2.5-3.8,4.8-3.5
				C433.6,177.8,433.5,173,430.5,172.6L430.5,172.6z"/>
		</g>
	</g>
	<g>
		<path d="M432,234.5c5.3-3.1,10.5-6.2,15.8-9.3c2.7-1.6,0.3-5.8-2.5-4.1c-5.3,3.1-10.5,6.2-15.8,9.3
			C426.9,231.9,429.4,236,432,234.5L432,234.5z"/>
	</g>
	<g>
		<path d="M429.5,231.4c-3.9,5.4-8,10.7-12.3,15.9c-1.9,2.3,1.4,5.8,3.4,3.4c4.5-5.4,8.9-11.1,13.1-16.9
			C435.4,231.4,431.3,228.9,429.5,231.4L429.5,231.4z"/>
	</g>
	<g>
		<path d="M431.8,235.4c5.4-0.4,10.9-1.2,16.2-2.3c3.1-0.6,1.8-5.3-1.3-4.7c-4.9,1-10,1.7-14.9,2.2
			C428.7,230.8,428.7,235.6,431.8,235.4L431.8,235.4z"/>
	</g>
	<g>
		<path d="M427.6,191.5c1.2,9.7,1.9,19.4,2.3,29.2c0.3,6.7-2.2,10.5-7.6,14.2c-4,2.7-8,5.4-12,8.1c-2.6,1.7-0.1,6,2.5,4.1
			c5.2-3.5,10.3-7,15.7-10.5c3.5-2.3,6-3.4,6.6-7.6c1.6-11.8-1-25.9-2.5-37.5C432.1,188.5,427.3,188.4,427.6,191.5L427.6,191.5z"/>
	</g>
	<g>
		<path d="M489.3,206.5c8-3.6,15.8-7.9,23-12.8c2.6-1.7,0.1-6-2.5-4.1c-7.4,4.9-15,9.2-23,12.8C484,203.7,486.4,207.8,489.3,206.5
			L489.3,206.5z"/>
	</g>
	<g>
		<path d="M464.3,135.1c4.5,1,9.6,2.3,12.9,5.8c4.7,4.7,3.5,11.1,3,17.1c-1,13.3-2.1,26.6-2.7,40c-0.1,3.1,4.7,3.1,4.8,0
			c0.5-9.2,1.2-18.5,1.8-27.7c0.5-7.5,2.3-15.8,1.2-23.3c-1.6-10.2-10.7-14.5-19.8-16.6C462.6,129.8,461.3,134.5,464.3,135.1
			L464.3,135.1z"/>
	</g>
	<g>
		<path d="M510.7,192.7c-0.8-24.7-3.8-49.4-2.3-74.1c0-0.8-0.5-1.7-1.2-2.1c-14.9-8.5-31.3-12.3-47.5-17.5
			c-7.4-2.5-10.1-2.2-16.9,2.1c-6.5,4.1-11.8,9.7-18.6,13.2c-1.6,0.8-1.6,3.4,0,4.1c10.9,5.2,9.4-7.5,0.5-4.4
			c-1.8,0.6-2.6,3.4-0.5,4.4c7.9,4.1,16.2,7.2,24.4,10.5c2.8,1.2,4.1-3.5,1.3-4.7c-7.9-3.1-15.8-6-23.3-10c-0.1,1.4-0.4,3-0.5,4.4
			c0.1-1.4,0.4-3,0.5-4.4c0,1.4,0,2.8,0,4.1c10.2-5.2,18.2-17.9,30.5-15.3c12.5,2.6,26.3,7.2,38,12.4c1.7,0.8,6.1,1.9,7.2,3.5
			c2.1,2.7,0.8,7.8,0.6,11c-0.1,7,0.1,14,0.5,20.8c0.6,13.8,1.8,27.7,2.2,41.7C505.9,195.8,510.7,195.8,510.7,192.7L510.7,192.7z"/>
	</g>
	<g>
		<path d="M423.9,118.7c1,6.7,1.8,13.5,2.5,20.2c0.3,3.1,5,3.1,4.8,0c-0.6-7.2-1.4-14.4-2.6-21.5
			C428.2,114.3,423.5,115.6,423.9,118.7L423.9,118.7z"/>
	</g>
	<g>
		<path d="M487.4,201.9c-1,0.4-2.2,0.6-3.2,0.9c-0.4,0.1-1.2,0.1-1.6,0.4c-0.8,0-0.8,0.1-0.1,0.5c0.5,0.6,0.5,0.5,0.3-0.1
			c0-0.9-0.5-1.9-0.5-3c-0.1-1.2,0-2.5,0.1-3.6c0.1-1.3-1.3-2.5-2.5-2.5c-1.4,0-2.2,1.2-2.5,2.5c-0.4,3-0.4,7.5,1.6,10
			c2.2,2.6,7.1,0.5,9.7-0.4C491.6,205.5,490.3,200.8,487.4,201.9L487.4,201.9z"/>
	</g>
	<g>
		<path d="M481.1,202.4c-6.2-1.9-10.7-7-17.1-8.9c-3-0.9-4.3,3.8-1.3,4.7c6.2,1.9,10.9,7,17.1,8.9
			C482.8,207.9,484.1,203.3,481.1,202.4L481.1,202.4z"/>
	</g>
	<g>
		<path d="M502.3,118.3c-8,6.3-15.9,13.1-25.2,17.5c-2.8,1.3-0.4,5.4,2.5,4.1c9.7-4.5,17.9-11.6,26.3-18.1
			C508.1,119.7,504.6,116.4,502.3,118.3L502.3,118.3z"/>
	</g>
	<g>
		<path d="M403.1,240.4c6.2,4.7,13.1,7.2,20.7,8.4c7.5,1.2,16.9-0.6,23.8,2.5c5.3,2.5,8.9,4.9,15,3.5c4.7-1,7.5-3.6,9.1-8
			c3-8.5,7-15.1,12.7-22.1c3.8-4.7,8.5-9.6,10.5-15.4c2.1-6.2-0.3-11.5-1.7-17.6c-1.7-7.1,2.8-11.3-0.4-18.1
			c-1.3-2.8-5.4-0.4-4.1,2.5c1.9,4-1.4,9.7-0.8,14.4c1.2,7.2,4.8,12.4,1.2,19.8c-4.9,9.7-14.1,16.8-18.9,26.8
			c-2.8,5.8-3.5,14.2-12,13.6c-5-0.4-9.2-4.5-14.2-5.3c-5-0.8-10.5,0-15.5-0.5c-8.3-0.8-15.8-3.2-22.6-8.3
			C403,234.5,400.6,238.6,403.1,240.4L403.1,240.4z"/>
	</g>
	<g>
		<path class="st0" d="M513.3,182.2c0.8,43-1.4,85.9-6.5,128.6c-0.3,3.3,4.7,3.3,5.1,0c5.1-42.7,7.3-85.6,6.5-128.6
			C518.4,178.9,513.3,178.9,513.3,182.2L513.3,182.2z"/>
	</g>
</g>
</svg>
