<?xml version="1.0" encoding="utf-8"?>
<!-- Generator: Adobe Illustrator 22.0.0, SVG Export Plug-In . SVG Version: 6.00 Build 0)  -->
<svg version="1.1" id="Layer_1" xmlns="http://www.w3.org/2000/svg" xmlns:xlink="http://www.w3.org/1999/xlink" x="0px" y="0px"
	 viewBox="0 0 666 300" style="enable-background:new 0 0 666 300;" xml:space="preserve">
<g>
	<g>
		<path d="M319.8,16.4c-40.8-0.4-81.6-0.2-122.5,0.7c-10.5,0.2-21.1,0.5-31.6,0.8c-6.7,0.2-14.6-1.1-18.2,5.8
			c-8,15.6-3.6,36.2-1.9,52.7c4.1,39.3,7.2,78.9,12.5,118c1.8,13.2,5,27.8,15.1,37.2c12.4,11.5,32.5,11.5,48.3,13.1
			c40.5,4,81.3,4,122,4.4c41,0.4,82,0.7,123,1.1c8.5,0.1,18,1.3,26.3-1.3c6.8-2.2,11.7-7.7,15.5-13.5c8.7-13.4,11.3-29.5,12.2-45.2
			c1.1-19.2,0.7-38.5,0.9-57.7c0.2-20.6,0.4-41.1,0.6-61.7c0.1-10.6,0.2-21.2,0.3-31.8c0-4.6,0.1-9.3,0.1-13.9
			c0-3.1,0.3-6.6-1.9-9.1c-4.3-4.8-13.3-3.1-18.8-2.9c-10.2,0.3-20.3,0.5-30.5,0.7c-40.4,0.8-80.7,1.2-121.1,2
			C340.2,15.9,330,16.2,319.8,16.4c-1.9,0.1-1.9,3.1,0,3c37.5-1,75-1.5,112.6-2c18.6-0.3,37.2-0.6,55.8-1c4.6-0.1,9.2-0.2,13.8-0.3
			c4.1-0.1,9.6-1.1,13.5,0.2c5.8,2.1,4.2,9,4.2,13.8c-0.1,5-0.1,10-0.2,14.9c-0.4,38.1-0.8,76.3-1.2,114.4
			c-0.2,16.5,0.4,33.5-2.9,49.8c-3.2,16-11.4,36.8-30.2,38.1c-9.1,0.6-18.4,0-27.5-0.1c-9.3-0.1-18.5-0.2-27.8-0.3
			c-19.2-0.2-38.4-0.3-57.5-0.5c-37.8-0.3-75.7-0.2-113.5-2c-18.9-0.9-37.7-2.4-56.5-4.9c-8.9-1.2-18.3-2.8-25.4-8.6
			c-5.7-4.6-9.4-11.2-11.7-18.1c-5.1-15-5.5-31.6-7.2-47.2c-2-18.9-4-37.9-6-56.8c-1.9-18.3-4.4-36.6-5.6-54.9
			c-0.6-9-0.4-18.6,3-27.1c1.5-3.7,3.4-5.2,7.6-5.6c2.2-0.2,4.5-0.2,6.7-0.2c4.6-0.1,9.2-0.3,13.8-0.4c37.8-1,75.7-1.5,113.6-1.4
			c9.5,0,19.1,0.1,28.6,0.2C321.7,19.4,321.7,16.4,319.8,16.4z"/>
	</g>
</g>
<g>
	<g>
		<path d="M319.2,9.1c-43.4-0.4-86.9-0.2-130.3,0.8c-10.9,0.2-21.9,0.5-32.8,0.9c-7.2,0.2-13.8-0.4-17.1,7.1
			c-7.7,17.5-3.1,39.1-1.2,57.3c2.2,20.9,4.3,41.8,6.5,62.7c2.1,20.4,3.7,41,6.4,61.3c1.8,13.5,5.1,28.3,15.1,38.3
			c12.2,12.2,32.1,12.5,48.2,14.2c42.8,4.5,85.8,4.6,128.8,5c43.5,0.4,86.9,0.8,130.4,1.2c8.9,0.1,19.2,1.5,27.7-1.7
			c7-2.5,11.9-8.5,15.7-14.7c9-14.4,11.6-31.7,12.5-48.4c1.1-20.2,0.7-40.6,0.9-60.9c0.2-21.5,0.4-43,0.6-64.5
			c0.1-10.9,0.2-21.8,0.3-32.8c0.1-5.3,0.1-10.6,0.2-15.9c0-3.4,0.5-7.4-1.8-10.3c-3.9-4.9-12.1-3.5-17.5-3.4
			C500.8,5.7,490,6,479.1,6.2C436.4,7,393.6,7.5,350.9,8.3C340.3,8.6,329.8,8.8,319.2,9.1c-1.9,0.1-1.9,3.1,0,3
			c39.6-1.1,79.2-1.6,118.8-2.2c20-0.3,39.9-0.7,59.9-1.1c4.6-0.1,9.2-0.2,13.9-0.3c3.9-0.1,10.1-1.3,13.7,1
			c4.3,2.8,2.6,11.3,2.5,15.6c0,5-0.1,9.9-0.1,14.9c-0.4,40.4-0.8,80.8-1.2,121.1c-0.2,17.6,0.4,35.6-3,53
			c-3.2,16.4-11.4,38.9-30.7,40.7c-9.5,0.9-19.2,0.1-28.7,0c-10.3-0.1-20.6-0.2-30.9-0.3c-19.9-0.2-39.8-0.4-59.7-0.6
			c-39.8-0.4-79.7-0.2-119.5-2.2c-20.2-1-40.6-2.5-60.6-5.6c-8.6-1.3-17.4-3.4-24.1-9.4c-5.6-4.9-9.1-11.6-11.5-18.6
			c-5.3-15.9-5.8-33.4-7.5-49.9c-2-19.9-4.1-39.9-6.1-59.8c-2-19.2-4.4-38.4-5.8-57.6c-0.7-9.2-0.7-18.6,1.9-27.5
			c0.7-2.3,1.6-6.1,3.6-7.6c2.5-1.9,6.3-1.8,9.3-1.8c5.3-0.2,10.6-0.3,15.9-0.5c40.1-1.1,80.2-1.6,120.4-1.5
			c9.9,0,19.9,0.1,29.8,0.2C321.1,12.1,321.1,9.1,319.2,9.1z"/>
	</g>
</g>
<g>
	<g>
		<path d="M506.3,16c-2,36.6-1.2,73.3-1.2,109.9c0,18.5,1.1,36.8,1.7,55.2c0.5,18.2-1.8,36.4-3.2,54.5c-0.2,1.9,2.8,1.9,3,0
			c1.4-17.8,3.7-35.7,3.3-53.6c-0.5-18.8-1.7-37.4-1.7-56.2c-0.1-36.6-0.8-73.3,1.2-109.9C509.4,14.1,506.4,14.1,506.3,16L506.3,16z
			"/>
	</g>
</g>
<g>
	<g>
		<path d="M507.9,26.5c3.9,0.9,7.8,1.3,11.7,1c1.9-0.1,1.9-3.1,0-3c-3.7,0.3-7.3,0-10.9-0.9C506.8,23.1,506,26,507.9,26.5
			L507.9,26.5z"/>
	</g>
</g>
<g>
	<g>
		<path d="M513.1,21.7c0.1-0.8,0.3-1.6,0.7-2.3c0.1-0.3,0.4-0.6,0.5-0.9c0.3-0.4,0-0.5-0.9-0.4c0.1,0.2,0.2,0.4,0.4,0.6
			c0.9,1.6,1.8,3.1,2.7,4.7c1,1.7,3.6,0.2,2.6-1.5c-0.8-1.4-1.6-2.7-2.3-4.1c-0.6-1-1.1-2.3-2.4-2.5c-2.5-0.3-3.7,3.7-4,5.6
			C509.9,22.8,512.7,23.6,513.1,21.7L513.1,21.7z"/>
	</g>
</g>
<g>
	<g>
		<path d="M506.3,219.5c2.4-0.2,4.9-0.4,7.3-0.6c1.9-0.2,1.9-3.2,0-3c-2.4,0.2-4.9,0.4-7.3,0.6C504.4,216.7,504.4,219.7,506.3,219.5
			L506.3,219.5z"/>
	</g>
</g>
<g>
	<g>
		<path d="M507.8,223.7c0.6,1.3,1.3,2.7,1.9,4c0.3,0.7,1.4,0.9,2.1,0.5c0.8-0.4,0.9-1.3,0.5-2.1c-0.6-1.3-1.3-2.7-1.9-4
			c-0.3-0.7-1.4-0.9-2.1-0.5C507.6,222.1,507.5,223,507.8,223.7L507.8,223.7z"/>
	</g>
</g>
<g>
	<g>
		<path d="M507.3,99.9c4.2,0,8.4-0.3,12.7-0.8c1.9-0.2,1.9-3.2,0-3c-4.2,0.5-8.4,0.8-12.7,0.8C505.4,96.9,505.4,99.9,507.3,99.9
			L507.3,99.9z"/>
	</g>
</g>
<g>
	<g>
		<path d="M506.3,134.1c4.4-0.3,8.9-0.7,13.3-1c1.9-0.1,1.9-3.1,0-3c-4.4,0.3-8.9,0.7-13.3,1C504.4,131.2,504.4,134.2,506.3,134.1
			L506.3,134.1z"/>
	</g>
</g>
<g>
	<g>
		<path d="M507.6,100.2c0.8,10.3,0.3,20.6-0.3,30.9c-0.1,0.9,1,1.8,1.9,1.4c2.8-1.1,5.7-0.6,8.3-1.4c0.4-0.1,0.9-0.1,1.2-0.4
			c1.3-1.1,1-3.1,1-4.7c0.3-8.6,0-17.3,0.6-26c0.1-0.8-0.7-1.5-1.5-1.5c-2.9-0.1-6.5-0.5-9.2,0.7c-0.5,0.2-0.8,0.8-0.7,1.3
			c0.1,2,0.9,3.9,1.2,5.9c0.4,2.9,0.2,5.5-0.1,8.4c-0.5,3.8-1.6,9.7-0.3,13.5c0.2,0.7,0.7,1.1,1.4,1.1c3.5,0.2,5.9-0.9,6.5-4.1
			c1.4-7.8-0.4-16.2-0.4-24c0-1.2-1.3-1.8-2.3-1.3c-1.3,0.7-1.5,0.9-2.3,2c0.8-0.1,1.6-0.2,2.4-0.3c-0.3-0.2-0.6-0.5-0.9-0.7
			c-0.9-0.7-2.7-0.4-2.6,1.1c0.7,7.3,0.9,14.7,0.4,22c1,0,2,0,3,0c-0.2-6.4-0.3-12.7,0.8-19c-1-0.1-2-0.3-2.9-0.4
			c0.3,8.1-0.5,16.1-1.4,24.2c1,0,2,0,3,0c-0.3-4.2-0.2-8.7-1-12.9c-0.6-3.2-2.9-5.6-4.1-8.6c-0.6-1.5-3-1.4-2.9,0.4
			c0,2.5,0.1,4.9,0.3,7.3c0.1,1.9,3.1,1.9,3,0c-0.2-2.4-0.3-4.9-0.3-7.3c-1,0.1-2,0.3-2.9,0.4c1.2,3.2,3.4,5.9,4.1,9.2
			c0.7,3.6,0.6,7.7,0.8,11.5c0.1,2,2.8,1.9,3,0c0.9-8,1.7-16.1,1.4-24.2c-0.1-1.6-2.6-2.1-2.9-0.4c-1.1,6.6-1.1,13.2-0.9,19.8
			c0.1,1.9,2.9,1.9,3,0c0.4-7.4,0.3-14.7-0.4-22c-0.9,0.4-1.7,0.7-2.6,1.1c0.3,0.2,0.6,0.5,0.9,0.7c0.8,0.6,1.7,0.5,2.4-0.3
			c0.4-0.3,0.8-0.6,1.3-1c-0.8-0.4-1.5-0.9-2.3-1.3c0,5.2,0.6,10.3,0.8,15.4c0.1,2.1,0.6,5.6-0.2,7.7c0.7,1.1,0.3,1.6-1.1,1.5
			c-0.9,0.2-1.7,0.4-2.6,0.6c0.5,0.4,1,0.7,1.4,1.1c-1.7-4.7,0.5-11.4,0.8-16.2c0.1-2.1-0.1-4.3-0.5-6.4c-0.2-1.4-0.9-2.4,0.1-3.5
			c0.7-0.7,5-0.1,5.8,0c-0.5-0.5-1-1-1.5-1.5c-0.4,6.4-0.3,12.8-0.4,19.2c0,2.1,0.8,6.8-0.7,8.3c-0.9,0.9-6.3,1.4-7.9,2
			c0.6,0.5,1.3,1,1.9,1.4c0.6-10.3,1.2-20.6,0.3-30.9C510.4,98.3,507.4,98.3,507.6,100.2L507.6,100.2z"/>
	</g>
</g>
<g>
	<g>
		<path d="M515.3,101.1c0.1,5.2,0.3,9.9-0.7,15.1c-0.8,4.1-1.6,8.1-1.7,12.3c0,1.5,2,2,2.8,0.8c1.9-3.2,2.8-6.3,3-10
			c0.1-1.9-2.9-1.9-3,0c-0.2,2.8-0.3,5.6-0.4,8.4c1,0,2,0,3,0c-0.1-1.8-0.1-5-2.4-5.4c-2.6-0.4-4.7,4.3-5.9,5.9
			c0.9,0.3,1.9,0.5,2.8,0.8c-0.4-3.4-0.7-6.9-1.1-10.3c-0.2-1.9-2.9-2-3,0c-0.1,3,0.2,5.9-0.5,8.9c1,0,1.9,0,2.9,0
			c-0.6-4.2-0.9-8.5-0.8-12.7c0.1-3-0.5-11.1,1.7-13c3.5-3,2,10.1,1.9,11c-0.6,3.4-1.3,6.8-1.8,10.3c1,0,2,0,3,0
			c0.4-6.1,0.2-12-0.6-18c-0.2-1.9-3.2-1.9-3,0c0.6,5.3,0.9,10.4-0.8,15.6c1,0.1,2,0.3,2.9,0.4c0.2-5.8,0.2-11.6,0-17.4
			c-0.1-1.6-2.6-2.1-2.9-0.4c-1.2,6.9-2.8,14.3-2.3,21.4c0.1,1.3,2.1,2.2,2.8,0.8c2.8-6.1,5.1-12.4,6.9-19c-1-0.1-2-0.3-2.9-0.4
			c0,6-0.2,11.8-1.7,17.6c-0.5,1.9,2.4,2.7,2.9,0.8c1.7-6.4,2.7-12.8,3.2-19.4c-1,0-2,0-3,0c0.1,5.9,0.6,12.7-1.5,18.3
			c-0.7,1.8,2.2,2.6,2.9,0.8c2.2-5.9,1.7-12.9,1.6-19.1c0-1.9-2.9-1.9-3,0c-0.5,6.3-1.5,12.5-3.1,18.6c1,0.3,1.9,0.5,2.9,0.8
			c1.6-6.1,1.8-12.2,1.8-18.4c0-1.7-2.5-2-2.9-0.4c-1.7,6.3-3.8,12.4-6.5,18.3c0.9,0.3,1.9,0.5,2.8,0.8c-0.5-6.8,1-13.9,2.2-20.6
			c-1-0.1-2-0.3-2.9-0.4c0.2,5.8,0.2,11.6,0,17.4c-0.1,1.7,2.4,2,2.9,0.4c1.8-5.4,1.5-10.8,0.9-16.3c-1,0-2,0-3,0c0.8,6,1,12,0.6,18
			c-0.1,2,2.8,1.9,3,0c0.7-6,3.5-12.9,2.3-19c-0.5-2.4-2.8-7.1-5.9-6.6c-3.5,0.6-3.5,7.3-3.7,9.8c-0.8,7-0.5,14,0.4,21
			c0.2,1.5,2.6,1.4,2.9,0c0.8-3.2,0.5-6.4,0.6-9.7c-1,0-2,0-3,0c0.4,3.4,0.7,6.9,1.1,10.3c0.2,1.5,1.9,2,2.8,0.8
			c0.3-0.4,2.6-4.6,2.7-2c0.1,1.9,2.9,1.9,3,0c0.1-2.8,0.2-5.6,0.4-8.4c-1,0-2,0-3,0c-0.2,3.2-1,5.7-2.6,8.5
			c0.9,0.3,1.9,0.5,2.8,0.8c0.1-5.1,1.5-9.9,2.2-14.9c0.6-4.2,0.3-8.3,0.2-12.5C518.3,99.2,515.3,99.1,515.3,101.1L515.3,101.1z"/>
	</g>
</g>
<g>
	<g>
		<path d="M328,256c0,7.2,0,14.3,0,21.5c0,1.9,3,1.9,3,0c0-7.2,0-14.3,0-21.5C331,254.1,328,254.1,328,256L328,256z"/>
	</g>
</g>
<g>
	<g>
		<path d="M329.4,276.2c-28.9,2.9-57.3,8.6-85.7,14.5c-1.9,0.4-1.1,3.3,0.8,2.9c28.1-5.8,56.3-11.5,84.9-14.3
			C331.3,279,331.4,276,329.4,276.2L329.4,276.2z"/>
	</g>
</g>
<g>
	<g>
		<path d="M330,277.7c32,0.2,63.9-0.1,95.9-1c1.9-0.1,1.9-3.1,0-3c-32,0.9-63.9,1.2-95.9,1C328.1,274.7,328.1,277.7,330,277.7
			L330,277.7z"/>
	</g>
</g>
<g>
	<g>
		<path d="M328,274.8c-27.5-0.1-55-1.4-82.4-4c-1.9-0.2-1.9,2.8,0,3c27.4,2.6,54.9,3.9,82.4,4C330,277.8,330,274.8,328,274.8
			L328,274.8z"/>
	</g>
</g>
<g>
	<g>
		<path d="M328.2,279.2c30.1,6.5,60.4,14.8,91.2,17c1.9,0.1,1.9-2.9,0-3c-30.5-2.2-60.6-10.5-90.5-16.9
			C327.2,275.9,326.4,278.8,328.2,279.2L328.2,279.2z"/>
	</g>
</g>
<g>
	<g>
		<path d="M286.8,64.3c-2.2-7.2-9.4-6.9-15.9-7.7c-9.7-1.2-19.5-1.6-29.3-1.3c-1,0-1.6,0.9-1.4,1.9c1,5.5-5.2,10.2-9.4,12.5
			c-5,2.7-10.6,3.7-15.5-0.2c-1-0.8-2.5-0.3-2.6,1.1c-1.1,19.9,0.5,39.5,2,59.3c0.7,9.6-0.4,19.3,0.8,28.8c0.4,3,0.6,7,2.2,9.6
			c1.4,2.3,3.5,2.1,5.9,2.3c9.9,0.8,19.8,1.4,29.7,2.1c8,0.6,16.9,1.9,24.4-1.9c6.7-3.5,8.6-9.9,9.8-16.9c1.5-9,2.8-18,3.6-27.1
			C293,106,292.4,84.7,286.8,64.3c-0.5-1.9-3.4-1.1-2.9,0.8c4.5,16.2,5.7,33,5,49.8c-0.4,8.3-1.2,16.5-2.3,24.8
			c-1,7.5-1,17.8-5.4,24.2c-5.2,7.7-16,6.7-24.1,6.2c-8.6-0.6-17.3-1.2-25.9-1.9c-3-0.2-9.6,0.6-11.3-2.3c-2-3.4-1.8-9.4-1.8-13.3
			c0.1-8.2,0.1-16.5-0.6-24.7c-1.7-19.2-2.9-38.2-1.9-57.4c-0.9,0.4-1.7,0.7-2.6,1.1c5.9,4.7,12.7,4.4,19.1,0.7
			c5.8-3.3,12-8.5,10.8-15.9c-0.5,0.6-1,1.3-1.4,1.9c6.9-0.2,13.9-0.2,20.8,0.4c3.6,0.3,7.3,0.7,10.9,1.2c4.1,0.6,9.1,0.5,10.6,5.2
			C284.5,67,287.4,66.2,286.8,64.3z"/>
	</g>
</g>
<g>
	<g>
		<path d="M369.9,76.7c0.8,10.9,0.7,21.8,1.6,32.7c0.9,10.5,1.5,21,1.5,31.6c0,5-0.1,10-0.4,15c-0.2,3.7,0.4,9-3.9,11
			c-2.4,1.1-6.4,1.1-8.8,1.4c-10.5,1.2-21.2,1.5-31.8,0.8c-5.6-0.4-11.3-1-16.9-1.9c-3.2-0.6-5.8-1.1-6.9-4.6c-0.9-2.9-1.6-6-2.2-9
			c-2.2-10.4-3-21-3-31.6c0-10.2,0.8-20.4,2-30.5c0.7-5.4,1.5-10.8,2.4-16.1c1-5.7,1.9-11.9,7.3-15.2c5.5-3.4,12.2-3.1,18.4-2.6
			c6.1,0.4,12.1,0.9,18.2,1.3c5.6,0.4,11.8,0.1,17.3,1.2c1.6,0.3,2.7,0.1,3.6,1.7c0.7,1.1,0.9,3.7,1.1,5
			C369.9,70.1,370.2,73.3,369.9,76.7c-0.1,1.9,2.9,1.9,3,0c0.4-5,0-11.6-2-16.3c-1.6-3.9-5.3-3.2-9.1-3.5
			c-13.2-0.9-26.9-3.1-40.2-2.6c-10.2,0.4-17.8,5.2-20.1,15.4c-2.7,11.9-4,24.5-4.8,36.7c-0.9,12.9-0.8,25.9,0.9,38.7
			c0.8,5.6,1.8,11.2,3.3,16.6c1.3,4.7,2.7,7,7.6,8.1c12.5,2.9,26.1,3.2,38.9,2.6c5.9-0.3,11.8-0.8,17.7-1.7c3.6-0.5,7.6-1.1,9.4-4.7
			c1.3-2.6,0.9-6.3,1.1-9.1c0.2-3.7,0.3-7.5,0.4-11.3c0.1-7.6,0-15.2-0.5-22.7c-0.4-7.7-1.2-15.4-1.8-23.1c-0.7-7.7-0.2-15.4-0.7-23
			C372.8,74.8,369.8,74.8,369.9,76.7z"/>
	</g>
</g>
<g>
	<g>
		<path d="M384.7,151.1c-0.8-10.9-0.7-21.8-1.6-32.7c-0.9-10.5-1.5-21-1.5-31.6c0-5,0.1-10,0.4-15c0.2-3.7-0.4-9,3.9-11
			c2.4-1.1,6.4-1.1,8.8-1.4c10.5-1.2,21.2-1.5,31.8-0.8c5.6,0.4,11.3,1,16.9,1.9c3.2,0.6,5.8,1.1,6.9,4.6c0.9,2.9,1.6,6,2.2,9
			c2.2,10.4,3,21,3,31.6c0,10.2-0.8,20.4-2,30.5c-0.7,5.4-1.5,10.8-2.4,16.1c-1,5.7-1.9,11.9-7.3,15.2c-5.5,3.4-12.2,3.1-18.4,2.6
			c-6.1-0.4-12.1-0.9-18.2-1.3c-5.6-0.4-11.8-0.1-17.3-1.2c-1.6-0.3-2.7-0.1-3.6-1.7c-0.7-1.1-0.9-3.7-1.1-5
			C384.6,157.7,384.4,154.5,384.7,151.1c0.1-1.9-2.9-1.9-3,0c-0.4,5,0,11.6,2,16.3c1.6,3.9,5.3,3.2,9.1,3.5
			c13.2,0.9,26.9,3.1,40.2,2.6c10.2-0.4,17.8-5.2,20.1-15.4c2.7-11.9,4-24.5,4.8-36.7c0.9-12.9,0.8-25.9-0.9-38.7
			c-0.8-5.6-1.8-11.2-3.3-16.6c-1.3-4.7-2.7-7-7.6-8.1c-12.5-2.9-26.1-3.2-38.9-2.6c-5.9,0.3-11.8,0.8-17.7,1.7
			c-3.6,0.5-7.6,1.1-9.4,4.7c-1.3,2.6-0.9,6.3-1.1,9.1c-0.2,3.7-0.3,7.5-0.4,11.3c-0.1,7.6,0,15.2,0.5,22.7
			c0.4,7.7,1.2,15.4,1.8,23.1c0.7,7.7,0.2,15.4,0.7,23C381.8,153,384.8,153,384.7,151.1z"/>
	</g>
</g>
<g>
	<g>
		<path d="M222.5,42c-10.6-3.6-16.5,8.1-16.1,17c0.5,10.6,10.3,16.7,20.3,15.8c9.7-0.9,17.7-8.4,15.9-18.6
			c-1.9-11.1-12.8-16.3-23.1-16.6c-1.9,0-1.9,3,0,3c7.6,0.2,15.8,3.1,19.1,10.6c3.6,8.2-1,16.1-9.5,18.1c-6.6,1.6-15.3-0.6-18.5-7.1
			C207,57,211,41.3,221.7,44.9C223.6,45.5,224.3,42.6,222.5,42L222.5,42z"/>
	</g>
</g>
<g>
	<g>
		<path d="M218.3,66.8c0.5-3.3,1.8-6.2,2.9-9.2c1.1-2.9,1.6-6,2.8-8.8c-0.9,0.1-1.8,0.2-2.7,0.4c3.8,5.1,7.5,10.2,10.7,15.7
			c0.7-0.7,1.4-1.4,2.1-2.1c-6.2-4-13.4-5.5-20.2-7.8c-0.1,1-0.3,2-0.4,2.9c6.9-0.6,13.7-2.2,20.4-3.9c-0.5-0.8-1-1.7-1.5-2.5
			c-5.2,4.2-10.6,8.3-15.2,13.2c-1.3,1.4,0.8,3.5,2.1,2.1c4.6-4.9,9.9-9,15.2-13.2c1.2-1-0.1-2.8-1.5-2.5
			c-6.5,1.6-12.9,3.2-19.6,3.8c-1.7,0.1-2,2.4-0.4,2.9c6.6,2.3,13.6,3.7,19.5,7.5c1.3,0.8,2.8-0.8,2.1-2.1
			c-3.2-5.5-6.9-10.6-10.7-15.7c-0.8-1.1-2.2-0.9-2.7,0.4c-1.2,2.9-1.7,5.9-2.8,8.8c-1.2,3.1-2.4,6-2.9,9.2
			C215.1,67.9,218,68.7,218.3,66.8L218.3,66.8z"/>
	</g>
</g>
<g>
	<g>
		<path d="M228.7,103.4c14.6,0.2,29.1,0.3,43.7,0.2c1.9,0,1.9-3,0-3c-14.6,0.1-29.1,0-43.7-0.2C226.7,100.4,226.7,103.4,228.7,103.4
			L228.7,103.4z"/>
	</g>
</g>
<g>
	<g>
		<path d="M312.7,101.7c14.7,0.9,29.4,0.7,44-0.5c1.9-0.2,1.9-3.2,0-3c-14.7,1.2-29.3,1.4-44,0.5
			C310.7,98.6,310.7,101.6,312.7,101.7L312.7,101.7z"/>
	</g>
</g>
<g>
	<g>
		<path d="M313,114.8c14.7,0.5,29.3,1,44,1.4c1.9,0.1,1.9-2.9,0-3c-14.7-0.5-29.3-1-44-1.4C311.1,111.8,311.1,114.8,313,114.8
			L313,114.8z"/>
	</g>
</g>
<g>
	<g>
		<path d="M314.7,129.2c14.2,1,28.5,0.8,42.7-0.7c1.9-0.2,1.9-3.2,0-3c-14.2,1.5-28.4,1.8-42.7,0.7
			C312.7,126.1,312.7,129.1,314.7,129.2L314.7,129.2z"/>
	</g>
</g>
<g>
	<g>
		<path d="M396.7,101.5c15-0.2,30-0.4,45-0.7c1.9,0,1.9-3,0-3c-15,0.2-30,0.4-45,0.7C394.7,98.5,394.7,101.5,396.7,101.5
			L396.7,101.5z"/>
	</g>
</g>
<g>
	<g>
		<path d="M397.7,117c14.1,1.3,28.2,1.7,42.3,1c1.9-0.1,1.9-3.1,0-3c-14.1,0.7-28.2,0.3-42.3-1C395.8,113.8,395.8,116.9,397.7,117
			L397.7,117z"/>
	</g>
</g>
<g>
	<g>
		<path d="M394.3,131.2c15,0.1,30-0.3,45-1.4c1.9-0.1,1.9-3.1,0-3c-15,1.1-30,1.6-45,1.4C392.4,128.2,392.4,131.2,394.3,131.2
			L394.3,131.2z"/>
	</g>
</g>
<g>
	<g>
		<path d="M395.2,144.4c14.9,1.2,29.9-0.8,44.7,1.5c1.9,0.3,2.7-2.6,0.8-2.9c-15.1-2.3-30.4-0.3-45.5-1.6
			C393.3,141.2,393.3,144.2,395.2,144.4L395.2,144.4z"/>
	</g>
</g>
<g>
	<g>
		<path d="M396,158.9c13.5-0.4,26.9-0.1,40.3,0.9c1.9,0.1,1.9-2.9,0-3c-13.4-1-26.9-1.3-40.3-0.9C394.1,156,394.1,159,396,158.9
			L396,158.9z"/>
	</g>
</g>
<g>
	<g>
		<path d="M248.4,69.5c-3.7-1.5-9.5,1-7.5,5.7c0.9,2.1,2.9,2.5,4.6,3.7c0.5,0.3,2.8,2.4,2.2,3.3c-0.3,0.5-2.7,0.1-3.1,0
			c-0.9-0.2-1.7-0.7-2.4-1.2c-1.6-1.1-3.1,1.5-1.5,2.6c2.4,1.7,11.4,3.5,10.2-1.9c-0.5-2.1-2-4.2-3.8-5.3c-0.8-0.5-2-0.8-2.7-1.4
			c-0.9-0.9-1-2.3,0.5-2.9c0.9-0.3,1.9,0.1,2.7,0.4C249.4,73.1,250.2,70.2,248.4,69.5L248.4,69.5z"/>
	</g>
</g>
<g>
	<g>
		<path d="M243.8,67.7c0.3,6.3,0.6,12.7,0.9,19c0.1,1.9,3.1,1.9,3,0c-0.3-6.3-0.6-12.7-0.9-19C246.7,65.7,243.7,65.7,243.8,67.7
			L243.8,67.7z"/>
	</g>
</g>
<g>
	<g>
		<path d="M256.8,73.1c0.2-0.9,0.7-1.7,1.5-2.2c-0.9-0.4-1.7-0.7-2.6-1.1c0.2,6,0.3,11.9,0.5,17.9c0.1,1.9,3.1,1.9,3,0
			c-0.2-6-0.3-11.9-0.5-17.9c0-1.3-1.6-1.9-2.6-1.1c-1.1,1-1.8,2.1-2.2,3.5C253.3,74.1,256.2,74.9,256.8,73.1L256.8,73.1z"/>
	</g>
</g>
<g>
	<g>
		<path d="M335.3,70.1c-2.5-3.6-7-2-8.7,1.5c-0.9,1.8-1.1,3.6,0.1,5.3c0.7,0.9,1.7,1.6,2.7,2.2c0.4,0.3,1.3,0.7,1.6,1.2
			c-0.3,2.3-1,3-2.1,2.1c-0.5-0.2-1-0.5-1.4-0.9c-1.5-1.2-3,1.4-1.5,2.6c2.7,2,8.7,2.9,8.9-2.1c0.1-1.8-1.1-3.4-2.4-4.5
			c-0.8-0.7-2.3-1.3-3-2.2c-1.3-1.9,1.8-6,3.4-3.7C333.8,73.2,336.4,71.7,335.3,70.1L335.3,70.1z"/>
	</g>
</g>
<g>
	<g>
		<path d="M330.4,65.7c-0.8,8.1-1.8,16.2-2.9,24.2c-0.3,1.9,2.6,2.7,2.9,0.8c1.2-8.3,2.2-16.7,3-25
			C333.6,63.8,330.6,63.8,330.4,65.7L330.4,65.7z"/>
	</g>
</g>
<g>
	<g>
		<path d="M340.3,71.3c2.2,0.3,4.4,0.3,6.7,0.2c1.9-0.1,1.9-3.1,0-3c-2.2,0.1-4.5,0.1-6.7-0.2C338.4,68.1,338.4,71.1,340.3,71.3
			L340.3,71.3z"/>
	</g>
</g>
<g>
	<g>
		<path d="M339,69.9c-0.6,2.6-2.7,7.2,1.3,7.6c1.7,0.2,2.5,0.2,3.9,1.3c0.7,0.5,2,1.5,2.3,2.3c0.7,1.8-1.7,1.9-3.1,2
			c-1.4,0.1-2.7,0.1-4.1,0c-1.9-0.2-1.9,2.8,0,3c3.1,0.3,11.8,0.5,10.7-4.7c-0.4-2-2.4-3.8-3.9-5c-0.8-0.6-1.6-1.2-2.5-1.5
			c-1-0.4-2.6,0-3.4-0.5c0.2,0.4,0.5,0.9,0.7,1.3c0-1.6,0.6-3.4,1-5C342.4,68.8,339.5,68,339,69.9L339,69.9z"/>
	</g>
</g>
<g>
	<g>
		<path d="M404.3,68.5c-4.2-2.8-9.4,1.1-9.2,5.9c0.1,2.1,1.4,3.4,3.4,4c1.9,0.6,5,1.1,3.7,3.9c0,1-0.5,1.4-1.5,1.1
			c-0.7,0.1-1.4,0-2-0.2c-1.1-0.4-2.2-1.1-3.2-1.8c-1.6-1.1-3.1,1.5-1.5,2.6c2.4,1.6,5.2,3,8.1,2.4c2.4-0.5,3.9-2.2,3.7-4.7
			c-0.2-2-1.3-4.1-3-5.2c-1.2-0.7-3.1-0.4-4-1.5c-1.9-2.1,1.7-5.5,4.1-3.8C404.4,72.2,405.9,69.6,404.3,68.5L404.3,68.5z"/>
	</g>
</g>
<g>
	<g>
		<path d="M399.9,64.7c-2.2,7.4-4.6,15.5-4,23.3c0.1,1.9,3.1,1.9,3,0c-0.5-7.5,1.8-15.3,3.9-22.5C403.4,63.7,400.5,62.9,399.9,64.7
			L399.9,64.7z"/>
	</g>
</g>
<g>
	<g>
		<path d="M418.2,69.1c-4.3-2.4-10.4,6.3-5.8,8.8c2,1.1,5.9,1.5,7.8-0.1c2.1-1.7,1.1-4.9,0.7-7.1c-0.9,0.4-1.8,0.8-2.7,1.2
			c1.2,2.4,2,4.8,2.3,7.5c0.2,1.9,0.5,2.5-1.1,3.7c-1.8,1.4-3.1,1-5.1,0.1c-1.8-0.8-3.3,1.8-1.5,2.6c3.1,1.4,8.7,2.5,10.4-1.5
			c1.8-4.2-0.5-10.2-2.4-13.9c-0.8-1.6-3-0.4-2.7,1.2c0.4,2.3,0.9,4.6-2.3,4.2c-1.2-0.1-1.7,0-1.6-1.4c0.1-0.7,1.9-3,2.6-2.6
			C418.4,72.6,419.9,70,418.2,69.1L418.2,69.1z"/>
	</g>
</g>
<g>
	<g>
		<path d="M427.1,87.3c1.9,0,1.9-3,0-3C425.2,84.3,425.1,87.3,427.1,87.3L427.1,87.3z"/>
	</g>
</g>
<g>
	<g>
		<path d="M436.9,73.8c-0.1-2.3-2.2-3.8-4.5-2.7c-2.1,1-3.8,4.8-3.2,7c0.7,2.3,3.8,2.7,5.7,1.9c2.4-1,3.3-3.7,2.5-6.1
			c-0.9,0.4-1.8,0.8-2.7,1.2c0.9,1.8,1.6,3.7,1,5.7c-0.6,2.2-2.5,3.6-4.7,2.9c-1.9-0.5-2.6,2.3-0.8,2.9c3.1,0.9,6.2-0.4,7.7-3.2
			c1.7-3.2,0.9-6.8-0.7-9.8c-0.8-1.5-3.3-0.5-2.7,1.2c0.5,1.4-1.4,4-2.1,2.2c-0.2-0.5-0.1-0.9,0.2-1.3c0.2-0.8,0.6-1.4,1.3-1.7
			C434,75.7,437,75.7,436.9,73.8L436.9,73.8z"/>
	</g>
</g>
<g>
	<g>
		<path d="M446.2,74.7c1-1.9,0-4.2-2.3-4.3c-2.4-0.1-4.3,2.3-4.4,4.5c-0.5,6,9.9,4.1,8.1-1.3c-1,0.3-1.9,0.5-2.9,0.8
			c0.7,1.9,1.7,4.3,1.5,6.4c-0.3,3-4.5,3.2-6.8,3.5c-1.9,0.2-1.9,3.2,0,3c2.9-0.3,7.3-0.7,9.1-3.6c1.8-3,0.3-7.2-0.8-10.1
			c-0.7-1.8-3.5-1.1-2.9,0.8c-0.1,0.8-0.5,1.2-1.3,1.3c-0.8-1-0.7-1.8,0.2-2.5C442.7,74.9,445.3,76.4,446.2,74.7L446.2,74.7z"/>
	</g>
</g>
<g>
	<g>
		<path d="M429.7,69.4c4.8,0,9.6,0.2,14.3,0.6c1.9,0.2,1.9-2.8,0-3c-4.8-0.4-9.5-0.6-14.3-0.6C427.7,66.4,427.7,69.4,429.7,69.4
			L429.7,69.4z"/>
	</g>
</g>
<g>
	<g>
		<path d="M311.2,204.3c1,1.9,2.9,3.8,5.2,3.7c2.2-0.1,3.5-2.2,4.4-4c0.8-1.7-1.5-3.2-2.6-1.5c-1.5,2.4-2.9,4.9-4.2,7.4
			c-0.8,1.7,1.7,3.3,2.6,1.5c1.2-2.6,2.6-5,4.2-7.4c-0.9-0.5-1.7-1-2.6-1.5c-0.3,0.7-0.9,2.3-1.8,2.5c-1.1,0.3-2.1-1.4-2.6-2.2
			C312.9,201.1,310.3,202.6,311.2,204.3L311.2,204.3z"/>
	</g>
</g>
<g>
	<g>
		<path d="M322.7,213.8c1.8-3.5,3.5-6.9,5.3-10.4c-0.8,0.1-1.6,0.2-2.4,0.3c2,2.5,3.6,5.3,4.8,8.3c0.7,1.8,3.6,1,2.9-0.8
			c-1.4-3.5-3.2-6.7-5.5-9.7c-0.6-0.7-2-0.5-2.4,0.3c-1.8,3.5-3.5,6.9-5.3,10.4C319.2,214,321.8,215.6,322.7,213.8L322.7,213.8z"/>
	</g>
</g>
<g>
	<g>
		<path d="M326,210.8c0.8,0,1.7,0,2.5,0c0.8,0,1.5-0.7,1.5-1.5c0-0.8-0.7-1.5-1.5-1.5c-0.8,0-1.7,0-2.5,0c-0.8,0-1.5,0.7-1.5,1.5
			C324.5,210.1,325.2,210.8,326,210.8L326,210.8z"/>
	</g>
</g>
<g>
	<g>
		<path d="M344.4,212.7c-0.1-1.5-0.1-3-0.2-4.5c0-1.5-0.4-3.2-0.1-4.7c-0.2,0.3-0.5,0.6-0.7,0.9c0.7-0.5,2.3,0.4,2.8,0.8
			c0.9,0.6,1.6,1.5,2,2.4c0.3,0.9,0.5,1.8-0.4,2.4c-1,0.6-2.7,0.8-3.8,1.2c-1.8,0.6-1.1,3.5,0.8,2.9c2.7-0.8,6.5-1.2,6.6-4.7
			c0.1-2.5-1.3-4.9-3.3-6.4c-1.5-1.1-5-2.6-6.5-0.9c-1,1.1-0.5,3.3-0.4,4.6c0.1,2,0.1,4,0.2,6C341.5,214.7,344.5,214.7,344.4,212.7
			L344.4,212.7z"/>
	</g>
</g>
<g>
	<g>
		<path d="M355,214.9c1.8-3.2,3.2-6.6,4-10.2c-0.8,0.2-1.7,0.4-2.5,0.7c2.1,2.7,3.8,5.6,5.2,8.7c0.8,1.8,3.4,0.2,2.6-1.5
			c-1.5-3.4-3.4-6.4-5.6-9.3c-0.7-0.9-2.3-0.3-2.5,0.7c-0.8,3.3-2.1,6.5-3.7,9.5C351.5,215,354,216.5,355,214.9L355,214.9z"/>
	</g>
</g>
<g>
	<g>
		<path d="M357.7,212.6c0.9,0,1.8-0.1,2.8-0.1c0.8,0,1.5-0.7,1.5-1.5c0-0.8-0.7-1.5-1.5-1.5c-0.9,0-1.8,0.1-2.8,0.1
			c-0.8,0-1.5,0.7-1.5,1.5C356.2,211.9,356.9,212.6,357.7,212.6L357.7,212.6z"/>
	</g>
</g>
<g>
	<g>
		<path d="M282.3,221c-0.9,1.5-1.7,3.6-1.1,5.4c0.6,1.8,2.7,1.8,4.3,1.8c1.6,0,3.2,0,4.5-1.1c1.4-1.2,1.6-2.9,1.9-4.7
			c0.3-1.9-2.6-2.7-2.9-0.8c-0.2,1.7-0.2,3.4-2.3,3.5c-0.5,0-2,0.2-2.4-0.1c-0.2,0.1-0.3,0-0.2-0.2c0-0.3,0-0.6,0.1-0.8
			c0.1-0.6,0.4-1.1,0.7-1.6C285.9,220.9,283.3,219.4,282.3,221L282.3,221z"/>
	</g>
</g>
<g>
	<g>
		<path d="M298.5,216.3c-1.8,0.3-3.3,1.4-4.3,2.9c-0.9,1.2-2.1,3.6-1.7,5.2c0.4,1.6,2.5,2.4,3.9,2.7c2.1,0.5,4.2,0.1,6.3-0.4
			c1.9-0.4,1.1-3.3-0.8-2.9c-1.2,0.3-2.4,0.5-3.6,0.5c-0.5,0-2.5-0.2-2.7-0.7c-0.3-0.5,0.7-2.2,1.1-2.7c0.7-1,1.5-1.6,2.7-1.8
			C301.2,218.8,300.4,215.9,298.5,216.3L298.5,216.3z"/>
	</g>
</g>
<g>
	<g>
		<path d="M307.4,225.9c-0.3-1.9-0.9-5.1,0.1-6.9c-0.3,0.2-0.6,0.5-0.9,0.7c0.8-0.2,3-0.2,3.7,0.4c1.4,1.1-2.7,1.3-3.3,1.3
			c-1.7,0.1-2,2.4-0.4,2.9c1.8,0.6,3.2,1.8,3.8,3.6c0.6,1.8,3.5,1,2.9-0.8c-1-2.8-3.1-4.7-5.9-5.7c-0.1,1-0.3,2-0.4,2.9
			c2.2-0.1,5.4-0.2,6.4-2.5c0.9-2-0.4-4-2.4-4.7c-1.7-0.5-5.4-1.3-6.4,0.6c-1.2,2.5-0.7,6.3-0.2,8.9
			C304.8,228.6,307.7,227.8,307.4,225.9L307.4,225.9z"/>
	</g>
</g>
<g>
	<g>
		<path d="M314.5,219.1c0.4,1.5,0.8,3,0.8,4.6c0.1,1.1-0.3,2.7,0.2,3.7c1.1,1.9,4.8,1.4,6.5,1.2c1.9-0.3,1.1-3.2-0.8-2.9
			c-0.7,0.1-1.4,0.2-2.1,0.1c-0.3,0-1.5-0.4-1.3-0.2c0.1,0.4,0.3,0.7,0.4,1.1c-0.1-1.4,0-2.8-0.1-4.2c-0.2-1.4-0.4-2.8-0.8-4.1
			C316.8,216.4,313.9,217.2,314.5,219.1L314.5,219.1z"/>
	</g>
</g>
<g>
	<g>
		<path d="M317.1,224.3c0.9-0.1,1.9-0.2,2.8-0.3c0.8-0.1,1.2-1.1,1-1.8c-0.2-0.8-1-1.2-1.8-1c-0.6,0.1-1.3,0.2-2,0.2
			c-0.8,0-1.5,0.7-1.5,1.5C315.6,223.5,316.3,224.3,317.1,224.3L317.1,224.3z"/>
	</g>
</g>
<g>
	<g>
		<path d="M316.8,220.2c1.7,0,3.3,0,5-0.1c1.9-0.1,1.9-3.1,0-3c-1.7,0.1-3.3,0.1-5,0.1C314.8,217.2,314.8,220.2,316.8,220.2
			L316.8,220.2z"/>
	</g>
</g>
<g>
	<g>
		<path d="M325.6,220.4c2.4,0.2,4.9,0.3,7.3,0.3c1.9,0,1.9-3,0-3c-2.4,0-4.9-0.1-7.3-0.3C323.7,217.2,323.7,220.2,325.6,220.4
			L325.6,220.4z"/>
	</g>
</g>
<g>
	<g>
		<path d="M327.4,219.4c0,2.6,0.1,5.1,0.2,7.7c0.1,1.9,3.1,1.9,3,0c-0.1-2.6-0.2-5.1-0.2-7.7C330.4,217.5,327.4,217.5,327.4,219.4
			L327.4,219.4z"/>
	</g>
</g>
<g>
	<g>
		<path d="M340.7,217.9c-2.7-0.7-6.5,1.4-6.4,4.4c0.1,1.4,1.1,2.4,2.5,2.7c0.4,0.1,0.7,0,1.1,0.1c0.2,0,0.3,0,0.5,0
			c0.5,0.2,0.5,0.4,0.1,0.4c-0.6,0.6-2.6,0.5-3.3,0.4c-1.9-0.3-2.7,2.6-0.8,2.9c2.5,0.4,7.9,0,7.3-3.8c-0.2-1.4-1.3-2.6-2.7-2.9
			c-0.3-0.1-0.7,0-1.1-0.1c-0.5-0.1-0.4,0.2-0.4-0.2c0-0.9,2-1.3,2.5-1.1C341.7,221.3,342.5,218.4,340.7,217.9L340.7,217.9z"/>
	</g>
</g>
<g>
	<g>
		<path d="M348.4,220.7c1.7,0,3.9-0.1,5.6,0.4c-0.3-0.2-0.6-0.5-0.9-0.7c0,0.1,0.1,0.2,0.1,0.2c-0.1-0.4-0.1-0.8-0.2-1.2
			c-0.5,3.5-3.9,4.6-6.3,6.6c-1.2,1,0.1,2.8,1.5,2.5c1.9-0.4,3.9-0.5,5.9-0.4c1.9,0.1,1.9-2.9,0-3c-2.2-0.1-4.4,0.1-6.7,0.5
			c0.5,0.8,1,1.7,1.5,2.5c1.3-1.1,3-1.8,4.3-3c1.2-1.1,2.1-2.6,2.6-4.1c1.3-4-4.9-3.4-7.3-3.4C346.5,217.7,346.5,220.7,348.4,220.7
			L348.4,220.7z"/>
	</g>
</g>
<g>
	<g>
		<path d="M364.8,227.2c-0.2-1.4-0.4-2.8-0.5-4.2c-0.1-1.4-0.7-2.7,0.9-3.2c0.6-0.2,1.2-0.4,1.8,0c0.1,0.1,0.8,0.7,0.8,0.8
			c-0.3,0.8-3.6,1.1-4.2,1.2c-1.9,0.2-1.9,3.2,0,3c2.1-0.2,6.1-0.7,7-3.1c0.7-2-1-4.6-3-5c-1.9-0.5-5.2,0.4-6.2,2.3
			c-0.5,1.1-0.2,2.5-0.1,3.7c0.2,1.8,0.4,3.6,0.7,5.3C362.2,229.9,365.1,229.1,364.8,227.2L364.8,227.2z"/>
	</g>
</g>
<g>
	<g>
		<path d="M370.8,218.8c1,2.8-0.1,5.6,0.6,8.4c0.7,2.6,4.9,1.8,6.8,1.8c1.9,0,1.9-3,0-3c-1.5,0-3.4,0.2-4.8-0.2c0.3,0.3,0.7,0.7,1,1
			c-0.5-1.4-0.1-3.2-0.1-4.6c0-1.4-0.1-2.8-0.6-4.2C373.1,216.2,370.2,216.9,370.8,218.8L370.8,218.8z"/>
	</g>
</g>
<g>
	<g>
		<path d="M383.1,227.2c0.2-1.2,0.5-2.4,0.8-3.6c0.2-1,0.4-2.6,1-3.5c-0.4,0.2-0.9,0.5-1.3,0.7c-0.7,0,0.5,0.8,0.8,1.1
			c0.5,0.5,0.9,1.1,1.4,1.7c0.8,1.2,1.4,2.5,1.9,3.8c0.1-0.4,0.1-0.8,0.2-1.2c0,0.1-0.1,0.2-0.1,0.2c-0.8,1.7,1.8,3.3,2.6,1.5
			c0.7-1.6-0.5-3.6-1.3-5c-1-1.7-2.3-3.4-3.9-4.6c-1.5-1.1-2.6-0.3-3.2,1.3c-0.7,2.2-1.2,4.4-1.6,6.7
			C379.9,228.3,382.8,229.1,383.1,227.2L383.1,227.2z"/>
	</g>
</g>
<g>
	<g>
		<path d="M383.1,226.4c1.4,0,2.8-0.1,4.2-0.3c0.8-0.1,1.5-0.6,1.5-1.5c0-0.7-0.7-1.6-1.5-1.5c-1.4,0.1-2.8,0.2-4.2,0.3
			C381.2,223.4,381.2,226.4,383.1,226.4L383.1,226.4z"/>
	</g>
</g>
<g>
	<g>
		<path d="M394.3,227.5c-0.2-2.9-0.2-5.8-0.2-8.7c-0.9,0.3-1.9,0.5-2.8,0.8c2.1,3.1,4.4,5.9,7,8.5c0.9,0.9,2.7,0.3,2.6-1.1
			c-0.2-3.3-0.7-6.6-1.1-9.9c-0.3-1.9-3.2-1.1-2.9,0.8c0.4,3,0.8,6.1,1,9.1c0.9-0.4,1.7-0.7,2.6-1.1c-2.5-2.4-4.6-5-6.6-7.9
			c-0.8-1.2-2.8-0.8-2.8,0.8c0,2.9,0.1,5.8,0.2,8.7C391.4,229.4,394.4,229.4,394.3,227.5L394.3,227.5z"/>
	</g>
</g>
<g>
	<g>
		<path d="M284.4,219.1c1.9,0,1.9-3,0-3C282.4,216.1,282.4,219.1,284.4,219.1L284.4,219.1z"/>
	</g>
</g>
<g>
	<g>
		<path d="M290.6,219.1c1.9,0,1.9-3,0-3C288.7,216.1,288.7,219.1,290.6,219.1L290.6,219.1z"/>
	</g>
</g>
<g>
	<g>
		<path d="M345.7,227.1c-0.1-1.3-0.1-2.7,0.1-4c0.1-0.8-0.2-1.6-1-1.8c-0.7-0.2-1.7,0.2-1.8,1c-0.2,1.6-0.3,3.2-0.2,4.8
			c0.1,0.8,0.6,1.5,1.5,1.5C345,228.6,345.8,227.9,345.7,227.1L345.7,227.1z"/>
	</g>
</g>
<g>
	<g>
		<path d="M344.6,220.5c1.9,0,1.9-3,0-3C342.7,217.5,342.7,220.5,344.6,220.5L344.6,220.5z"/>
	</g>
</g>
</svg>
