<?xml version="1.0" encoding="UTF-8"?>
<svg width="100px" height="50px" viewBox="0 0 100 50" id="logo" version="1.1" xmlns="http://www.w3.org/2000/svg" xmlns:xlink="http://www.w3.org/1999/xlink" x="0px" y="0px" style="enable-background:new 0 0 100 50" xml:space="preserve">
  <polygon points="33.8,14.9 24.9,14.9 17.7,25.1 10.5,14.9 1.5,14.9 13,30.6 1.5,46.2 10.5,46.2 17.7,36.1 24.9,46.2 33.8,46.2 
          22.3,30.6 "/>
  <path d="M50.5,14.9c-3.1,0-6,0.9-8.4,2.5v-2.5h-7.3v31.3h7.3V30.6c0-4.6,3.8-8.4,8.4-8.4c4.6,0,8.4,3.8,8.4,8.4v15.7h7.3V30.6
          C66.2,21.9,59.2,14.9,50.5,14.9z"/>
  <path d="M82.8,14.9c-3.1,0-6,0.9-8.4,2.5V4.5h-7.3v41.7h7.3v-2.5c2.4,1.5,5.3,2.5,8.4,2.5c8.7,0,15.7-7,15.7-15.7
          C98.5,21.9,91.5,14.9,82.8,14.9z M82.8,39c-4.6,0-8.4-3.8-8.4-8.4s3.8-8.4,8.4-8.4c4.6,0,8.4,3.8,8.4,8.4S87.5,39,82.8,39z"/>
</svg>